{
  "header": {
    "keySignatures": [
      {
        "key": "C",
        "scale": "major",
        "ticks": 0
      }
    ],
    "meta": [
      {
        "text": "George Winston (December)\n",
        "ticks": 0,
        "type": "text"
      },
      {
        "text": "¡»Ant ¡»\n",
        "ticks": 0,
        "type": "text"
      },
      {
        "text": "¡· E-Mail ¡· antyeh@tpts4.seed.net.tw\n",
        "ticks": 0,
        "type": "text"
      }
    ],
    "name": "Variation on the Kanon by Johann Pachelbel",
    "ppq": 120,
    "tempos": [
      {
        "bpm": 62.99999685000016,
        "ticks": 0
      },
      {
        "bpm": 64,
        "ticks": 3840
      },
      {
        "bpm": 64.99999458333379,
        "ticks": 4080
      },
      {
        "bpm": 65.99999340000066,
        "ticks": 4320
      },
      {
        "bpm": 67.00002903334591,
        "ticks": 4560
      },
      {
        "bpm": 67.99999546666697,
        "ticks": 4800
      },
      {
        "bpm": 67.99999546666697,
        "ticks": 7678
      },
      {
        "bpm": 69.00001725000432,
        "ticks": 8000
      },
      {
        "bpm": 69.99998833333528,
        "ticks": 8322
      },
      {
        "bpm": 71.00003550001774,
        "ticks": 8642
      },
      {
        "bpm": 72.00002880001152,
        "ticks": 13440
      },
      {
        "bpm": 72.00002880001152,
        "ticks": 14152
      },
      {
        "bpm": 72.99998296667064,
        "ticks": 14160
      },
      {
        "bpm": 72.00002880001152,
        "ticks": 43200
      },
      {
        "bpm": 71.00003550001774,
        "ticks": 43270
      },
      {
        "bpm": 69.99998833333528,
        "ticks": 43340
      },
      {
        "bpm": 69.00001725000432,
        "ticks": 43410
      },
      {
        "bpm": 67.99999546666697,
        "ticks": 43480
      },
      {
        "bpm": 67.00002903334591,
        "ticks": 43550
      },
      {
        "bpm": 65.99999340000066,
        "ticks": 43620
      },
      {
        "bpm": 64.99999458333379,
        "ticks": 43690
      },
      {
        "bpm": 64,
        "ticks": 43760
      },
      {
        "bpm": 62.99999685000016,
        "ticks": 43830
      },
      {
        "bpm": 61.99999586666694,
        "ticks": 43900
      },
      {
        "bpm": 60.99997255001235,
        "ticks": 43970
      },
      {
        "bpm": 60,
        "ticks": 44040
      },
      {
        "bpm": 60,
        "ticks": 44042
      },
      {
        "bpm": 8,
        "ticks": 44158
      },
      {
        "bpm": 8,
        "ticks": 44162
      },
      {
        "bpm": 8.999999550000023,
        "ticks": 44164
      },
      {
        "bpm": 10,
        "ticks": 44168
      },
      {
        "bpm": 11.000000916666743,
        "ticks": 44170
      },
      {
        "bpm": 12,
        "ticks": 44172
      },
      {
        "bpm": 12.999998916666756,
        "ticks": 44176
      },
      {
        "bpm": 14.000000933333396,
        "ticks": 44178
      },
      {
        "bpm": 15,
        "ticks": 44180
      },
      {
        "bpm": 16,
        "ticks": 44184
      },
      {
        "bpm": 16.999998866666743,
        "ticks": 44186
      },
      {
        "bpm": 18.00000180000018,
        "ticks": 44188
      },
      {
        "bpm": 18.9999984166668,
        "ticks": 44192
      },
      {
        "bpm": 20,
        "ticks": 44194
      },
      {
        "bpm": 20.99999895000005,
        "ticks": 44196
      },
      {
        "bpm": 21.99999780000022,
        "ticks": 44200
      },
      {
        "bpm": 22.999996933333744,
        "ticks": 44202
      },
      {
        "bpm": 24,
        "ticks": 44206
      },
      {
        "bpm": 25,
        "ticks": 44208
      },
      {
        "bpm": 26.000003466667128,
        "ticks": 44210
      },
      {
        "bpm": 27.00000270000027,
        "ticks": 44214
      },
      {
        "bpm": 28.000001866666793,
        "ticks": 44216
      },
      {
        "bpm": 28.999993233334912,
        "ticks": 44218
      },
      {
        "bpm": 30,
        "ticks": 44222
      },
      {
        "bpm": 30.99999793333347,
        "ticks": 44224
      },
      {
        "bpm": 32,
        "ticks": 44226
      },
      {
        "bpm": 32.99999670000033,
        "ticks": 44230
      },
      {
        "bpm": 33.99999773333349,
        "ticks": 44232
      },
      {
        "bpm": 34.99999416666764,
        "ticks": 44234
      },
      {
        "bpm": 35.99999280000144,
        "ticks": 44238
      },
      {
        "bpm": 36.99999136666868,
        "ticks": 44240
      },
      {
        "bpm": 38.000008866668736,
        "ticks": 44244
      },
      {
        "bpm": 38.99998830000351,
        "ticks": 44246
      },
      {
        "bpm": 40,
        "ticks": 44248
      },
      {
        "bpm": 40.99998975000256,
        "ticks": 44252
      },
      {
        "bpm": 42.00001260000378,
        "ticks": 44254
      },
      {
        "bpm": 42.99999498333392,
        "ticks": 44256
      },
      {
        "bpm": 44.000011733336464,
        "ticks": 44260
      },
      {
        "bpm": 45.000011250002814,
        "ticks": 44262
      },
      {
        "bpm": 45.99999386666749,
        "ticks": 44264
      },
      {
        "bpm": 46.99999060000188,
        "ticks": 44268
      },
      {
        "bpm": 48,
        "ticks": 44270
      },
      {
        "bpm": 48.9999918333347,
        "ticks": 44272
      },
      {
        "bpm": 50,
        "ticks": 44276
      },
      {
        "bpm": 50.99998215000625,
        "ticks": 44278
      },
      {
        "bpm": 52.000006933334255,
        "ticks": 44280
      },
      {
        "bpm": 53.000022083342536,
        "ticks": 44630
      }
    ],
    "timeSignatures": [
      {
        "ticks": 0,
        "timeSignature": [
          4,
          4
        ],
        "measures": 0
      }
    ]
  },
  "tracks": [
    {
      "channel": 0,
      "controlChanges": {},
      "pitchBends": [],
      "instrument": {
        "family": "piano",
        "number": 0,
        "name": "acoustic grand piano"
      },
      "name": "Variation on the Kanon by Johann Pachelbel",
      "notes": [
        {
          "duration": 1.904762,
          "durationTicks": 240,
          "midi": 55,
          "name": "G3",
          "ticks": 0,
          "time": 0,
          "velocity": 0.7874015748031497
        },
        {
          "duration": 1.904762,
          "durationTicks": 240,
          "midi": 64,
          "name": "E4",
          "ticks": 0,
          "time": 0,
          "velocity": 0.7874015748031497
        },
        {
          "duration": 1.904762,
          "durationTicks": 240,
          "midi": 59,
          "name": "B3",
          "ticks": 240,
          "time": 1.904762,
          "velocity": 0.7874015748031497
        },
        {
          "duration": 1.904762,
          "durationTicks": 240,
          "midi": 62,
          "name": "D4",
          "ticks": 240,
          "time": 1.904762,
          "velocity": 0.7874015748031497
        },
        {
          "duration": 1.9047620000000003,
          "durationTicks": 240,
          "midi": 52,
          "name": "E3",
          "ticks": 480,
          "time": 3.809524,
          "velocity": 0.7874015748031497
        },
        {
          "duration": 1.9047620000000003,
          "durationTicks": 240,
          "midi": 60,
          "name": "C4",
          "ticks": 480,
          "time": 3.809524,
          "velocity": 0.7874015748031497
        },
        {
          "duration": 1.9047619999999998,
          "durationTicks": 240,
          "midi": 55,
          "name": "G3",
          "ticks": 720,
          "time": 5.714286,
          "velocity": 0.7874015748031497
        },
        {
          "duration": 1.9047620000000007,
          "durationTicks": 240,
          "midi": 53,
          "name": "F3",
          "ticks": 960,
          "time": 7.619048,
          "velocity": 0.7874015748031497
        },
        {
          "duration": 1.9047620000000007,
          "durationTicks": 240,
          "midi": 57,
          "name": "A3",
          "ticks": 960,
          "time": 7.619048,
          "velocity": 0.7874015748031497
        },
        {
          "duration": 1.9047619999999998,
          "durationTicks": 240,
          "midi": 52,
          "name": "E3",
          "ticks": 1200,
          "time": 9.523810000000001,
          "velocity": 0.7874015748031497
        },
        {
          "duration": 1.9047619999999998,
          "durationTicks": 240,
          "midi": 60,
          "name": "C4",
          "ticks": 1200,
          "time": 9.523810000000001,
          "velocity": 0.7874015748031497
        },
        {
          "duration": 1.9047619999999998,
          "durationTicks": 240,
          "midi": 53,
          "name": "F3",
          "ticks": 1440,
          "time": 11.428572,
          "velocity": 0.7874015748031497
        },
        {
          "duration": 1.9047619999999998,
          "durationTicks": 240,
          "midi": 57,
          "name": "A3",
          "ticks": 1440,
          "time": 11.428572,
          "velocity": 0.7874015748031497
        },
        {
          "duration": 1.9047619999999998,
          "durationTicks": 240,
          "midi": 55,
          "name": "G3",
          "ticks": 1680,
          "time": 13.333334,
          "velocity": 0.7874015748031497
        },
        {
          "duration": 1.9047619999999998,
          "durationTicks": 240,
          "midi": 59,
          "name": "B3",
          "ticks": 1680,
          "time": 13.333334,
          "velocity": 0.7874015748031497
        },
        {
          "duration": 1.9047619999999998,
          "durationTicks": 240,
          "midi": 67,
          "name": "G4",
          "ticks": 1920,
          "time": 15.238096,
          "velocity": 0.7874015748031497
        },
        {
          "duration": 1.9047619999999998,
          "durationTicks": 240,
          "midi": 72,
          "name": "C5",
          "ticks": 1920,
          "time": 15.238096,
          "velocity": 0.7874015748031497
        },
        {
          "duration": 1.9047619999999998,
          "durationTicks": 240,
          "midi": 76,
          "name": "E5",
          "ticks": 1920,
          "time": 15.238096,
          "velocity": 0.7874015748031497
        },
        {
          "duration": 1.9047620000000016,
          "durationTicks": 240,
          "midi": 67,
          "name": "G4",
          "ticks": 2160,
          "time": 17.142858,
          "velocity": 0.7874015748031497
        },
        {
          "duration": 1.9047620000000016,
          "durationTicks": 240,
          "midi": 71,
          "name": "B4",
          "ticks": 2160,
          "time": 17.142858,
          "velocity": 0.7874015748031497
        },
        {
          "duration": 1.9047620000000016,
          "durationTicks": 240,
          "midi": 74,
          "name": "D5",
          "ticks": 2160,
          "time": 17.142858,
          "velocity": 0.7874015748031497
        },
        {
          "duration": 1.904761999999998,
          "durationTicks": 240,
          "midi": 64,
          "name": "E4",
          "ticks": 2400,
          "time": 19.047620000000002,
          "velocity": 0.7874015748031497
        },
        {
          "duration": 1.904761999999998,
          "durationTicks": 240,
          "midi": 69,
          "name": "A4",
          "ticks": 2400,
          "time": 19.047620000000002,
          "velocity": 0.7874015748031497
        },
        {
          "duration": 1.904761999999998,
          "durationTicks": 240,
          "midi": 72,
          "name": "C5",
          "ticks": 2400,
          "time": 19.047620000000002,
          "velocity": 0.7874015748031497
        },
        {
          "duration": 1.9047620000000016,
          "durationTicks": 240,
          "midi": 64,
          "name": "E4",
          "ticks": 2640,
          "time": 20.952382,
          "velocity": 0.7874015748031497
        },
        {
          "duration": 1.9047620000000016,
          "durationTicks": 240,
          "midi": 67,
          "name": "G4",
          "ticks": 2640,
          "time": 20.952382,
          "velocity": 0.7874015748031497
        },
        {
          "duration": 1.9047620000000016,
          "durationTicks": 240,
          "midi": 71,
          "name": "B4",
          "ticks": 2640,
          "time": 20.952382,
          "velocity": 0.7874015748031497
        },
        {
          "duration": 1.904761999999998,
          "durationTicks": 240,
          "midi": 60,
          "name": "C4",
          "ticks": 2880,
          "time": 22.857144,
          "velocity": 0.7874015748031497
        },
        {
          "duration": 1.904761999999998,
          "durationTicks": 240,
          "midi": 65,
          "name": "F4",
          "ticks": 2880,
          "time": 22.857144,
          "velocity": 0.7874015748031497
        },
        {
          "duration": 1.904761999999998,
          "durationTicks": 240,
          "midi": 69,
          "name": "A4",
          "ticks": 2880,
          "time": 22.857144,
          "velocity": 0.7874015748031497
        },
        {
          "duration": 1.9047620000000016,
          "durationTicks": 240,
          "midi": 60,
          "name": "C4",
          "ticks": 3120,
          "time": 24.761906,
          "velocity": 0.7874015748031497
        },
        {
          "duration": 1.9047620000000016,
          "durationTicks": 240,
          "midi": 64,
          "name": "E4",
          "ticks": 3120,
          "time": 24.761906,
          "velocity": 0.7874015748031497
        },
        {
          "duration": 1.9047620000000016,
          "durationTicks": 240,
          "midi": 67,
          "name": "G4",
          "ticks": 3120,
          "time": 24.761906,
          "velocity": 0.7874015748031497
        },
        {
          "duration": 1.904761999999998,
          "durationTicks": 240,
          "midi": 60,
          "name": "C4",
          "ticks": 3360,
          "time": 26.666668,
          "velocity": 0.7874015748031497
        },
        {
          "duration": 1.904761999999998,
          "durationTicks": 240,
          "midi": 65,
          "name": "F4",
          "ticks": 3360,
          "time": 26.666668,
          "velocity": 0.7874015748031497
        },
        {
          "duration": 1.904761999999998,
          "durationTicks": 240,
          "midi": 69,
          "name": "A4",
          "ticks": 3360,
          "time": 26.666668,
          "velocity": 0.7874015748031497
        },
        {
          "duration": 1.9047620000000016,
          "durationTicks": 240,
          "midi": 62,
          "name": "D4",
          "ticks": 3600,
          "time": 28.57143,
          "velocity": 0.7874015748031497
        },
        {
          "duration": 1.9047620000000016,
          "durationTicks": 240,
          "midi": 67,
          "name": "G4",
          "ticks": 3600,
          "time": 28.57143,
          "velocity": 0.7874015748031497
        },
        {
          "duration": 1.9047620000000016,
          "durationTicks": 240,
          "midi": 71,
          "name": "B4",
          "ticks": 3600,
          "time": 28.57143,
          "velocity": 0.7874015748031497
        },
        {
          "duration": 1.8749999999999964,
          "durationTicks": 240,
          "midi": 67,
          "name": "G4",
          "ticks": 3840,
          "time": 30.476192,
          "velocity": 0.7874015748031497
        },
        {
          "duration": 1.8749999999999964,
          "durationTicks": 240,
          "midi": 72,
          "name": "C5",
          "ticks": 3840,
          "time": 30.476192,
          "velocity": 0.7874015748031497
        },
        {
          "duration": 1.8749999999999964,
          "durationTicks": 240,
          "midi": 76,
          "name": "E5",
          "ticks": 3840,
          "time": 30.476192,
          "velocity": 0.7874015748031497
        },
        {
          "duration": 0.9230769999999993,
          "durationTicks": 120,
          "midi": 67,
          "name": "G4",
          "ticks": 4080,
          "time": 32.351192,
          "velocity": 0.7874015748031497
        },
        {
          "duration": 1.8461539999999985,
          "durationTicks": 240,
          "midi": 74,
          "name": "D5",
          "ticks": 4080,
          "time": 32.351192,
          "velocity": 0.7874015748031497
        },
        {
          "duration": 0.9230769999999993,
          "durationTicks": 120,
          "midi": 65,
          "name": "F4",
          "ticks": 4200,
          "time": 33.274269,
          "velocity": 0.7874015748031497
        },
        {
          "duration": 1.8181820000000002,
          "durationTicks": 240,
          "midi": 64,
          "name": "E4",
          "ticks": 4320,
          "time": 34.197345999999996,
          "velocity": 0.7874015748031497
        },
        {
          "duration": 1.8181820000000002,
          "durationTicks": 240,
          "midi": 69,
          "name": "A4",
          "ticks": 4320,
          "time": 34.197345999999996,
          "velocity": 0.7874015748031497
        },
        {
          "duration": 1.8181820000000002,
          "durationTicks": 240,
          "midi": 72,
          "name": "C5",
          "ticks": 4320,
          "time": 34.197345999999996,
          "velocity": 0.7874015748031497
        },
        {
          "duration": 0.8955219999999997,
          "durationTicks": 120,
          "midi": 64,
          "name": "E4",
          "ticks": 4560,
          "time": 36.015527999999996,
          "velocity": 0.7874015748031497
        },
        {
          "duration": 1.7910439999999994,
          "durationTicks": 240,
          "midi": 67,
          "name": "G4",
          "ticks": 4560,
          "time": 36.015527999999996,
          "velocity": 0.7874015748031497
        },
        {
          "duration": 1.7910439999999994,
          "durationTicks": 240,
          "midi": 71,
          "name": "B4",
          "ticks": 4560,
          "time": 36.015527999999996,
          "velocity": 0.7874015748031497
        },
        {
          "duration": 0.8955219999999997,
          "durationTicks": 120,
          "midi": 62,
          "name": "D4",
          "ticks": 4680,
          "time": 36.911049999999996,
          "velocity": 0.7874015748031497
        },
        {
          "duration": 1.7647059999999968,
          "durationTicks": 240,
          "midi": 57,
          "name": "A3",
          "ticks": 4800,
          "time": 37.806571999999996,
          "velocity": 0.7874015748031497
        },
        {
          "duration": 1.7647059999999968,
          "durationTicks": 240,
          "midi": 60,
          "name": "C4",
          "ticks": 4800,
          "time": 37.806571999999996,
          "velocity": 0.7874015748031497
        },
        {
          "duration": 1.7647059999999968,
          "durationTicks": 240,
          "midi": 69,
          "name": "A4",
          "ticks": 4800,
          "time": 37.806571999999996,
          "velocity": 0.7874015748031497
        },
        {
          "duration": 0.8823530000000019,
          "durationTicks": 120,
          "midi": 60,
          "name": "C4",
          "ticks": 5040,
          "time": 39.57127799999999,
          "velocity": 0.7874015748031497
        },
        {
          "duration": 1.7647060000000039,
          "durationTicks": 240,
          "midi": 55,
          "name": "G3",
          "ticks": 5040,
          "time": 39.57127799999999,
          "velocity": 0.7874015748031497
        },
        {
          "duration": 1.7647060000000039,
          "durationTicks": 240,
          "midi": 67,
          "name": "G4",
          "ticks": 5040,
          "time": 39.57127799999999,
          "velocity": 0.7874015748031497
        },
        {
          "duration": 0.8823530000000019,
          "durationTicks": 120,
          "midi": 64,
          "name": "E4",
          "ticks": 5160,
          "time": 40.453630999999994,
          "velocity": 0.7874015748031497
        },
        {
          "duration": 1.7647059999999968,
          "durationTicks": 240,
          "midi": 57,
          "name": "A3",
          "ticks": 5280,
          "time": 41.335983999999996,
          "velocity": 0.7874015748031497
        },
        {
          "duration": 1.7647059999999968,
          "durationTicks": 240,
          "midi": 62,
          "name": "D4",
          "ticks": 5280,
          "time": 41.335983999999996,
          "velocity": 0.7874015748031497
        },
        {
          "duration": 1.7647059999999968,
          "durationTicks": 240,
          "midi": 69,
          "name": "A4",
          "ticks": 5280,
          "time": 41.335983999999996,
          "velocity": 0.7874015748031497
        },
        {
          "duration": 0.8823530000000019,
          "durationTicks": 120,
          "midi": 67,
          "name": "G4",
          "ticks": 5520,
          "time": 43.10068999999999,
          "velocity": 0.7874015748031497
        },
        {
          "duration": 1.7647060000000039,
          "durationTicks": 240,
          "midi": 59,
          "name": "B3",
          "ticks": 5520,
          "time": 43.10068999999999,
          "velocity": 0.7874015748031497
        },
        {
          "duration": 1.7647060000000039,
          "durationTicks": 240,
          "midi": 71,
          "name": "B4",
          "ticks": 5520,
          "time": 43.10068999999999,
          "velocity": 0.7874015748031497
        },
        {
          "duration": 0.8823530000000019,
          "durationTicks": 120,
          "midi": 65,
          "name": "F4",
          "ticks": 5640,
          "time": 43.983042999999995,
          "velocity": 0.7874015748031497
        },
        {
          "duration": 1.7647059999999968,
          "durationTicks": 240,
          "midi": 64,
          "name": "E4",
          "ticks": 5760,
          "time": 44.865396,
          "velocity": 0.7874015748031497
        },
        {
          "duration": 1.7647059999999968,
          "durationTicks": 240,
          "midi": 72,
          "name": "C5",
          "ticks": 5760,
          "time": 44.865396,
          "velocity": 0.7874015748031497
        },
        {
          "duration": 0.8823530000000019,
          "durationTicks": 120,
          "midi": 67,
          "name": "G4",
          "ticks": 6000,
          "time": 46.630101999999994,
          "velocity": 0.7874015748031497
        },
        {
          "duration": 1.7647060000000039,
          "durationTicks": 240,
          "midi": 71,
          "name": "B4",
          "ticks": 6000,
          "time": 46.630101999999994,
          "velocity": 0.7874015748031497
        },
        {
          "duration": 0.8823530000000019,
          "durationTicks": 120,
          "midi": 65,
          "name": "F4",
          "ticks": 6120,
          "time": 47.512454999999996,
          "velocity": 0.7874015748031497
        },
        {
          "duration": 0.8823529999999948,
          "durationTicks": 120,
          "midi": 64,
          "name": "E4",
          "ticks": 6240,
          "time": 48.394808,
          "velocity": 0.7874015748031497
        },
        {
          "duration": 0.8823529999999948,
          "durationTicks": 120,
          "midi": 72,
          "name": "C5",
          "ticks": 6240,
          "time": 48.394808,
          "velocity": 0.7874015748031497
        },
        {
          "duration": 0.8823530000000019,
          "durationTicks": 120,
          "midi": 69,
          "name": "A4",
          "ticks": 6360,
          "time": 49.27716099999999,
          "velocity": 0.7874015748031497
        },
        {
          "duration": 0.8823530000000019,
          "durationTicks": 120,
          "midi": 76,
          "name": "E5",
          "ticks": 6360,
          "time": 49.27716099999999,
          "velocity": 0.7874015748031497
        },
        {
          "duration": 0.8823530000000019,
          "durationTicks": 120,
          "midi": 76,
          "name": "E5",
          "ticks": 6480,
          "time": 50.159513999999994,
          "velocity": 0.7874015748031497
        },
        {
          "duration": 0.8823530000000019,
          "durationTicks": 120,
          "midi": 79,
          "name": "G5",
          "ticks": 6480,
          "time": 50.159513999999994,
          "velocity": 0.7874015748031497
        },
        {
          "duration": 0.8823529999999948,
          "durationTicks": 120,
          "midi": 74,
          "name": "D5",
          "ticks": 6600,
          "time": 51.041866999999996,
          "velocity": 0.7874015748031497
        },
        {
          "duration": 0.8823529999999948,
          "durationTicks": 120,
          "midi": 81,
          "name": "A5",
          "ticks": 6600,
          "time": 51.041866999999996,
          "velocity": 0.7874015748031497
        },
        {
          "duration": 1.7647060000000039,
          "durationTicks": 240,
          "midi": 77,
          "name": "F5",
          "ticks": 6720,
          "time": 51.92421999999999,
          "velocity": 0.7874015748031497
        },
        {
          "duration": 0.8823530000000019,
          "durationTicks": 120,
          "midi": 69,
          "name": "A4",
          "ticks": 6720,
          "time": 51.92421999999999,
          "velocity": 0.7874015748031497
        },
        {
          "duration": 0.8823530000000019,
          "durationTicks": 120,
          "midi": 72,
          "name": "C5",
          "ticks": 6840,
          "time": 52.80657299999999,
          "velocity": 0.7874015748031497
        },
        {
          "duration": 1.7647060000000039,
          "durationTicks": 240,
          "midi": 76,
          "name": "E5",
          "ticks": 6960,
          "time": 53.688925999999995,
          "velocity": 0.7874015748031497
        },
        {
          "duration": 0.8823529999999948,
          "durationTicks": 120,
          "midi": 67,
          "name": "G4",
          "ticks": 6960,
          "time": 53.688925999999995,
          "velocity": 0.7874015748031497
        },
        {
          "duration": 0.882353000000009,
          "durationTicks": 120,
          "midi": 67,
          "name": "G4",
          "ticks": 7080,
          "time": 54.57127899999999,
          "velocity": 0.7874015748031497
        },
        {
          "duration": 0.8823529999999948,
          "durationTicks": 120,
          "midi": 62,
          "name": "D4",
          "ticks": 7200,
          "time": 55.453632,
          "velocity": 0.7874015748031497
        },
        {
          "duration": 0.8823529999999948,
          "durationTicks": 120,
          "midi": 65,
          "name": "F4",
          "ticks": 7200,
          "time": 55.453632,
          "velocity": 0.7874015748031497
        },
        {
          "duration": 0.8823530000000019,
          "durationTicks": 120,
          "midi": 69,
          "name": "A4",
          "ticks": 7320,
          "time": 56.335984999999994,
          "velocity": 0.7874015748031497
        },
        {
          "duration": 0.8823530000000019,
          "durationTicks": 120,
          "midi": 72,
          "name": "C5",
          "ticks": 7320,
          "time": 56.335984999999994,
          "velocity": 0.7874015748031497
        },
        {
          "duration": 0.8823530000000019,
          "durationTicks": 120,
          "midi": 67,
          "name": "G4",
          "ticks": 7440,
          "time": 57.218337999999996,
          "velocity": 0.7874015748031497
        },
        {
          "duration": 0.8823530000000019,
          "durationTicks": 120,
          "midi": 72,
          "name": "C5",
          "ticks": 7440,
          "time": 57.218337999999996,
          "velocity": 0.7874015748031497
        },
        {
          "duration": 0.4411764999999974,
          "durationTicks": 60,
          "midi": 72,
          "name": "C5",
          "ticks": 7560,
          "time": 58.100691,
          "velocity": 0.7874015748031497
        },
        {
          "duration": 0.8823529999999948,
          "durationTicks": 120,
          "midi": 65,
          "name": "F4",
          "ticks": 7560,
          "time": 58.100691,
          "velocity": 0.7874015748031497
        },
        {
          "duration": 0.4411764999999974,
          "durationTicks": 60,
          "midi": 71,
          "name": "B4",
          "ticks": 7620,
          "time": 58.541867499999995,
          "velocity": 0.7874015748031497
        },
        {
          "duration": 1.7647059999999968,
          "durationTicks": 240,
          "midi": 64,
          "name": "E4",
          "ticks": 7680,
          "time": 58.98304399999999,
          "velocity": 0.7874015748031497
        },
        {
          "duration": 0.4411764999999974,
          "durationTicks": 60,
          "midi": 72,
          "name": "C5",
          "ticks": 7680,
          "time": 58.98304399999999,
          "velocity": 0.7874015748031497
        },
        {
          "duration": 0.4411765000000045,
          "durationTicks": 60,
          "midi": 71,
          "name": "B4",
          "ticks": 7740,
          "time": 59.42422049999999,
          "velocity": 0.7874015748031497
        },
        {
          "duration": 0.4411764999999974,
          "durationTicks": 60,
          "midi": 72,
          "name": "C5",
          "ticks": 7800,
          "time": 59.865396999999994,
          "velocity": 0.7874015748031497
        },
        {
          "duration": 0.4411764999999974,
          "durationTicks": 60,
          "midi": 64,
          "name": "E4",
          "ticks": 7860,
          "time": 60.30657349999999,
          "velocity": 0.7874015748031497
        },
        {
          "duration": 0.8780903333333399,
          "durationTicks": 120,
          "midi": 59,
          "name": "B3",
          "ticks": 7920,
          "time": 60.74774999999999,
          "velocity": 0.7874015748031497
        },
        {
          "duration": 0.8780903333333399,
          "durationTicks": 120,
          "midi": 67,
          "name": "G4",
          "ticks": 7920,
          "time": 60.74774999999999,
          "velocity": 0.7874015748031497
        },
        {
          "duration": 0.8695649999999944,
          "durationTicks": 120,
          "midi": 65,
          "name": "F4",
          "ticks": 8040,
          "time": 61.62584033333333,
          "velocity": 0.7874015748031497
        },
        {
          "duration": 0.8695649999999944,
          "durationTicks": 120,
          "midi": 71,
          "name": "B4",
          "ticks": 8040,
          "time": 61.62584033333333,
          "velocity": 0.7874015748031497
        },
        {
          "duration": 0.8695650000000015,
          "durationTicks": 120,
          "midi": 64,
          "name": "E4",
          "ticks": 8160,
          "time": 62.49540533333332,
          "velocity": 0.7874015748031497
        },
        {
          "duration": 0.8695650000000015,
          "durationTicks": 120,
          "midi": 72,
          "name": "C5",
          "ticks": 8160,
          "time": 62.49540533333332,
          "velocity": 0.7874015748031497
        },
        {
          "duration": 0.8614906999999974,
          "durationTicks": 120,
          "midi": 69,
          "name": "A4",
          "ticks": 8280,
          "time": 63.364970333333325,
          "velocity": 0.7874015748031497
        },
        {
          "duration": 0.8614906999999974,
          "durationTicks": 120,
          "midi": 76,
          "name": "E5",
          "ticks": 8280,
          "time": 63.364970333333325,
          "velocity": 0.7874015748031497
        },
        {
          "duration": 0.8571429999999935,
          "durationTicks": 120,
          "midi": 71,
          "name": "B4",
          "ticks": 8400,
          "time": 64.22646103333332,
          "velocity": 0.7874015748031497
        },
        {
          "duration": 0.42857149999998967,
          "durationTicks": 60,
          "midi": 79,
          "name": "G5",
          "ticks": 8400,
          "time": 64.22646103333332,
          "velocity": 0.7874015748031497
        },
        {
          "duration": 0.4285715000000039,
          "durationTicks": 60,
          "midi": 76,
          "name": "E5",
          "ticks": 8460,
          "time": 64.65503253333331,
          "velocity": 0.7874015748031497
        },
        {
          "duration": 0.8571429999999935,
          "durationTicks": 120,
          "midi": 74,
          "name": "D5",
          "ticks": 8520,
          "time": 65.08360403333332,
          "velocity": 0.7874015748031497
        },
        {
          "duration": 0.4285715000000039,
          "durationTicks": 60,
          "midi": 79,
          "name": "G5",
          "ticks": 8520,
          "time": 65.08360403333332,
          "velocity": 0.7874015748031497
        },
        {
          "duration": 0.42857149999998967,
          "durationTicks": 60,
          "midi": 81,
          "name": "A5",
          "ticks": 8580,
          "time": 65.51217553333332,
          "velocity": 0.7874015748031497
        },
        {
          "duration": 1.6903412166666811,
          "durationTicks": 240,
          "midi": 69,
          "name": "A4",
          "ticks": 8640,
          "time": 65.94074703333331,
          "velocity": 0.7874015748031497
        },
        {
          "duration": 0.42273621666667793,
          "durationTicks": 60,
          "midi": 77,
          "name": "F5",
          "ticks": 8640,
          "time": 65.94074703333331,
          "velocity": 0.7874015748031497
        },
        {
          "duration": 0.42253499999999633,
          "durationTicks": 60,
          "midi": 76,
          "name": "E5",
          "ticks": 8700,
          "time": 66.36348324999999,
          "velocity": 0.7874015748031497
        },
        {
          "duration": 0.42253499999999633,
          "durationTicks": 60,
          "midi": 74,
          "name": "D5",
          "ticks": 8760,
          "time": 66.78601824999998,
          "velocity": 0.7874015748031497
        },
        {
          "duration": 0.42253500000001054,
          "durationTicks": 60,
          "midi": 77,
          "name": "F5",
          "ticks": 8820,
          "time": 67.20855324999998,
          "velocity": 0.7874015748031497
        },
        {
          "duration": 1.6901399999999995,
          "durationTicks": 240,
          "midi": 67,
          "name": "G4",
          "ticks": 8880,
          "time": 67.63108824999999,
          "velocity": 0.7874015748031497
        },
        {
          "duration": 0.42253499999999633,
          "durationTicks": 60,
          "midi": 76,
          "name": "E5",
          "ticks": 8880,
          "time": 67.63108824999999,
          "velocity": 0.7874015748031497
        },
        {
          "duration": 0.42253499999999633,
          "durationTicks": 60,
          "midi": 74,
          "name": "D5",
          "ticks": 8940,
          "time": 68.05362324999999,
          "velocity": 0.7874015748031497
        },
        {
          "duration": 0.42253500000001054,
          "durationTicks": 60,
          "midi": 72,
          "name": "C5",
          "ticks": 9000,
          "time": 68.47615824999998,
          "velocity": 0.7874015748031497
        },
        {
          "duration": 0.42253499999999633,
          "durationTicks": 60,
          "midi": 71,
          "name": "B4",
          "ticks": 9060,
          "time": 68.89869325,
          "velocity": 0.7874015748031497
        },
        {
          "duration": 0.42253499999999633,
          "durationTicks": 60,
          "midi": 65,
          "name": "F4",
          "ticks": 9120,
          "time": 69.32122824999999,
          "velocity": 0.7874015748031497
        },
        {
          "duration": 0.42253499999999633,
          "durationTicks": 60,
          "midi": 69,
          "name": "A4",
          "ticks": 9120,
          "time": 69.32122824999999,
          "velocity": 0.7874015748031497
        },
        {
          "duration": 0.42253499999999633,
          "durationTicks": 60,
          "midi": 62,
          "name": "D4",
          "ticks": 9180,
          "time": 69.74376324999999,
          "velocity": 0.7874015748031497
        },
        {
          "duration": 0.42253499999999633,
          "durationTicks": 60,
          "midi": 65,
          "name": "F4",
          "ticks": 9180,
          "time": 69.74376324999999,
          "velocity": 0.7874015748031497
        },
        {
          "duration": 0.8450700000000069,
          "durationTicks": 120,
          "midi": 69,
          "name": "A4",
          "ticks": 9240,
          "time": 70.16629824999998,
          "velocity": 0.7874015748031497
        },
        {
          "duration": 0.8450700000000069,
          "durationTicks": 120,
          "midi": 72,
          "name": "C5",
          "ticks": 9240,
          "time": 70.16629824999998,
          "velocity": 0.7874015748031497
        },
        {
          "duration": 0.8450699999999927,
          "durationTicks": 120,
          "midi": 72,
          "name": "C5",
          "ticks": 9360,
          "time": 71.01136824999999,
          "velocity": 0.7874015748031497
        },
        {
          "duration": 0.42253499999999633,
          "durationTicks": 60,
          "midi": 67,
          "name": "G4",
          "ticks": 9360,
          "time": 71.01136824999999,
          "velocity": 0.7874015748031497
        },
        {
          "duration": 0.42253499999999633,
          "durationTicks": 60,
          "midi": 65,
          "name": "F4",
          "ticks": 9420,
          "time": 71.43390324999999,
          "velocity": 0.7874015748031497
        },
        {
          "duration": 0.42253500000001054,
          "durationTicks": 60,
          "midi": 72,
          "name": "C5",
          "ticks": 9480,
          "time": 71.85643824999998,
          "velocity": 0.7874015748031497
        },
        {
          "duration": 0.42253500000001054,
          "durationTicks": 60,
          "midi": 64,
          "name": "E4",
          "ticks": 9480,
          "time": 71.85643824999998,
          "velocity": 0.7874015748031497
        },
        {
          "duration": 0.42253499999999633,
          "durationTicks": 60,
          "midi": 71,
          "name": "B4",
          "ticks": 9540,
          "time": 72.27897324999999,
          "velocity": 0.7874015748031497
        },
        {
          "duration": 0.42253499999999633,
          "durationTicks": 60,
          "midi": 62,
          "name": "D4",
          "ticks": 9540,
          "time": 72.27897324999999,
          "velocity": 0.7874015748031497
        },
        {
          "duration": 1.6901399999999995,
          "durationTicks": 240,
          "midi": 64,
          "name": "E4",
          "ticks": 9600,
          "time": 72.70150824999999,
          "velocity": 0.7874015748031497
        },
        {
          "duration": 0.42253499999999633,
          "durationTicks": 60,
          "midi": 72,
          "name": "C5",
          "ticks": 9600,
          "time": 72.70150824999999,
          "velocity": 0.7874015748031497
        },
        {
          "duration": 0.42253499999999633,
          "durationTicks": 60,
          "midi": 71,
          "name": "B4",
          "ticks": 9660,
          "time": 73.12404324999999,
          "velocity": 0.7874015748031497
        },
        {
          "duration": 0.42253500000001054,
          "durationTicks": 60,
          "midi": 72,
          "name": "C5",
          "ticks": 9720,
          "time": 73.54657824999998,
          "velocity": 0.7874015748031497
        },
        {
          "duration": 0.42253499999999633,
          "durationTicks": 60,
          "midi": 65,
          "name": "F4",
          "ticks": 9780,
          "time": 73.96911324999999,
          "velocity": 0.7874015748031497
        },
        {
          "duration": 0.8450699999999927,
          "durationTicks": 120,
          "midi": 67,
          "name": "G4",
          "ticks": 9840,
          "time": 74.39164824999999,
          "velocity": 0.7874015748031497
        },
        {
          "duration": 0.42253499999999633,
          "durationTicks": 60,
          "midi": 60,
          "name": "C4",
          "ticks": 9840,
          "time": 74.39164824999999,
          "velocity": 0.7874015748031497
        },
        {
          "duration": 0.42253499999999633,
          "durationTicks": 60,
          "midi": 59,
          "name": "B3",
          "ticks": 9900,
          "time": 74.81418324999999,
          "velocity": 0.7874015748031497
        },
        {
          "duration": 0.8450700000000069,
          "durationTicks": 120,
          "midi": 71,
          "name": "B4",
          "ticks": 9960,
          "time": 75.23671824999998,
          "velocity": 0.7874015748031497
        },
        {
          "duration": 0.42253500000001054,
          "durationTicks": 60,
          "midi": 67,
          "name": "G4",
          "ticks": 9960,
          "time": 75.23671824999998,
          "velocity": 0.7874015748031497
        },
        {
          "duration": 0.42253499999999633,
          "durationTicks": 60,
          "midi": 65,
          "name": "F4",
          "ticks": 10020,
          "time": 75.65925324999999,
          "velocity": 0.7874015748031497
        },
        {
          "duration": 0.8450699999999927,
          "durationTicks": 120,
          "midi": 64,
          "name": "E4",
          "ticks": 10080,
          "time": 76.08178824999999,
          "velocity": 0.7874015748031497
        },
        {
          "duration": 0.8450699999999927,
          "durationTicks": 120,
          "midi": 72,
          "name": "C5",
          "ticks": 10080,
          "time": 76.08178824999999,
          "velocity": 0.7874015748031497
        },
        {
          "duration": 0.42253500000001054,
          "durationTicks": 60,
          "midi": 69,
          "name": "A4",
          "ticks": 10200,
          "time": 76.92685824999998,
          "velocity": 0.7874015748031497
        },
        {
          "duration": 0.8450700000000069,
          "durationTicks": 120,
          "midi": 76,
          "name": "E5",
          "ticks": 10200,
          "time": 76.92685824999998,
          "velocity": 0.7874015748031497
        },
        {
          "duration": 0.42253499999999633,
          "durationTicks": 60,
          "midi": 72,
          "name": "C5",
          "ticks": 10260,
          "time": 77.34939324999999,
          "velocity": 0.7874015748031497
        },
        {
          "duration": 0.42253499999999633,
          "durationTicks": 60,
          "midi": 79,
          "name": "G5",
          "ticks": 10320,
          "time": 77.77192824999999,
          "velocity": 0.7874015748031497
        },
        {
          "duration": 0.8450700000000069,
          "durationTicks": 120,
          "midi": 71,
          "name": "B4",
          "ticks": 10320,
          "time": 77.77192824999999,
          "velocity": 0.7874015748031497
        },
        {
          "duration": 0.42253500000001054,
          "durationTicks": 60,
          "midi": 76,
          "name": "E5",
          "ticks": 10380,
          "time": 78.19446324999998,
          "velocity": 0.7874015748031497
        },
        {
          "duration": 0.42253499999999633,
          "durationTicks": 60,
          "midi": 79,
          "name": "G5",
          "ticks": 10440,
          "time": 78.61699825,
          "velocity": 0.7874015748031497
        },
        {
          "duration": 0.8450699999999927,
          "durationTicks": 120,
          "midi": 74,
          "name": "D5",
          "ticks": 10440,
          "time": 78.61699825,
          "velocity": 0.7874015748031497
        },
        {
          "duration": 0.42253499999999633,
          "durationTicks": 60,
          "midi": 81,
          "name": "A5",
          "ticks": 10500,
          "time": 79.03953324999999,
          "velocity": 0.7874015748031497
        },
        {
          "duration": 0.42253499999999633,
          "durationTicks": 60,
          "midi": 77,
          "name": "F5",
          "ticks": 10560,
          "time": 79.46206824999999,
          "velocity": 0.7874015748031497
        },
        {
          "duration": 0.8450700000000069,
          "durationTicks": 120,
          "midi": 69,
          "name": "A4",
          "ticks": 10560,
          "time": 79.46206824999999,
          "velocity": 0.7874015748031497
        },
        {
          "duration": 0.42253500000001054,
          "durationTicks": 60,
          "midi": 76,
          "name": "E5",
          "ticks": 10620,
          "time": 79.88460324999998,
          "velocity": 0.7874015748031497
        },
        {
          "duration": 0.42253499999999633,
          "durationTicks": 60,
          "midi": 74,
          "name": "D5",
          "ticks": 10680,
          "time": 80.30713825,
          "velocity": 0.7874015748031497
        },
        {
          "duration": 0.8450699999999927,
          "durationTicks": 120,
          "midi": 71,
          "name": "B4",
          "ticks": 10680,
          "time": 80.30713825,
          "velocity": 0.7874015748031497
        },
        {
          "duration": 0.42253499999999633,
          "durationTicks": 60,
          "midi": 77,
          "name": "F5",
          "ticks": 10740,
          "time": 80.72967324999999,
          "velocity": 0.7874015748031497
        },
        {
          "duration": 0.42253499999999633,
          "durationTicks": 60,
          "midi": 72,
          "name": "C5",
          "ticks": 10800,
          "time": 81.15220824999999,
          "velocity": 0.7874015748031497
        },
        {
          "duration": 0.42253499999999633,
          "durationTicks": 60,
          "midi": 76,
          "name": "E5",
          "ticks": 10800,
          "time": 81.15220824999999,
          "velocity": 0.7874015748031497
        },
        {
          "duration": 0.42253500000001054,
          "durationTicks": 60,
          "midi": 71,
          "name": "B4",
          "ticks": 10860,
          "time": 81.57474324999998,
          "velocity": 0.7874015748031497
        },
        {
          "duration": 0.42253500000001054,
          "durationTicks": 60,
          "midi": 74,
          "name": "D5",
          "ticks": 10860,
          "time": 81.57474324999998,
          "velocity": 0.7874015748031497
        },
        {
          "duration": 0.42253499999999633,
          "durationTicks": 60,
          "midi": 69,
          "name": "A4",
          "ticks": 10920,
          "time": 81.99727825,
          "velocity": 0.7874015748031497
        },
        {
          "duration": 0.42253499999999633,
          "durationTicks": 60,
          "midi": 72,
          "name": "C5",
          "ticks": 10920,
          "time": 81.99727825,
          "velocity": 0.7874015748031497
        },
        {
          "duration": 0.42253499999999633,
          "durationTicks": 60,
          "midi": 67,
          "name": "G4",
          "ticks": 10980,
          "time": 82.41981324999999,
          "velocity": 0.7874015748031497
        },
        {
          "duration": 0.42253499999999633,
          "durationTicks": 60,
          "midi": 71,
          "name": "B4",
          "ticks": 10980,
          "time": 82.41981324999999,
          "velocity": 0.7874015748031497
        },
        {
          "duration": 0.42253500000001054,
          "durationTicks": 60,
          "midi": 65,
          "name": "F4",
          "ticks": 11040,
          "time": 82.84234824999999,
          "velocity": 0.7874015748031497
        },
        {
          "duration": 0.42253500000001054,
          "durationTicks": 60,
          "midi": 69,
          "name": "A4",
          "ticks": 11040,
          "time": 82.84234824999999,
          "velocity": 0.7874015748031497
        },
        {
          "duration": 0.42253499999999633,
          "durationTicks": 60,
          "midi": 64,
          "name": "E4",
          "ticks": 11100,
          "time": 83.26488325,
          "velocity": 0.7874015748031497
        },
        {
          "duration": 0.42253499999999633,
          "durationTicks": 60,
          "midi": 67,
          "name": "G4",
          "ticks": 11100,
          "time": 83.26488325,
          "velocity": 0.7874015748031497
        },
        {
          "duration": 0.8450699999999927,
          "durationTicks": 120,
          "midi": 62,
          "name": "D4",
          "ticks": 11160,
          "time": 83.68741825,
          "velocity": 0.7874015748031497
        },
        {
          "duration": 0.42253499999999633,
          "durationTicks": 60,
          "midi": 65,
          "name": "F4",
          "ticks": 11160,
          "time": 83.68741825,
          "velocity": 0.7874015748031497
        },
        {
          "duration": 0.42253499999999633,
          "durationTicks": 60,
          "midi": 72,
          "name": "C5",
          "ticks": 11220,
          "time": 84.10995324999999,
          "velocity": 0.7874015748031497
        },
        {
          "duration": 0.6338025000000016,
          "durationTicks": 90,
          "midi": 67,
          "name": "G4",
          "ticks": 11280,
          "time": 84.53248824999999,
          "velocity": 0.7874015748031497
        },
        {
          "duration": 0.6338025000000016,
          "durationTicks": 90,
          "midi": 72,
          "name": "C5",
          "ticks": 11280,
          "time": 84.53248824999999,
          "velocity": 0.7874015748031497
        },
        {
          "duration": 0.21126750000000527,
          "durationTicks": 30,
          "midi": 62,
          "name": "D4",
          "ticks": 11370,
          "time": 85.16629074999999,
          "velocity": 0.7874015748031497
        },
        {
          "duration": 0.42253499999999633,
          "durationTicks": 60,
          "midi": 71,
          "name": "B4",
          "ticks": 11400,
          "time": 85.37755824999999,
          "velocity": 0.7874015748031497
        },
        {
          "duration": 0.21126750000000527,
          "durationTicks": 30,
          "midi": 74,
          "name": "D5",
          "ticks": 11460,
          "time": 85.80009324999999,
          "velocity": 0.7874015748031497
        },
        {
          "duration": 0.8450699999999927,
          "durationTicks": 120,
          "midi": 71,
          "name": "B4",
          "ticks": 11490,
          "time": 86.01136075,
          "velocity": 0.7874015748031497
        },
        {
          "duration": 0.6338025000000016,
          "durationTicks": 90,
          "midi": 76,
          "name": "E5",
          "ticks": 11520,
          "time": 86.22262824999999,
          "velocity": 0.7874015748031497
        },
        {
          "duration": 0.21126750000000527,
          "durationTicks": 30,
          "midi": 67,
          "name": "G4",
          "ticks": 11610,
          "time": 86.85643074999999,
          "velocity": 0.7874015748031497
        },
        {
          "duration": 0.21126750000000527,
          "durationTicks": 30,
          "midi": 76,
          "name": "E5",
          "ticks": 11640,
          "time": 87.06769824999999,
          "velocity": 0.7874015748031497
        },
        {
          "duration": 0.21126749999999106,
          "durationTicks": 30,
          "midi": 67,
          "name": "G4",
          "ticks": 11670,
          "time": 87.27896575,
          "velocity": 0.7874015748031497
        },
        {
          "duration": 0.21126750000000527,
          "durationTicks": 30,
          "midi": 72,
          "name": "C5",
          "ticks": 11700,
          "time": 87.49023324999999,
          "velocity": 0.7874015748031497
        },
        {
          "duration": 0.21126750000000527,
          "durationTicks": 30,
          "midi": 67,
          "name": "G4",
          "ticks": 11700,
          "time": 87.49023324999999,
          "velocity": 0.7874015748031497
        },
        {
          "duration": 0.8450699999999927,
          "durationTicks": 120,
          "midi": 74,
          "name": "D5",
          "ticks": 11730,
          "time": 87.70150075,
          "velocity": 0.7874015748031497
        },
        {
          "duration": 0.8450699999999927,
          "durationTicks": 120,
          "midi": 67,
          "name": "G4",
          "ticks": 11730,
          "time": 87.70150075,
          "velocity": 0.7874015748031497
        },
        {
          "duration": 0.21126750000000527,
          "durationTicks": 30,
          "midi": 76,
          "name": "E5",
          "ticks": 11850,
          "time": 88.54657074999999,
          "velocity": 0.7874015748031497
        },
        {
          "duration": 0.21126750000000527,
          "durationTicks": 30,
          "midi": 67,
          "name": "G4",
          "ticks": 11850,
          "time": 88.54657074999999,
          "velocity": 0.7874015748031497
        },
        {
          "duration": 0.21126749999999106,
          "durationTicks": 30,
          "midi": 67,
          "name": "G4",
          "ticks": 11880,
          "time": 88.75783824999999,
          "velocity": 0.7874015748031497
        },
        {
          "duration": 0.21126749999999106,
          "durationTicks": 30,
          "midi": 77,
          "name": "F5",
          "ticks": 11880,
          "time": 88.75783824999999,
          "velocity": 0.7874015748031497
        },
        {
          "duration": 0.21126750000000527,
          "durationTicks": 30,
          "midi": 76,
          "name": "E5",
          "ticks": 11910,
          "time": 88.96910574999998,
          "velocity": 0.7874015748031497
        },
        {
          "duration": 0.21126750000000527,
          "durationTicks": 30,
          "midi": 74,
          "name": "D5",
          "ticks": 11940,
          "time": 89.18037324999999,
          "velocity": 0.7874015748031497
        },
        {
          "duration": 0.8450699999999927,
          "durationTicks": 120,
          "midi": 64,
          "name": "E4",
          "ticks": 11970,
          "time": 89.39164075,
          "velocity": 0.7874015748031497
        },
        {
          "duration": 0.6338025000000016,
          "durationTicks": 90,
          "midi": 72,
          "name": "C5",
          "ticks": 12000,
          "time": 89.60290824999998,
          "velocity": 0.7874015748031497
        },
        {
          "duration": 0.42253500000001054,
          "durationTicks": 60,
          "midi": 64,
          "name": "E4",
          "ticks": 12090,
          "time": 90.23671074999999,
          "velocity": 0.7874015748031497
        },
        {
          "duration": 0.42253500000001054,
          "durationTicks": 60,
          "midi": 72,
          "name": "C5",
          "ticks": 12090,
          "time": 90.23671074999999,
          "velocity": 0.7874015748031497
        },
        {
          "duration": 0.21126749999999106,
          "durationTicks": 30,
          "midi": 64,
          "name": "E4",
          "ticks": 12150,
          "time": 90.65924575,
          "velocity": 0.7874015748031497
        },
        {
          "duration": 0.21126750000000527,
          "durationTicks": 30,
          "midi": 64,
          "name": "E4",
          "ticks": 12180,
          "time": 90.87051324999999,
          "velocity": 0.7874015748031497
        },
        {
          "duration": 0.21126750000000527,
          "durationTicks": 30,
          "midi": 71,
          "name": "B4",
          "ticks": 12180,
          "time": 90.87051324999999,
          "velocity": 0.7874015748031497
        },
        {
          "duration": 0.21126750000000527,
          "durationTicks": 30,
          "midi": 64,
          "name": "E4",
          "ticks": 12210,
          "time": 91.08178075,
          "velocity": 0.7874015748031497
        },
        {
          "duration": 0.21126750000000527,
          "durationTicks": 30,
          "midi": 72,
          "name": "C5",
          "ticks": 12210,
          "time": 91.08178075,
          "velocity": 0.7874015748031497
        },
        {
          "duration": 0.42253499999999633,
          "durationTicks": 60,
          "midi": 64,
          "name": "E4",
          "ticks": 12240,
          "time": 91.29304825,
          "velocity": 0.7874015748031497
        },
        {
          "duration": 0.42253499999999633,
          "durationTicks": 60,
          "midi": 71,
          "name": "B4",
          "ticks": 12240,
          "time": 91.29304825,
          "velocity": 0.7874015748031497
        },
        {
          "duration": 0.21126749999999106,
          "durationTicks": 30,
          "midi": 67,
          "name": "G4",
          "ticks": 12300,
          "time": 91.71558325,
          "velocity": 0.7874015748031497
        },
        {
          "duration": 0.42253499999999633,
          "durationTicks": 60,
          "midi": 64,
          "name": "E4",
          "ticks": 12330,
          "time": 91.92685074999999,
          "velocity": 0.7874015748031497
        },
        {
          "duration": 0.6338025000000016,
          "durationTicks": 90,
          "midi": 67,
          "name": "G4",
          "ticks": 12390,
          "time": 92.34938574999998,
          "velocity": 0.7874015748031497
        },
        {
          "duration": 0.21126749999999106,
          "durationTicks": 30,
          "midi": 60,
          "name": "C4",
          "ticks": 12450,
          "time": 92.77192074999999,
          "velocity": 0.7874015748031497
        },
        {
          "duration": 0.21126750000000527,
          "durationTicks": 30,
          "midi": 69,
          "name": "A4",
          "ticks": 12480,
          "time": 92.98318824999998,
          "velocity": 0.7874015748031497
        },
        {
          "duration": 0.21126750000000527,
          "durationTicks": 30,
          "midi": 65,
          "name": "F4",
          "ticks": 12480,
          "time": 92.98318824999998,
          "velocity": 0.7874015748031497
        },
        {
          "duration": 0.21126750000000527,
          "durationTicks": 30,
          "midi": 60,
          "name": "C4",
          "ticks": 12510,
          "time": 93.19445574999999,
          "velocity": 0.7874015748031497
        },
        {
          "duration": 0.42253500000001054,
          "durationTicks": 60,
          "midi": 71,
          "name": "B4",
          "ticks": 12570,
          "time": 93.61699074999999,
          "velocity": 0.7874015748031497
        },
        {
          "duration": 0.42253500000001054,
          "durationTicks": 60,
          "midi": 67,
          "name": "G4",
          "ticks": 12570,
          "time": 93.61699074999999,
          "velocity": 0.7874015748031497
        },
        {
          "duration": 0.21126749999999106,
          "durationTicks": 30,
          "midi": 60,
          "name": "C4",
          "ticks": 12630,
          "time": 94.03952575,
          "velocity": 0.7874015748031497
        },
        {
          "duration": 0.21126750000000527,
          "durationTicks": 30,
          "midi": 72,
          "name": "C5",
          "ticks": 12660,
          "time": 94.25079324999999,
          "velocity": 0.7874015748031497
        },
        {
          "duration": 0.21126750000000527,
          "durationTicks": 30,
          "midi": 60,
          "name": "C4",
          "ticks": 12690,
          "time": 94.46206074999999,
          "velocity": 0.7874015748031497
        },
        {
          "duration": 1.4788724999999943,
          "durationTicks": 210,
          "midi": 67,
          "name": "G4",
          "ticks": 12720,
          "time": 94.67332825,
          "velocity": 0.7874015748031497
        },
        {
          "duration": 0.21126749999999106,
          "durationTicks": 30,
          "midi": 60,
          "name": "C4",
          "ticks": 12930,
          "time": 96.15220074999999,
          "velocity": 0.7874015748031497
        },
        {
          "duration": 0.21126750000000527,
          "durationTicks": 30,
          "midi": 69,
          "name": "A4",
          "ticks": 12960,
          "time": 96.36346824999998,
          "velocity": 0.7874015748031497
        },
        {
          "duration": 0.21126750000000527,
          "durationTicks": 30,
          "midi": 65,
          "name": "F4",
          "ticks": 12960,
          "time": 96.36346824999998,
          "velocity": 0.7874015748031497
        },
        {
          "duration": 0.21126750000000527,
          "durationTicks": 30,
          "midi": 60,
          "name": "C4",
          "ticks": 12990,
          "time": 96.57473574999999,
          "velocity": 0.7874015748031497
        },
        {
          "duration": 0.21126750000000527,
          "durationTicks": 30,
          "midi": 60,
          "name": "C4",
          "ticks": 13050,
          "time": 96.99727074999998,
          "velocity": 0.7874015748031497
        },
        {
          "duration": 0.21126750000000527,
          "durationTicks": 30,
          "midi": 65,
          "name": "F4",
          "ticks": 13080,
          "time": 97.20853824999999,
          "velocity": 0.7874015748031497
        },
        {
          "duration": 0.21126749999999106,
          "durationTicks": 30,
          "midi": 69,
          "name": "A4",
          "ticks": 13110,
          "time": 97.41980575,
          "velocity": 0.7874015748031497
        },
        {
          "duration": 0.21126750000000527,
          "durationTicks": 30,
          "midi": 72,
          "name": "C5",
          "ticks": 13140,
          "time": 97.63107324999999,
          "velocity": 0.7874015748031497
        },
        {
          "duration": 0.21126750000000527,
          "durationTicks": 30,
          "midi": 62,
          "name": "D4",
          "ticks": 13170,
          "time": 97.84234074999999,
          "velocity": 0.7874015748031497
        },
        {
          "duration": 0.21126749999999106,
          "durationTicks": 30,
          "midi": 72,
          "name": "C5",
          "ticks": 13200,
          "time": 98.05360825,
          "velocity": 0.7874015748031497
        },
        {
          "duration": 0.21126750000000527,
          "durationTicks": 30,
          "midi": 62,
          "name": "D4",
          "ticks": 13230,
          "time": 98.26487574999999,
          "velocity": 0.7874015748031497
        },
        {
          "duration": 0.42253499999999633,
          "durationTicks": 60,
          "midi": 71,
          "name": "B4",
          "ticks": 13290,
          "time": 98.68741075,
          "velocity": 0.7874015748031497
        },
        {
          "duration": 0.42253499999999633,
          "durationTicks": 60,
          "midi": 62,
          "name": "D4",
          "ticks": 13290,
          "time": 98.68741075,
          "velocity": 0.7874015748031497
        },
        {
          "duration": 0.21126750000000527,
          "durationTicks": 30,
          "midi": 72,
          "name": "C5",
          "ticks": 13350,
          "time": 99.10994575,
          "velocity": 0.7874015748031497
        },
        {
          "duration": 0.21126749999999106,
          "durationTicks": 30,
          "midi": 74,
          "name": "D5",
          "ticks": 13380,
          "time": 99.32121325,
          "velocity": 0.7874015748031497
        },
        {
          "duration": 1.0446004999999872,
          "durationTicks": 150,
          "midi": 67,
          "name": "G4",
          "ticks": 13410,
          "time": 99.53248074999999,
          "velocity": 0.7874015748031497
        },
        {
          "duration": 0.8333329999999961,
          "durationTicks": 120,
          "midi": 76,
          "name": "E5",
          "ticks": 13440,
          "time": 99.74374824999998,
          "velocity": 0.7874015748031497
        },
        {
          "duration": 0.20833325000000968,
          "durationTicks": 30,
          "midi": 76,
          "name": "E5",
          "ticks": 13560,
          "time": 100.57708124999998,
          "velocity": 0.7874015748031497
        },
        {
          "duration": 0.20833324999999547,
          "durationTicks": 30,
          "midi": 74,
          "name": "D5",
          "ticks": 13590,
          "time": 100.78541449999999,
          "velocity": 0.7874015748031497
        },
        {
          "duration": 0.20833324999999547,
          "durationTicks": 30,
          "midi": 72,
          "name": "C5",
          "ticks": 13620,
          "time": 100.99374774999998,
          "velocity": 0.7874015748031497
        },
        {
          "duration": 0.41666650000000516,
          "durationTicks": 60,
          "midi": 67,
          "name": "G4",
          "ticks": 13650,
          "time": 101.20208099999998,
          "velocity": 0.7874015748031497
        },
        {
          "duration": 0.41666650000000516,
          "durationTicks": 60,
          "midi": 74,
          "name": "D5",
          "ticks": 13650,
          "time": 101.20208099999998,
          "velocity": 0.7874015748031497
        },
        {
          "duration": 0.6249997500000006,
          "durationTicks": 90,
          "midi": 67,
          "name": "G4",
          "ticks": 13710,
          "time": 101.61874749999998,
          "velocity": 0.7874015748031497
        },
        {
          "duration": 0.20833325000000968,
          "durationTicks": 30,
          "midi": 67,
          "name": "G4",
          "ticks": 13770,
          "time": 102.03541399999997,
          "velocity": 0.7874015748031497
        },
        {
          "duration": 0.20833325000000968,
          "durationTicks": 30,
          "midi": 76,
          "name": "E5",
          "ticks": 13770,
          "time": 102.03541399999997,
          "velocity": 0.7874015748031497
        },
        {
          "duration": 0.20833324999999547,
          "durationTicks": 30,
          "midi": 67,
          "name": "G4",
          "ticks": 13800,
          "time": 102.24374724999998,
          "velocity": 0.7874015748031497
        },
        {
          "duration": 0.20833324999999547,
          "durationTicks": 30,
          "midi": 77,
          "name": "F5",
          "ticks": 13800,
          "time": 102.24374724999998,
          "velocity": 0.7874015748031497
        },
        {
          "duration": 0.20833324999999547,
          "durationTicks": 30,
          "midi": 76,
          "name": "E5",
          "ticks": 13830,
          "time": 102.45208049999998,
          "velocity": 0.7874015748031497
        },
        {
          "duration": 0.20833325000000968,
          "durationTicks": 30,
          "midi": 74,
          "name": "D5",
          "ticks": 13860,
          "time": 102.66041374999998,
          "velocity": 0.7874015748031497
        },
        {
          "duration": 0.8333329999999961,
          "durationTicks": 120,
          "midi": 64,
          "name": "E4",
          "ticks": 13890,
          "time": 102.86874699999998,
          "velocity": 0.7874015748031497
        },
        {
          "duration": 0.6249997500000006,
          "durationTicks": 90,
          "midi": 74,
          "name": "D5",
          "ticks": 13920,
          "time": 103.07708024999998,
          "velocity": 0.7874015748031497
        },
        {
          "duration": 0.41666650000000516,
          "durationTicks": 60,
          "midi": 64,
          "name": "E4",
          "ticks": 14010,
          "time": 103.70207999999998,
          "velocity": 0.7874015748031497
        },
        {
          "duration": 0.41666650000000516,
          "durationTicks": 60,
          "midi": 72,
          "name": "C5",
          "ticks": 14010,
          "time": 103.70207999999998,
          "velocity": 0.7874015748031497
        },
        {
          "duration": 0.20833324999999547,
          "durationTicks": 30,
          "midi": 64,
          "name": "E4",
          "ticks": 14070,
          "time": 104.11874649999999,
          "velocity": 0.7874015748031497
        },
        {
          "duration": 0.20833324999999547,
          "durationTicks": 30,
          "midi": 64,
          "name": "E4",
          "ticks": 14100,
          "time": 104.32707974999998,
          "velocity": 0.7874015748031497
        },
        {
          "duration": 0.20833324999999547,
          "durationTicks": 30,
          "midi": 71,
          "name": "B4",
          "ticks": 14100,
          "time": 104.32707974999998,
          "velocity": 0.7874015748031497
        },
        {
          "duration": 0.20833325000000968,
          "durationTicks": 30,
          "midi": 64,
          "name": "E4",
          "ticks": 14130,
          "time": 104.53541299999998,
          "velocity": 0.7874015748031497
        },
        {
          "duration": 0.20833325000000968,
          "durationTicks": 30,
          "midi": 72,
          "name": "C5",
          "ticks": 14130,
          "time": 104.53541299999998,
          "velocity": 0.7874015748031497
        },
        {
          "duration": 0.4109590000000054,
          "durationTicks": 60,
          "midi": 64,
          "name": "E4",
          "ticks": 14160,
          "time": 104.74374624999999,
          "velocity": 0.7874015748031497
        },
        {
          "duration": 0.4109590000000054,
          "durationTicks": 60,
          "midi": 71,
          "name": "B4",
          "ticks": 14160,
          "time": 104.74374624999999,
          "velocity": 0.7874015748031497
        },
        {
          "duration": 0.2054794999999956,
          "durationTicks": 30,
          "midi": 67,
          "name": "G4",
          "ticks": 14220,
          "time": 105.15470524999999,
          "velocity": 0.7874015748031497
        },
        {
          "duration": 0.4109590000000054,
          "durationTicks": 60,
          "midi": 64,
          "name": "E4",
          "ticks": 14250,
          "time": 105.36018474999999,
          "velocity": 0.7874015748031497
        },
        {
          "duration": 0.6164384999999868,
          "durationTicks": 90,
          "midi": 67,
          "name": "G4",
          "ticks": 14310,
          "time": 105.77114375,
          "velocity": 0.7874015748031497
        },
        {
          "duration": 0.2054794999999956,
          "durationTicks": 30,
          "midi": 60,
          "name": "C4",
          "ticks": 14370,
          "time": 106.18210274999998,
          "velocity": 0.7874015748031497
        },
        {
          "duration": 0.2054795000000098,
          "durationTicks": 30,
          "midi": 69,
          "name": "A4",
          "ticks": 14400,
          "time": 106.38758224999998,
          "velocity": 0.7874015748031497
        },
        {
          "duration": 0.2054795000000098,
          "durationTicks": 30,
          "midi": 67,
          "name": "G4",
          "ticks": 14400,
          "time": 106.38758224999998,
          "velocity": 0.7874015748031497
        },
        {
          "duration": 0.2054794999999956,
          "durationTicks": 30,
          "midi": 60,
          "name": "C4",
          "ticks": 14430,
          "time": 106.59306174999999,
          "velocity": 0.7874015748031497
        },
        {
          "duration": 0.4109590000000054,
          "durationTicks": 60,
          "midi": 72,
          "name": "C5",
          "ticks": 14490,
          "time": 107.00402074999998,
          "velocity": 0.7874015748031497
        },
        {
          "duration": 0.2054794999999956,
          "durationTicks": 30,
          "midi": 69,
          "name": "A4",
          "ticks": 14550,
          "time": 107.41497974999999,
          "velocity": 0.7874015748031497
        },
        {
          "duration": 0.2054795000000098,
          "durationTicks": 30,
          "midi": 77,
          "name": "F5",
          "ticks": 14580,
          "time": 107.62045924999998,
          "velocity": 0.7874015748031497
        },
        {
          "duration": 0.2054794999999956,
          "durationTicks": 30,
          "midi": 67,
          "name": "G4",
          "ticks": 14610,
          "time": 107.82593874999999,
          "velocity": 0.7874015748031497
        },
        {
          "duration": 0.2054794999999956,
          "durationTicks": 30,
          "midi": 76,
          "name": "E5",
          "ticks": 14640,
          "time": 108.03141824999999,
          "velocity": 0.7874015748031497
        },
        {
          "duration": 0.2054795000000098,
          "durationTicks": 30,
          "midi": 67,
          "name": "G4",
          "ticks": 14670,
          "time": 108.23689774999998,
          "velocity": 0.7874015748031497
        },
        {
          "duration": 0.2054794999999956,
          "durationTicks": 30,
          "midi": 74,
          "name": "D5",
          "ticks": 14700,
          "time": 108.44237724999999,
          "velocity": 0.7874015748031497
        },
        {
          "duration": 0.8219179999999966,
          "durationTicks": 120,
          "midi": 72,
          "name": "C5",
          "ticks": 14730,
          "time": 108.64785674999999,
          "velocity": 0.7874015748031497
        },
        {
          "duration": 0.2054794999999956,
          "durationTicks": 30,
          "midi": 60,
          "name": "C4",
          "ticks": 14850,
          "time": 109.46977474999998,
          "velocity": 0.7874015748031497
        },
        {
          "duration": 0.2054795000000098,
          "durationTicks": 30,
          "midi": 65,
          "name": "F4",
          "ticks": 14880,
          "time": 109.67525424999998,
          "velocity": 0.7874015748031497
        },
        {
          "duration": 0.2054795000000098,
          "durationTicks": 30,
          "midi": 69,
          "name": "A4",
          "ticks": 14880,
          "time": 109.67525424999998,
          "velocity": 0.7874015748031497
        },
        {
          "duration": 0.2054794999999956,
          "durationTicks": 30,
          "midi": 60,
          "name": "C4",
          "ticks": 14910,
          "time": 109.88073374999999,
          "velocity": 0.7874015748031497
        },
        {
          "duration": 0.2054795000000098,
          "durationTicks": 30,
          "midi": 60,
          "name": "C4",
          "ticks": 14970,
          "time": 110.29169274999998,
          "velocity": 0.7874015748031497
        },
        {
          "duration": 0.2054794999999956,
          "durationTicks": 30,
          "midi": 65,
          "name": "F4",
          "ticks": 15000,
          "time": 110.49717224999999,
          "velocity": 0.7874015748031497
        },
        {
          "duration": 0.2054794999999956,
          "durationTicks": 30,
          "midi": 69,
          "name": "A4",
          "ticks": 15030,
          "time": 110.70265174999999,
          "velocity": 0.7874015748031497
        },
        {
          "duration": 0.2054795000000098,
          "durationTicks": 30,
          "midi": 74,
          "name": "D5",
          "ticks": 15060,
          "time": 110.90813124999998,
          "velocity": 0.7874015748031497
        },
        {
          "duration": 0.2054794999999956,
          "durationTicks": 30,
          "midi": 62,
          "name": "D4",
          "ticks": 15090,
          "time": 111.11361074999999,
          "velocity": 0.7874015748031497
        },
        {
          "duration": 0.2054794999999956,
          "durationTicks": 30,
          "midi": 71,
          "name": "B4",
          "ticks": 15120,
          "time": 111.31909024999999,
          "velocity": 0.7874015748031497
        },
        {
          "duration": 0.2054794999999956,
          "durationTicks": 30,
          "midi": 62,
          "name": "D4",
          "ticks": 15150,
          "time": 111.52456974999998,
          "velocity": 0.7874015748031497
        },
        {
          "duration": 0.8219179999999966,
          "durationTicks": 120,
          "midi": 72,
          "name": "C5",
          "ticks": 15210,
          "time": 111.93552874999999,
          "velocity": 0.7874015748031497
        },
        {
          "duration": 0.2054794999999956,
          "durationTicks": 30,
          "midi": 74,
          "name": "D5",
          "ticks": 15300,
          "time": 112.55196724999999,
          "velocity": 0.7874015748031497
        },
        {
          "duration": 0.2054794999999956,
          "durationTicks": 30,
          "midi": 72,
          "name": "C5",
          "ticks": 15330,
          "time": 112.75744674999999,
          "velocity": 0.7874015748031497
        },
        {
          "duration": 0.4109590000000054,
          "durationTicks": 60,
          "midi": 79,
          "name": "G5",
          "ticks": 15360,
          "time": 112.96292624999998,
          "velocity": 0.7874015748031497
        },
        {
          "duration": 0.2054794999999956,
          "durationTicks": 30,
          "midi": 76,
          "name": "E5",
          "ticks": 15420,
          "time": 113.37388524999999,
          "velocity": 0.7874015748031497
        },
        {
          "duration": 0.2054795000000098,
          "durationTicks": 30,
          "midi": 77,
          "name": "F5",
          "ticks": 15450,
          "time": 113.57936474999998,
          "velocity": 0.7874015748031497
        },
        {
          "duration": 0.4109589999999912,
          "durationTicks": 60,
          "midi": 79,
          "name": "G5",
          "ticks": 15480,
          "time": 113.78484424999999,
          "velocity": 0.7874015748031497
        },
        {
          "duration": 0.2054794999999956,
          "durationTicks": 30,
          "midi": 76,
          "name": "E5",
          "ticks": 15540,
          "time": 114.19580324999998,
          "velocity": 0.7874015748031497
        },
        {
          "duration": 0.2054795000000098,
          "durationTicks": 30,
          "midi": 77,
          "name": "F5",
          "ticks": 15570,
          "time": 114.40128274999998,
          "velocity": 0.7874015748031497
        },
        {
          "duration": 0.2054794999999956,
          "durationTicks": 30,
          "midi": 79,
          "name": "G5",
          "ticks": 15600,
          "time": 114.60676224999999,
          "velocity": 0.7874015748031497
        },
        {
          "duration": 0.2054794999999956,
          "durationTicks": 30,
          "midi": 67,
          "name": "G4",
          "ticks": 15630,
          "time": 114.81224174999998,
          "velocity": 0.7874015748031497
        },
        {
          "duration": 0.2054794999999956,
          "durationTicks": 30,
          "midi": 71,
          "name": "B4",
          "ticks": 15630,
          "time": 114.81224174999998,
          "velocity": 0.7874015748031497
        },
        {
          "duration": 0.2054795000000098,
          "durationTicks": 30,
          "midi": 69,
          "name": "A4",
          "ticks": 15660,
          "time": 115.01772124999998,
          "velocity": 0.7874015748031497
        },
        {
          "duration": 0.2054794999999956,
          "durationTicks": 30,
          "midi": 71,
          "name": "B4",
          "ticks": 15690,
          "time": 115.22320074999999,
          "velocity": 0.7874015748031497
        },
        {
          "duration": 0.2054794999999956,
          "durationTicks": 30,
          "midi": 72,
          "name": "C5",
          "ticks": 15720,
          "time": 115.42868024999999,
          "velocity": 0.7874015748031497
        },
        {
          "duration": 0.2054795000000098,
          "durationTicks": 30,
          "midi": 74,
          "name": "D5",
          "ticks": 15750,
          "time": 115.63415974999998,
          "velocity": 0.7874015748031497
        },
        {
          "duration": 0.2054794999999956,
          "durationTicks": 30,
          "midi": 76,
          "name": "E5",
          "ticks": 15780,
          "time": 115.83963924999999,
          "velocity": 0.7874015748031497
        },
        {
          "duration": 0.2054794999999956,
          "durationTicks": 30,
          "midi": 77,
          "name": "F5",
          "ticks": 15810,
          "time": 116.04511874999999,
          "velocity": 0.7874015748031497
        },
        {
          "duration": 0.4109590000000054,
          "durationTicks": 60,
          "midi": 76,
          "name": "E5",
          "ticks": 15840,
          "time": 116.25059824999998,
          "velocity": 0.7874015748031497
        },
        {
          "duration": 0.2054794999999956,
          "durationTicks": 30,
          "midi": 72,
          "name": "C5",
          "ticks": 15900,
          "time": 116.66155724999999,
          "velocity": 0.7874015748031497
        },
        {
          "duration": 0.2054794999999956,
          "durationTicks": 30,
          "midi": 74,
          "name": "D5",
          "ticks": 15930,
          "time": 116.86703674999998,
          "velocity": 0.7874015748031497
        },
        {
          "duration": 0.4109590000000054,
          "durationTicks": 60,
          "midi": 76,
          "name": "E5",
          "ticks": 15960,
          "time": 117.07251624999998,
          "velocity": 0.7874015748031497
        },
        {
          "duration": 0.2054795000000098,
          "durationTicks": 30,
          "midi": 64,
          "name": "E4",
          "ticks": 16020,
          "time": 117.48347524999998,
          "velocity": 0.7874015748031497
        },
        {
          "duration": 0.2054794999999956,
          "durationTicks": 30,
          "midi": 65,
          "name": "F4",
          "ticks": 16050,
          "time": 117.68895475,
          "velocity": 0.7874015748031497
        },
        {
          "duration": 0.2054794999999956,
          "durationTicks": 30,
          "midi": 67,
          "name": "G4",
          "ticks": 16080,
          "time": 117.89443424999999,
          "velocity": 0.7874015748031497
        },
        {
          "duration": 0.2054794999999956,
          "durationTicks": 30,
          "midi": 69,
          "name": "A4",
          "ticks": 16110,
          "time": 118.09991374999998,
          "velocity": 0.7874015748031497
        },
        {
          "duration": 0.2054795000000098,
          "durationTicks": 30,
          "midi": 67,
          "name": "G4",
          "ticks": 16140,
          "time": 118.30539324999998,
          "velocity": 0.7874015748031497
        },
        {
          "duration": 0.2054794999999956,
          "durationTicks": 30,
          "midi": 65,
          "name": "F4",
          "ticks": 16170,
          "time": 118.51087274999999,
          "velocity": 0.7874015748031497
        },
        {
          "duration": 0.2054794999999956,
          "durationTicks": 30,
          "midi": 67,
          "name": "G4",
          "ticks": 16200,
          "time": 118.71635224999999,
          "velocity": 0.7874015748031497
        },
        {
          "duration": 0.2054795000000098,
          "durationTicks": 30,
          "midi": 72,
          "name": "C5",
          "ticks": 16230,
          "time": 118.92183174999998,
          "velocity": 0.7874015748031497
        },
        {
          "duration": 0.2054794999999956,
          "durationTicks": 30,
          "midi": 71,
          "name": "B4",
          "ticks": 16260,
          "time": 119.12731124999999,
          "velocity": 0.7874015748031497
        },
        {
          "duration": 0.2054794999999956,
          "durationTicks": 30,
          "midi": 72,
          "name": "C5",
          "ticks": 16290,
          "time": 119.33279074999999,
          "velocity": 0.7874015748031497
        },
        {
          "duration": 0.4109590000000054,
          "durationTicks": 60,
          "midi": 69,
          "name": "A4",
          "ticks": 16320,
          "time": 119.53827024999998,
          "velocity": 0.7874015748031497
        },
        {
          "duration": 0.2054794999999956,
          "durationTicks": 30,
          "midi": 72,
          "name": "C5",
          "ticks": 16380,
          "time": 119.94922924999999,
          "velocity": 0.7874015748031497
        },
        {
          "duration": 0.2054795000000098,
          "durationTicks": 30,
          "midi": 71,
          "name": "B4",
          "ticks": 16410,
          "time": 120.15470874999998,
          "velocity": 0.7874015748031497
        },
        {
          "duration": 0.4109589999999912,
          "durationTicks": 60,
          "midi": 69,
          "name": "A4",
          "ticks": 16440,
          "time": 120.36018825,
          "velocity": 0.7874015748031497
        },
        {
          "duration": 0.2054794999999956,
          "durationTicks": 30,
          "midi": 67,
          "name": "G4",
          "ticks": 16500,
          "time": 120.77114724999998,
          "velocity": 0.7874015748031497
        },
        {
          "duration": 0.2054795000000098,
          "durationTicks": 30,
          "midi": 65,
          "name": "F4",
          "ticks": 16530,
          "time": 120.97662674999998,
          "velocity": 0.7874015748031497
        },
        {
          "duration": 0.2054794999999956,
          "durationTicks": 30,
          "midi": 67,
          "name": "G4",
          "ticks": 16560,
          "time": 121.18210624999999,
          "velocity": 0.7874015748031497
        },
        {
          "duration": 0.2054794999999956,
          "durationTicks": 30,
          "midi": 65,
          "name": "F4",
          "ticks": 16590,
          "time": 121.38758574999999,
          "velocity": 0.7874015748031497
        },
        {
          "duration": 0.2054795000000098,
          "durationTicks": 30,
          "midi": 64,
          "name": "E4",
          "ticks": 16620,
          "time": 121.59306524999998,
          "velocity": 0.7874015748031497
        },
        {
          "duration": 0.2054794999999956,
          "durationTicks": 30,
          "midi": 65,
          "name": "F4",
          "ticks": 16650,
          "time": 121.79854474999999,
          "velocity": 0.7874015748031497
        },
        {
          "duration": 0.2054794999999956,
          "durationTicks": 30,
          "midi": 67,
          "name": "G4",
          "ticks": 16680,
          "time": 122.00402424999999,
          "velocity": 0.7874015748031497
        },
        {
          "duration": 0.2054794999999956,
          "durationTicks": 30,
          "midi": 69,
          "name": "A4",
          "ticks": 16710,
          "time": 122.20950374999998,
          "velocity": 0.7874015748031497
        },
        {
          "duration": 0.2054795000000098,
          "durationTicks": 30,
          "midi": 71,
          "name": "B4",
          "ticks": 16740,
          "time": 122.41498324999998,
          "velocity": 0.7874015748031497
        },
        {
          "duration": 0.2054794999999956,
          "durationTicks": 30,
          "midi": 72,
          "name": "C5",
          "ticks": 16770,
          "time": 122.62046274999999,
          "velocity": 0.7874015748031497
        },
        {
          "duration": 0.4109590000000054,
          "durationTicks": 60,
          "midi": 69,
          "name": "A4",
          "ticks": 16800,
          "time": 122.82594224999998,
          "velocity": 0.7874015748031497
        },
        {
          "duration": 0.2054794999999956,
          "durationTicks": 30,
          "midi": 72,
          "name": "C5",
          "ticks": 16860,
          "time": 123.23690124999999,
          "velocity": 0.7874015748031497
        },
        {
          "duration": 0.2054794999999956,
          "durationTicks": 30,
          "midi": 71,
          "name": "B4",
          "ticks": 16890,
          "time": 123.44238074999998,
          "velocity": 0.7874015748031497
        },
        {
          "duration": 0.4109590000000054,
          "durationTicks": 60,
          "midi": 72,
          "name": "C5",
          "ticks": 16920,
          "time": 123.64786024999998,
          "velocity": 0.7874015748031497
        },
        {
          "duration": 0.2054794999999956,
          "durationTicks": 30,
          "midi": 71,
          "name": "B4",
          "ticks": 16980,
          "time": 124.05881924999998,
          "velocity": 0.7874015748031497
        },
        {
          "duration": 0.2054795000000098,
          "durationTicks": 30,
          "midi": 72,
          "name": "C5",
          "ticks": 17010,
          "time": 124.26429874999998,
          "velocity": 0.7874015748031497
        },
        {
          "duration": 0.2054794999999956,
          "durationTicks": 30,
          "midi": 71,
          "name": "B4",
          "ticks": 17040,
          "time": 124.46977824999999,
          "velocity": 0.7874015748031497
        },
        {
          "duration": 0.2054794999999956,
          "durationTicks": 30,
          "midi": 69,
          "name": "A4",
          "ticks": 17070,
          "time": 124.67525774999999,
          "velocity": 0.7874015748031497
        },
        {
          "duration": 0.2054794999999956,
          "durationTicks": 30,
          "midi": 71,
          "name": "B4",
          "ticks": 17100,
          "time": 124.88073724999998,
          "velocity": 0.7874015748031497
        },
        {
          "duration": 0.2054795000000098,
          "durationTicks": 30,
          "midi": 72,
          "name": "C5",
          "ticks": 17130,
          "time": 125.08621674999998,
          "velocity": 0.7874015748031497
        },
        {
          "duration": 0.2054794999999956,
          "durationTicks": 30,
          "midi": 71,
          "name": "B4",
          "ticks": 17160,
          "time": 125.29169624999999,
          "velocity": 0.7874015748031497
        },
        {
          "duration": 0.2054794999999956,
          "durationTicks": 30,
          "midi": 74,
          "name": "D5",
          "ticks": 17160,
          "time": 125.29169624999999,
          "velocity": 0.7874015748031497
        },
        {
          "duration": 0.2054795000000098,
          "durationTicks": 30,
          "midi": 72,
          "name": "C5",
          "ticks": 17190,
          "time": 125.49717574999998,
          "velocity": 0.7874015748031497
        },
        {
          "duration": 0.2054795000000098,
          "durationTicks": 30,
          "midi": 76,
          "name": "E5",
          "ticks": 17190,
          "time": 125.49717574999998,
          "velocity": 0.7874015748031497
        },
        {
          "duration": 0.2054794999999956,
          "durationTicks": 30,
          "midi": 74,
          "name": "D5",
          "ticks": 17220,
          "time": 125.70265524999999,
          "velocity": 0.7874015748031497
        },
        {
          "duration": 0.2054794999999956,
          "durationTicks": 30,
          "midi": 77,
          "name": "F5",
          "ticks": 17220,
          "time": 125.70265524999999,
          "velocity": 0.7874015748031497
        },
        {
          "duration": 0.2054794999999956,
          "durationTicks": 30,
          "midi": 76,
          "name": "E5",
          "ticks": 17250,
          "time": 125.90813474999999,
          "velocity": 0.7874015748031497
        },
        {
          "duration": 0.2054794999999956,
          "durationTicks": 30,
          "midi": 79,
          "name": "G5",
          "ticks": 17250,
          "time": 125.90813474999999,
          "velocity": 0.7874015748031497
        },
        {
          "duration": 0.4109590000000054,
          "durationTicks": 60,
          "midi": 76,
          "name": "E5",
          "ticks": 17280,
          "time": 126.11361424999998,
          "velocity": 0.7874015748031497
        },
        {
          "duration": 0.4109590000000054,
          "durationTicks": 60,
          "midi": 79,
          "name": "G5",
          "ticks": 17280,
          "time": 126.11361424999998,
          "velocity": 0.7874015748031497
        },
        {
          "duration": 0.2054794999999956,
          "durationTicks": 30,
          "midi": 72,
          "name": "C5",
          "ticks": 17340,
          "time": 126.52457324999999,
          "velocity": 0.7874015748031497
        },
        {
          "duration": 0.2054794999999956,
          "durationTicks": 30,
          "midi": 76,
          "name": "E5",
          "ticks": 17340,
          "time": 126.52457324999999,
          "velocity": 0.7874015748031497
        },
        {
          "duration": 0.2054794999999956,
          "durationTicks": 30,
          "midi": 74,
          "name": "D5",
          "ticks": 17370,
          "time": 126.73005274999998,
          "velocity": 0.7874015748031497
        },
        {
          "duration": 0.2054794999999956,
          "durationTicks": 30,
          "midi": 77,
          "name": "F5",
          "ticks": 17370,
          "time": 126.73005274999998,
          "velocity": 0.7874015748031497
        },
        {
          "duration": 0.4109590000000054,
          "durationTicks": 60,
          "midi": 76,
          "name": "E5",
          "ticks": 17400,
          "time": 126.93553224999998,
          "velocity": 0.7874015748031497
        },
        {
          "duration": 0.4109590000000054,
          "durationTicks": 60,
          "midi": 79,
          "name": "G5",
          "ticks": 17400,
          "time": 126.93553224999998,
          "velocity": 0.7874015748031497
        },
        {
          "duration": 0.2054794999999956,
          "durationTicks": 30,
          "midi": 72,
          "name": "C5",
          "ticks": 17460,
          "time": 127.34649124999999,
          "velocity": 0.7874015748031497
        },
        {
          "duration": 0.2054794999999956,
          "durationTicks": 30,
          "midi": 76,
          "name": "E5",
          "ticks": 17460,
          "time": 127.34649124999999,
          "velocity": 0.7874015748031497
        },
        {
          "duration": 0.2054794999999956,
          "durationTicks": 30,
          "midi": 74,
          "name": "D5",
          "ticks": 17490,
          "time": 127.55197074999998,
          "velocity": 0.7874015748031497
        },
        {
          "duration": 0.2054794999999956,
          "durationTicks": 30,
          "midi": 77,
          "name": "F5",
          "ticks": 17490,
          "time": 127.55197074999998,
          "velocity": 0.7874015748031497
        },
        {
          "duration": 0.2054795000000098,
          "durationTicks": 30,
          "midi": 76,
          "name": "E5",
          "ticks": 17520,
          "time": 127.75745024999998,
          "velocity": 0.7874015748031497
        },
        {
          "duration": 0.2054795000000098,
          "durationTicks": 30,
          "midi": 79,
          "name": "G5",
          "ticks": 17520,
          "time": 127.75745024999998,
          "velocity": 0.7874015748031497
        },
        {
          "duration": 0.2054795000000098,
          "durationTicks": 30,
          "midi": 67,
          "name": "G4",
          "ticks": 17550,
          "time": 127.96292974999999,
          "velocity": 0.7874015748031497
        },
        {
          "duration": 0.2054795000000098,
          "durationTicks": 30,
          "midi": 71,
          "name": "B4",
          "ticks": 17550,
          "time": 127.96292974999999,
          "velocity": 0.7874015748031497
        },
        {
          "duration": 0.2054794999999956,
          "durationTicks": 30,
          "midi": 69,
          "name": "A4",
          "ticks": 17580,
          "time": 128.16840925,
          "velocity": 0.7874015748031497
        },
        {
          "duration": 0.2054794999999956,
          "durationTicks": 30,
          "midi": 71,
          "name": "B4",
          "ticks": 17610,
          "time": 128.37388875,
          "velocity": 0.7874015748031497
        },
        {
          "duration": 0.2054794999999956,
          "durationTicks": 30,
          "midi": 72,
          "name": "C5",
          "ticks": 17640,
          "time": 128.57936825,
          "velocity": 0.7874015748031497
        },
        {
          "duration": 0.2054794999999956,
          "durationTicks": 30,
          "midi": 74,
          "name": "D5",
          "ticks": 17670,
          "time": 128.78484774999998,
          "velocity": 0.7874015748031497
        },
        {
          "duration": 0.2054794999999956,
          "durationTicks": 30,
          "midi": 76,
          "name": "E5",
          "ticks": 17700,
          "time": 128.99032724999998,
          "velocity": 0.7874015748031497
        },
        {
          "duration": 0.20547950000002402,
          "durationTicks": 30,
          "midi": 77,
          "name": "F5",
          "ticks": 17730,
          "time": 129.19580674999997,
          "velocity": 0.7874015748031497
        },
        {
          "duration": 0.4109589999999912,
          "durationTicks": 60,
          "midi": 72,
          "name": "C5",
          "ticks": 17760,
          "time": 129.40128625,
          "velocity": 0.7874015748031497
        },
        {
          "duration": 0.4109589999999912,
          "durationTicks": 60,
          "midi": 76,
          "name": "E5",
          "ticks": 17760,
          "time": 129.40128625,
          "velocity": 0.7874015748031497
        },
        {
          "duration": 0.2054794999999956,
          "durationTicks": 30,
          "midi": 69,
          "name": "A4",
          "ticks": 17820,
          "time": 129.81224525,
          "velocity": 0.7874015748031497
        },
        {
          "duration": 0.2054794999999956,
          "durationTicks": 30,
          "midi": 72,
          "name": "C5",
          "ticks": 17820,
          "time": 129.81224525,
          "velocity": 0.7874015748031497
        },
        {
          "duration": 0.2054794999999956,
          "durationTicks": 30,
          "midi": 71,
          "name": "B4",
          "ticks": 17850,
          "time": 130.01772474999999,
          "velocity": 0.7874015748031497
        },
        {
          "duration": 0.2054794999999956,
          "durationTicks": 30,
          "midi": 74,
          "name": "D5",
          "ticks": 17850,
          "time": 130.01772474999999,
          "velocity": 0.7874015748031497
        },
        {
          "duration": 0.4109589999999912,
          "durationTicks": 60,
          "midi": 72,
          "name": "C5",
          "ticks": 17880,
          "time": 130.22320424999998,
          "velocity": 0.7874015748031497
        },
        {
          "duration": 0.4109589999999912,
          "durationTicks": 60,
          "midi": 76,
          "name": "E5",
          "ticks": 17880,
          "time": 130.22320424999998,
          "velocity": 0.7874015748031497
        },
        {
          "duration": 0.20547950000002402,
          "durationTicks": 30,
          "midi": 64,
          "name": "E4",
          "ticks": 17940,
          "time": 130.63416324999997,
          "velocity": 0.7874015748031497
        },
        {
          "duration": 0.2054794999999956,
          "durationTicks": 30,
          "midi": 65,
          "name": "F4",
          "ticks": 17970,
          "time": 130.83964275,
          "velocity": 0.7874015748031497
        },
        {
          "duration": 0.2054794999999956,
          "durationTicks": 30,
          "midi": 67,
          "name": "G4",
          "ticks": 18000,
          "time": 131.04512225,
          "velocity": 0.7874015748031497
        },
        {
          "duration": 0.2054794999999956,
          "durationTicks": 30,
          "midi": 69,
          "name": "A4",
          "ticks": 18030,
          "time": 131.25060175,
          "velocity": 0.7874015748031497
        },
        {
          "duration": 0.2054794999999956,
          "durationTicks": 30,
          "midi": 67,
          "name": "G4",
          "ticks": 18060,
          "time": 131.45608124999998,
          "velocity": 0.7874015748031497
        },
        {
          "duration": 0.2054794999999956,
          "durationTicks": 30,
          "midi": 65,
          "name": "F4",
          "ticks": 18090,
          "time": 131.66156074999998,
          "velocity": 0.7874015748031497
        },
        {
          "duration": 0.2054794999999956,
          "durationTicks": 30,
          "midi": 67,
          "name": "G4",
          "ticks": 18120,
          "time": 131.86704024999997,
          "velocity": 0.7874015748031497
        },
        {
          "duration": 0.20547950000002402,
          "durationTicks": 30,
          "midi": 72,
          "name": "C5",
          "ticks": 18150,
          "time": 132.07251974999997,
          "velocity": 0.7874015748031497
        },
        {
          "duration": 0.2054794999999956,
          "durationTicks": 30,
          "midi": 71,
          "name": "B4",
          "ticks": 18180,
          "time": 132.27799925,
          "velocity": 0.7874015748031497
        },
        {
          "duration": 0.2054794999999956,
          "durationTicks": 30,
          "midi": 72,
          "name": "C5",
          "ticks": 18210,
          "time": 132.48347875,
          "velocity": 0.7874015748031497
        },
        {
          "duration": 0.4109589999999912,
          "durationTicks": 60,
          "midi": 65,
          "name": "F4",
          "ticks": 18240,
          "time": 132.68895824999998,
          "velocity": 0.7874015748031497
        },
        {
          "duration": 0.4109589999999912,
          "durationTicks": 60,
          "midi": 69,
          "name": "A4",
          "ticks": 18240,
          "time": 132.68895824999998,
          "velocity": 0.7874015748031497
        },
        {
          "duration": 0.20547950000002402,
          "durationTicks": 30,
          "midi": 69,
          "name": "A4",
          "ticks": 18300,
          "time": 133.09991724999998,
          "velocity": 0.7874015748031497
        },
        {
          "duration": 0.20547950000002402,
          "durationTicks": 30,
          "midi": 72,
          "name": "C5",
          "ticks": 18300,
          "time": 133.09991724999998,
          "velocity": 0.7874015748031497
        },
        {
          "duration": 0.2054794999999956,
          "durationTicks": 30,
          "midi": 67,
          "name": "G4",
          "ticks": 18330,
          "time": 133.30539675,
          "velocity": 0.7874015748031497
        },
        {
          "duration": 0.2054794999999956,
          "durationTicks": 30,
          "midi": 71,
          "name": "B4",
          "ticks": 18330,
          "time": 133.30539675,
          "velocity": 0.7874015748031497
        },
        {
          "duration": 0.4109589999999912,
          "durationTicks": 60,
          "midi": 65,
          "name": "F4",
          "ticks": 18360,
          "time": 133.51087625,
          "velocity": 0.7874015748031497
        },
        {
          "duration": 0.4109589999999912,
          "durationTicks": 60,
          "midi": 69,
          "name": "A4",
          "ticks": 18360,
          "time": 133.51087625,
          "velocity": 0.7874015748031497
        },
        {
          "duration": 0.2054794999999956,
          "durationTicks": 30,
          "midi": 64,
          "name": "E4",
          "ticks": 18420,
          "time": 133.92183525,
          "velocity": 0.7874015748031497
        },
        {
          "duration": 0.2054794999999956,
          "durationTicks": 30,
          "midi": 67,
          "name": "G4",
          "ticks": 18420,
          "time": 133.92183525,
          "velocity": 0.7874015748031497
        },
        {
          "duration": 0.2054794999999956,
          "durationTicks": 30,
          "midi": 62,
          "name": "D4",
          "ticks": 18450,
          "time": 134.12731474999998,
          "velocity": 0.7874015748031497
        },
        {
          "duration": 0.2054794999999956,
          "durationTicks": 30,
          "midi": 65,
          "name": "F4",
          "ticks": 18450,
          "time": 134.12731474999998,
          "velocity": 0.7874015748031497
        },
        {
          "duration": 0.2054794999999956,
          "durationTicks": 30,
          "midi": 64,
          "name": "E4",
          "ticks": 18480,
          "time": 134.33279424999998,
          "velocity": 0.7874015748031497
        },
        {
          "duration": 0.2054794999999956,
          "durationTicks": 30,
          "midi": 67,
          "name": "G4",
          "ticks": 18480,
          "time": 134.33279424999998,
          "velocity": 0.7874015748031497
        },
        {
          "duration": 0.20547950000002402,
          "durationTicks": 30,
          "midi": 62,
          "name": "D4",
          "ticks": 18510,
          "time": 134.53827374999997,
          "velocity": 0.7874015748031497
        },
        {
          "duration": 0.20547950000002402,
          "durationTicks": 30,
          "midi": 65,
          "name": "F4",
          "ticks": 18510,
          "time": 134.53827374999997,
          "velocity": 0.7874015748031497
        },
        {
          "duration": 0.2054794999999956,
          "durationTicks": 30,
          "midi": 60,
          "name": "C4",
          "ticks": 18540,
          "time": 134.74375325,
          "velocity": 0.7874015748031497
        },
        {
          "duration": 0.2054794999999956,
          "durationTicks": 30,
          "midi": 64,
          "name": "E4",
          "ticks": 18540,
          "time": 134.74375325,
          "velocity": 0.7874015748031497
        },
        {
          "duration": 0.2054794999999956,
          "durationTicks": 30,
          "midi": 62,
          "name": "D4",
          "ticks": 18570,
          "time": 134.94923275,
          "velocity": 0.7874015748031497
        },
        {
          "duration": 0.2054794999999956,
          "durationTicks": 30,
          "midi": 65,
          "name": "F4",
          "ticks": 18570,
          "time": 134.94923275,
          "velocity": 0.7874015748031497
        },
        {
          "duration": 0.2054794999999956,
          "durationTicks": 30,
          "midi": 64,
          "name": "E4",
          "ticks": 18600,
          "time": 135.15471225,
          "velocity": 0.7874015748031497
        },
        {
          "duration": 0.2054794999999956,
          "durationTicks": 30,
          "midi": 67,
          "name": "G4",
          "ticks": 18600,
          "time": 135.15471225,
          "velocity": 0.7874015748031497
        },
        {
          "duration": 0.2054794999999956,
          "durationTicks": 30,
          "midi": 65,
          "name": "F4",
          "ticks": 18630,
          "time": 135.36019174999998,
          "velocity": 0.7874015748031497
        },
        {
          "duration": 0.2054794999999956,
          "durationTicks": 30,
          "midi": 69,
          "name": "A4",
          "ticks": 18630,
          "time": 135.36019174999998,
          "velocity": 0.7874015748031497
        },
        {
          "duration": 0.2054794999999956,
          "durationTicks": 30,
          "midi": 67,
          "name": "G4",
          "ticks": 18660,
          "time": 135.56567124999998,
          "velocity": 0.7874015748031497
        },
        {
          "duration": 0.2054794999999956,
          "durationTicks": 30,
          "midi": 71,
          "name": "B4",
          "ticks": 18660,
          "time": 135.56567124999998,
          "velocity": 0.7874015748031497
        },
        {
          "duration": 0.2054794999999956,
          "durationTicks": 30,
          "midi": 69,
          "name": "A4",
          "ticks": 18690,
          "time": 135.77115074999998,
          "velocity": 0.7874015748031497
        },
        {
          "duration": 0.2054794999999956,
          "durationTicks": 30,
          "midi": 72,
          "name": "C5",
          "ticks": 18690,
          "time": 135.77115074999998,
          "velocity": 0.7874015748031497
        },
        {
          "duration": 0.4109590000000196,
          "durationTicks": 60,
          "midi": 65,
          "name": "F4",
          "ticks": 18720,
          "time": 135.97663024999997,
          "velocity": 0.7874015748031497
        },
        {
          "duration": 0.4109590000000196,
          "durationTicks": 60,
          "midi": 69,
          "name": "A4",
          "ticks": 18720,
          "time": 135.97663024999997,
          "velocity": 0.7874015748031497
        },
        {
          "duration": 0.2054794999999956,
          "durationTicks": 30,
          "midi": 69,
          "name": "A4",
          "ticks": 18780,
          "time": 136.38758925,
          "velocity": 0.7874015748031497
        },
        {
          "duration": 0.2054794999999956,
          "durationTicks": 30,
          "midi": 72,
          "name": "C5",
          "ticks": 18780,
          "time": 136.38758925,
          "velocity": 0.7874015748031497
        },
        {
          "duration": 0.2054794999999956,
          "durationTicks": 30,
          "midi": 67,
          "name": "G4",
          "ticks": 18810,
          "time": 136.59306875,
          "velocity": 0.7874015748031497
        },
        {
          "duration": 0.2054794999999956,
          "durationTicks": 30,
          "midi": 71,
          "name": "B4",
          "ticks": 18810,
          "time": 136.59306875,
          "velocity": 0.7874015748031497
        },
        {
          "duration": 0.4109590000000196,
          "durationTicks": 60,
          "midi": 69,
          "name": "A4",
          "ticks": 18840,
          "time": 136.79854824999998,
          "velocity": 0.7874015748031497
        },
        {
          "duration": 0.4109590000000196,
          "durationTicks": 60,
          "midi": 72,
          "name": "C5",
          "ticks": 18840,
          "time": 136.79854824999998,
          "velocity": 0.7874015748031497
        },
        {
          "duration": 0.20547949999996717,
          "durationTicks": 30,
          "midi": 67,
          "name": "G4",
          "ticks": 18900,
          "time": 137.20950725,
          "velocity": 0.7874015748031497
        },
        {
          "duration": 0.20547949999996717,
          "durationTicks": 30,
          "midi": 71,
          "name": "B4",
          "ticks": 18900,
          "time": 137.20950725,
          "velocity": 0.7874015748031497
        },
        {
          "duration": 0.20547950000002402,
          "durationTicks": 30,
          "midi": 69,
          "name": "A4",
          "ticks": 18930,
          "time": 137.41498674999997,
          "velocity": 0.7874015748031497
        },
        {
          "duration": 0.20547950000002402,
          "durationTicks": 30,
          "midi": 72,
          "name": "C5",
          "ticks": 18930,
          "time": 137.41498674999997,
          "velocity": 0.7874015748031497
        },
        {
          "duration": 0.2054794999999956,
          "durationTicks": 30,
          "midi": 67,
          "name": "G4",
          "ticks": 18960,
          "time": 137.62046625,
          "velocity": 0.7874015748031497
        },
        {
          "duration": 0.2054794999999956,
          "durationTicks": 30,
          "midi": 71,
          "name": "B4",
          "ticks": 18960,
          "time": 137.62046625,
          "velocity": 0.7874015748031497
        },
        {
          "duration": 0.2054794999999956,
          "durationTicks": 30,
          "midi": 65,
          "name": "F4",
          "ticks": 18990,
          "time": 137.82594575,
          "velocity": 0.7874015748031497
        },
        {
          "duration": 0.2054794999999956,
          "durationTicks": 30,
          "midi": 69,
          "name": "A4",
          "ticks": 18990,
          "time": 137.82594575,
          "velocity": 0.7874015748031497
        },
        {
          "duration": 0.2054794999999956,
          "durationTicks": 30,
          "midi": 67,
          "name": "G4",
          "ticks": 19020,
          "time": 138.03142524999998,
          "velocity": 0.7874015748031497
        },
        {
          "duration": 0.2054794999999956,
          "durationTicks": 30,
          "midi": 71,
          "name": "B4",
          "ticks": 19020,
          "time": 138.03142524999998,
          "velocity": 0.7874015748031497
        },
        {
          "duration": 0.2054794999999956,
          "durationTicks": 30,
          "midi": 69,
          "name": "A4",
          "ticks": 19050,
          "time": 138.23690474999998,
          "velocity": 0.7874015748031497
        },
        {
          "duration": 0.2054794999999956,
          "durationTicks": 30,
          "midi": 72,
          "name": "C5",
          "ticks": 19050,
          "time": 138.23690474999998,
          "velocity": 0.7874015748031497
        },
        {
          "duration": 0.20547950000002402,
          "durationTicks": 30,
          "midi": 71,
          "name": "B4",
          "ticks": 19080,
          "time": 138.44238424999998,
          "velocity": 0.7874015748031497
        },
        {
          "duration": 0.20547950000002402,
          "durationTicks": 30,
          "midi": 74,
          "name": "D5",
          "ticks": 19080,
          "time": 138.44238424999998,
          "velocity": 0.7874015748031497
        },
        {
          "duration": 0.20547949999996717,
          "durationTicks": 30,
          "midi": 72,
          "name": "C5",
          "ticks": 19110,
          "time": 138.64786375,
          "velocity": 0.7874015748031497
        },
        {
          "duration": 0.20547949999996717,
          "durationTicks": 30,
          "midi": 76,
          "name": "E5",
          "ticks": 19110,
          "time": 138.64786375,
          "velocity": 0.7874015748031497
        },
        {
          "duration": 0.20547950000002402,
          "durationTicks": 30,
          "midi": 74,
          "name": "D5",
          "ticks": 19140,
          "time": 138.85334324999997,
          "velocity": 0.7874015748031497
        },
        {
          "duration": 0.20547950000002402,
          "durationTicks": 30,
          "midi": 77,
          "name": "F5",
          "ticks": 19140,
          "time": 138.85334324999997,
          "velocity": 0.7874015748031497
        },
        {
          "duration": 0.2054794999999956,
          "durationTicks": 30,
          "midi": 76,
          "name": "E5",
          "ticks": 19170,
          "time": 139.05882275,
          "velocity": 0.7874015748031497
        },
        {
          "duration": 0.2054794999999956,
          "durationTicks": 30,
          "midi": 79,
          "name": "G5",
          "ticks": 19170,
          "time": 139.05882275,
          "velocity": 0.7874015748031497
        },
        {
          "duration": 0.4109589999999912,
          "durationTicks": 60,
          "midi": 76,
          "name": "E5",
          "ticks": 19200,
          "time": 139.26430225,
          "velocity": 0.7874015748031497
        },
        {
          "duration": 0.4109589999999912,
          "durationTicks": 60,
          "midi": 79,
          "name": "G5",
          "ticks": 19200,
          "time": 139.26430225,
          "velocity": 0.7874015748031497
        },
        {
          "duration": 0.2054794999999956,
          "durationTicks": 30,
          "midi": 72,
          "name": "C5",
          "ticks": 19260,
          "time": 139.67526124999998,
          "velocity": 0.7874015748031497
        },
        {
          "duration": 0.2054794999999956,
          "durationTicks": 30,
          "midi": 76,
          "name": "E5",
          "ticks": 19260,
          "time": 139.67526124999998,
          "velocity": 0.7874015748031497
        },
        {
          "duration": 0.20547950000002402,
          "durationTicks": 30,
          "midi": 74,
          "name": "D5",
          "ticks": 19290,
          "time": 139.88074074999997,
          "velocity": 0.7874015748031497
        },
        {
          "duration": 0.20547950000002402,
          "durationTicks": 30,
          "midi": 77,
          "name": "F5",
          "ticks": 19290,
          "time": 139.88074074999997,
          "velocity": 0.7874015748031497
        },
        {
          "duration": 0.4109589999999912,
          "durationTicks": 60,
          "midi": 76,
          "name": "E5",
          "ticks": 19320,
          "time": 140.08622025,
          "velocity": 0.7874015748031497
        },
        {
          "duration": 0.4109589999999912,
          "durationTicks": 60,
          "midi": 79,
          "name": "G5",
          "ticks": 19320,
          "time": 140.08622025,
          "velocity": 0.7874015748031497
        },
        {
          "duration": 0.2054794999999956,
          "durationTicks": 30,
          "midi": 72,
          "name": "C5",
          "ticks": 19380,
          "time": 140.49717925,
          "velocity": 0.7874015748031497
        },
        {
          "duration": 0.2054794999999956,
          "durationTicks": 30,
          "midi": 76,
          "name": "E5",
          "ticks": 19380,
          "time": 140.49717925,
          "velocity": 0.7874015748031497
        },
        {
          "duration": 0.2054794999999956,
          "durationTicks": 30,
          "midi": 74,
          "name": "D5",
          "ticks": 19410,
          "time": 140.70265874999998,
          "velocity": 0.7874015748031497
        },
        {
          "duration": 0.2054794999999956,
          "durationTicks": 30,
          "midi": 77,
          "name": "F5",
          "ticks": 19410,
          "time": 140.70265874999998,
          "velocity": 0.7874015748031497
        },
        {
          "duration": 0.2054794999999956,
          "durationTicks": 30,
          "midi": 76,
          "name": "E5",
          "ticks": 19440,
          "time": 140.90813824999998,
          "velocity": 0.7874015748031497
        },
        {
          "duration": 0.2054794999999956,
          "durationTicks": 30,
          "midi": 79,
          "name": "G5",
          "ticks": 19440,
          "time": 140.90813824999998,
          "velocity": 0.7874015748031497
        },
        {
          "duration": 0.2054794999999956,
          "durationTicks": 30,
          "midi": 67,
          "name": "G4",
          "ticks": 19470,
          "time": 141.11361774999997,
          "velocity": 0.7874015748031497
        },
        {
          "duration": 0.2054794999999956,
          "durationTicks": 30,
          "midi": 71,
          "name": "B4",
          "ticks": 19470,
          "time": 141.11361774999997,
          "velocity": 0.7874015748031497
        },
        {
          "duration": 0.20547950000002402,
          "durationTicks": 30,
          "midi": 69,
          "name": "A4",
          "ticks": 19500,
          "time": 141.31909724999997,
          "velocity": 0.7874015748031497
        },
        {
          "duration": 0.2054794999999956,
          "durationTicks": 30,
          "midi": 71,
          "name": "B4",
          "ticks": 19530,
          "time": 141.52457675,
          "velocity": 0.7874015748031497
        },
        {
          "duration": 0.2054794999999956,
          "durationTicks": 30,
          "midi": 72,
          "name": "C5",
          "ticks": 19560,
          "time": 141.73005625,
          "velocity": 0.7874015748031497
        },
        {
          "duration": 0.2054794999999956,
          "durationTicks": 30,
          "midi": 74,
          "name": "D5",
          "ticks": 19590,
          "time": 141.93553574999999,
          "velocity": 0.7874015748031497
        },
        {
          "duration": 0.2054794999999956,
          "durationTicks": 30,
          "midi": 76,
          "name": "E5",
          "ticks": 19620,
          "time": 142.14101524999998,
          "velocity": 0.7874015748031497
        },
        {
          "duration": 0.20547950000002402,
          "durationTicks": 30,
          "midi": 77,
          "name": "F5",
          "ticks": 19650,
          "time": 142.34649474999998,
          "velocity": 0.7874015748031497
        },
        {
          "duration": 0.4109589999999912,
          "durationTicks": 60,
          "midi": 72,
          "name": "C5",
          "ticks": 19680,
          "time": 142.55197425,
          "velocity": 0.7874015748031497
        },
        {
          "duration": 0.4109589999999912,
          "durationTicks": 60,
          "midi": 76,
          "name": "E5",
          "ticks": 19680,
          "time": 142.55197425,
          "velocity": 0.7874015748031497
        },
        {
          "duration": 0.2054794999999956,
          "durationTicks": 30,
          "midi": 69,
          "name": "A4",
          "ticks": 19740,
          "time": 142.96293325,
          "velocity": 0.7874015748031497
        },
        {
          "duration": 0.2054794999999956,
          "durationTicks": 30,
          "midi": 72,
          "name": "C5",
          "ticks": 19740,
          "time": 142.96293325,
          "velocity": 0.7874015748031497
        },
        {
          "duration": 0.2054794999999956,
          "durationTicks": 30,
          "midi": 71,
          "name": "B4",
          "ticks": 19770,
          "time": 143.16841275,
          "velocity": 0.7874015748031497
        },
        {
          "duration": 0.2054794999999956,
          "durationTicks": 30,
          "midi": 74,
          "name": "D5",
          "ticks": 19770,
          "time": 143.16841275,
          "velocity": 0.7874015748031497
        },
        {
          "duration": 0.4109589999999912,
          "durationTicks": 60,
          "midi": 72,
          "name": "C5",
          "ticks": 19800,
          "time": 143.37389224999998,
          "velocity": 0.7874015748031497
        },
        {
          "duration": 0.4109589999999912,
          "durationTicks": 60,
          "midi": 76,
          "name": "E5",
          "ticks": 19800,
          "time": 143.37389224999998,
          "velocity": 0.7874015748031497
        },
        {
          "duration": 0.20547950000002402,
          "durationTicks": 30,
          "midi": 64,
          "name": "E4",
          "ticks": 19860,
          "time": 143.78485124999997,
          "velocity": 0.7874015748031497
        },
        {
          "duration": 0.20547949999996717,
          "durationTicks": 30,
          "midi": 65,
          "name": "F4",
          "ticks": 19890,
          "time": 143.99033075,
          "velocity": 0.7874015748031497
        },
        {
          "duration": 0.20547950000002402,
          "durationTicks": 30,
          "midi": 67,
          "name": "G4",
          "ticks": 19920,
          "time": 144.19581024999997,
          "velocity": 0.7874015748031497
        },
        {
          "duration": 0.2054794999999956,
          "durationTicks": 30,
          "midi": 69,
          "name": "A4",
          "ticks": 19950,
          "time": 144.40128975,
          "velocity": 0.7874015748031497
        },
        {
          "duration": 0.2054794999999956,
          "durationTicks": 30,
          "midi": 67,
          "name": "G4",
          "ticks": 19980,
          "time": 144.60676924999999,
          "velocity": 0.7874015748031497
        },
        {
          "duration": 0.2054794999999956,
          "durationTicks": 30,
          "midi": 65,
          "name": "F4",
          "ticks": 20010,
          "time": 144.81224874999998,
          "velocity": 0.7874015748031497
        },
        {
          "duration": 0.2054794999999956,
          "durationTicks": 30,
          "midi": 67,
          "name": "G4",
          "ticks": 20040,
          "time": 145.01772824999998,
          "velocity": 0.7874015748031497
        },
        {
          "duration": 0.20547950000002402,
          "durationTicks": 30,
          "midi": 69,
          "name": "A4",
          "ticks": 20070,
          "time": 145.22320774999997,
          "velocity": 0.7874015748031497
        },
        {
          "duration": 0.20547950000002402,
          "durationTicks": 30,
          "midi": 72,
          "name": "C5",
          "ticks": 20070,
          "time": 145.22320774999997,
          "velocity": 0.7874015748031497
        },
        {
          "duration": 0.2054794999999956,
          "durationTicks": 30,
          "midi": 67,
          "name": "G4",
          "ticks": 20100,
          "time": 145.42868725,
          "velocity": 0.7874015748031497
        },
        {
          "duration": 0.2054794999999956,
          "durationTicks": 30,
          "midi": 71,
          "name": "B4",
          "ticks": 20100,
          "time": 145.42868725,
          "velocity": 0.7874015748031497
        },
        {
          "duration": 0.2054794999999956,
          "durationTicks": 30,
          "midi": 69,
          "name": "A4",
          "ticks": 20130,
          "time": 145.63416675,
          "velocity": 0.7874015748031497
        },
        {
          "duration": 0.2054794999999956,
          "durationTicks": 30,
          "midi": 72,
          "name": "C5",
          "ticks": 20130,
          "time": 145.63416675,
          "velocity": 0.7874015748031497
        },
        {
          "duration": 0.4109589999999912,
          "durationTicks": 60,
          "midi": 65,
          "name": "F4",
          "ticks": 20160,
          "time": 145.83964625,
          "velocity": 0.7874015748031497
        },
        {
          "duration": 0.4109589999999912,
          "durationTicks": 60,
          "midi": 69,
          "name": "A4",
          "ticks": 20160,
          "time": 145.83964625,
          "velocity": 0.7874015748031497
        },
        {
          "duration": 0.2054794999999956,
          "durationTicks": 30,
          "midi": 69,
          "name": "A4",
          "ticks": 20220,
          "time": 146.25060524999998,
          "velocity": 0.7874015748031497
        },
        {
          "duration": 0.2054794999999956,
          "durationTicks": 30,
          "midi": 72,
          "name": "C5",
          "ticks": 20220,
          "time": 146.25060524999998,
          "velocity": 0.7874015748031497
        },
        {
          "duration": 0.2054794999999956,
          "durationTicks": 30,
          "midi": 67,
          "name": "G4",
          "ticks": 20250,
          "time": 146.45608474999997,
          "velocity": 0.7874015748031497
        },
        {
          "duration": 0.2054794999999956,
          "durationTicks": 30,
          "midi": 71,
          "name": "B4",
          "ticks": 20250,
          "time": 146.45608474999997,
          "velocity": 0.7874015748031497
        },
        {
          "duration": 0.4109590000000196,
          "durationTicks": 60,
          "midi": 65,
          "name": "F4",
          "ticks": 20280,
          "time": 146.66156424999997,
          "velocity": 0.7874015748031497
        },
        {
          "duration": 0.4109590000000196,
          "durationTicks": 60,
          "midi": 69,
          "name": "A4",
          "ticks": 20280,
          "time": 146.66156424999997,
          "velocity": 0.7874015748031497
        },
        {
          "duration": 0.2054794999999956,
          "durationTicks": 30,
          "midi": 64,
          "name": "E4",
          "ticks": 20340,
          "time": 147.07252325,
          "velocity": 0.7874015748031497
        },
        {
          "duration": 0.2054794999999956,
          "durationTicks": 30,
          "midi": 67,
          "name": "G4",
          "ticks": 20340,
          "time": 147.07252325,
          "velocity": 0.7874015748031497
        },
        {
          "duration": 0.2054794999999956,
          "durationTicks": 30,
          "midi": 62,
          "name": "D4",
          "ticks": 20370,
          "time": 147.27800274999998,
          "velocity": 0.7874015748031497
        },
        {
          "duration": 0.2054794999999956,
          "durationTicks": 30,
          "midi": 65,
          "name": "F4",
          "ticks": 20370,
          "time": 147.27800274999998,
          "velocity": 0.7874015748031497
        },
        {
          "duration": 0.2054794999999956,
          "durationTicks": 30,
          "midi": 64,
          "name": "E4",
          "ticks": 20400,
          "time": 147.48348224999998,
          "velocity": 0.7874015748031497
        },
        {
          "duration": 0.2054794999999956,
          "durationTicks": 30,
          "midi": 67,
          "name": "G4",
          "ticks": 20400,
          "time": 147.48348224999998,
          "velocity": 0.7874015748031497
        },
        {
          "duration": 0.20547950000002402,
          "durationTicks": 30,
          "midi": 62,
          "name": "D4",
          "ticks": 20430,
          "time": 147.68896174999998,
          "velocity": 0.7874015748031497
        },
        {
          "duration": 0.20547950000002402,
          "durationTicks": 30,
          "midi": 65,
          "name": "F4",
          "ticks": 20430,
          "time": 147.68896174999998,
          "velocity": 0.7874015748031497
        },
        {
          "duration": 0.20547949999996717,
          "durationTicks": 30,
          "midi": 60,
          "name": "C4",
          "ticks": 20460,
          "time": 147.89444125,
          "velocity": 0.7874015748031497
        },
        {
          "duration": 0.20547949999996717,
          "durationTicks": 30,
          "midi": 64,
          "name": "E4",
          "ticks": 20460,
          "time": 147.89444125,
          "velocity": 0.7874015748031497
        },
        {
          "duration": 0.20547950000002402,
          "durationTicks": 30,
          "midi": 62,
          "name": "D4",
          "ticks": 20490,
          "time": 148.09992074999997,
          "velocity": 0.7874015748031497
        },
        {
          "duration": 0.20547950000002402,
          "durationTicks": 30,
          "midi": 65,
          "name": "F4",
          "ticks": 20490,
          "time": 148.09992074999997,
          "velocity": 0.7874015748031497
        },
        {
          "duration": 0.2054794999999956,
          "durationTicks": 30,
          "midi": 64,
          "name": "E4",
          "ticks": 20520,
          "time": 148.30540025,
          "velocity": 0.7874015748031497
        },
        {
          "duration": 0.2054794999999956,
          "durationTicks": 30,
          "midi": 67,
          "name": "G4",
          "ticks": 20520,
          "time": 148.30540025,
          "velocity": 0.7874015748031497
        },
        {
          "duration": 0.2054794999999956,
          "durationTicks": 30,
          "midi": 65,
          "name": "F4",
          "ticks": 20550,
          "time": 148.51087975,
          "velocity": 0.7874015748031497
        },
        {
          "duration": 0.2054794999999956,
          "durationTicks": 30,
          "midi": 69,
          "name": "A4",
          "ticks": 20550,
          "time": 148.51087975,
          "velocity": 0.7874015748031497
        },
        {
          "duration": 0.2054794999999956,
          "durationTicks": 30,
          "midi": 67,
          "name": "G4",
          "ticks": 20580,
          "time": 148.71635924999998,
          "velocity": 0.7874015748031497
        },
        {
          "duration": 0.2054794999999956,
          "durationTicks": 30,
          "midi": 71,
          "name": "B4",
          "ticks": 20580,
          "time": 148.71635924999998,
          "velocity": 0.7874015748031497
        },
        {
          "duration": 0.2054794999999956,
          "durationTicks": 30,
          "midi": 69,
          "name": "A4",
          "ticks": 20610,
          "time": 148.92183874999998,
          "velocity": 0.7874015748031497
        },
        {
          "duration": 0.2054794999999956,
          "durationTicks": 30,
          "midi": 72,
          "name": "C5",
          "ticks": 20610,
          "time": 148.92183874999998,
          "velocity": 0.7874015748031497
        },
        {
          "duration": 0.4109590000000196,
          "durationTicks": 60,
          "midi": 65,
          "name": "F4",
          "ticks": 20640,
          "time": 149.12731824999997,
          "velocity": 0.7874015748031497
        },
        {
          "duration": 0.4109590000000196,
          "durationTicks": 60,
          "midi": 69,
          "name": "A4",
          "ticks": 20640,
          "time": 149.12731824999997,
          "velocity": 0.7874015748031497
        },
        {
          "duration": 0.2054794999999956,
          "durationTicks": 30,
          "midi": 69,
          "name": "A4",
          "ticks": 20700,
          "time": 149.53827725,
          "velocity": 0.7874015748031497
        },
        {
          "duration": 0.2054794999999956,
          "durationTicks": 30,
          "midi": 72,
          "name": "C5",
          "ticks": 20700,
          "time": 149.53827725,
          "velocity": 0.7874015748031497
        },
        {
          "duration": 0.2054794999999956,
          "durationTicks": 30,
          "midi": 67,
          "name": "G4",
          "ticks": 20730,
          "time": 149.74375675,
          "velocity": 0.7874015748031497
        },
        {
          "duration": 0.2054794999999956,
          "durationTicks": 30,
          "midi": 71,
          "name": "B4",
          "ticks": 20730,
          "time": 149.74375675,
          "velocity": 0.7874015748031497
        },
        {
          "duration": 0.4109589999999912,
          "durationTicks": 60,
          "midi": 69,
          "name": "A4",
          "ticks": 20760,
          "time": 149.94923624999998,
          "velocity": 0.7874015748031497
        },
        {
          "duration": 0.4109589999999912,
          "durationTicks": 60,
          "midi": 72,
          "name": "C5",
          "ticks": 20760,
          "time": 149.94923624999998,
          "velocity": 0.7874015748031497
        },
        {
          "duration": 0.2054794999999956,
          "durationTicks": 30,
          "midi": 67,
          "name": "G4",
          "ticks": 20820,
          "time": 150.36019524999998,
          "velocity": 0.7874015748031497
        },
        {
          "duration": 0.2054794999999956,
          "durationTicks": 30,
          "midi": 71,
          "name": "B4",
          "ticks": 20820,
          "time": 150.36019524999998,
          "velocity": 0.7874015748031497
        },
        {
          "duration": 0.20547950000002402,
          "durationTicks": 30,
          "midi": 69,
          "name": "A4",
          "ticks": 20850,
          "time": 150.56567474999997,
          "velocity": 0.7874015748031497
        },
        {
          "duration": 0.20547950000002402,
          "durationTicks": 30,
          "midi": 72,
          "name": "C5",
          "ticks": 20850,
          "time": 150.56567474999997,
          "velocity": 0.7874015748031497
        },
        {
          "duration": 0.2054794999999956,
          "durationTicks": 30,
          "midi": 67,
          "name": "G4",
          "ticks": 20880,
          "time": 150.77115425,
          "velocity": 0.7874015748031497
        },
        {
          "duration": 0.2054794999999956,
          "durationTicks": 30,
          "midi": 71,
          "name": "B4",
          "ticks": 20880,
          "time": 150.77115425,
          "velocity": 0.7874015748031497
        },
        {
          "duration": 0.2054794999999956,
          "durationTicks": 30,
          "midi": 69,
          "name": "A4",
          "ticks": 20910,
          "time": 150.97663375,
          "velocity": 0.7874015748031497
        },
        {
          "duration": 0.2054794999999956,
          "durationTicks": 30,
          "midi": 71,
          "name": "B4",
          "ticks": 20940,
          "time": 151.18211325,
          "velocity": 0.7874015748031497
        },
        {
          "duration": 0.2054794999999956,
          "durationTicks": 30,
          "midi": 72,
          "name": "C5",
          "ticks": 20970,
          "time": 151.38759274999998,
          "velocity": 0.7874015748031497
        },
        {
          "duration": 0.2054794999999956,
          "durationTicks": 30,
          "midi": 74,
          "name": "D5",
          "ticks": 21000,
          "time": 151.59307224999998,
          "velocity": 0.7874015748031497
        },
        {
          "duration": 0.2054794999999956,
          "durationTicks": 30,
          "midi": 76,
          "name": "E5",
          "ticks": 21030,
          "time": 151.79855174999997,
          "velocity": 0.7874015748031497
        },
        {
          "duration": 0.20547950000002402,
          "durationTicks": 30,
          "midi": 77,
          "name": "F5",
          "ticks": 21060,
          "time": 152.00403124999997,
          "velocity": 0.7874015748031497
        },
        {
          "duration": 0.2054794999999956,
          "durationTicks": 30,
          "midi": 79,
          "name": "G5",
          "ticks": 21090,
          "time": 152.20951075,
          "velocity": 0.7874015748031497
        },
        {
          "duration": 0.4109589999999912,
          "durationTicks": 60,
          "midi": 76,
          "name": "E5",
          "ticks": 21120,
          "time": 152.41499025,
          "velocity": 0.7874015748031497
        },
        {
          "duration": 0.2054794999999956,
          "durationTicks": 30,
          "midi": 72,
          "name": "C5",
          "ticks": 21180,
          "time": 152.82594924999998,
          "velocity": 0.7874015748031497
        },
        {
          "duration": 0.20547950000002402,
          "durationTicks": 30,
          "midi": 74,
          "name": "D5",
          "ticks": 21210,
          "time": 153.03142874999998,
          "velocity": 0.7874015748031497
        },
        {
          "duration": 0.4109589999999912,
          "durationTicks": 60,
          "midi": 76,
          "name": "E5",
          "ticks": 21240,
          "time": 153.23690825,
          "velocity": 0.7874015748031497
        },
        {
          "duration": 0.2054794999999956,
          "durationTicks": 30,
          "midi": 74,
          "name": "D5",
          "ticks": 21300,
          "time": 153.64786725,
          "velocity": 0.7874015748031497
        },
        {
          "duration": 0.2054794999999956,
          "durationTicks": 30,
          "midi": 72,
          "name": "C5",
          "ticks": 21330,
          "time": 153.85334675,
          "velocity": 0.7874015748031497
        },
        {
          "duration": 0.2054794999999956,
          "durationTicks": 30,
          "midi": 74,
          "name": "D5",
          "ticks": 21360,
          "time": 154.05882624999998,
          "velocity": 0.7874015748031497
        },
        {
          "duration": 0.2054794999999956,
          "durationTicks": 30,
          "midi": 71,
          "name": "B4",
          "ticks": 21390,
          "time": 154.26430574999998,
          "velocity": 0.7874015748031497
        },
        {
          "duration": 0.20547950000002402,
          "durationTicks": 30,
          "midi": 72,
          "name": "C5",
          "ticks": 21420,
          "time": 154.46978524999997,
          "velocity": 0.7874015748031497
        },
        {
          "duration": 0.2054794999999956,
          "durationTicks": 30,
          "midi": 74,
          "name": "D5",
          "ticks": 21450,
          "time": 154.67526475,
          "velocity": 0.7874015748031497
        },
        {
          "duration": 0.2054794999999956,
          "durationTicks": 30,
          "midi": 76,
          "name": "E5",
          "ticks": 21480,
          "time": 154.88074425,
          "velocity": 0.7874015748031497
        },
        {
          "duration": 0.2054794999999956,
          "durationTicks": 30,
          "midi": 74,
          "name": "D5",
          "ticks": 21510,
          "time": 155.08622375,
          "velocity": 0.7874015748031497
        },
        {
          "duration": 0.2054794999999956,
          "durationTicks": 30,
          "midi": 72,
          "name": "C5",
          "ticks": 21540,
          "time": 155.29170324999998,
          "velocity": 0.7874015748031497
        },
        {
          "duration": 0.2054794999999956,
          "durationTicks": 30,
          "midi": 71,
          "name": "B4",
          "ticks": 21570,
          "time": 155.49718274999998,
          "velocity": 0.7874015748031497
        },
        {
          "duration": 0.4109590000000196,
          "durationTicks": 60,
          "midi": 72,
          "name": "C5",
          "ticks": 21600,
          "time": 155.70266224999997,
          "velocity": 0.7874015748031497
        },
        {
          "duration": 0.2054794999999956,
          "durationTicks": 30,
          "midi": 69,
          "name": "A4",
          "ticks": 21660,
          "time": 156.11362125,
          "velocity": 0.7874015748031497
        },
        {
          "duration": 0.2054794999999956,
          "durationTicks": 30,
          "midi": 71,
          "name": "B4",
          "ticks": 21690,
          "time": 156.31910075,
          "velocity": 0.7874015748031497
        },
        {
          "duration": 0.4109589999999912,
          "durationTicks": 60,
          "midi": 72,
          "name": "C5",
          "ticks": 21720,
          "time": 156.52458024999999,
          "velocity": 0.7874015748031497
        },
        {
          "duration": 0.2054794999999956,
          "durationTicks": 30,
          "midi": 60,
          "name": "C4",
          "ticks": 21780,
          "time": 156.93553924999998,
          "velocity": 0.7874015748031497
        },
        {
          "duration": 0.2054794999999956,
          "durationTicks": 30,
          "midi": 62,
          "name": "D4",
          "ticks": 21810,
          "time": 157.14101874999997,
          "velocity": 0.7874015748031497
        },
        {
          "duration": 0.20547950000002402,
          "durationTicks": 30,
          "midi": 64,
          "name": "E4",
          "ticks": 21840,
          "time": 157.34649824999997,
          "velocity": 0.7874015748031497
        },
        {
          "duration": 0.2054794999999956,
          "durationTicks": 30,
          "midi": 65,
          "name": "F4",
          "ticks": 21870,
          "time": 157.55197775,
          "velocity": 0.7874015748031497
        },
        {
          "duration": 0.2054794999999956,
          "durationTicks": 30,
          "midi": 64,
          "name": "E4",
          "ticks": 21900,
          "time": 157.75745725,
          "velocity": 0.7874015748031497
        },
        {
          "duration": 0.2054794999999956,
          "durationTicks": 30,
          "midi": 62,
          "name": "D4",
          "ticks": 21930,
          "time": 157.96293674999998,
          "velocity": 0.7874015748031497
        },
        {
          "duration": 0.2054794999999956,
          "durationTicks": 30,
          "midi": 64,
          "name": "E4",
          "ticks": 21960,
          "time": 158.16841624999998,
          "velocity": 0.7874015748031497
        },
        {
          "duration": 0.20547950000002402,
          "durationTicks": 30,
          "midi": 72,
          "name": "C5",
          "ticks": 21990,
          "time": 158.37389574999997,
          "velocity": 0.7874015748031497
        },
        {
          "duration": 0.20547949999996717,
          "durationTicks": 30,
          "midi": 71,
          "name": "B4",
          "ticks": 22020,
          "time": 158.57937525,
          "velocity": 0.7874015748031497
        },
        {
          "duration": 0.20547950000002402,
          "durationTicks": 30,
          "midi": 72,
          "name": "C5",
          "ticks": 22050,
          "time": 158.78485474999997,
          "velocity": 0.7874015748031497
        },
        {
          "duration": 0.4109589999999912,
          "durationTicks": 60,
          "midi": 69,
          "name": "A4",
          "ticks": 22080,
          "time": 158.99033425,
          "velocity": 0.7874015748031497
        },
        {
          "duration": 0.2054794999999956,
          "durationTicks": 30,
          "midi": 72,
          "name": "C5",
          "ticks": 22140,
          "time": 159.40129324999998,
          "velocity": 0.7874015748031497
        },
        {
          "duration": 0.2054794999999956,
          "durationTicks": 30,
          "midi": 71,
          "name": "B4",
          "ticks": 22170,
          "time": 159.60677274999998,
          "velocity": 0.7874015748031497
        },
        {
          "duration": 0.4109590000000196,
          "durationTicks": 60,
          "midi": 69,
          "name": "A4",
          "ticks": 22200,
          "time": 159.81225224999997,
          "velocity": 0.7874015748031497
        },
        {
          "duration": 0.2054794999999956,
          "durationTicks": 30,
          "midi": 67,
          "name": "G4",
          "ticks": 22260,
          "time": 160.22321125,
          "velocity": 0.7874015748031497
        },
        {
          "duration": 0.2054794999999956,
          "durationTicks": 30,
          "midi": 65,
          "name": "F4",
          "ticks": 22290,
          "time": 160.42869075,
          "velocity": 0.7874015748031497
        },
        {
          "duration": 0.2054794999999956,
          "durationTicks": 30,
          "midi": 67,
          "name": "G4",
          "ticks": 22320,
          "time": 160.63417024999998,
          "velocity": 0.7874015748031497
        },
        {
          "duration": 0.2054794999999956,
          "durationTicks": 30,
          "midi": 65,
          "name": "F4",
          "ticks": 22350,
          "time": 160.83964974999998,
          "velocity": 0.7874015748031497
        },
        {
          "duration": 0.2054794999999956,
          "durationTicks": 30,
          "midi": 64,
          "name": "E4",
          "ticks": 22380,
          "time": 161.04512924999997,
          "velocity": 0.7874015748031497
        },
        {
          "duration": 0.20547950000002402,
          "durationTicks": 30,
          "midi": 65,
          "name": "F4",
          "ticks": 22410,
          "time": 161.25060874999997,
          "velocity": 0.7874015748031497
        },
        {
          "duration": 0.2054794999999956,
          "durationTicks": 30,
          "midi": 67,
          "name": "G4",
          "ticks": 22440,
          "time": 161.45608825,
          "velocity": 0.7874015748031497
        },
        {
          "duration": 0.2054794999999956,
          "durationTicks": 30,
          "midi": 69,
          "name": "A4",
          "ticks": 22470,
          "time": 161.66156775,
          "velocity": 0.7874015748031497
        },
        {
          "duration": 0.2054794999999956,
          "durationTicks": 30,
          "midi": 71,
          "name": "B4",
          "ticks": 22500,
          "time": 161.86704724999998,
          "velocity": 0.7874015748031497
        },
        {
          "duration": 0.2054794999999956,
          "durationTicks": 30,
          "midi": 72,
          "name": "C5",
          "ticks": 22530,
          "time": 162.07252674999998,
          "velocity": 0.7874015748031497
        },
        {
          "duration": 0.4109589999999912,
          "durationTicks": 60,
          "midi": 69,
          "name": "A4",
          "ticks": 22560,
          "time": 162.27800624999998,
          "velocity": 0.7874015748031497
        },
        {
          "duration": 0.20547950000002402,
          "durationTicks": 30,
          "midi": 72,
          "name": "C5",
          "ticks": 22620,
          "time": 162.68896524999997,
          "velocity": 0.7874015748031497
        },
        {
          "duration": 0.2054794999999956,
          "durationTicks": 30,
          "midi": 71,
          "name": "B4",
          "ticks": 22650,
          "time": 162.89444475,
          "velocity": 0.7874015748031497
        },
        {
          "duration": 0.4109589999999912,
          "durationTicks": 60,
          "midi": 72,
          "name": "C5",
          "ticks": 22680,
          "time": 163.09992425,
          "velocity": 0.7874015748031497
        },
        {
          "duration": 0.2054794999999956,
          "durationTicks": 30,
          "midi": 71,
          "name": "B4",
          "ticks": 22740,
          "time": 163.51088324999998,
          "velocity": 0.7874015748031497
        },
        {
          "duration": 0.20547950000002402,
          "durationTicks": 30,
          "midi": 69,
          "name": "A4",
          "ticks": 22770,
          "time": 163.71636274999997,
          "velocity": 0.7874015748031497
        },
        {
          "duration": 0.20547949999996717,
          "durationTicks": 30,
          "midi": 71,
          "name": "B4",
          "ticks": 22800,
          "time": 163.92184225,
          "velocity": 0.7874015748031497
        },
        {
          "duration": 0.20547950000002402,
          "durationTicks": 30,
          "midi": 72,
          "name": "C5",
          "ticks": 22830,
          "time": 164.12732174999996,
          "velocity": 0.7874015748031497
        },
        {
          "duration": 0.2054794999999956,
          "durationTicks": 30,
          "midi": 74,
          "name": "D5",
          "ticks": 22860,
          "time": 164.33280125,
          "velocity": 0.7874015748031497
        },
        {
          "duration": 0.2054794999999956,
          "durationTicks": 30,
          "midi": 72,
          "name": "C5",
          "ticks": 22890,
          "time": 164.53828074999998,
          "velocity": 0.7874015748031497
        },
        {
          "duration": 0.2054794999999956,
          "durationTicks": 30,
          "midi": 71,
          "name": "B4",
          "ticks": 22920,
          "time": 164.74376024999998,
          "velocity": 0.7874015748031497
        },
        {
          "duration": 0.2054794999999956,
          "durationTicks": 30,
          "midi": 72,
          "name": "C5",
          "ticks": 22950,
          "time": 164.94923974999998,
          "velocity": 0.7874015748031497
        },
        {
          "duration": 0.20547950000002402,
          "durationTicks": 30,
          "midi": 69,
          "name": "A4",
          "ticks": 22980,
          "time": 165.15471924999997,
          "velocity": 0.7874015748031497
        },
        {
          "duration": 0.2054794999999956,
          "durationTicks": 30,
          "midi": 71,
          "name": "B4",
          "ticks": 23010,
          "time": 165.36019875,
          "velocity": 0.7874015748031497
        },
        {
          "duration": 1.6438359999999932,
          "durationTicks": 240,
          "midi": 72,
          "name": "C5",
          "ticks": 23040,
          "time": 165.56567825,
          "velocity": 0.7874015748031497
        },
        {
          "duration": 0.4109589999999912,
          "durationTicks": 60,
          "midi": 55,
          "name": "G3",
          "ticks": 23100,
          "time": 165.97663724999998,
          "velocity": 0.7874015748031497
        },
        {
          "duration": 0.4109590000000196,
          "durationTicks": 60,
          "midi": 60,
          "name": "C4",
          "ticks": 23160,
          "time": 166.38759624999997,
          "velocity": 0.7874015748031497
        },
        {
          "duration": 0.4109589999999912,
          "durationTicks": 60,
          "midi": 64,
          "name": "E4",
          "ticks": 23220,
          "time": 166.79855525,
          "velocity": 0.7874015748031497
        },
        {
          "duration": 0.4109589999999912,
          "durationTicks": 60,
          "midi": 50,
          "name": "D3",
          "ticks": 23340,
          "time": 167.62047324999997,
          "velocity": 0.7874015748031497
        },
        {
          "duration": 0.4109590000000196,
          "durationTicks": 60,
          "midi": 55,
          "name": "G3",
          "ticks": 23400,
          "time": 168.03143224999997,
          "velocity": 0.7874015748031497
        },
        {
          "duration": 0.4109589999999912,
          "durationTicks": 60,
          "midi": 59,
          "name": "B3",
          "ticks": 23460,
          "time": 168.44239125,
          "velocity": 0.7874015748031497
        },
        {
          "duration": 0.4109589999999912,
          "durationTicks": 60,
          "midi": 52,
          "name": "E3",
          "ticks": 23580,
          "time": 169.26430925,
          "velocity": 0.7874015748031497
        },
        {
          "duration": 0.4109589999999912,
          "durationTicks": 60,
          "midi": 57,
          "name": "A3",
          "ticks": 23640,
          "time": 169.67526825,
          "velocity": 0.7874015748031497
        },
        {
          "duration": 0.4109589999999912,
          "durationTicks": 60,
          "midi": 60,
          "name": "C4",
          "ticks": 23700,
          "time": 170.08622724999998,
          "velocity": 0.7874015748031497
        },
        {
          "duration": 0.4109590000000196,
          "durationTicks": 60,
          "midi": 55,
          "name": "G3",
          "ticks": 23820,
          "time": 170.90814524999996,
          "velocity": 0.7874015748031497
        },
        {
          "duration": 0.4109590000000196,
          "durationTicks": 60,
          "midi": 59,
          "name": "B3",
          "ticks": 23880,
          "time": 171.31910424999998,
          "velocity": 0.7874015748031497
        },
        {
          "duration": 0.4109589999999912,
          "durationTicks": 60,
          "midi": 64,
          "name": "E4",
          "ticks": 23940,
          "time": 171.73006325,
          "velocity": 0.7874015748031497
        },
        {
          "duration": 0.4109589999999912,
          "durationTicks": 60,
          "midi": 48,
          "name": "C3",
          "ticks": 24060,
          "time": 172.55198124999998,
          "velocity": 0.7874015748031497
        },
        {
          "duration": 0.4109589999999912,
          "durationTicks": 60,
          "midi": 53,
          "name": "F3",
          "ticks": 24120,
          "time": 172.96294024999997,
          "velocity": 0.7874015748031497
        },
        {
          "duration": 0.4109590000000196,
          "durationTicks": 60,
          "midi": 57,
          "name": "A3",
          "ticks": 24180,
          "time": 173.37389924999997,
          "velocity": 0.7874015748031497
        },
        {
          "duration": 0.4109590000000196,
          "durationTicks": 60,
          "midi": 52,
          "name": "E3",
          "ticks": 24300,
          "time": 174.19581724999998,
          "velocity": 0.7874015748031497
        },
        {
          "duration": 0.4109589999999912,
          "durationTicks": 60,
          "midi": 55,
          "name": "G3",
          "ticks": 24360,
          "time": 174.60677625,
          "velocity": 0.7874015748031497
        },
        {
          "duration": 0.4109589999999912,
          "durationTicks": 60,
          "midi": 60,
          "name": "C4",
          "ticks": 24420,
          "time": 175.01773525,
          "velocity": 0.7874015748031497
        },
        {
          "duration": 0.4109589999999912,
          "durationTicks": 60,
          "midi": 50,
          "name": "D3",
          "ticks": 24540,
          "time": 175.83965324999997,
          "velocity": 0.7874015748031497
        },
        {
          "duration": 0.4109590000000196,
          "durationTicks": 60,
          "midi": 57,
          "name": "A3",
          "ticks": 24600,
          "time": 176.25061224999996,
          "velocity": 0.7874015748031497
        },
        {
          "duration": 0.4109590000000196,
          "durationTicks": 60,
          "midi": 60,
          "name": "C4",
          "ticks": 24660,
          "time": 176.66157124999998,
          "velocity": 0.7874015748031497
        },
        {
          "duration": 0.4109589999999912,
          "durationTicks": 60,
          "midi": 50,
          "name": "D3",
          "ticks": 24780,
          "time": 177.48348925,
          "velocity": 0.7874015748031497
        },
        {
          "duration": 0.4109589999999912,
          "durationTicks": 60,
          "midi": 55,
          "name": "G3",
          "ticks": 24840,
          "time": 177.89444824999998,
          "velocity": 0.7874015748031497
        },
        {
          "duration": 0.4109589999999912,
          "durationTicks": 60,
          "midi": 59,
          "name": "B3",
          "ticks": 24900,
          "time": 178.30540724999997,
          "velocity": 0.7874015748031497
        },
        {
          "duration": 0.2054794999999956,
          "durationTicks": 30,
          "midi": 72,
          "name": "C5",
          "ticks": 25020,
          "time": 179.12732524999998,
          "velocity": 0.7874015748031497
        },
        {
          "duration": 0.2054794999999956,
          "durationTicks": 30,
          "midi": 76,
          "name": "E5",
          "ticks": 25020,
          "time": 179.12732524999998,
          "velocity": 0.7874015748031497
        },
        {
          "duration": 0.2054794999999956,
          "durationTicks": 30,
          "midi": 74,
          "name": "D5",
          "ticks": 25050,
          "time": 179.33280474999998,
          "velocity": 0.7874015748031497
        },
        {
          "duration": 0.2054794999999956,
          "durationTicks": 30,
          "midi": 77,
          "name": "F5",
          "ticks": 25050,
          "time": 179.33280474999998,
          "velocity": 0.7874015748031497
        },
        {
          "duration": 0.4109590000000196,
          "durationTicks": 60,
          "midi": 76,
          "name": "E5",
          "ticks": 25080,
          "time": 179.53828424999998,
          "velocity": 0.7874015748031497
        },
        {
          "duration": 0.4109590000000196,
          "durationTicks": 60,
          "midi": 79,
          "name": "G5",
          "ticks": 25080,
          "time": 179.53828424999998,
          "velocity": 0.7874015748031497
        },
        {
          "duration": 0.4109589999999912,
          "durationTicks": 60,
          "midi": 72,
          "name": "C5",
          "ticks": 25140,
          "time": 179.94924325,
          "velocity": 0.7874015748031497
        },
        {
          "duration": 0.4109589999999912,
          "durationTicks": 60,
          "midi": 76,
          "name": "E5",
          "ticks": 25140,
          "time": 179.94924325,
          "velocity": 0.7874015748031497
        },
        {
          "duration": 0.2054794999999956,
          "durationTicks": 30,
          "midi": 67,
          "name": "G4",
          "ticks": 25260,
          "time": 180.77116124999998,
          "velocity": 0.7874015748031497
        },
        {
          "duration": 0.2054794999999956,
          "durationTicks": 30,
          "midi": 71,
          "name": "B4",
          "ticks": 25260,
          "time": 180.77116124999998,
          "velocity": 0.7874015748031497
        },
        {
          "duration": 0.2054794999999956,
          "durationTicks": 30,
          "midi": 69,
          "name": "A4",
          "ticks": 25290,
          "time": 180.97664074999997,
          "velocity": 0.7874015748031497
        },
        {
          "duration": 0.2054794999999956,
          "durationTicks": 30,
          "midi": 72,
          "name": "C5",
          "ticks": 25290,
          "time": 180.97664074999997,
          "velocity": 0.7874015748031497
        },
        {
          "duration": 0.4109589999999912,
          "durationTicks": 60,
          "midi": 71,
          "name": "B4",
          "ticks": 25320,
          "time": 181.18212024999997,
          "velocity": 0.7874015748031497
        },
        {
          "duration": 0.4109589999999912,
          "durationTicks": 60,
          "midi": 74,
          "name": "D5",
          "ticks": 25320,
          "time": 181.18212024999997,
          "velocity": 0.7874015748031497
        },
        {
          "duration": 0.4109590000000196,
          "durationTicks": 60,
          "midi": 67,
          "name": "G4",
          "ticks": 25380,
          "time": 181.59307924999996,
          "velocity": 0.7874015748031497
        },
        {
          "duration": 0.4109590000000196,
          "durationTicks": 60,
          "midi": 71,
          "name": "B4",
          "ticks": 25380,
          "time": 181.59307924999996,
          "velocity": 0.7874015748031497
        },
        {
          "duration": 0.20547950000002402,
          "durationTicks": 30,
          "midi": 69,
          "name": "A4",
          "ticks": 25470,
          "time": 182.20951774999997,
          "velocity": 0.7874015748031497
        },
        {
          "duration": 0.20547949999996717,
          "durationTicks": 30,
          "midi": 69,
          "name": "A4",
          "ticks": 25500,
          "time": 182.41499725,
          "velocity": 0.7874015748031497
        },
        {
          "duration": 0.20547949999996717,
          "durationTicks": 30,
          "midi": 72,
          "name": "C5",
          "ticks": 25500,
          "time": 182.41499725,
          "velocity": 0.7874015748031497
        },
        {
          "duration": 0.20547950000002402,
          "durationTicks": 30,
          "midi": 71,
          "name": "B4",
          "ticks": 25530,
          "time": 182.62047674999997,
          "velocity": 0.7874015748031497
        },
        {
          "duration": 0.20547950000002402,
          "durationTicks": 30,
          "midi": 74,
          "name": "D5",
          "ticks": 25530,
          "time": 182.62047674999997,
          "velocity": 0.7874015748031497
        },
        {
          "duration": 0.4109589999999912,
          "durationTicks": 60,
          "midi": 72,
          "name": "C5",
          "ticks": 25560,
          "time": 182.82595625,
          "velocity": 0.7874015748031497
        },
        {
          "duration": 0.4109589999999912,
          "durationTicks": 60,
          "midi": 76,
          "name": "E5",
          "ticks": 25560,
          "time": 182.82595625,
          "velocity": 0.7874015748031497
        },
        {
          "duration": 0.4109589999999912,
          "durationTicks": 60,
          "midi": 72,
          "name": "C5",
          "ticks": 25620,
          "time": 183.23691524999998,
          "velocity": 0.7874015748031497
        },
        {
          "duration": 0.20547949999996717,
          "durationTicks": 30,
          "midi": 69,
          "name": "A4",
          "ticks": 25710,
          "time": 183.85335375,
          "velocity": 0.7874015748031497
        },
        {
          "duration": 0.20547950000002402,
          "durationTicks": 30,
          "midi": 72,
          "name": "C5",
          "ticks": 25740,
          "time": 184.05883324999996,
          "velocity": 0.7874015748031497
        },
        {
          "duration": 0.20547950000002402,
          "durationTicks": 30,
          "midi": 76,
          "name": "E5",
          "ticks": 25740,
          "time": 184.05883324999996,
          "velocity": 0.7874015748031497
        },
        {
          "duration": 0.2054794999999956,
          "durationTicks": 30,
          "midi": 71,
          "name": "B4",
          "ticks": 25770,
          "time": 184.26431275,
          "velocity": 0.7874015748031497
        },
        {
          "duration": 0.2054794999999956,
          "durationTicks": 30,
          "midi": 74,
          "name": "D5",
          "ticks": 25770,
          "time": 184.26431275,
          "velocity": 0.7874015748031497
        },
        {
          "duration": 0.4109589999999912,
          "durationTicks": 60,
          "midi": 69,
          "name": "A4",
          "ticks": 25800,
          "time": 184.46979224999998,
          "velocity": 0.7874015748031497
        },
        {
          "duration": 0.4109589999999912,
          "durationTicks": 60,
          "midi": 72,
          "name": "C5",
          "ticks": 25800,
          "time": 184.46979224999998,
          "velocity": 0.7874015748031497
        },
        {
          "duration": 0.4109590000000196,
          "durationTicks": 60,
          "midi": 67,
          "name": "G4",
          "ticks": 25860,
          "time": 184.88075124999997,
          "velocity": 0.7874015748031497
        },
        {
          "duration": 0.4109590000000196,
          "durationTicks": 60,
          "midi": 71,
          "name": "B4",
          "ticks": 25860,
          "time": 184.88075124999997,
          "velocity": 0.7874015748031497
        },
        {
          "duration": 0.20547950000002402,
          "durationTicks": 30,
          "midi": 65,
          "name": "F4",
          "ticks": 25950,
          "time": 185.49718974999996,
          "velocity": 0.7874015748031497
        },
        {
          "duration": 0.2054794999999956,
          "durationTicks": 30,
          "midi": 65,
          "name": "F4",
          "ticks": 25980,
          "time": 185.70266924999999,
          "velocity": 0.7874015748031497
        },
        {
          "duration": 0.2054794999999956,
          "durationTicks": 30,
          "midi": 69,
          "name": "A4",
          "ticks": 25980,
          "time": 185.70266924999999,
          "velocity": 0.7874015748031497
        },
        {
          "duration": 0.2054794999999956,
          "durationTicks": 30,
          "midi": 67,
          "name": "G4",
          "ticks": 26010,
          "time": 185.90814874999998,
          "velocity": 0.7874015748031497
        },
        {
          "duration": 0.2054794999999956,
          "durationTicks": 30,
          "midi": 71,
          "name": "B4",
          "ticks": 26010,
          "time": 185.90814874999998,
          "velocity": 0.7874015748031497
        },
        {
          "duration": 0.4109589999999912,
          "durationTicks": 60,
          "midi": 69,
          "name": "A4",
          "ticks": 26040,
          "time": 186.11362824999998,
          "velocity": 0.7874015748031497
        },
        {
          "duration": 0.4109589999999912,
          "durationTicks": 60,
          "midi": 72,
          "name": "C5",
          "ticks": 26040,
          "time": 186.11362824999998,
          "velocity": 0.7874015748031497
        },
        {
          "duration": 0.4109589999999912,
          "durationTicks": 60,
          "midi": 65,
          "name": "F4",
          "ticks": 26100,
          "time": 186.52458724999997,
          "velocity": 0.7874015748031497
        },
        {
          "duration": 0.4109589999999912,
          "durationTicks": 60,
          "midi": 69,
          "name": "A4",
          "ticks": 26100,
          "time": 186.52458724999997,
          "velocity": 0.7874015748031497
        },
        {
          "duration": 0.2054794999999956,
          "durationTicks": 30,
          "midi": 64,
          "name": "E4",
          "ticks": 26190,
          "time": 187.14102574999998,
          "velocity": 0.7874015748031497
        },
        {
          "duration": 0.2054794999999956,
          "durationTicks": 30,
          "midi": 64,
          "name": "E4",
          "ticks": 26220,
          "time": 187.34650524999998,
          "velocity": 0.7874015748031497
        },
        {
          "duration": 0.2054794999999956,
          "durationTicks": 30,
          "midi": 67,
          "name": "G4",
          "ticks": 26220,
          "time": 187.34650524999998,
          "velocity": 0.7874015748031497
        },
        {
          "duration": 0.20547950000002402,
          "durationTicks": 30,
          "midi": 65,
          "name": "F4",
          "ticks": 26250,
          "time": 187.55198474999997,
          "velocity": 0.7874015748031497
        },
        {
          "duration": 0.20547950000002402,
          "durationTicks": 30,
          "midi": 69,
          "name": "A4",
          "ticks": 26250,
          "time": 187.55198474999997,
          "velocity": 0.7874015748031497
        },
        {
          "duration": 0.4109589999999912,
          "durationTicks": 60,
          "midi": 69,
          "name": "A4",
          "ticks": 26280,
          "time": 187.75746425,
          "velocity": 0.7874015748031497
        },
        {
          "duration": 0.4109589999999912,
          "durationTicks": 60,
          "midi": 72,
          "name": "C5",
          "ticks": 26280,
          "time": 187.75746425,
          "velocity": 0.7874015748031497
        },
        {
          "duration": 0.4109589999999912,
          "durationTicks": 60,
          "midi": 64,
          "name": "E4",
          "ticks": 26340,
          "time": 188.16842325,
          "velocity": 0.7874015748031497
        },
        {
          "duration": 0.4109589999999912,
          "durationTicks": 60,
          "midi": 67,
          "name": "G4",
          "ticks": 26340,
          "time": 188.16842325,
          "velocity": 0.7874015748031497
        },
        {
          "duration": 0.2054794999999956,
          "durationTicks": 30,
          "midi": 65,
          "name": "F4",
          "ticks": 26430,
          "time": 188.78486174999998,
          "velocity": 0.7874015748031497
        },
        {
          "duration": 0.2054794999999956,
          "durationTicks": 30,
          "midi": 69,
          "name": "A4",
          "ticks": 26430,
          "time": 188.78486174999998,
          "velocity": 0.7874015748031497
        },
        {
          "duration": 0.20547950000002402,
          "durationTicks": 30,
          "midi": 67,
          "name": "G4",
          "ticks": 26460,
          "time": 188.99034124999997,
          "velocity": 0.7874015748031497
        },
        {
          "duration": 0.20547950000002402,
          "durationTicks": 30,
          "midi": 71,
          "name": "B4",
          "ticks": 26460,
          "time": 188.99034124999997,
          "velocity": 0.7874015748031497
        },
        {
          "duration": 0.20547949999996717,
          "durationTicks": 30,
          "midi": 67,
          "name": "G4",
          "ticks": 26490,
          "time": 189.19582075,
          "velocity": 0.7874015748031497
        },
        {
          "duration": 0.20547949999996717,
          "durationTicks": 30,
          "midi": 71,
          "name": "B4",
          "ticks": 26490,
          "time": 189.19582075,
          "velocity": 0.7874015748031497
        },
        {
          "duration": 0.4109590000000196,
          "durationTicks": 60,
          "midi": 69,
          "name": "A4",
          "ticks": 26520,
          "time": 189.40130024999996,
          "velocity": 0.7874015748031497
        },
        {
          "duration": 0.4109590000000196,
          "durationTicks": 60,
          "midi": 72,
          "name": "C5",
          "ticks": 26520,
          "time": 189.40130024999996,
          "velocity": 0.7874015748031497
        },
        {
          "duration": 0.2054794999999956,
          "durationTicks": 30,
          "midi": 65,
          "name": "F4",
          "ticks": 26580,
          "time": 189.81225924999998,
          "velocity": 0.7874015748031497
        },
        {
          "duration": 0.2054794999999956,
          "durationTicks": 30,
          "midi": 69,
          "name": "A4",
          "ticks": 26580,
          "time": 189.81225924999998,
          "velocity": 0.7874015748031497
        },
        {
          "duration": 0.4109589999999912,
          "durationTicks": 60,
          "midi": 67,
          "name": "G4",
          "ticks": 26610,
          "time": 190.01773874999998,
          "velocity": 0.7874015748031497
        },
        {
          "duration": 0.20547950000002402,
          "durationTicks": 30,
          "midi": 67,
          "name": "G4",
          "ticks": 26670,
          "time": 190.42869774999997,
          "velocity": 0.7874015748031497
        },
        {
          "duration": 0.20547949999996717,
          "durationTicks": 30,
          "midi": 67,
          "name": "G4",
          "ticks": 26700,
          "time": 190.63417725,
          "velocity": 0.7874015748031497
        },
        {
          "duration": 0.20547949999996717,
          "durationTicks": 30,
          "midi": 71,
          "name": "B4",
          "ticks": 26700,
          "time": 190.63417725,
          "velocity": 0.7874015748031497
        },
        {
          "duration": 0.20547950000002402,
          "durationTicks": 30,
          "midi": 69,
          "name": "A4",
          "ticks": 26730,
          "time": 190.83965674999996,
          "velocity": 0.7874015748031497
        },
        {
          "duration": 0.20547950000002402,
          "durationTicks": 30,
          "midi": 72,
          "name": "C5",
          "ticks": 26730,
          "time": 190.83965674999996,
          "velocity": 0.7874015748031497
        },
        {
          "duration": 0.4109589999999912,
          "durationTicks": 60,
          "midi": 71,
          "name": "B4",
          "ticks": 26760,
          "time": 191.04513624999998,
          "velocity": 0.7874015748031497
        },
        {
          "duration": 0.4109589999999912,
          "durationTicks": 60,
          "midi": 74,
          "name": "D5",
          "ticks": 26760,
          "time": 191.04513624999998,
          "velocity": 0.7874015748031497
        },
        {
          "duration": 0.4109589999999912,
          "durationTicks": 60,
          "midi": 67,
          "name": "G4",
          "ticks": 26820,
          "time": 191.45609524999998,
          "velocity": 0.7874015748031497
        },
        {
          "duration": 0.4109589999999912,
          "durationTicks": 60,
          "midi": 71,
          "name": "B4",
          "ticks": 26820,
          "time": 191.45609524999998,
          "velocity": 0.7874015748031497
        },
        {
          "duration": 0.20547949999996717,
          "durationTicks": 30,
          "midi": 72,
          "name": "C5",
          "ticks": 26910,
          "time": 192.07253375,
          "velocity": 0.7874015748031497
        },
        {
          "duration": 0.20547950000002402,
          "durationTicks": 30,
          "midi": 72,
          "name": "C5",
          "ticks": 26940,
          "time": 192.27801324999996,
          "velocity": 0.7874015748031497
        },
        {
          "duration": 0.20547950000002402,
          "durationTicks": 30,
          "midi": 76,
          "name": "E5",
          "ticks": 26940,
          "time": 192.27801324999996,
          "velocity": 0.7874015748031497
        },
        {
          "duration": 0.2054794999999956,
          "durationTicks": 30,
          "midi": 74,
          "name": "D5",
          "ticks": 26970,
          "time": 192.48349274999998,
          "velocity": 0.7874015748031497
        },
        {
          "duration": 0.2054794999999956,
          "durationTicks": 30,
          "midi": 77,
          "name": "F5",
          "ticks": 26970,
          "time": 192.48349274999998,
          "velocity": 0.7874015748031497
        },
        {
          "duration": 0.4109590000000196,
          "durationTicks": 60,
          "midi": 76,
          "name": "E5",
          "ticks": 27000,
          "time": 192.68897224999998,
          "velocity": 0.7874015748031497
        },
        {
          "duration": 0.4109590000000196,
          "durationTicks": 60,
          "midi": 79,
          "name": "G5",
          "ticks": 27000,
          "time": 192.68897224999998,
          "velocity": 0.7874015748031497
        },
        {
          "duration": 0.4109589999999912,
          "durationTicks": 60,
          "midi": 72,
          "name": "C5",
          "ticks": 27060,
          "time": 193.09993125,
          "velocity": 0.7874015748031497
        },
        {
          "duration": 0.4109589999999912,
          "durationTicks": 60,
          "midi": 76,
          "name": "E5",
          "ticks": 27060,
          "time": 193.09993125,
          "velocity": 0.7874015748031497
        },
        {
          "duration": 0.2054794999999956,
          "durationTicks": 30,
          "midi": 71,
          "name": "B4",
          "ticks": 27180,
          "time": 193.92184924999998,
          "velocity": 0.7874015748031497
        },
        {
          "duration": 0.2054794999999956,
          "durationTicks": 30,
          "midi": 74,
          "name": "D5",
          "ticks": 27180,
          "time": 193.92184924999998,
          "velocity": 0.7874015748031497
        },
        {
          "duration": 0.2054794999999956,
          "durationTicks": 30,
          "midi": 72,
          "name": "C5",
          "ticks": 27210,
          "time": 194.12732874999998,
          "velocity": 0.7874015748031497
        },
        {
          "duration": 0.2054794999999956,
          "durationTicks": 30,
          "midi": 76,
          "name": "E5",
          "ticks": 27210,
          "time": 194.12732874999998,
          "velocity": 0.7874015748031497
        },
        {
          "duration": 0.20547950000002402,
          "durationTicks": 30,
          "midi": 74,
          "name": "D5",
          "ticks": 27240,
          "time": 194.33280824999997,
          "velocity": 0.7874015748031497
        },
        {
          "duration": 0.20547950000002402,
          "durationTicks": 30,
          "midi": 77,
          "name": "F5",
          "ticks": 27240,
          "time": 194.33280824999997,
          "velocity": 0.7874015748031497
        },
        {
          "duration": 0.20547949999996717,
          "durationTicks": 30,
          "midi": 71,
          "name": "B4",
          "ticks": 27270,
          "time": 194.53828775,
          "velocity": 0.7874015748031497
        },
        {
          "duration": 0.20547950000002402,
          "durationTicks": 30,
          "midi": 74,
          "name": "D5",
          "ticks": 27300,
          "time": 194.74376724999996,
          "velocity": 0.7874015748031497
        },
        {
          "duration": 0.4109589999999912,
          "durationTicks": 60,
          "midi": 69,
          "name": "A4",
          "ticks": 27330,
          "time": 194.94924675,
          "velocity": 0.7874015748031497
        },
        {
          "duration": 0.2054794999999956,
          "durationTicks": 30,
          "midi": 69,
          "name": "A4",
          "ticks": 27390,
          "time": 195.36020574999998,
          "velocity": 0.7874015748031497
        },
        {
          "duration": 0.2054794999999956,
          "durationTicks": 30,
          "midi": 69,
          "name": "A4",
          "ticks": 27420,
          "time": 195.56568524999997,
          "velocity": 0.7874015748031497
        },
        {
          "duration": 0.2054794999999956,
          "durationTicks": 30,
          "midi": 72,
          "name": "C5",
          "ticks": 27420,
          "time": 195.56568524999997,
          "velocity": 0.7874015748031497
        },
        {
          "duration": 0.20547950000002402,
          "durationTicks": 30,
          "midi": 69,
          "name": "A4",
          "ticks": 27450,
          "time": 195.77116474999997,
          "velocity": 0.7874015748031497
        },
        {
          "duration": 0.20547950000002402,
          "durationTicks": 30,
          "midi": 74,
          "name": "D5",
          "ticks": 27450,
          "time": 195.77116474999997,
          "velocity": 0.7874015748031497
        },
        {
          "duration": 0.4109589999999912,
          "durationTicks": 60,
          "midi": 69,
          "name": "A4",
          "ticks": 27480,
          "time": 195.97664425,
          "velocity": 0.7874015748031497
        },
        {
          "duration": 0.4109589999999912,
          "durationTicks": 60,
          "midi": 76,
          "name": "E5",
          "ticks": 27480,
          "time": 195.97664425,
          "velocity": 0.7874015748031497
        },
        {
          "duration": 0.2054794999999956,
          "durationTicks": 30,
          "midi": 72,
          "name": "C5",
          "ticks": 27540,
          "time": 196.38760324999998,
          "velocity": 0.7874015748031497
        },
        {
          "duration": 0.4109590000000196,
          "durationTicks": 60,
          "midi": 71,
          "name": "B4",
          "ticks": 27570,
          "time": 196.59308274999998,
          "velocity": 0.7874015748031497
        },
        {
          "duration": 0.20547949999996717,
          "durationTicks": 30,
          "midi": 71,
          "name": "B4",
          "ticks": 27630,
          "time": 197.00404175,
          "velocity": 0.7874015748031497
        },
        {
          "duration": 0.20547950000002402,
          "durationTicks": 30,
          "midi": 76,
          "name": "E5",
          "ticks": 27660,
          "time": 197.20952124999997,
          "velocity": 0.7874015748031497
        },
        {
          "duration": 0.20547950000002402,
          "durationTicks": 30,
          "midi": 79,
          "name": "G5",
          "ticks": 27660,
          "time": 197.20952124999997,
          "velocity": 0.7874015748031497
        },
        {
          "duration": 0.20547949999996717,
          "durationTicks": 30,
          "midi": 74,
          "name": "D5",
          "ticks": 27690,
          "time": 197.41500075,
          "velocity": 0.7874015748031497
        },
        {
          "duration": 0.20547949999996717,
          "durationTicks": 30,
          "midi": 77,
          "name": "F5",
          "ticks": 27690,
          "time": 197.41500075,
          "velocity": 0.7874015748031497
        },
        {
          "duration": 0.20547950000002402,
          "durationTicks": 30,
          "midi": 76,
          "name": "E5",
          "ticks": 27720,
          "time": 197.62048024999996,
          "velocity": 0.7874015748031497
        },
        {
          "duration": 0.2054794999999956,
          "durationTicks": 30,
          "midi": 71,
          "name": "B4",
          "ticks": 27750,
          "time": 197.82595974999998,
          "velocity": 0.7874015748031497
        },
        {
          "duration": 0.2054794999999956,
          "durationTicks": 30,
          "midi": 76,
          "name": "E5",
          "ticks": 27780,
          "time": 198.03143924999998,
          "velocity": 0.7874015748031497
        },
        {
          "duration": 0.2054794999999956,
          "durationTicks": 30,
          "midi": 79,
          "name": "G5",
          "ticks": 27780,
          "time": 198.03143924999998,
          "velocity": 0.7874015748031497
        },
        {
          "duration": 0.20547950000002402,
          "durationTicks": 30,
          "midi": 72,
          "name": "C5",
          "ticks": 27810,
          "time": 198.23691874999997,
          "velocity": 0.7874015748031497
        },
        {
          "duration": 0.20547949999996717,
          "durationTicks": 30,
          "midi": 77,
          "name": "F5",
          "ticks": 27840,
          "time": 198.44239825,
          "velocity": 0.7874015748031497
        },
        {
          "duration": 0.20547949999996717,
          "durationTicks": 30,
          "midi": 81,
          "name": "A5",
          "ticks": 27840,
          "time": 198.44239825,
          "velocity": 0.7874015748031497
        },
        {
          "duration": 0.20547950000002402,
          "durationTicks": 30,
          "midi": 72,
          "name": "C5",
          "ticks": 27870,
          "time": 198.64787774999996,
          "velocity": 0.7874015748031497
        },
        {
          "duration": 0.2054794999999956,
          "durationTicks": 30,
          "midi": 77,
          "name": "F5",
          "ticks": 27900,
          "time": 198.85335725,
          "velocity": 0.7874015748031497
        },
        {
          "duration": 0.2054794999999956,
          "durationTicks": 30,
          "midi": 81,
          "name": "A5",
          "ticks": 27900,
          "time": 198.85335725,
          "velocity": 0.7874015748031497
        },
        {
          "duration": 0.2054794999999956,
          "durationTicks": 30,
          "midi": 79,
          "name": "G5",
          "ticks": 27930,
          "time": 199.05883674999998,
          "velocity": 0.7874015748031497
        },
        {
          "duration": 0.4109589999999912,
          "durationTicks": 60,
          "midi": 77,
          "name": "F5",
          "ticks": 27960,
          "time": 199.26431624999998,
          "velocity": 0.7874015748031497
        },
        {
          "duration": 0.20547950000002402,
          "durationTicks": 30,
          "midi": 77,
          "name": "F5",
          "ticks": 28020,
          "time": 199.67527524999997,
          "velocity": 0.7874015748031497
        },
        {
          "duration": 0.20547950000002402,
          "durationTicks": 30,
          "midi": 81,
          "name": "A5",
          "ticks": 28020,
          "time": 199.67527524999997,
          "velocity": 0.7874015748031497
        },
        {
          "duration": 0.20547949999996717,
          "durationTicks": 30,
          "midi": 72,
          "name": "C5",
          "ticks": 28050,
          "time": 199.88075475,
          "velocity": 0.7874015748031497
        },
        {
          "duration": 0.20547950000002402,
          "durationTicks": 30,
          "midi": 76,
          "name": "E5",
          "ticks": 28080,
          "time": 200.08623424999996,
          "velocity": 0.7874015748031497
        },
        {
          "duration": 0.20547950000002402,
          "durationTicks": 30,
          "midi": 79,
          "name": "G5",
          "ticks": 28080,
          "time": 200.08623424999996,
          "velocity": 0.7874015748031497
        },
        {
          "duration": 0.2054794999999956,
          "durationTicks": 30,
          "midi": 72,
          "name": "C5",
          "ticks": 28110,
          "time": 200.29171374999999,
          "velocity": 0.7874015748031497
        },
        {
          "duration": 0.2054794999999956,
          "durationTicks": 30,
          "midi": 76,
          "name": "E5",
          "ticks": 28140,
          "time": 200.49719324999998,
          "velocity": 0.7874015748031497
        },
        {
          "duration": 0.2054794999999956,
          "durationTicks": 30,
          "midi": 79,
          "name": "G5",
          "ticks": 28140,
          "time": 200.49719324999998,
          "velocity": 0.7874015748031497
        },
        {
          "duration": 0.2054794999999956,
          "durationTicks": 30,
          "midi": 77,
          "name": "F5",
          "ticks": 28170,
          "time": 200.70267274999998,
          "velocity": 0.7874015748031497
        },
        {
          "duration": 0.2054794999999956,
          "durationTicks": 30,
          "midi": 76,
          "name": "E5",
          "ticks": 28200,
          "time": 200.90815224999997,
          "velocity": 0.7874015748031497
        },
        {
          "duration": 0.20547950000002402,
          "durationTicks": 30,
          "midi": 72,
          "name": "C5",
          "ticks": 28230,
          "time": 201.11363174999997,
          "velocity": 0.7874015748031497
        },
        {
          "duration": 0.20547949999996717,
          "durationTicks": 30,
          "midi": 76,
          "name": "E5",
          "ticks": 28260,
          "time": 201.31911125,
          "velocity": 0.7874015748031497
        },
        {
          "duration": 0.20547949999996717,
          "durationTicks": 30,
          "midi": 79,
          "name": "G5",
          "ticks": 28260,
          "time": 201.31911125,
          "velocity": 0.7874015748031497
        },
        {
          "duration": 0.20547950000002402,
          "durationTicks": 30,
          "midi": 72,
          "name": "C5",
          "ticks": 28290,
          "time": 201.52459074999996,
          "velocity": 0.7874015748031497
        },
        {
          "duration": 0.2054794999999956,
          "durationTicks": 30,
          "midi": 77,
          "name": "F5",
          "ticks": 28320,
          "time": 201.73007024999998,
          "velocity": 0.7874015748031497
        },
        {
          "duration": 0.2054794999999956,
          "durationTicks": 30,
          "midi": 81,
          "name": "A5",
          "ticks": 28320,
          "time": 201.73007024999998,
          "velocity": 0.7874015748031497
        },
        {
          "duration": 0.2054794999999956,
          "durationTicks": 30,
          "midi": 76,
          "name": "E5",
          "ticks": 28350,
          "time": 201.93554974999998,
          "velocity": 0.7874015748031497
        },
        {
          "duration": 0.2054794999999956,
          "durationTicks": 30,
          "midi": 79,
          "name": "G5",
          "ticks": 28350,
          "time": 201.93554974999998,
          "velocity": 0.7874015748031497
        },
        {
          "duration": 0.20547950000002402,
          "durationTicks": 30,
          "midi": 72,
          "name": "C5",
          "ticks": 28380,
          "time": 202.14102924999997,
          "velocity": 0.7874015748031497
        },
        {
          "duration": 0.20547950000002402,
          "durationTicks": 30,
          "midi": 77,
          "name": "F5",
          "ticks": 28380,
          "time": 202.14102924999997,
          "velocity": 0.7874015748031497
        },
        {
          "duration": 0.20547949999996717,
          "durationTicks": 30,
          "midi": 77,
          "name": "F5",
          "ticks": 28410,
          "time": 202.34650875,
          "velocity": 0.7874015748031497
        },
        {
          "duration": 0.20547949999996717,
          "durationTicks": 30,
          "midi": 81,
          "name": "A5",
          "ticks": 28410,
          "time": 202.34650875,
          "velocity": 0.7874015748031497
        },
        {
          "duration": 0.20547950000002402,
          "durationTicks": 30,
          "midi": 76,
          "name": "E5",
          "ticks": 28440,
          "time": 202.55198824999997,
          "velocity": 0.7874015748031497
        },
        {
          "duration": 0.20547950000002402,
          "durationTicks": 30,
          "midi": 79,
          "name": "G5",
          "ticks": 28440,
          "time": 202.55198824999997,
          "velocity": 0.7874015748031497
        },
        {
          "duration": 0.2054794999999956,
          "durationTicks": 30,
          "midi": 72,
          "name": "C5",
          "ticks": 28470,
          "time": 202.75746775,
          "velocity": 0.7874015748031497
        },
        {
          "duration": 0.2054794999999956,
          "durationTicks": 30,
          "midi": 77,
          "name": "F5",
          "ticks": 28470,
          "time": 202.75746775,
          "velocity": 0.7874015748031497
        },
        {
          "duration": 0.2054794999999956,
          "durationTicks": 30,
          "midi": 77,
          "name": "F5",
          "ticks": 28500,
          "time": 202.96294724999998,
          "velocity": 0.7874015748031497
        },
        {
          "duration": 0.2054794999999956,
          "durationTicks": 30,
          "midi": 81,
          "name": "A5",
          "ticks": 28500,
          "time": 202.96294724999998,
          "velocity": 0.7874015748031497
        },
        {
          "duration": 0.2054794999999956,
          "durationTicks": 30,
          "midi": 74,
          "name": "D5",
          "ticks": 28530,
          "time": 203.16842674999998,
          "velocity": 0.7874015748031497
        },
        {
          "duration": 0.2054794999999956,
          "durationTicks": 30,
          "midi": 79,
          "name": "G5",
          "ticks": 28560,
          "time": 203.37390624999998,
          "velocity": 0.7874015748031497
        },
        {
          "duration": 0.2054794999999956,
          "durationTicks": 30,
          "midi": 83,
          "name": "B5",
          "ticks": 28560,
          "time": 203.37390624999998,
          "velocity": 0.7874015748031497
        },
        {
          "duration": 0.20547950000002402,
          "durationTicks": 30,
          "midi": 77,
          "name": "F5",
          "ticks": 28590,
          "time": 203.57938574999997,
          "velocity": 0.7874015748031497
        },
        {
          "duration": 0.20547950000002402,
          "durationTicks": 30,
          "midi": 81,
          "name": "A5",
          "ticks": 28590,
          "time": 203.57938574999997,
          "velocity": 0.7874015748031497
        },
        {
          "duration": 0.20547949999996717,
          "durationTicks": 30,
          "midi": 74,
          "name": "D5",
          "ticks": 28620,
          "time": 203.78486525,
          "velocity": 0.7874015748031497
        },
        {
          "duration": 0.20547950000002402,
          "durationTicks": 30,
          "midi": 67,
          "name": "G4",
          "ticks": 28650,
          "time": 203.99034474999996,
          "velocity": 0.7874015748031497
        },
        {
          "duration": 0.2054794999999956,
          "durationTicks": 30,
          "midi": 71,
          "name": "B4",
          "ticks": 28680,
          "time": 204.19582425,
          "velocity": 0.7874015748031497
        },
        {
          "duration": 0.2054794999999956,
          "durationTicks": 30,
          "midi": 67,
          "name": "G4",
          "ticks": 28710,
          "time": 204.40130374999998,
          "velocity": 0.7874015748031497
        },
        {
          "duration": 0.2054794999999956,
          "durationTicks": 30,
          "midi": 72,
          "name": "C5",
          "ticks": 28710,
          "time": 204.40130374999998,
          "velocity": 0.7874015748031497
        },
        {
          "duration": 0.2054794999999956,
          "durationTicks": 30,
          "midi": 67,
          "name": "G4",
          "ticks": 28740,
          "time": 204.60678324999998,
          "velocity": 0.7874015748031497
        },
        {
          "duration": 0.2054794999999956,
          "durationTicks": 30,
          "midi": 74,
          "name": "D5",
          "ticks": 28740,
          "time": 204.60678324999998,
          "velocity": 0.7874015748031497
        },
        {
          "duration": 0.2054794999999956,
          "durationTicks": 30,
          "midi": 67,
          "name": "G4",
          "ticks": 28770,
          "time": 204.81226274999997,
          "velocity": 0.7874015748031497
        },
        {
          "duration": 0.20547950000002402,
          "durationTicks": 30,
          "midi": 76,
          "name": "E5",
          "ticks": 28800,
          "time": 205.01774224999997,
          "velocity": 0.7874015748031497
        },
        {
          "duration": 0.20547949999996717,
          "durationTicks": 30,
          "midi": 67,
          "name": "G4",
          "ticks": 28830,
          "time": 205.22322175,
          "velocity": 0.7874015748031497
        },
        {
          "duration": 0.2054794999999956,
          "durationTicks": 30,
          "midi": 67,
          "name": "G4",
          "ticks": 28890,
          "time": 205.63418074999998,
          "velocity": 0.7874015748031497
        },
        {
          "duration": 0.2054794999999956,
          "durationTicks": 30,
          "midi": 67,
          "name": "G4",
          "ticks": 28920,
          "time": 205.83966024999998,
          "velocity": 0.7874015748031497
        },
        {
          "duration": 0.2054794999999956,
          "durationTicks": 30,
          "midi": 76,
          "name": "E5",
          "ticks": 28920,
          "time": 205.83966024999998,
          "velocity": 0.7874015748031497
        },
        {
          "duration": 0.2054794999999956,
          "durationTicks": 30,
          "midi": 67,
          "name": "G4",
          "ticks": 28950,
          "time": 206.04513974999998,
          "velocity": 0.7874015748031497
        },
        {
          "duration": 0.2054794999999956,
          "durationTicks": 30,
          "midi": 74,
          "name": "D5",
          "ticks": 28950,
          "time": 206.04513974999998,
          "velocity": 0.7874015748031497
        },
        {
          "duration": 0.2054794999999956,
          "durationTicks": 30,
          "midi": 67,
          "name": "G4",
          "ticks": 28980,
          "time": 206.25061924999997,
          "velocity": 0.7874015748031497
        },
        {
          "duration": 0.2054794999999956,
          "durationTicks": 30,
          "midi": 72,
          "name": "C5",
          "ticks": 28980,
          "time": 206.25061924999997,
          "velocity": 0.7874015748031497
        },
        {
          "duration": 0.4109589999999912,
          "durationTicks": 60,
          "midi": 67,
          "name": "G4",
          "ticks": 29010,
          "time": 206.45609874999997,
          "velocity": 0.7874015748031497
        },
        {
          "duration": 0.4109589999999912,
          "durationTicks": 60,
          "midi": 74,
          "name": "D5",
          "ticks": 29010,
          "time": 206.45609874999997,
          "velocity": 0.7874015748031497
        },
        {
          "duration": 0.20547950000002402,
          "durationTicks": 30,
          "midi": 67,
          "name": "G4",
          "ticks": 29070,
          "time": 206.86705774999996,
          "velocity": 0.7874015748031497
        },
        {
          "duration": 0.2054794999999956,
          "durationTicks": 30,
          "midi": 76,
          "name": "E5",
          "ticks": 29130,
          "time": 207.27801674999998,
          "velocity": 0.7874015748031497
        },
        {
          "duration": 0.2054794999999956,
          "durationTicks": 30,
          "midi": 67,
          "name": "G4",
          "ticks": 29130,
          "time": 207.27801674999998,
          "velocity": 0.7874015748031497
        },
        {
          "duration": 0.20547950000002402,
          "durationTicks": 30,
          "midi": 67,
          "name": "G4",
          "ticks": 29160,
          "time": 207.48349624999997,
          "velocity": 0.7874015748031497
        },
        {
          "duration": 0.20547950000002402,
          "durationTicks": 30,
          "midi": 77,
          "name": "F5",
          "ticks": 29160,
          "time": 207.48349624999997,
          "velocity": 0.7874015748031497
        },
        {
          "duration": 0.20547949999996717,
          "durationTicks": 30,
          "midi": 76,
          "name": "E5",
          "ticks": 29190,
          "time": 207.68897575,
          "velocity": 0.7874015748031497
        },
        {
          "duration": 0.20547950000002402,
          "durationTicks": 30,
          "midi": 74,
          "name": "D5",
          "ticks": 29220,
          "time": 207.89445524999996,
          "velocity": 0.7874015748031497
        },
        {
          "duration": 1.0273975000000064,
          "durationTicks": 150,
          "midi": 64,
          "name": "E4",
          "ticks": 29250,
          "time": 208.09993475,
          "velocity": 0.7874015748031497
        },
        {
          "duration": 0.6164384999999868,
          "durationTicks": 90,
          "midi": 74,
          "name": "D5",
          "ticks": 29280,
          "time": 208.30541424999998,
          "velocity": 0.7874015748031497
        },
        {
          "duration": 0.4109589999999912,
          "durationTicks": 60,
          "midi": 64,
          "name": "E4",
          "ticks": 29370,
          "time": 208.92185274999997,
          "velocity": 0.7874015748031497
        },
        {
          "duration": 0.4109589999999912,
          "durationTicks": 60,
          "midi": 72,
          "name": "C5",
          "ticks": 29370,
          "time": 208.92185274999997,
          "velocity": 0.7874015748031497
        },
        {
          "duration": 0.20547950000002402,
          "durationTicks": 30,
          "midi": 64,
          "name": "E4",
          "ticks": 29430,
          "time": 209.33281174999996,
          "velocity": 0.7874015748031497
        },
        {
          "duration": 0.2054794999999956,
          "durationTicks": 30,
          "midi": 64,
          "name": "E4",
          "ticks": 29460,
          "time": 209.53829125,
          "velocity": 0.7874015748031497
        },
        {
          "duration": 0.2054794999999956,
          "durationTicks": 30,
          "midi": 71,
          "name": "B4",
          "ticks": 29460,
          "time": 209.53829125,
          "velocity": 0.7874015748031497
        },
        {
          "duration": 0.2054794999999956,
          "durationTicks": 30,
          "midi": 64,
          "name": "E4",
          "ticks": 29490,
          "time": 209.74377074999998,
          "velocity": 0.7874015748031497
        },
        {
          "duration": 0.2054794999999956,
          "durationTicks": 30,
          "midi": 72,
          "name": "C5",
          "ticks": 29490,
          "time": 209.74377074999998,
          "velocity": 0.7874015748031497
        },
        {
          "duration": 0.4109589999999912,
          "durationTicks": 60,
          "midi": 64,
          "name": "E4",
          "ticks": 29520,
          "time": 209.94925024999998,
          "velocity": 0.7874015748031497
        },
        {
          "duration": 0.4109589999999912,
          "durationTicks": 60,
          "midi": 71,
          "name": "B4",
          "ticks": 29520,
          "time": 209.94925024999998,
          "velocity": 0.7874015748031497
        },
        {
          "duration": 0.20547950000002402,
          "durationTicks": 30,
          "midi": 67,
          "name": "G4",
          "ticks": 29580,
          "time": 210.36020924999997,
          "velocity": 0.7874015748031497
        },
        {
          "duration": 0.4109589999999912,
          "durationTicks": 60,
          "midi": 64,
          "name": "E4",
          "ticks": 29610,
          "time": 210.56568875,
          "velocity": 0.7874015748031497
        },
        {
          "duration": 0.4109589999999912,
          "durationTicks": 60,
          "midi": 67,
          "name": "G4",
          "ticks": 29670,
          "time": 210.97664774999998,
          "velocity": 0.7874015748031497
        },
        {
          "duration": 0.2054794999999956,
          "durationTicks": 30,
          "midi": 60,
          "name": "C4",
          "ticks": 29730,
          "time": 211.38760674999997,
          "velocity": 0.7874015748031497
        },
        {
          "duration": 0.2054794999999956,
          "durationTicks": 30,
          "midi": 65,
          "name": "F4",
          "ticks": 29760,
          "time": 211.59308624999997,
          "velocity": 0.7874015748031497
        },
        {
          "duration": 0.2054794999999956,
          "durationTicks": 30,
          "midi": 69,
          "name": "A4",
          "ticks": 29760,
          "time": 211.59308624999997,
          "velocity": 0.7874015748031497
        },
        {
          "duration": 0.4109589999999912,
          "durationTicks": 60,
          "midi": 60,
          "name": "C4",
          "ticks": 29790,
          "time": 211.79856574999997,
          "velocity": 0.7874015748031497
        },
        {
          "duration": 0.4109590000000196,
          "durationTicks": 60,
          "midi": 67,
          "name": "G4",
          "ticks": 29850,
          "time": 212.20952474999996,
          "velocity": 0.7874015748031497
        },
        {
          "duration": 0.4109590000000196,
          "durationTicks": 60,
          "midi": 71,
          "name": "B4",
          "ticks": 29850,
          "time": 212.20952474999996,
          "velocity": 0.7874015748031497
        },
        {
          "duration": 0.2054794999999956,
          "durationTicks": 30,
          "midi": 60,
          "name": "C4",
          "ticks": 29910,
          "time": 212.62048374999998,
          "velocity": 0.7874015748031497
        },
        {
          "duration": 0.20547950000002402,
          "durationTicks": 30,
          "midi": 72,
          "name": "C5",
          "ticks": 29940,
          "time": 212.82596324999997,
          "velocity": 0.7874015748031497
        },
        {
          "duration": 0.20547949999996717,
          "durationTicks": 30,
          "midi": 60,
          "name": "C4",
          "ticks": 29970,
          "time": 213.03144275,
          "velocity": 0.7874015748031497
        },
        {
          "duration": 0.6164385000000152,
          "durationTicks": 90,
          "midi": 67,
          "name": "G4",
          "ticks": 30000,
          "time": 213.23692224999996,
          "velocity": 0.7874015748031497
        },
        {
          "duration": 0.4109589999999912,
          "durationTicks": 60,
          "midi": 67,
          "name": "G4",
          "ticks": 30090,
          "time": 213.85336074999998,
          "velocity": 0.7874015748031497
        },
        {
          "duration": 0.4109589999999912,
          "durationTicks": 60,
          "midi": 72,
          "name": "C5",
          "ticks": 30090,
          "time": 213.85336074999998,
          "velocity": 0.7874015748031497
        },
        {
          "duration": 0.20547950000002402,
          "durationTicks": 30,
          "midi": 67,
          "name": "G4",
          "ticks": 30150,
          "time": 214.26431974999997,
          "velocity": 0.7874015748031497
        },
        {
          "duration": 0.20547950000002402,
          "durationTicks": 30,
          "midi": 72,
          "name": "C5",
          "ticks": 30150,
          "time": 214.26431974999997,
          "velocity": 0.7874015748031497
        },
        {
          "duration": 0.20547949999996717,
          "durationTicks": 30,
          "midi": 67,
          "name": "G4",
          "ticks": 30180,
          "time": 214.46979925,
          "velocity": 0.7874015748031497
        },
        {
          "duration": 0.20547949999996717,
          "durationTicks": 30,
          "midi": 72,
          "name": "C5",
          "ticks": 30180,
          "time": 214.46979925,
          "velocity": 0.7874015748031497
        },
        {
          "duration": 0.20547950000002402,
          "durationTicks": 30,
          "midi": 67,
          "name": "G4",
          "ticks": 30210,
          "time": 214.67527874999996,
          "velocity": 0.7874015748031497
        },
        {
          "duration": 0.20547950000002402,
          "durationTicks": 30,
          "midi": 72,
          "name": "C5",
          "ticks": 30210,
          "time": 214.67527874999996,
          "velocity": 0.7874015748031497
        },
        {
          "duration": 0.2054794999999956,
          "durationTicks": 30,
          "midi": 65,
          "name": "F4",
          "ticks": 30240,
          "time": 214.88075824999999,
          "velocity": 0.7874015748031497
        },
        {
          "duration": 0.2054794999999956,
          "durationTicks": 30,
          "midi": 69,
          "name": "A4",
          "ticks": 30240,
          "time": 214.88075824999999,
          "velocity": 0.7874015748031497
        },
        {
          "duration": 0.2054794999999956,
          "durationTicks": 30,
          "midi": 60,
          "name": "C4",
          "ticks": 30270,
          "time": 215.08623774999998,
          "velocity": 0.7874015748031497
        },
        {
          "duration": 0.2054794999999956,
          "durationTicks": 30,
          "midi": 60,
          "name": "C4",
          "ticks": 30330,
          "time": 215.49719674999997,
          "velocity": 0.7874015748031497
        },
        {
          "duration": 0.20547950000002402,
          "durationTicks": 30,
          "midi": 65,
          "name": "F4",
          "ticks": 30360,
          "time": 215.70267624999997,
          "velocity": 0.7874015748031497
        },
        {
          "duration": 0.20547949999996717,
          "durationTicks": 30,
          "midi": 69,
          "name": "A4",
          "ticks": 30390,
          "time": 215.90815575,
          "velocity": 0.7874015748031497
        },
        {
          "duration": 0.20547950000002402,
          "durationTicks": 30,
          "midi": 72,
          "name": "C5",
          "ticks": 30420,
          "time": 216.11363524999996,
          "velocity": 0.7874015748031497
        },
        {
          "duration": 0.2054794999999956,
          "durationTicks": 30,
          "midi": 62,
          "name": "D4",
          "ticks": 30450,
          "time": 216.31911474999998,
          "velocity": 0.7874015748031497
        },
        {
          "duration": 0.2054794999999956,
          "durationTicks": 30,
          "midi": 71,
          "name": "B4",
          "ticks": 30480,
          "time": 216.52459424999998,
          "velocity": 0.7874015748031497
        },
        {
          "duration": 0.2054794999999956,
          "durationTicks": 30,
          "midi": 62,
          "name": "D4",
          "ticks": 30510,
          "time": 216.73007374999997,
          "velocity": 0.7874015748031497
        },
        {
          "duration": 0.4109589999999912,
          "durationTicks": 60,
          "midi": 72,
          "name": "C5",
          "ticks": 30570,
          "time": 217.14103274999997,
          "velocity": 0.7874015748031497
        },
        {
          "duration": 0.4109589999999912,
          "durationTicks": 60,
          "midi": 62,
          "name": "D4",
          "ticks": 30570,
          "time": 217.14103274999997,
          "velocity": 0.7874015748031497
        },
        {
          "duration": 0.20547950000002402,
          "durationTicks": 30,
          "midi": 62,
          "name": "D4",
          "ticks": 30630,
          "time": 217.55199174999996,
          "velocity": 0.7874015748031497
        },
        {
          "duration": 0.2054794999999956,
          "durationTicks": 30,
          "midi": 74,
          "name": "D5",
          "ticks": 30660,
          "time": 217.75747124999998,
          "velocity": 0.7874015748031497
        },
        {
          "duration": 0.2054794999999956,
          "durationTicks": 30,
          "midi": 67,
          "name": "G4",
          "ticks": 30690,
          "time": 217.96295074999998,
          "velocity": 0.7874015748031497
        },
        {
          "duration": 0.20547950000002402,
          "durationTicks": 30,
          "midi": 76,
          "name": "E5",
          "ticks": 30720,
          "time": 218.16843024999997,
          "velocity": 0.7874015748031497
        },
        {
          "duration": 0.20547949999996717,
          "durationTicks": 30,
          "midi": 67,
          "name": "G4",
          "ticks": 30750,
          "time": 218.37390975,
          "velocity": 0.7874015748031497
        },
        {
          "duration": 0.2054794999999956,
          "durationTicks": 30,
          "midi": 67,
          "name": "G4",
          "ticks": 30810,
          "time": 218.78486875,
          "velocity": 0.7874015748031497
        },
        {
          "duration": 0.2054794999999956,
          "durationTicks": 30,
          "midi": 76,
          "name": "E5",
          "ticks": 30840,
          "time": 218.99034824999998,
          "velocity": 0.7874015748031497
        },
        {
          "duration": 0.2054794999999956,
          "durationTicks": 30,
          "midi": 67,
          "name": "G4",
          "ticks": 30840,
          "time": 218.99034824999998,
          "velocity": 0.7874015748031497
        },
        {
          "duration": 0.2054794999999956,
          "durationTicks": 30,
          "midi": 74,
          "name": "D5",
          "ticks": 30870,
          "time": 219.19582774999998,
          "velocity": 0.7874015748031497
        },
        {
          "duration": 0.2054794999999956,
          "durationTicks": 30,
          "midi": 67,
          "name": "G4",
          "ticks": 30870,
          "time": 219.19582774999998,
          "velocity": 0.7874015748031497
        },
        {
          "duration": 0.2054794999999956,
          "durationTicks": 30,
          "midi": 72,
          "name": "C5",
          "ticks": 30900,
          "time": 219.40130724999997,
          "velocity": 0.7874015748031497
        },
        {
          "duration": 0.2054794999999956,
          "durationTicks": 30,
          "midi": 67,
          "name": "G4",
          "ticks": 30900,
          "time": 219.40130724999997,
          "velocity": 0.7874015748031497
        },
        {
          "duration": 0.4109589999999912,
          "durationTicks": 60,
          "midi": 74,
          "name": "D5",
          "ticks": 30930,
          "time": 219.60678674999997,
          "velocity": 0.7874015748031497
        },
        {
          "duration": 0.4109589999999912,
          "durationTicks": 60,
          "midi": 67,
          "name": "G4",
          "ticks": 30930,
          "time": 219.60678674999997,
          "velocity": 0.7874015748031497
        },
        {
          "duration": 0.4109590000000196,
          "durationTicks": 60,
          "midi": 67,
          "name": "G4",
          "ticks": 30990,
          "time": 220.01774574999996,
          "velocity": 0.7874015748031497
        },
        {
          "duration": 0.2054794999999956,
          "durationTicks": 30,
          "midi": 76,
          "name": "E5",
          "ticks": 31050,
          "time": 220.42870474999998,
          "velocity": 0.7874015748031497
        },
        {
          "duration": 0.2054794999999956,
          "durationTicks": 30,
          "midi": 67,
          "name": "G4",
          "ticks": 31050,
          "time": 220.42870474999998,
          "velocity": 0.7874015748031497
        },
        {
          "duration": 0.2054794999999956,
          "durationTicks": 30,
          "midi": 67,
          "name": "G4",
          "ticks": 31080,
          "time": 220.63418424999998,
          "velocity": 0.7874015748031497
        },
        {
          "duration": 0.2054794999999956,
          "durationTicks": 30,
          "midi": 77,
          "name": "F5",
          "ticks": 31080,
          "time": 220.63418424999998,
          "velocity": 0.7874015748031497
        },
        {
          "duration": 0.2054794999999956,
          "durationTicks": 30,
          "midi": 76,
          "name": "E5",
          "ticks": 31110,
          "time": 220.83966374999997,
          "velocity": 0.7874015748031497
        },
        {
          "duration": 0.20547950000002402,
          "durationTicks": 30,
          "midi": 74,
          "name": "D5",
          "ticks": 31140,
          "time": 221.04514324999997,
          "velocity": 0.7874015748031497
        },
        {
          "duration": 0.8219179999999824,
          "durationTicks": 120,
          "midi": 64,
          "name": "E4",
          "ticks": 31170,
          "time": 221.25062275,
          "velocity": 0.7874015748031497
        },
        {
          "duration": 0.6164385000000152,
          "durationTicks": 90,
          "midi": 74,
          "name": "D5",
          "ticks": 31200,
          "time": 221.45610224999996,
          "velocity": 0.7874015748031497
        },
        {
          "duration": 0.4109589999999912,
          "durationTicks": 60,
          "midi": 64,
          "name": "E4",
          "ticks": 31290,
          "time": 222.07254074999997,
          "velocity": 0.7874015748031497
        },
        {
          "duration": 0.4109589999999912,
          "durationTicks": 60,
          "midi": 72,
          "name": "C5",
          "ticks": 31290,
          "time": 222.07254074999997,
          "velocity": 0.7874015748031497
        },
        {
          "duration": 0.20547950000002402,
          "durationTicks": 30,
          "midi": 64,
          "name": "E4",
          "ticks": 31350,
          "time": 222.48349974999996,
          "velocity": 0.7874015748031497
        },
        {
          "duration": 0.20547949999996717,
          "durationTicks": 30,
          "midi": 62,
          "name": "D4",
          "ticks": 31380,
          "time": 222.68897925,
          "velocity": 0.7874015748031497
        },
        {
          "duration": 0.20547949999996717,
          "durationTicks": 30,
          "midi": 71,
          "name": "B4",
          "ticks": 31380,
          "time": 222.68897925,
          "velocity": 0.7874015748031497
        },
        {
          "duration": 0.20547950000002402,
          "durationTicks": 30,
          "midi": 72,
          "name": "C5",
          "ticks": 31410,
          "time": 222.89445874999996,
          "velocity": 0.7874015748031497
        },
        {
          "duration": 0.2054794999999956,
          "durationTicks": 30,
          "midi": 64,
          "name": "E4",
          "ticks": 31440,
          "time": 223.09993824999998,
          "velocity": 0.7874015748031497
        },
        {
          "duration": 0.2054794999999956,
          "durationTicks": 30,
          "midi": 67,
          "name": "G4",
          "ticks": 31470,
          "time": 223.30541774999998,
          "velocity": 0.7874015748031497
        },
        {
          "duration": 0.20547950000002402,
          "durationTicks": 30,
          "midi": 71,
          "name": "B4",
          "ticks": 31500,
          "time": 223.51089724999997,
          "velocity": 0.7874015748031497
        },
        {
          "duration": 0.20547949999996717,
          "durationTicks": 30,
          "midi": 72,
          "name": "C5",
          "ticks": 31530,
          "time": 223.71637675,
          "velocity": 0.7874015748031497
        },
        {
          "duration": 0.20547950000002402,
          "durationTicks": 30,
          "midi": 76,
          "name": "E5",
          "ticks": 31560,
          "time": 223.92185624999996,
          "velocity": 0.7874015748031497
        },
        {
          "duration": 0.2054794999999956,
          "durationTicks": 30,
          "midi": 79,
          "name": "G5",
          "ticks": 31590,
          "time": 224.12733575,
          "velocity": 0.7874015748031497
        },
        {
          "duration": 0.2054794999999956,
          "durationTicks": 30,
          "midi": 83,
          "name": "B5",
          "ticks": 31620,
          "time": 224.33281524999998,
          "velocity": 0.7874015748031497
        },
        {
          "duration": 0.2054794999999956,
          "durationTicks": 30,
          "midi": 84,
          "name": "C6",
          "ticks": 31650,
          "time": 224.53829474999998,
          "velocity": 0.7874015748031497
        },
        {
          "duration": 0.2054794999999956,
          "durationTicks": 30,
          "midi": 83,
          "name": "B5",
          "ticks": 31680,
          "time": 224.74377424999997,
          "velocity": 0.7874015748031497
        },
        {
          "duration": 0.20547950000002402,
          "durationTicks": 30,
          "midi": 81,
          "name": "A5",
          "ticks": 31710,
          "time": 224.94925374999997,
          "velocity": 0.7874015748031497
        },
        {
          "duration": 0.20547949999996717,
          "durationTicks": 30,
          "midi": 79,
          "name": "G5",
          "ticks": 31740,
          "time": 225.15473325,
          "velocity": 0.7874015748031497
        },
        {
          "duration": 0.20547950000002402,
          "durationTicks": 30,
          "midi": 77,
          "name": "F5",
          "ticks": 31770,
          "time": 225.36021274999996,
          "velocity": 0.7874015748031497
        },
        {
          "duration": 0.2054794999999956,
          "durationTicks": 30,
          "midi": 79,
          "name": "G5",
          "ticks": 31800,
          "time": 225.56569224999998,
          "velocity": 0.7874015748031497
        },
        {
          "duration": 0.2054794999999956,
          "durationTicks": 30,
          "midi": 77,
          "name": "F5",
          "ticks": 31830,
          "time": 225.77117174999998,
          "velocity": 0.7874015748031497
        },
        {
          "duration": 0.2054794999999956,
          "durationTicks": 30,
          "midi": 76,
          "name": "E5",
          "ticks": 31860,
          "time": 225.97665124999997,
          "velocity": 0.7874015748031497
        },
        {
          "duration": 0.2054794999999956,
          "durationTicks": 30,
          "midi": 74,
          "name": "D5",
          "ticks": 31890,
          "time": 226.18213074999997,
          "velocity": 0.7874015748031497
        },
        {
          "duration": 0.20547950000002402,
          "durationTicks": 30,
          "midi": 79,
          "name": "G5",
          "ticks": 31920,
          "time": 226.38761024999997,
          "velocity": 0.7874015748031497
        },
        {
          "duration": 0.20547950000002402,
          "durationTicks": 30,
          "midi": 76,
          "name": "E5",
          "ticks": 31920,
          "time": 226.38761024999997,
          "velocity": 0.7874015748031497
        },
        {
          "duration": 0.20547949999996717,
          "durationTicks": 30,
          "midi": 74,
          "name": "D5",
          "ticks": 31950,
          "time": 226.59308975,
          "velocity": 0.7874015748031497
        },
        {
          "duration": 0.20547950000002402,
          "durationTicks": 30,
          "midi": 72,
          "name": "C5",
          "ticks": 31980,
          "time": 226.79856924999996,
          "velocity": 0.7874015748031497
        },
        {
          "duration": 0.2054794999999956,
          "durationTicks": 30,
          "midi": 71,
          "name": "B4",
          "ticks": 32010,
          "time": 227.00404874999998,
          "velocity": 0.7874015748031497
        },
        {
          "duration": 0.2054794999999956,
          "durationTicks": 30,
          "midi": 72,
          "name": "C5",
          "ticks": 32040,
          "time": 227.20952824999998,
          "velocity": 0.7874015748031497
        },
        {
          "duration": 0.20547950000002402,
          "durationTicks": 30,
          "midi": 71,
          "name": "B4",
          "ticks": 32070,
          "time": 227.41500774999997,
          "velocity": 0.7874015748031497
        },
        {
          "duration": 0.20547949999996717,
          "durationTicks": 30,
          "midi": 69,
          "name": "A4",
          "ticks": 32100,
          "time": 227.62048725,
          "velocity": 0.7874015748031497
        },
        {
          "duration": 0.20547950000002402,
          "durationTicks": 30,
          "midi": 67,
          "name": "G4",
          "ticks": 32130,
          "time": 227.82596674999996,
          "velocity": 0.7874015748031497
        },
        {
          "duration": 0.20547949999996717,
          "durationTicks": 30,
          "midi": 69,
          "name": "A4",
          "ticks": 32160,
          "time": 228.03144625,
          "velocity": 0.7874015748031497
        },
        {
          "duration": 0.20547950000002402,
          "durationTicks": 30,
          "midi": 67,
          "name": "G4",
          "ticks": 32190,
          "time": 228.23692574999995,
          "velocity": 0.7874015748031497
        },
        {
          "duration": 0.2054794999999956,
          "durationTicks": 30,
          "midi": 65,
          "name": "F4",
          "ticks": 32220,
          "time": 228.44240524999998,
          "velocity": 0.7874015748031497
        },
        {
          "duration": 0.2054794999999956,
          "durationTicks": 30,
          "midi": 67,
          "name": "G4",
          "ticks": 32250,
          "time": 228.64788474999997,
          "velocity": 0.7874015748031497
        },
        {
          "duration": 0.20547950000002402,
          "durationTicks": 30,
          "midi": 69,
          "name": "A4",
          "ticks": 32280,
          "time": 228.85336424999997,
          "velocity": 0.7874015748031497
        },
        {
          "duration": 0.20547949999996717,
          "durationTicks": 30,
          "midi": 65,
          "name": "F4",
          "ticks": 32310,
          "time": 229.05884375,
          "velocity": 0.7874015748031497
        },
        {
          "duration": 0.20547950000002402,
          "durationTicks": 30,
          "midi": 72,
          "name": "C5",
          "ticks": 32340,
          "time": 229.26432324999996,
          "velocity": 0.7874015748031497
        },
        {
          "duration": 0.2054794999999956,
          "durationTicks": 30,
          "midi": 67,
          "name": "G4",
          "ticks": 32370,
          "time": 229.46980274999999,
          "velocity": 0.7874015748031497
        },
        {
          "duration": 0.2054794999999956,
          "durationTicks": 30,
          "midi": 71,
          "name": "B4",
          "ticks": 32400,
          "time": 229.67528224999998,
          "velocity": 0.7874015748031497
        },
        {
          "duration": 0.2054794999999956,
          "durationTicks": 30,
          "midi": 69,
          "name": "A4",
          "ticks": 32430,
          "time": 229.88076174999998,
          "velocity": 0.7874015748031497
        },
        {
          "duration": 0.2054794999999956,
          "durationTicks": 30,
          "midi": 67,
          "name": "G4",
          "ticks": 32460,
          "time": 230.08624124999997,
          "velocity": 0.7874015748031497
        },
        {
          "duration": 0.4109589999999912,
          "durationTicks": 60,
          "midi": 72,
          "name": "C5",
          "ticks": 32490,
          "time": 230.29172074999997,
          "velocity": 0.7874015748031497
        },
        {
          "duration": 0.20547950000002402,
          "durationTicks": 30,
          "midi": 67,
          "name": "G4",
          "ticks": 32550,
          "time": 230.70267974999996,
          "velocity": 0.7874015748031497
        },
        {
          "duration": 0.2054794999999956,
          "durationTicks": 30,
          "midi": 74,
          "name": "D5",
          "ticks": 32580,
          "time": 230.90815924999998,
          "velocity": 0.7874015748031497
        },
        {
          "duration": 0.2054794999999956,
          "durationTicks": 30,
          "midi": 67,
          "name": "G4",
          "ticks": 32610,
          "time": 231.11363874999998,
          "velocity": 0.7874015748031497
        },
        {
          "duration": 0.2054794999999956,
          "durationTicks": 30,
          "midi": 76,
          "name": "E5",
          "ticks": 32640,
          "time": 231.31911824999997,
          "velocity": 0.7874015748031497
        },
        {
          "duration": 0.4109590000000196,
          "durationTicks": 60,
          "midi": 67,
          "name": "G4",
          "ticks": 32670,
          "time": 231.52459774999997,
          "velocity": 0.7874015748031497
        },
        {
          "duration": 0.20547949999996717,
          "durationTicks": 30,
          "midi": 67,
          "name": "G4",
          "ticks": 32730,
          "time": 231.93555675,
          "velocity": 0.7874015748031497
        },
        {
          "duration": 0.20547950000002402,
          "durationTicks": 30,
          "midi": 76,
          "name": "E5",
          "ticks": 32760,
          "time": 232.14103624999996,
          "velocity": 0.7874015748031497
        },
        {
          "duration": 0.2054794999999956,
          "durationTicks": 30,
          "midi": 67,
          "name": "G4",
          "ticks": 32790,
          "time": 232.34651574999998,
          "velocity": 0.7874015748031497
        },
        {
          "duration": 0.2054794999999956,
          "durationTicks": 30,
          "midi": 77,
          "name": "F5",
          "ticks": 32820,
          "time": 232.55199524999998,
          "velocity": 0.7874015748031497
        },
        {
          "duration": 0.2054794999999956,
          "durationTicks": 30,
          "midi": 67,
          "name": "G4",
          "ticks": 32850,
          "time": 232.75747474999997,
          "velocity": 0.7874015748031497
        },
        {
          "duration": 0.2054794999999956,
          "durationTicks": 30,
          "midi": 71,
          "name": "B4",
          "ticks": 32880,
          "time": 232.96295424999997,
          "velocity": 0.7874015748031497
        },
        {
          "duration": 0.2054794999999956,
          "durationTicks": 30,
          "midi": 79,
          "name": "G5",
          "ticks": 32880,
          "time": 232.96295424999997,
          "velocity": 0.7874015748031497
        },
        {
          "duration": 0.20547950000002402,
          "durationTicks": 30,
          "midi": 69,
          "name": "A4",
          "ticks": 32910,
          "time": 233.16843374999996,
          "velocity": 0.7874015748031497
        },
        {
          "duration": 0.2054794999999956,
          "durationTicks": 30,
          "midi": 72,
          "name": "C5",
          "ticks": 32940,
          "time": 233.37391325,
          "velocity": 0.7874015748031497
        },
        {
          "duration": 0.2054794999999956,
          "durationTicks": 30,
          "midi": 81,
          "name": "A5",
          "ticks": 32940,
          "time": 233.37391325,
          "velocity": 0.7874015748031497
        },
        {
          "duration": 0.2054794999999956,
          "durationTicks": 30,
          "midi": 67,
          "name": "G4",
          "ticks": 32970,
          "time": 233.57939274999998,
          "velocity": 0.7874015748031497
        },
        {
          "duration": 0.2054794999999956,
          "durationTicks": 30,
          "midi": 71,
          "name": "B4",
          "ticks": 33000,
          "time": 233.78487224999998,
          "velocity": 0.7874015748031497
        },
        {
          "duration": 0.2054794999999956,
          "durationTicks": 30,
          "midi": 79,
          "name": "G5",
          "ticks": 33000,
          "time": 233.78487224999998,
          "velocity": 0.7874015748031497
        },
        {
          "duration": 0.2054794999999956,
          "durationTicks": 30,
          "midi": 67,
          "name": "G4",
          "ticks": 33030,
          "time": 233.99035174999997,
          "velocity": 0.7874015748031497
        },
        {
          "duration": 0.2054794999999956,
          "durationTicks": 30,
          "midi": 71,
          "name": "B4",
          "ticks": 33060,
          "time": 234.19583124999997,
          "velocity": 0.7874015748031497
        },
        {
          "duration": 0.2054794999999956,
          "durationTicks": 30,
          "midi": 77,
          "name": "F5",
          "ticks": 33060,
          "time": 234.19583124999997,
          "velocity": 0.7874015748031497
        },
        {
          "duration": 0.20547950000002402,
          "durationTicks": 30,
          "midi": 62,
          "name": "D4",
          "ticks": 33090,
          "time": 234.40131074999996,
          "velocity": 0.7874015748031497
        },
        {
          "duration": 0.2054794999999956,
          "durationTicks": 30,
          "midi": 69,
          "name": "A4",
          "ticks": 33120,
          "time": 234.60679025,
          "velocity": 0.7874015748031497
        },
        {
          "duration": 0.2054794999999956,
          "durationTicks": 30,
          "midi": 76,
          "name": "E5",
          "ticks": 33120,
          "time": 234.60679025,
          "velocity": 0.7874015748031497
        },
        {
          "duration": 0.4109589999999912,
          "durationTicks": 60,
          "midi": 64,
          "name": "E4",
          "ticks": 33150,
          "time": 234.81226974999998,
          "velocity": 0.7874015748031497
        },
        {
          "duration": 0.2054794999999956,
          "durationTicks": 30,
          "midi": 64,
          "name": "E4",
          "ticks": 33210,
          "time": 235.22322874999998,
          "velocity": 0.7874015748031497
        },
        {
          "duration": 0.2054794999999956,
          "durationTicks": 30,
          "midi": 64,
          "name": "E4",
          "ticks": 33240,
          "time": 235.42870824999997,
          "velocity": 0.7874015748031497
        },
        {
          "duration": 0.2054794999999956,
          "durationTicks": 30,
          "midi": 72,
          "name": "C5",
          "ticks": 33240,
          "time": 235.42870824999997,
          "velocity": 0.7874015748031497
        },
        {
          "duration": 0.2054794999999956,
          "durationTicks": 30,
          "midi": 64,
          "name": "E4",
          "ticks": 33270,
          "time": 235.63418774999997,
          "velocity": 0.7874015748031497
        },
        {
          "duration": 0.2054794999999956,
          "durationTicks": 30,
          "midi": 72,
          "name": "C5",
          "ticks": 33270,
          "time": 235.63418774999997,
          "velocity": 0.7874015748031497
        },
        {
          "duration": 0.20547950000002402,
          "durationTicks": 30,
          "midi": 74,
          "name": "D5",
          "ticks": 33300,
          "time": 235.83966724999996,
          "velocity": 0.7874015748031497
        },
        {
          "duration": 0.2054794999999956,
          "durationTicks": 30,
          "midi": 64,
          "name": "E4",
          "ticks": 33330,
          "time": 236.04514675,
          "velocity": 0.7874015748031497
        },
        {
          "duration": 0.2054794999999956,
          "durationTicks": 30,
          "midi": 67,
          "name": "G4",
          "ticks": 33360,
          "time": 236.25062624999998,
          "velocity": 0.7874015748031497
        },
        {
          "duration": 0.2054794999999956,
          "durationTicks": 30,
          "midi": 76,
          "name": "E5",
          "ticks": 33360,
          "time": 236.25062624999998,
          "velocity": 0.7874015748031497
        },
        {
          "duration": 0.2054794999999956,
          "durationTicks": 30,
          "midi": 65,
          "name": "F4",
          "ticks": 33390,
          "time": 236.45610574999998,
          "velocity": 0.7874015748031497
        },
        {
          "duration": 0.2054794999999956,
          "durationTicks": 30,
          "midi": 77,
          "name": "F5",
          "ticks": 33420,
          "time": 236.66158524999997,
          "velocity": 0.7874015748031497
        },
        {
          "duration": 0.2054794999999956,
          "durationTicks": 30,
          "midi": 64,
          "name": "E4",
          "ticks": 33450,
          "time": 236.86706474999997,
          "velocity": 0.7874015748031497
        },
        {
          "duration": 0.20547950000002402,
          "durationTicks": 30,
          "midi": 76,
          "name": "E5",
          "ticks": 33480,
          "time": 237.07254424999996,
          "velocity": 0.7874015748031497
        },
        {
          "duration": 0.2054794999999956,
          "durationTicks": 30,
          "midi": 62,
          "name": "D4",
          "ticks": 33510,
          "time": 237.27802375,
          "velocity": 0.7874015748031497
        },
        {
          "duration": 0.2054794999999956,
          "durationTicks": 30,
          "midi": 74,
          "name": "D5",
          "ticks": 33540,
          "time": 237.48350324999998,
          "velocity": 0.7874015748031497
        },
        {
          "duration": 0.2054794999999956,
          "durationTicks": 30,
          "midi": 60,
          "name": "C4",
          "ticks": 33570,
          "time": 237.68898274999998,
          "velocity": 0.7874015748031497
        },
        {
          "duration": 0.2054794999999956,
          "durationTicks": 30,
          "midi": 65,
          "name": "F4",
          "ticks": 33600,
          "time": 237.89446224999998,
          "velocity": 0.7874015748031497
        },
        {
          "duration": 0.2054794999999956,
          "durationTicks": 30,
          "midi": 69,
          "name": "A4",
          "ticks": 33600,
          "time": 237.89446224999998,
          "velocity": 0.7874015748031497
        },
        {
          "duration": 0.4109589999999912,
          "durationTicks": 60,
          "midi": 60,
          "name": "C4",
          "ticks": 33630,
          "time": 238.09994174999997,
          "velocity": 0.7874015748031497
        },
        {
          "duration": 0.20547950000002402,
          "durationTicks": 30,
          "midi": 60,
          "name": "C4",
          "ticks": 33690,
          "time": 238.51090074999996,
          "velocity": 0.7874015748031497
        },
        {
          "duration": 0.2054794999999956,
          "durationTicks": 30,
          "midi": 60,
          "name": "C4",
          "ticks": 33720,
          "time": 238.71638025,
          "velocity": 0.7874015748031497
        },
        {
          "duration": 0.2054794999999956,
          "durationTicks": 30,
          "midi": 69,
          "name": "A4",
          "ticks": 33720,
          "time": 238.71638025,
          "velocity": 0.7874015748031497
        },
        {
          "duration": 0.2054794999999956,
          "durationTicks": 30,
          "midi": 71,
          "name": "B4",
          "ticks": 33750,
          "time": 238.92185974999998,
          "velocity": 0.7874015748031497
        },
        {
          "duration": 0.2054794999999956,
          "durationTicks": 30,
          "midi": 72,
          "name": "C5",
          "ticks": 33780,
          "time": 239.12733924999998,
          "velocity": 0.7874015748031497
        },
        {
          "duration": 0.4109589999999912,
          "durationTicks": 60,
          "midi": 67,
          "name": "G4",
          "ticks": 33810,
          "time": 239.33281874999997,
          "velocity": 0.7874015748031497
        },
        {
          "duration": 0.4109589999999912,
          "durationTicks": 60,
          "midi": 60,
          "name": "C4",
          "ticks": 33810,
          "time": 239.33281874999997,
          "velocity": 0.7874015748031497
        },
        {
          "duration": 0.4109590000000196,
          "durationTicks": 60,
          "midi": 72,
          "name": "C5",
          "ticks": 33870,
          "time": 239.74377774999996,
          "velocity": 0.7874015748031497
        },
        {
          "duration": 0.2054794999999956,
          "durationTicks": 30,
          "midi": 72,
          "name": "C5",
          "ticks": 33930,
          "time": 240.15473674999998,
          "velocity": 0.7874015748031497
        },
        {
          "duration": 0.2054794999999956,
          "durationTicks": 30,
          "midi": 67,
          "name": "G4",
          "ticks": 33960,
          "time": 240.36021624999998,
          "velocity": 0.7874015748031497
        },
        {
          "duration": 0.2054794999999956,
          "durationTicks": 30,
          "midi": 72,
          "name": "C5",
          "ticks": 33960,
          "time": 240.36021624999998,
          "velocity": 0.7874015748031497
        },
        {
          "duration": 0.4109589999999912,
          "durationTicks": 60,
          "midi": 72,
          "name": "C5",
          "ticks": 33990,
          "time": 240.56569574999997,
          "velocity": 0.7874015748031497
        },
        {
          "duration": 0.4109589999999912,
          "durationTicks": 60,
          "midi": 67,
          "name": "G4",
          "ticks": 33990,
          "time": 240.56569574999997,
          "velocity": 0.7874015748031497
        },
        {
          "duration": 0.2054794999999956,
          "durationTicks": 30,
          "midi": 72,
          "name": "C5",
          "ticks": 34050,
          "time": 240.97665474999997,
          "velocity": 0.7874015748031497
        },
        {
          "duration": 0.20547950000002402,
          "durationTicks": 30,
          "midi": 65,
          "name": "F4",
          "ticks": 34080,
          "time": 241.18213424999996,
          "velocity": 0.7874015748031497
        },
        {
          "duration": 0.20547950000002402,
          "durationTicks": 30,
          "midi": 69,
          "name": "A4",
          "ticks": 34080,
          "time": 241.18213424999996,
          "velocity": 0.7874015748031497
        },
        {
          "duration": 0.4109589999999912,
          "durationTicks": 60,
          "midi": 60,
          "name": "C4",
          "ticks": 34110,
          "time": 241.38761374999999,
          "velocity": 0.7874015748031497
        },
        {
          "duration": 0.2054794999999956,
          "durationTicks": 30,
          "midi": 60,
          "name": "C4",
          "ticks": 34170,
          "time": 241.79857274999998,
          "velocity": 0.7874015748031497
        },
        {
          "duration": 0.2054794999999956,
          "durationTicks": 30,
          "midi": 65,
          "name": "F4",
          "ticks": 34200,
          "time": 242.00405224999997,
          "velocity": 0.7874015748031497
        },
        {
          "duration": 0.2054794999999956,
          "durationTicks": 30,
          "midi": 69,
          "name": "A4",
          "ticks": 34230,
          "time": 242.20953174999997,
          "velocity": 0.7874015748031497
        },
        {
          "duration": 0.20547950000002402,
          "durationTicks": 30,
          "midi": 72,
          "name": "C5",
          "ticks": 34260,
          "time": 242.41501124999996,
          "velocity": 0.7874015748031497
        },
        {
          "duration": 0.2054794999999956,
          "durationTicks": 30,
          "midi": 62,
          "name": "D4",
          "ticks": 34290,
          "time": 242.62049075,
          "velocity": 0.7874015748031497
        },
        {
          "duration": 0.2054794999999956,
          "durationTicks": 30,
          "midi": 72,
          "name": "C5",
          "ticks": 34320,
          "time": 242.82597024999998,
          "velocity": 0.7874015748031497
        },
        {
          "duration": 0.4109589999999912,
          "durationTicks": 60,
          "midi": 62,
          "name": "D4",
          "ticks": 34350,
          "time": 243.03144974999998,
          "velocity": 0.7874015748031497
        },
        {
          "duration": 0.2054794999999956,
          "durationTicks": 30,
          "midi": 71,
          "name": "B4",
          "ticks": 34410,
          "time": 243.44240874999997,
          "velocity": 0.7874015748031497
        },
        {
          "duration": 0.2054794999999956,
          "durationTicks": 30,
          "midi": 62,
          "name": "D4",
          "ticks": 34410,
          "time": 243.44240874999997,
          "velocity": 0.7874015748031497
        },
        {
          "duration": 0.2054794999999956,
          "durationTicks": 30,
          "midi": 72,
          "name": "C5",
          "ticks": 34440,
          "time": 243.64788824999997,
          "velocity": 0.7874015748031497
        },
        {
          "duration": 0.4109590000000196,
          "durationTicks": 60,
          "midi": 74,
          "name": "D5",
          "ticks": 34470,
          "time": 243.85336774999996,
          "velocity": 0.7874015748031497
        },
        {
          "duration": 0.2054794999999956,
          "durationTicks": 30,
          "midi": 67,
          "name": "G4",
          "ticks": 34530,
          "time": 244.26432674999998,
          "velocity": 0.7874015748031497
        },
        {
          "duration": 0.2054794999999956,
          "durationTicks": 30,
          "midi": 72,
          "name": "C5",
          "ticks": 34560,
          "time": 244.46980624999998,
          "velocity": 0.7874015748031497
        },
        {
          "duration": 0.2054794999999956,
          "durationTicks": 30,
          "midi": 76,
          "name": "E5",
          "ticks": 34560,
          "time": 244.46980624999998,
          "velocity": 0.7874015748031497
        },
        {
          "duration": 0.4109589999999912,
          "durationTicks": 60,
          "midi": 67,
          "name": "G4",
          "ticks": 34590,
          "time": 244.67528574999997,
          "velocity": 0.7874015748031497
        },
        {
          "duration": 0.20547950000002402,
          "durationTicks": 30,
          "midi": 67,
          "name": "G4",
          "ticks": 34650,
          "time": 245.08624474999996,
          "velocity": 0.7874015748031497
        },
        {
          "duration": 0.2054794999999956,
          "durationTicks": 30,
          "midi": 76,
          "name": "E5",
          "ticks": 34680,
          "time": 245.29172425,
          "velocity": 0.7874015748031497
        },
        {
          "duration": 0.2054794999999956,
          "durationTicks": 30,
          "midi": 72,
          "name": "C5",
          "ticks": 34680,
          "time": 245.29172425,
          "velocity": 0.7874015748031497
        },
        {
          "duration": 0.2054794999999956,
          "durationTicks": 30,
          "midi": 67,
          "name": "G4",
          "ticks": 34710,
          "time": 245.49720374999998,
          "velocity": 0.7874015748031497
        },
        {
          "duration": 0.2054794999999956,
          "durationTicks": 30,
          "midi": 77,
          "name": "F5",
          "ticks": 34740,
          "time": 245.70268324999998,
          "velocity": 0.7874015748031497
        },
        {
          "duration": 0.2054794999999956,
          "durationTicks": 30,
          "midi": 74,
          "name": "D5",
          "ticks": 34740,
          "time": 245.70268324999998,
          "velocity": 0.7874015748031497
        },
        {
          "duration": 0.2054794999999956,
          "durationTicks": 30,
          "midi": 67,
          "name": "G4",
          "ticks": 34770,
          "time": 245.90816274999997,
          "velocity": 0.7874015748031497
        },
        {
          "duration": 0.2054794999999956,
          "durationTicks": 30,
          "midi": 71,
          "name": "B4",
          "ticks": 34800,
          "time": 246.11364224999997,
          "velocity": 0.7874015748031497
        },
        {
          "duration": 0.2054794999999956,
          "durationTicks": 30,
          "midi": 79,
          "name": "G5",
          "ticks": 34800,
          "time": 246.11364224999997,
          "velocity": 0.7874015748031497
        },
        {
          "duration": 0.2054794999999956,
          "durationTicks": 30,
          "midi": 69,
          "name": "A4",
          "ticks": 34830,
          "time": 246.31912174999997,
          "velocity": 0.7874015748031497
        },
        {
          "duration": 0.20547950000002402,
          "durationTicks": 30,
          "midi": 72,
          "name": "C5",
          "ticks": 34860,
          "time": 246.52460124999996,
          "velocity": 0.7874015748031497
        },
        {
          "duration": 0.20547950000002402,
          "durationTicks": 30,
          "midi": 81,
          "name": "A5",
          "ticks": 34860,
          "time": 246.52460124999996,
          "velocity": 0.7874015748031497
        },
        {
          "duration": 0.2054794999999956,
          "durationTicks": 30,
          "midi": 67,
          "name": "G4",
          "ticks": 34890,
          "time": 246.73008074999998,
          "velocity": 0.7874015748031497
        },
        {
          "duration": 0.2054794999999956,
          "durationTicks": 30,
          "midi": 71,
          "name": "B4",
          "ticks": 34920,
          "time": 246.93556024999998,
          "velocity": 0.7874015748031497
        },
        {
          "duration": 0.2054794999999956,
          "durationTicks": 30,
          "midi": 79,
          "name": "G5",
          "ticks": 34920,
          "time": 246.93556024999998,
          "velocity": 0.7874015748031497
        },
        {
          "duration": 0.2054794999999956,
          "durationTicks": 30,
          "midi": 67,
          "name": "G4",
          "ticks": 34950,
          "time": 247.14103974999998,
          "velocity": 0.7874015748031497
        },
        {
          "duration": 0.2054794999999956,
          "durationTicks": 30,
          "midi": 77,
          "name": "F5",
          "ticks": 34980,
          "time": 247.34651924999997,
          "velocity": 0.7874015748031497
        },
        {
          "duration": 0.2054794999999956,
          "durationTicks": 30,
          "midi": 71,
          "name": "B4",
          "ticks": 34980,
          "time": 247.34651924999997,
          "velocity": 0.7874015748031497
        },
        {
          "duration": 0.2054794999999956,
          "durationTicks": 30,
          "midi": 64,
          "name": "E4",
          "ticks": 35010,
          "time": 247.55199874999997,
          "velocity": 0.7874015748031497
        },
        {
          "duration": 0.20547950000002402,
          "durationTicks": 30,
          "midi": 72,
          "name": "C5",
          "ticks": 35040,
          "time": 247.75747824999996,
          "velocity": 0.7874015748031497
        },
        {
          "duration": 0.20547950000002402,
          "durationTicks": 30,
          "midi": 76,
          "name": "E5",
          "ticks": 35040,
          "time": 247.75747824999996,
          "velocity": 0.7874015748031497
        },
        {
          "duration": 0.4109589999999912,
          "durationTicks": 60,
          "midi": 64,
          "name": "E4",
          "ticks": 35070,
          "time": 247.96295775,
          "velocity": 0.7874015748031497
        },
        {
          "duration": 0.2054794999999956,
          "durationTicks": 30,
          "midi": 64,
          "name": "E4",
          "ticks": 35130,
          "time": 248.37391674999998,
          "velocity": 0.7874015748031497
        },
        {
          "duration": 0.2054794999999956,
          "durationTicks": 30,
          "midi": 72,
          "name": "C5",
          "ticks": 35160,
          "time": 248.57939624999997,
          "velocity": 0.7874015748031497
        },
        {
          "duration": 0.2054794999999956,
          "durationTicks": 30,
          "midi": 64,
          "name": "E4",
          "ticks": 35160,
          "time": 248.57939624999997,
          "velocity": 0.7874015748031497
        },
        {
          "duration": 0.2054794999999956,
          "durationTicks": 30,
          "midi": 72,
          "name": "C5",
          "ticks": 35190,
          "time": 248.78487574999997,
          "velocity": 0.7874015748031497
        },
        {
          "duration": 0.2054794999999956,
          "durationTicks": 30,
          "midi": 64,
          "name": "E4",
          "ticks": 35190,
          "time": 248.78487574999997,
          "velocity": 0.7874015748031497
        },
        {
          "duration": 0.2054794999999956,
          "durationTicks": 30,
          "midi": 74,
          "name": "D5",
          "ticks": 35220,
          "time": 248.99035524999996,
          "velocity": 0.7874015748031497
        },
        {
          "duration": 0.20547950000002402,
          "durationTicks": 30,
          "midi": 64,
          "name": "E4",
          "ticks": 35250,
          "time": 249.19583474999996,
          "velocity": 0.7874015748031497
        },
        {
          "duration": 0.2054794999999956,
          "durationTicks": 30,
          "midi": 67,
          "name": "G4",
          "ticks": 35280,
          "time": 249.40131424999998,
          "velocity": 0.7874015748031497
        },
        {
          "duration": 0.2054794999999956,
          "durationTicks": 30,
          "midi": 76,
          "name": "E5",
          "ticks": 35280,
          "time": 249.40131424999998,
          "velocity": 0.7874015748031497
        },
        {
          "duration": 0.2054794999999956,
          "durationTicks": 30,
          "midi": 65,
          "name": "F4",
          "ticks": 35310,
          "time": 249.60679374999998,
          "velocity": 0.7874015748031497
        },
        {
          "duration": 0.2054794999999956,
          "durationTicks": 30,
          "midi": 77,
          "name": "F5",
          "ticks": 35340,
          "time": 249.81227324999998,
          "velocity": 0.7874015748031497
        },
        {
          "duration": 0.2054794999999956,
          "durationTicks": 30,
          "midi": 64,
          "name": "E4",
          "ticks": 35370,
          "time": 250.01775274999997,
          "velocity": 0.7874015748031497
        },
        {
          "duration": 0.2054794999999956,
          "durationTicks": 30,
          "midi": 67,
          "name": "G4",
          "ticks": 35400,
          "time": 250.22323224999997,
          "velocity": 0.7874015748031497
        },
        {
          "duration": 0.2054794999999956,
          "durationTicks": 30,
          "midi": 76,
          "name": "E5",
          "ticks": 35400,
          "time": 250.22323224999997,
          "velocity": 0.7874015748031497
        },
        {
          "duration": 0.20547950000002402,
          "durationTicks": 30,
          "midi": 64,
          "name": "E4",
          "ticks": 35430,
          "time": 250.42871174999996,
          "velocity": 0.7874015748031497
        },
        {
          "duration": 0.2054794999999956,
          "durationTicks": 30,
          "midi": 74,
          "name": "D5",
          "ticks": 35460,
          "time": 250.63419125,
          "velocity": 0.7874015748031497
        },
        {
          "duration": 0.2054794999999956,
          "durationTicks": 30,
          "midi": 67,
          "name": "G4",
          "ticks": 35460,
          "time": 250.63419125,
          "velocity": 0.7874015748031497
        },
        {
          "duration": 0.2054794999999956,
          "durationTicks": 30,
          "midi": 60,
          "name": "C4",
          "ticks": 35490,
          "time": 250.83967074999998,
          "velocity": 0.7874015748031497
        },
        {
          "duration": 0.2054794999999956,
          "durationTicks": 30,
          "midi": 69,
          "name": "A4",
          "ticks": 35520,
          "time": 251.04515024999998,
          "velocity": 0.7874015748031497
        },
        {
          "duration": 0.2054794999999956,
          "durationTicks": 30,
          "midi": 65,
          "name": "F4",
          "ticks": 35520,
          "time": 251.04515024999998,
          "velocity": 0.7874015748031497
        },
        {
          "duration": 0.4109589999999912,
          "durationTicks": 60,
          "midi": 60,
          "name": "C4",
          "ticks": 35550,
          "time": 251.25062974999997,
          "velocity": 0.7874015748031497
        },
        {
          "duration": 0.2054794999999956,
          "durationTicks": 30,
          "midi": 60,
          "name": "C4",
          "ticks": 35610,
          "time": 251.66158874999996,
          "velocity": 0.7874015748031497
        },
        {
          "duration": 0.20547950000002402,
          "durationTicks": 30,
          "midi": 69,
          "name": "A4",
          "ticks": 35640,
          "time": 251.86706824999996,
          "velocity": 0.7874015748031497
        },
        {
          "duration": 0.20547950000002402,
          "durationTicks": 30,
          "midi": 60,
          "name": "C4",
          "ticks": 35640,
          "time": 251.86706824999996,
          "velocity": 0.7874015748031497
        },
        {
          "duration": 0.2054794999999956,
          "durationTicks": 30,
          "midi": 71,
          "name": "B4",
          "ticks": 35670,
          "time": 252.07254774999998,
          "velocity": 0.7874015748031497
        },
        {
          "duration": 0.2054794999999956,
          "durationTicks": 30,
          "midi": 72,
          "name": "C5",
          "ticks": 35700,
          "time": 252.27802724999998,
          "velocity": 0.7874015748031497
        },
        {
          "duration": 0.4109589999999912,
          "durationTicks": 60,
          "midi": 67,
          "name": "G4",
          "ticks": 35730,
          "time": 252.48350674999998,
          "velocity": 0.7874015748031497
        },
        {
          "duration": 0.4109589999999912,
          "durationTicks": 60,
          "midi": 60,
          "name": "C4",
          "ticks": 35730,
          "time": 252.48350674999998,
          "velocity": 0.7874015748031497
        },
        {
          "duration": 0.2054794999999956,
          "durationTicks": 30,
          "midi": 72,
          "name": "C5",
          "ticks": 35790,
          "time": 252.89446574999997,
          "velocity": 0.7874015748031497
        },
        {
          "duration": 0.20547950000002402,
          "durationTicks": 30,
          "midi": 71,
          "name": "B4",
          "ticks": 35820,
          "time": 253.09994524999996,
          "velocity": 0.7874015748031497
        },
        {
          "duration": 0.2054794999999956,
          "durationTicks": 30,
          "midi": 72,
          "name": "C5",
          "ticks": 35850,
          "time": 253.30542475,
          "velocity": 0.7874015748031497
        },
        {
          "duration": 0.8219179999999824,
          "durationTicks": 120,
          "midi": 64,
          "name": "E4",
          "ticks": 35880,
          "time": 253.51090424999998,
          "velocity": 0.7874015748031497
        },
        {
          "duration": 0.2054794999999956,
          "durationTicks": 30,
          "midi": 67,
          "name": "G4",
          "ticks": 35880,
          "time": 253.51090424999998,
          "velocity": 0.7874015748031497
        },
        {
          "duration": 0.2054794999999956,
          "durationTicks": 30,
          "midi": 72,
          "name": "C5",
          "ticks": 35910,
          "time": 253.71638374999998,
          "velocity": 0.7874015748031497
        },
        {
          "duration": 0.2054794999999956,
          "durationTicks": 30,
          "midi": 71,
          "name": "B4",
          "ticks": 35940,
          "time": 253.92186324999997,
          "velocity": 0.7874015748031497
        },
        {
          "duration": 0.2054794999999956,
          "durationTicks": 30,
          "midi": 72,
          "name": "C5",
          "ticks": 35970,
          "time": 254.12734274999997,
          "velocity": 0.7874015748031497
        },
        {
          "duration": 0.8219180000000108,
          "durationTicks": 120,
          "midi": 65,
          "name": "F4",
          "ticks": 36000,
          "time": 254.33282224999996,
          "velocity": 0.7874015748031497
        },
        {
          "duration": 0.2054794999999956,
          "durationTicks": 30,
          "midi": 69,
          "name": "A4",
          "ticks": 36000,
          "time": 254.33282224999996,
          "velocity": 0.7874015748031497
        },
        {
          "duration": 0.20547950000002402,
          "durationTicks": 30,
          "midi": 72,
          "name": "C5",
          "ticks": 36030,
          "time": 254.53830174999996,
          "velocity": 0.7874015748031497
        },
        {
          "duration": 0.2054794999999956,
          "durationTicks": 30,
          "midi": 71,
          "name": "B4",
          "ticks": 36060,
          "time": 254.74378124999998,
          "velocity": 0.7874015748031497
        },
        {
          "duration": 0.2054794999999956,
          "durationTicks": 30,
          "midi": 72,
          "name": "C5",
          "ticks": 36090,
          "time": 254.94926074999998,
          "velocity": 0.7874015748031497
        },
        {
          "duration": 0.8219180000000108,
          "durationTicks": 120,
          "midi": 65,
          "name": "F4",
          "ticks": 36120,
          "time": 255.15474024999997,
          "velocity": 0.7874015748031497
        },
        {
          "duration": 0.2054794999999956,
          "durationTicks": 30,
          "midi": 69,
          "name": "A4",
          "ticks": 36120,
          "time": 255.15474024999997,
          "velocity": 0.7874015748031497
        },
        {
          "duration": 0.2054794999999956,
          "durationTicks": 30,
          "midi": 72,
          "name": "C5",
          "ticks": 36150,
          "time": 255.36021974999997,
          "velocity": 0.7874015748031497
        },
        {
          "duration": 0.2054794999999956,
          "durationTicks": 30,
          "midi": 71,
          "name": "B4",
          "ticks": 36180,
          "time": 255.56569924999997,
          "velocity": 0.7874015748031497
        },
        {
          "duration": 0.20547950000002402,
          "durationTicks": 30,
          "midi": 72,
          "name": "C5",
          "ticks": 36210,
          "time": 255.77117874999996,
          "velocity": 0.7874015748031497
        },
        {
          "duration": 0.2054794999999956,
          "durationTicks": 30,
          "midi": 62,
          "name": "D4",
          "ticks": 36240,
          "time": 255.97665824999999,
          "velocity": 0.7874015748031497
        },
        {
          "duration": 0.2054794999999956,
          "durationTicks": 30,
          "midi": 71,
          "name": "B4",
          "ticks": 36240,
          "time": 255.97665824999999,
          "velocity": 0.7874015748031497
        },
        {
          "duration": 0.20547949999996717,
          "durationTicks": 30,
          "midi": 67,
          "name": "G4",
          "ticks": 36270,
          "time": 256.18213775,
          "velocity": 0.7874015748031497
        },
        {
          "duration": 0.20547950000002402,
          "durationTicks": 30,
          "midi": 62,
          "name": "D4",
          "ticks": 36300,
          "time": 256.38761724999995,
          "velocity": 0.7874015748031497
        },
        {
          "duration": 0.4109589999999912,
          "durationTicks": 60,
          "midi": 72,
          "name": "C5",
          "ticks": 36330,
          "time": 256.59309675,
          "velocity": 0.7874015748031497
        },
        {
          "duration": 0.4109589999999912,
          "durationTicks": 60,
          "midi": 62,
          "name": "D4",
          "ticks": 36330,
          "time": 256.59309675,
          "velocity": 0.7874015748031497
        },
        {
          "duration": 0.20547949999996717,
          "durationTicks": 30,
          "midi": 62,
          "name": "D4",
          "ticks": 36390,
          "time": 257.00405574999996,
          "velocity": 0.7874015748031497
        },
        {
          "duration": 0.20547950000002402,
          "durationTicks": 30,
          "midi": 74,
          "name": "D5",
          "ticks": 36420,
          "time": 257.20953524999993,
          "velocity": 0.7874015748031497
        },
        {
          "duration": 0.20547950000002402,
          "durationTicks": 30,
          "midi": 67,
          "name": "G4",
          "ticks": 36450,
          "time": 257.41501474999995,
          "velocity": 0.7874015748031497
        },
        {
          "duration": 0.20547950000002402,
          "durationTicks": 30,
          "midi": 76,
          "name": "E5",
          "ticks": 36480,
          "time": 257.62049425,
          "velocity": 0.7874015748031497
        },
        {
          "duration": 0.41095899999993435,
          "durationTicks": 60,
          "midi": 67,
          "name": "G4",
          "ticks": 36510,
          "time": 257.82597375,
          "velocity": 0.7874015748031497
        },
        {
          "duration": 0.20547950000002402,
          "durationTicks": 30,
          "midi": 67,
          "name": "G4",
          "ticks": 36570,
          "time": 258.23693274999994,
          "velocity": 0.7874015748031497
        },
        {
          "duration": 0.20547950000002402,
          "durationTicks": 30,
          "midi": 76,
          "name": "E5",
          "ticks": 36600,
          "time": 258.44241224999996,
          "velocity": 0.7874015748031497
        },
        {
          "duration": 0.20547950000002402,
          "durationTicks": 30,
          "midi": 67,
          "name": "G4",
          "ticks": 36600,
          "time": 258.44241224999996,
          "velocity": 0.7874015748031497
        },
        {
          "duration": 0.20547950000002402,
          "durationTicks": 30,
          "midi": 67,
          "name": "G4",
          "ticks": 36630,
          "time": 258.64789175,
          "velocity": 0.7874015748031497
        },
        {
          "duration": 0.20547950000002402,
          "durationTicks": 30,
          "midi": 76,
          "name": "E5",
          "ticks": 36630,
          "time": 258.64789175,
          "velocity": 0.7874015748031497
        },
        {
          "duration": 0.20547949999996717,
          "durationTicks": 30,
          "midi": 77,
          "name": "F5",
          "ticks": 36660,
          "time": 258.85337125,
          "velocity": 0.7874015748031497
        },
        {
          "duration": 0.20547949999996717,
          "durationTicks": 30,
          "midi": 67,
          "name": "G4",
          "ticks": 36660,
          "time": 258.85337125,
          "velocity": 0.7874015748031497
        },
        {
          "duration": 0.20547949999996717,
          "durationTicks": 30,
          "midi": 67,
          "name": "G4",
          "ticks": 36690,
          "time": 259.05885075,
          "velocity": 0.7874015748031497
        },
        {
          "duration": 0.20547950000002402,
          "durationTicks": 30,
          "midi": 71,
          "name": "B4",
          "ticks": 36720,
          "time": 259.26433024999994,
          "velocity": 0.7874015748031497
        },
        {
          "duration": 0.20547950000002402,
          "durationTicks": 30,
          "midi": 79,
          "name": "G5",
          "ticks": 36720,
          "time": 259.26433024999994,
          "velocity": 0.7874015748031497
        },
        {
          "duration": 0.20547950000002402,
          "durationTicks": 30,
          "midi": 69,
          "name": "A4",
          "ticks": 36750,
          "time": 259.46980974999997,
          "velocity": 0.7874015748031497
        },
        {
          "duration": 0.20547949999996717,
          "durationTicks": 30,
          "midi": 72,
          "name": "C5",
          "ticks": 36780,
          "time": 259.67528925,
          "velocity": 0.7874015748031497
        },
        {
          "duration": 0.20547949999996717,
          "durationTicks": 30,
          "midi": 81,
          "name": "A5",
          "ticks": 36780,
          "time": 259.67528925,
          "velocity": 0.7874015748031497
        },
        {
          "duration": 0.20547950000002402,
          "durationTicks": 30,
          "midi": 67,
          "name": "G4",
          "ticks": 36810,
          "time": 259.88076874999996,
          "velocity": 0.7874015748031497
        },
        {
          "duration": 0.20547949999996717,
          "durationTicks": 30,
          "midi": 71,
          "name": "B4",
          "ticks": 36840,
          "time": 260.08624825,
          "velocity": 0.7874015748031497
        },
        {
          "duration": 0.20547949999996717,
          "durationTicks": 30,
          "midi": 79,
          "name": "G5",
          "ticks": 36840,
          "time": 260.08624825,
          "velocity": 0.7874015748031497
        },
        {
          "duration": 0.20547950000002402,
          "durationTicks": 30,
          "midi": 67,
          "name": "G4",
          "ticks": 36870,
          "time": 260.29172774999995,
          "velocity": 0.7874015748031497
        },
        {
          "duration": 0.20547950000002402,
          "durationTicks": 30,
          "midi": 77,
          "name": "F5",
          "ticks": 36900,
          "time": 260.49720725,
          "velocity": 0.7874015748031497
        },
        {
          "duration": 0.20547950000002402,
          "durationTicks": 30,
          "midi": 69,
          "name": "A4",
          "ticks": 36900,
          "time": 260.49720725,
          "velocity": 0.7874015748031497
        },
        {
          "duration": 0.20547949999996717,
          "durationTicks": 30,
          "midi": 64,
          "name": "E4",
          "ticks": 36930,
          "time": 260.70268675,
          "velocity": 0.7874015748031497
        },
        {
          "duration": 0.20547949999996717,
          "durationTicks": 30,
          "midi": 71,
          "name": "B4",
          "ticks": 36960,
          "time": 260.90816624999997,
          "velocity": 0.7874015748031497
        },
        {
          "duration": 0.20547949999996717,
          "durationTicks": 30,
          "midi": 72,
          "name": "C5",
          "ticks": 36960,
          "time": 260.90816624999997,
          "velocity": 0.7874015748031497
        },
        {
          "duration": 0.20547949999996717,
          "durationTicks": 30,
          "midi": 76,
          "name": "E5",
          "ticks": 36960,
          "time": 260.90816624999997,
          "velocity": 0.7874015748031497
        },
        {
          "duration": 0.41095900000004804,
          "durationTicks": 60,
          "midi": 64,
          "name": "E4",
          "ticks": 36990,
          "time": 261.11364574999993,
          "velocity": 0.7874015748031497
        },
        {
          "duration": 0.20547950000002402,
          "durationTicks": 30,
          "midi": 64,
          "name": "E4",
          "ticks": 37050,
          "time": 261.52460475,
          "velocity": 0.7874015748031497
        },
        {
          "duration": 0.20547949999996717,
          "durationTicks": 30,
          "midi": 72,
          "name": "C5",
          "ticks": 37080,
          "time": 261.73008425,
          "velocity": 0.7874015748031497
        },
        {
          "duration": 0.20547949999996717,
          "durationTicks": 30,
          "midi": 64,
          "name": "E4",
          "ticks": 37080,
          "time": 261.73008425,
          "velocity": 0.7874015748031497
        },
        {
          "duration": 0.20547949999996717,
          "durationTicks": 30,
          "midi": 64,
          "name": "E4",
          "ticks": 37110,
          "time": 261.93556375,
          "velocity": 0.7874015748031497
        },
        {
          "duration": 0.20547949999996717,
          "durationTicks": 30,
          "midi": 72,
          "name": "C5",
          "ticks": 37110,
          "time": 261.93556375,
          "velocity": 0.7874015748031497
        },
        {
          "duration": 0.20547950000002402,
          "durationTicks": 30,
          "midi": 74,
          "name": "D5",
          "ticks": 37140,
          "time": 262.14104324999994,
          "velocity": 0.7874015748031497
        },
        {
          "duration": 0.20547950000002402,
          "durationTicks": 30,
          "midi": 64,
          "name": "E4",
          "ticks": 37140,
          "time": 262.14104324999994,
          "velocity": 0.7874015748031497
        },
        {
          "duration": 0.20547950000002402,
          "durationTicks": 30,
          "midi": 64,
          "name": "E4",
          "ticks": 37170,
          "time": 262.34652274999996,
          "velocity": 0.7874015748031497
        },
        {
          "duration": 0.20547950000002402,
          "durationTicks": 30,
          "midi": 67,
          "name": "G4",
          "ticks": 37200,
          "time": 262.55200225,
          "velocity": 0.7874015748031497
        },
        {
          "duration": 0.20547950000002402,
          "durationTicks": 30,
          "midi": 76,
          "name": "E5",
          "ticks": 37200,
          "time": 262.55200225,
          "velocity": 0.7874015748031497
        },
        {
          "duration": 0.20547949999996717,
          "durationTicks": 30,
          "midi": 65,
          "name": "F4",
          "ticks": 37230,
          "time": 262.75748175,
          "velocity": 0.7874015748031497
        },
        {
          "duration": 0.20547949999996717,
          "durationTicks": 30,
          "midi": 77,
          "name": "F5",
          "ticks": 37260,
          "time": 262.96296125,
          "velocity": 0.7874015748031497
        },
        {
          "duration": 0.20547950000002402,
          "durationTicks": 30,
          "midi": 64,
          "name": "E4",
          "ticks": 37290,
          "time": 263.16844074999995,
          "velocity": 0.7874015748031497
        },
        {
          "duration": 0.20547950000002402,
          "durationTicks": 30,
          "midi": 70,
          "name": "A#4",
          "ticks": 37320,
          "time": 263.37392024999997,
          "velocity": 0.7874015748031497
        },
        {
          "duration": 0.20547950000002402,
          "durationTicks": 30,
          "midi": 76,
          "name": "E5",
          "ticks": 37320,
          "time": 263.37392024999997,
          "velocity": 0.7874015748031497
        },
        {
          "duration": 0.20547949999996717,
          "durationTicks": 30,
          "midi": 64,
          "name": "E4",
          "ticks": 37350,
          "time": 263.57939975,
          "velocity": 0.7874015748031497
        },
        {
          "duration": 0.20547950000002402,
          "durationTicks": 30,
          "midi": 74,
          "name": "D5",
          "ticks": 37380,
          "time": 263.78487924999996,
          "velocity": 0.7874015748031497
        },
        {
          "duration": 0.20547949999996717,
          "durationTicks": 30,
          "midi": 65,
          "name": "F4",
          "ticks": 37410,
          "time": 263.99035875,
          "velocity": 0.7874015748031497
        },
        {
          "duration": 0.20547950000002402,
          "durationTicks": 30,
          "midi": 69,
          "name": "A4",
          "ticks": 37440,
          "time": 264.19583824999995,
          "velocity": 0.7874015748031497
        },
        {
          "duration": 0.20547950000002402,
          "durationTicks": 30,
          "midi": 72,
          "name": "C5",
          "ticks": 37440,
          "time": 264.19583824999995,
          "velocity": 0.7874015748031497
        },
        {
          "duration": 0.4109589999999912,
          "durationTicks": 60,
          "midi": 65,
          "name": "F4",
          "ticks": 37470,
          "time": 264.40131775,
          "velocity": 0.7874015748031497
        },
        {
          "duration": 0.20547949999996717,
          "durationTicks": 30,
          "midi": 65,
          "name": "F4",
          "ticks": 37530,
          "time": 264.81227674999997,
          "velocity": 0.7874015748031497
        },
        {
          "duration": 0.20547950000002402,
          "durationTicks": 30,
          "midi": 69,
          "name": "A4",
          "ticks": 37560,
          "time": 265.01775624999993,
          "velocity": 0.7874015748031497
        },
        {
          "duration": 0.20547950000002402,
          "durationTicks": 30,
          "midi": 71,
          "name": "B4",
          "ticks": 37590,
          "time": 265.22323574999996,
          "velocity": 0.7874015748031497
        },
        {
          "duration": 0.20547950000002402,
          "durationTicks": 30,
          "midi": 72,
          "name": "C5",
          "ticks": 37620,
          "time": 265.42871525,
          "velocity": 0.7874015748031497
        },
        {
          "duration": 0.41095899999993435,
          "durationTicks": 60,
          "midi": 64,
          "name": "E4",
          "ticks": 37650,
          "time": 265.63419475,
          "velocity": 0.7874015748031497
        },
        {
          "duration": 0.41095899999993435,
          "durationTicks": 60,
          "midi": 67,
          "name": "G4",
          "ticks": 37650,
          "time": 265.63419475,
          "velocity": 0.7874015748031497
        },
        {
          "duration": 0.41095899999993435,
          "durationTicks": 60,
          "midi": 72,
          "name": "C5",
          "ticks": 37650,
          "time": 265.63419475,
          "velocity": 0.7874015748031497
        },
        {
          "duration": 0.20547950000002402,
          "durationTicks": 30,
          "midi": 72,
          "name": "C5",
          "ticks": 37710,
          "time": 266.04515374999994,
          "velocity": 0.7874015748031497
        },
        {
          "duration": 0.20547950000002402,
          "durationTicks": 30,
          "midi": 71,
          "name": "B4",
          "ticks": 37740,
          "time": 266.25063324999996,
          "velocity": 0.7874015748031497
        },
        {
          "duration": 0.20547950000002402,
          "durationTicks": 30,
          "midi": 72,
          "name": "C5",
          "ticks": 37770,
          "time": 266.45611275,
          "velocity": 0.7874015748031497
        },
        {
          "duration": 0.8219179999999824,
          "durationTicks": 120,
          "midi": 64,
          "name": "E4",
          "ticks": 37800,
          "time": 266.66159225,
          "velocity": 0.7874015748031497
        },
        {
          "duration": 0.20547949999996717,
          "durationTicks": 30,
          "midi": 67,
          "name": "G4",
          "ticks": 37800,
          "time": 266.66159225,
          "velocity": 0.7874015748031497
        },
        {
          "duration": 0.20547949999996717,
          "durationTicks": 30,
          "midi": 72,
          "name": "C5",
          "ticks": 37830,
          "time": 266.86707175,
          "velocity": 0.7874015748031497
        },
        {
          "duration": 0.20547950000002402,
          "durationTicks": 30,
          "midi": 71,
          "name": "B4",
          "ticks": 37860,
          "time": 267.07255124999995,
          "velocity": 0.7874015748031497
        },
        {
          "duration": 0.20547950000002402,
          "durationTicks": 30,
          "midi": 72,
          "name": "C5",
          "ticks": 37890,
          "time": 267.27803074999997,
          "velocity": 0.7874015748031497
        },
        {
          "duration": 0.8219179999999824,
          "durationTicks": 120,
          "midi": 65,
          "name": "F4",
          "ticks": 37920,
          "time": 267.48351025,
          "velocity": 0.7874015748031497
        },
        {
          "duration": 0.20547949999996717,
          "durationTicks": 30,
          "midi": 69,
          "name": "A4",
          "ticks": 37920,
          "time": 267.48351025,
          "velocity": 0.7874015748031497
        },
        {
          "duration": 0.20547950000002402,
          "durationTicks": 30,
          "midi": 72,
          "name": "C5",
          "ticks": 37950,
          "time": 267.68898974999996,
          "velocity": 0.7874015748031497
        },
        {
          "duration": 0.20547949999996717,
          "durationTicks": 30,
          "midi": 71,
          "name": "B4",
          "ticks": 37980,
          "time": 267.89446925,
          "velocity": 0.7874015748031497
        },
        {
          "duration": 0.20547950000002402,
          "durationTicks": 30,
          "midi": 72,
          "name": "C5",
          "ticks": 38010,
          "time": 268.09994874999995,
          "velocity": 0.7874015748031497
        },
        {
          "duration": 0.8219179999999824,
          "durationTicks": 120,
          "midi": 65,
          "name": "F4",
          "ticks": 38040,
          "time": 268.30542825,
          "velocity": 0.7874015748031497
        },
        {
          "duration": 0.20547950000002402,
          "durationTicks": 30,
          "midi": 69,
          "name": "A4",
          "ticks": 38040,
          "time": 268.30542825,
          "velocity": 0.7874015748031497
        },
        {
          "duration": 0.20547949999996717,
          "durationTicks": 30,
          "midi": 72,
          "name": "C5",
          "ticks": 38070,
          "time": 268.51090775,
          "velocity": 0.7874015748031497
        },
        {
          "duration": 0.20547949999996717,
          "durationTicks": 30,
          "midi": 71,
          "name": "B4",
          "ticks": 38100,
          "time": 268.71638724999997,
          "velocity": 0.7874015748031497
        },
        {
          "duration": 0.20547950000002402,
          "durationTicks": 30,
          "midi": 72,
          "name": "C5",
          "ticks": 38130,
          "time": 268.92186674999994,
          "velocity": 0.7874015748031497
        },
        {
          "duration": 0.20547950000002402,
          "durationTicks": 30,
          "midi": 62,
          "name": "D4",
          "ticks": 38160,
          "time": 269.12734624999996,
          "velocity": 0.7874015748031497
        },
        {
          "duration": 0.20547950000002402,
          "durationTicks": 30,
          "midi": 71,
          "name": "B4",
          "ticks": 38160,
          "time": 269.12734624999996,
          "velocity": 0.7874015748031497
        },
        {
          "duration": 0.20547950000002402,
          "durationTicks": 30,
          "midi": 67,
          "name": "G4",
          "ticks": 38190,
          "time": 269.33282575,
          "velocity": 0.7874015748031497
        },
        {
          "duration": 0.20547949999996717,
          "durationTicks": 30,
          "midi": 62,
          "name": "D4",
          "ticks": 38220,
          "time": 269.53830525,
          "velocity": 0.7874015748031497
        },
        {
          "duration": 0.4109589999999912,
          "durationTicks": 60,
          "midi": 72,
          "name": "C5",
          "ticks": 38250,
          "time": 269.74378475,
          "velocity": 0.7874015748031497
        },
        {
          "duration": 0.4109589999999912,
          "durationTicks": 60,
          "midi": 62,
          "name": "D4",
          "ticks": 38250,
          "time": 269.74378475,
          "velocity": 0.7874015748031497
        },
        {
          "duration": 0.20547950000002402,
          "durationTicks": 30,
          "midi": 62,
          "name": "D4",
          "ticks": 38310,
          "time": 270.15474374999997,
          "velocity": 0.7874015748031497
        },
        {
          "duration": 0.20547950000002402,
          "durationTicks": 30,
          "midi": 62,
          "name": "D4",
          "ticks": 38340,
          "time": 270.36022325,
          "velocity": 0.7874015748031497
        },
        {
          "duration": 0.20547950000002402,
          "durationTicks": 30,
          "midi": 74,
          "name": "D5",
          "ticks": 38340,
          "time": 270.36022325,
          "velocity": 0.7874015748031497
        },
        {
          "duration": 0.20547949999996717,
          "durationTicks": 30,
          "midi": 67,
          "name": "G4",
          "ticks": 38370,
          "time": 270.56570275,
          "velocity": 0.7874015748031497
        },
        {
          "duration": 0.20547949999996717,
          "durationTicks": 30,
          "midi": 76,
          "name": "E5",
          "ticks": 38400,
          "time": 270.77118225,
          "velocity": 0.7874015748031497
        },
        {
          "duration": 0.20547950000002402,
          "durationTicks": 30,
          "midi": 72,
          "name": "C5",
          "ticks": 38430,
          "time": 270.97666174999995,
          "velocity": 0.7874015748031497
        },
        {
          "duration": 0.20547950000002402,
          "durationTicks": 30,
          "midi": 67,
          "name": "G4",
          "ticks": 38460,
          "time": 271.18214125,
          "velocity": 0.7874015748031497
        },
        {
          "duration": 0.20547949999996717,
          "durationTicks": 30,
          "midi": 67,
          "name": "G4",
          "ticks": 38490,
          "time": 271.38762075,
          "velocity": 0.7874015748031497
        },
        {
          "duration": 0.20547949999996717,
          "durationTicks": 30,
          "midi": 72,
          "name": "C5",
          "ticks": 38520,
          "time": 271.59310024999996,
          "velocity": 0.7874015748031497
        },
        {
          "duration": 0.20547949999996717,
          "durationTicks": 30,
          "midi": 76,
          "name": "E5",
          "ticks": 38520,
          "time": 271.59310024999996,
          "velocity": 0.7874015748031497
        },
        {
          "duration": 0.20547950000002402,
          "durationTicks": 30,
          "midi": 67,
          "name": "G4",
          "ticks": 38550,
          "time": 271.79857974999993,
          "velocity": 0.7874015748031497
        },
        {
          "duration": 0.20547950000002402,
          "durationTicks": 30,
          "midi": 72,
          "name": "C5",
          "ticks": 38580,
          "time": 272.00405924999995,
          "velocity": 0.7874015748031497
        },
        {
          "duration": 0.20547950000002402,
          "durationTicks": 30,
          "midi": 77,
          "name": "F5",
          "ticks": 38580,
          "time": 272.00405924999995,
          "velocity": 0.7874015748031497
        },
        {
          "duration": 0.20547950000002402,
          "durationTicks": 30,
          "midi": 67,
          "name": "G4",
          "ticks": 38610,
          "time": 272.20953875,
          "velocity": 0.7874015748031497
        },
        {
          "duration": 0.20547949999996717,
          "durationTicks": 30,
          "midi": 71,
          "name": "B4",
          "ticks": 38640,
          "time": 272.41501825,
          "velocity": 0.7874015748031497
        },
        {
          "duration": 0.20547949999996717,
          "durationTicks": 30,
          "midi": 79,
          "name": "G5",
          "ticks": 38640,
          "time": 272.41501825,
          "velocity": 0.7874015748031497
        },
        {
          "duration": 0.20547949999996717,
          "durationTicks": 30,
          "midi": 69,
          "name": "A4",
          "ticks": 38670,
          "time": 272.62049774999997,
          "velocity": 0.7874015748031497
        },
        {
          "duration": 0.20547950000002402,
          "durationTicks": 30,
          "midi": 72,
          "name": "C5",
          "ticks": 38700,
          "time": 272.82597724999994,
          "velocity": 0.7874015748031497
        },
        {
          "duration": 0.20547950000002402,
          "durationTicks": 30,
          "midi": 81,
          "name": "A5",
          "ticks": 38700,
          "time": 272.82597724999994,
          "velocity": 0.7874015748031497
        },
        {
          "duration": 0.20547950000002402,
          "durationTicks": 30,
          "midi": 67,
          "name": "G4",
          "ticks": 38730,
          "time": 273.03145674999996,
          "velocity": 0.7874015748031497
        },
        {
          "duration": 0.20547950000002402,
          "durationTicks": 30,
          "midi": 71,
          "name": "B4",
          "ticks": 38760,
          "time": 273.23693625,
          "velocity": 0.7874015748031497
        },
        {
          "duration": 0.20547950000002402,
          "durationTicks": 30,
          "midi": 79,
          "name": "G5",
          "ticks": 38760,
          "time": 273.23693625,
          "velocity": 0.7874015748031497
        },
        {
          "duration": 0.20547949999996717,
          "durationTicks": 30,
          "midi": 67,
          "name": "G4",
          "ticks": 38790,
          "time": 273.44241575,
          "velocity": 0.7874015748031497
        },
        {
          "duration": 0.20547949999996717,
          "durationTicks": 30,
          "midi": 69,
          "name": "A4",
          "ticks": 38820,
          "time": 273.64789525,
          "velocity": 0.7874015748031497
        },
        {
          "duration": 0.20547949999996717,
          "durationTicks": 30,
          "midi": 77,
          "name": "F5",
          "ticks": 38820,
          "time": 273.64789525,
          "velocity": 0.7874015748031497
        },
        {
          "duration": 0.20547950000002402,
          "durationTicks": 30,
          "midi": 64,
          "name": "E4",
          "ticks": 38850,
          "time": 273.85337474999994,
          "velocity": 0.7874015748031497
        },
        {
          "duration": 0.20547950000002402,
          "durationTicks": 30,
          "midi": 76,
          "name": "E5",
          "ticks": 38880,
          "time": 274.05885424999997,
          "velocity": 0.7874015748031497
        },
        {
          "duration": 0.20547950000002402,
          "durationTicks": 30,
          "midi": 71,
          "name": "B4",
          "ticks": 38880,
          "time": 274.05885424999997,
          "velocity": 0.7874015748031497
        },
        {
          "duration": 0.20547950000002402,
          "durationTicks": 30,
          "midi": 72,
          "name": "C5",
          "ticks": 38880,
          "time": 274.05885424999997,
          "velocity": 0.7874015748031497
        },
        {
          "duration": 0.20547949999996717,
          "durationTicks": 30,
          "midi": 64,
          "name": "E4",
          "ticks": 38910,
          "time": 274.26433375,
          "velocity": 0.7874015748031497
        },
        {
          "duration": 0.20547949999996717,
          "durationTicks": 30,
          "midi": 64,
          "name": "E4",
          "ticks": 38970,
          "time": 274.67529275,
          "velocity": 0.7874015748031497
        },
        {
          "duration": 0.20547950000002402,
          "durationTicks": 30,
          "midi": 71,
          "name": "B4",
          "ticks": 39000,
          "time": 274.88077224999995,
          "velocity": 0.7874015748031497
        },
        {
          "duration": 0.20547950000002402,
          "durationTicks": 30,
          "midi": 72,
          "name": "C5",
          "ticks": 39000,
          "time": 274.88077224999995,
          "velocity": 0.7874015748031497
        },
        {
          "duration": 0.20547950000002402,
          "durationTicks": 30,
          "midi": 64,
          "name": "E4",
          "ticks": 39000,
          "time": 274.88077224999995,
          "velocity": 0.7874015748031497
        },
        {
          "duration": 0.20547950000002402,
          "durationTicks": 30,
          "midi": 71,
          "name": "B4",
          "ticks": 39030,
          "time": 275.08625175,
          "velocity": 0.7874015748031497
        },
        {
          "duration": 0.20547950000002402,
          "durationTicks": 30,
          "midi": 72,
          "name": "C5",
          "ticks": 39030,
          "time": 275.08625175,
          "velocity": 0.7874015748031497
        },
        {
          "duration": 0.20547950000002402,
          "durationTicks": 30,
          "midi": 64,
          "name": "E4",
          "ticks": 39030,
          "time": 275.08625175,
          "velocity": 0.7874015748031497
        },
        {
          "duration": 0.20547949999996717,
          "durationTicks": 30,
          "midi": 74,
          "name": "D5",
          "ticks": 39060,
          "time": 275.29173125,
          "velocity": 0.7874015748031497
        },
        {
          "duration": 0.20547949999996717,
          "durationTicks": 30,
          "midi": 64,
          "name": "E4",
          "ticks": 39060,
          "time": 275.29173125,
          "velocity": 0.7874015748031497
        },
        {
          "duration": 0.20547949999996717,
          "durationTicks": 30,
          "midi": 64,
          "name": "E4",
          "ticks": 39090,
          "time": 275.49721074999997,
          "velocity": 0.7874015748031497
        },
        {
          "duration": 0.20547950000002402,
          "durationTicks": 30,
          "midi": 67,
          "name": "G4",
          "ticks": 39120,
          "time": 275.70269024999993,
          "velocity": 0.7874015748031497
        },
        {
          "duration": 0.20547950000002402,
          "durationTicks": 30,
          "midi": 76,
          "name": "E5",
          "ticks": 39120,
          "time": 275.70269024999993,
          "velocity": 0.7874015748031497
        },
        {
          "duration": 0.20547950000002402,
          "durationTicks": 30,
          "midi": 64,
          "name": "E4",
          "ticks": 39150,
          "time": 275.90816974999996,
          "velocity": 0.7874015748031497
        },
        {
          "duration": 0.20547950000002402,
          "durationTicks": 30,
          "midi": 77,
          "name": "F5",
          "ticks": 39180,
          "time": 276.11364925,
          "velocity": 0.7874015748031497
        },
        {
          "duration": 0.20547949999996717,
          "durationTicks": 30,
          "midi": 64,
          "name": "E4",
          "ticks": 39210,
          "time": 276.31912875,
          "velocity": 0.7874015748031497
        },
        {
          "duration": 0.20547949999996717,
          "durationTicks": 30,
          "midi": 70,
          "name": "A#4",
          "ticks": 39240,
          "time": 276.52460824999997,
          "velocity": 0.7874015748031497
        },
        {
          "duration": 0.20547949999996717,
          "durationTicks": 30,
          "midi": 76,
          "name": "E5",
          "ticks": 39240,
          "time": 276.52460824999997,
          "velocity": 0.7874015748031497
        },
        {
          "duration": 0.20547950000002402,
          "durationTicks": 30,
          "midi": 64,
          "name": "E4",
          "ticks": 39270,
          "time": 276.73008774999994,
          "velocity": 0.7874015748031497
        },
        {
          "duration": 0.20547950000002402,
          "durationTicks": 30,
          "midi": 74,
          "name": "D5",
          "ticks": 39300,
          "time": 276.93556724999996,
          "velocity": 0.7874015748031497
        },
        {
          "duration": 0.20547950000002402,
          "durationTicks": 30,
          "midi": 65,
          "name": "F4",
          "ticks": 39330,
          "time": 277.14104675,
          "velocity": 0.7874015748031497
        },
        {
          "duration": 0.20547949999996717,
          "durationTicks": 30,
          "midi": 72,
          "name": "C5",
          "ticks": 39360,
          "time": 277.34652625,
          "velocity": 0.7874015748031497
        },
        {
          "duration": 0.20547949999996717,
          "durationTicks": 30,
          "midi": 65,
          "name": "F4",
          "ticks": 39390,
          "time": 277.55200575,
          "velocity": 0.7874015748031497
        },
        {
          "duration": 0.20547950000002402,
          "durationTicks": 30,
          "midi": 65,
          "name": "F4",
          "ticks": 39450,
          "time": 277.96296474999997,
          "velocity": 0.7874015748031497
        },
        {
          "duration": 0.20547949999996717,
          "durationTicks": 30,
          "midi": 69,
          "name": "A4",
          "ticks": 39480,
          "time": 278.16844425,
          "velocity": 0.7874015748031497
        },
        {
          "duration": 0.20547950000002402,
          "durationTicks": 30,
          "midi": 71,
          "name": "B4",
          "ticks": 39510,
          "time": 278.37392374999996,
          "velocity": 0.7874015748031497
        },
        {
          "duration": 0.20547949999996717,
          "durationTicks": 30,
          "midi": 72,
          "name": "C5",
          "ticks": 39540,
          "time": 278.57940325,
          "velocity": 0.7874015748031497
        },
        {
          "duration": 0.41095900000004804,
          "durationTicks": 60,
          "midi": 67,
          "name": "G4",
          "ticks": 39570,
          "time": 278.78488274999995,
          "velocity": 0.7874015748031497
        },
        {
          "duration": 0.41095900000004804,
          "durationTicks": 60,
          "midi": 72,
          "name": "C5",
          "ticks": 39570,
          "time": 278.78488274999995,
          "velocity": 0.7874015748031497
        },
        {
          "duration": 0.41095900000004804,
          "durationTicks": 60,
          "midi": 64,
          "name": "E4",
          "ticks": 39570,
          "time": 278.78488274999995,
          "velocity": 0.7874015748031497
        },
        {
          "duration": 0.20547949999996717,
          "durationTicks": 30,
          "midi": 72,
          "name": "C5",
          "ticks": 39630,
          "time": 279.19584175,
          "velocity": 0.7874015748031497
        },
        {
          "duration": 0.20547949999996717,
          "durationTicks": 30,
          "midi": 71,
          "name": "B4",
          "ticks": 39660,
          "time": 279.40132124999997,
          "velocity": 0.7874015748031497
        },
        {
          "duration": 0.20547950000002402,
          "durationTicks": 30,
          "midi": 72,
          "name": "C5",
          "ticks": 39690,
          "time": 279.60680074999993,
          "velocity": 0.7874015748031497
        },
        {
          "duration": 0.20547950000002402,
          "durationTicks": 30,
          "midi": 64,
          "name": "E4",
          "ticks": 39720,
          "time": 279.81228024999996,
          "velocity": 0.7874015748031497
        },
        {
          "duration": 0.20547950000002402,
          "durationTicks": 30,
          "midi": 67,
          "name": "G4",
          "ticks": 39720,
          "time": 279.81228024999996,
          "velocity": 0.7874015748031497
        },
        {
          "duration": 0.20547950000002402,
          "durationTicks": 30,
          "midi": 72,
          "name": "C5",
          "ticks": 39750,
          "time": 280.01775975,
          "velocity": 0.7874015748031497
        },
        {
          "duration": 0.20547949999996717,
          "durationTicks": 30,
          "midi": 71,
          "name": "B4",
          "ticks": 39780,
          "time": 280.22323925,
          "velocity": 0.7874015748031497
        },
        {
          "duration": 0.20547949999996717,
          "durationTicks": 30,
          "midi": 72,
          "name": "C5",
          "ticks": 39810,
          "time": 280.42871875,
          "velocity": 0.7874015748031497
        },
        {
          "duration": 0.20547950000002402,
          "durationTicks": 30,
          "midi": 65,
          "name": "F4",
          "ticks": 39840,
          "time": 280.63419824999994,
          "velocity": 0.7874015748031497
        },
        {
          "duration": 0.20547950000002402,
          "durationTicks": 30,
          "midi": 69,
          "name": "A4",
          "ticks": 39840,
          "time": 280.63419824999994,
          "velocity": 0.7874015748031497
        },
        {
          "duration": 0.20547950000002402,
          "durationTicks": 30,
          "midi": 72,
          "name": "C5",
          "ticks": 39870,
          "time": 280.83967774999996,
          "velocity": 0.7874015748031497
        },
        {
          "duration": 0.20547950000002402,
          "durationTicks": 30,
          "midi": 71,
          "name": "B4",
          "ticks": 39900,
          "time": 281.04515725,
          "velocity": 0.7874015748031497
        },
        {
          "duration": 0.20547949999996717,
          "durationTicks": 30,
          "midi": 72,
          "name": "C5",
          "ticks": 39930,
          "time": 281.25063675,
          "velocity": 0.7874015748031497
        },
        {
          "duration": 0.20547949999996717,
          "durationTicks": 30,
          "midi": 65,
          "name": "F4",
          "ticks": 39960,
          "time": 281.45611625,
          "velocity": 0.7874015748031497
        },
        {
          "duration": 0.20547949999996717,
          "durationTicks": 30,
          "midi": 69,
          "name": "A4",
          "ticks": 39960,
          "time": 281.45611625,
          "velocity": 0.7874015748031497
        },
        {
          "duration": 0.20547950000002402,
          "durationTicks": 30,
          "midi": 72,
          "name": "C5",
          "ticks": 39990,
          "time": 281.66159574999995,
          "velocity": 0.7874015748031497
        },
        {
          "duration": 0.20547950000002402,
          "durationTicks": 30,
          "midi": 71,
          "name": "B4",
          "ticks": 40020,
          "time": 281.86707524999997,
          "velocity": 0.7874015748031497
        },
        {
          "duration": 0.20547949999996717,
          "durationTicks": 30,
          "midi": 72,
          "name": "C5",
          "ticks": 40050,
          "time": 282.07255475,
          "velocity": 0.7874015748031497
        },
        {
          "duration": 0.20547949999996717,
          "durationTicks": 30,
          "midi": 71,
          "name": "B4",
          "ticks": 40080,
          "time": 282.27803424999996,
          "velocity": 0.7874015748031497
        },
        {
          "duration": 0.20547950000002402,
          "durationTicks": 30,
          "midi": 67,
          "name": "G4",
          "ticks": 40110,
          "time": 282.48351374999993,
          "velocity": 0.7874015748031497
        },
        {
          "duration": 0.20547950000002402,
          "durationTicks": 30,
          "midi": 62,
          "name": "D4",
          "ticks": 40140,
          "time": 282.68899324999995,
          "velocity": 0.7874015748031497
        },
        {
          "duration": 0.4109589999999912,
          "durationTicks": 60,
          "midi": 72,
          "name": "C5",
          "ticks": 40170,
          "time": 282.89447275,
          "velocity": 0.7874015748031497
        },
        {
          "duration": 0.4109589999999912,
          "durationTicks": 60,
          "midi": 62,
          "name": "D4",
          "ticks": 40170,
          "time": 282.89447275,
          "velocity": 0.7874015748031497
        },
        {
          "duration": 0.20547949999996717,
          "durationTicks": 30,
          "midi": 62,
          "name": "D4",
          "ticks": 40230,
          "time": 283.30543174999997,
          "velocity": 0.7874015748031497
        },
        {
          "duration": 0.41095900000004804,
          "durationTicks": 60,
          "midi": 74,
          "name": "D5",
          "ticks": 40260,
          "time": 283.51091124999994,
          "velocity": 0.7874015748031497
        },
        {
          "duration": 0.41095900000004804,
          "durationTicks": 60,
          "midi": 62,
          "name": "D4",
          "ticks": 40260,
          "time": 283.51091124999994,
          "velocity": 0.7874015748031497
        },
        {
          "duration": 0.10273974999995517,
          "durationTicks": 15,
          "midi": 76,
          "name": "E5",
          "ticks": 40320,
          "time": 283.92187025,
          "velocity": 0.7874015748031497
        },
        {
          "duration": 0.10273975000006885,
          "durationTicks": 15,
          "midi": 76,
          "name": "E5",
          "ticks": 40335,
          "time": 284.02460999999994,
          "velocity": 0.7874015748031497
        },
        {
          "duration": 0.10273974999995517,
          "durationTicks": 15,
          "midi": 76,
          "name": "E5",
          "ticks": 40350,
          "time": 284.12734975,
          "velocity": 0.7874015748031497
        },
        {
          "duration": 0.10273975000001201,
          "durationTicks": 15,
          "midi": 76,
          "name": "E5",
          "ticks": 40365,
          "time": 284.23008949999996,
          "velocity": 0.7874015748031497
        },
        {
          "duration": 0.10273975000001201,
          "durationTicks": 15,
          "midi": 76,
          "name": "E5",
          "ticks": 40380,
          "time": 284.33282925,
          "velocity": 0.7874015748031497
        },
        {
          "duration": 0.10273974999995517,
          "durationTicks": 15,
          "midi": 76,
          "name": "E5",
          "ticks": 40395,
          "time": 284.435569,
          "velocity": 0.7874015748031497
        },
        {
          "duration": 0.10273975000006885,
          "durationTicks": 15,
          "midi": 76,
          "name": "E5",
          "ticks": 40410,
          "time": 284.53830874999994,
          "velocity": 0.7874015748031497
        },
        {
          "duration": 0.10273974999995517,
          "durationTicks": 15,
          "midi": 76,
          "name": "E5",
          "ticks": 40425,
          "time": 284.6410485,
          "velocity": 0.7874015748031497
        },
        {
          "duration": 0.10273975000001201,
          "durationTicks": 15,
          "midi": 76,
          "name": "E5",
          "ticks": 40440,
          "time": 284.74378824999997,
          "velocity": 0.7874015748031497
        },
        {
          "duration": 0.10273975000001201,
          "durationTicks": 15,
          "midi": 76,
          "name": "E5",
          "ticks": 40455,
          "time": 284.846528,
          "velocity": 0.7874015748031497
        },
        {
          "duration": 0.10273974999995517,
          "durationTicks": 15,
          "midi": 76,
          "name": "E5",
          "ticks": 40470,
          "time": 284.94926775,
          "velocity": 0.7874015748031497
        },
        {
          "duration": 0.10273975000001201,
          "durationTicks": 15,
          "midi": 76,
          "name": "E5",
          "ticks": 40485,
          "time": 285.05200749999995,
          "velocity": 0.7874015748031497
        },
        {
          "duration": 0.10273975000001201,
          "durationTicks": 15,
          "midi": 76,
          "name": "E5",
          "ticks": 40500,
          "time": 285.15474724999996,
          "velocity": 0.7874015748031497
        },
        {
          "duration": 0.10273975000001201,
          "durationTicks": 15,
          "midi": 76,
          "name": "E5",
          "ticks": 40515,
          "time": 285.25748699999997,
          "velocity": 0.7874015748031497
        },
        {
          "duration": 0.10273975000001201,
          "durationTicks": 15,
          "midi": 76,
          "name": "E5",
          "ticks": 40530,
          "time": 285.36022675,
          "velocity": 0.7874015748031497
        },
        {
          "duration": 0.10273974999995517,
          "durationTicks": 15,
          "midi": 76,
          "name": "E5",
          "ticks": 40545,
          "time": 285.4629665,
          "velocity": 0.7874015748031497
        },
        {
          "duration": 0.10273975000001201,
          "durationTicks": 15,
          "midi": 74,
          "name": "D5",
          "ticks": 40560,
          "time": 285.56570624999995,
          "velocity": 0.7874015748031497
        },
        {
          "duration": 0.10273975000001201,
          "durationTicks": 15,
          "midi": 74,
          "name": "D5",
          "ticks": 40575,
          "time": 285.66844599999996,
          "velocity": 0.7874015748031497
        },
        {
          "duration": 0.10273975000001201,
          "durationTicks": 15,
          "midi": 74,
          "name": "D5",
          "ticks": 40590,
          "time": 285.77118575,
          "velocity": 0.7874015748031497
        },
        {
          "duration": 0.10273975000001201,
          "durationTicks": 15,
          "midi": 74,
          "name": "D5",
          "ticks": 40605,
          "time": 285.8739255,
          "velocity": 0.7874015748031497
        },
        {
          "duration": 0.10273974999995517,
          "durationTicks": 15,
          "midi": 74,
          "name": "D5",
          "ticks": 40620,
          "time": 285.97666525,
          "velocity": 0.7874015748031497
        },
        {
          "duration": 0.10273975000001201,
          "durationTicks": 15,
          "midi": 74,
          "name": "D5",
          "ticks": 40635,
          "time": 286.07940499999995,
          "velocity": 0.7874015748031497
        },
        {
          "duration": 0.10273975000001201,
          "durationTicks": 15,
          "midi": 74,
          "name": "D5",
          "ticks": 40650,
          "time": 286.18214474999996,
          "velocity": 0.7874015748031497
        },
        {
          "duration": 0.10273974999995517,
          "durationTicks": 15,
          "midi": 74,
          "name": "D5",
          "ticks": 40665,
          "time": 286.2848845,
          "velocity": 0.7874015748031497
        },
        {
          "duration": 0.10273975000006885,
          "durationTicks": 15,
          "midi": 74,
          "name": "D5",
          "ticks": 40680,
          "time": 286.38762424999993,
          "velocity": 0.7874015748031497
        },
        {
          "duration": 0.10273974999995517,
          "durationTicks": 15,
          "midi": 74,
          "name": "D5",
          "ticks": 40695,
          "time": 286.490364,
          "velocity": 0.7874015748031497
        },
        {
          "duration": 0.10273975000001201,
          "durationTicks": 15,
          "midi": 74,
          "name": "D5",
          "ticks": 40710,
          "time": 286.59310374999995,
          "velocity": 0.7874015748031497
        },
        {
          "duration": 0.10273975000001201,
          "durationTicks": 15,
          "midi": 74,
          "name": "D5",
          "ticks": 40725,
          "time": 286.69584349999997,
          "velocity": 0.7874015748031497
        },
        {
          "duration": 0.10273974999995517,
          "durationTicks": 15,
          "midi": 74,
          "name": "D5",
          "ticks": 40740,
          "time": 286.79858325,
          "velocity": 0.7874015748031497
        },
        {
          "duration": 0.10273975000006885,
          "durationTicks": 15,
          "midi": 74,
          "name": "D5",
          "ticks": 40755,
          "time": 286.90132299999993,
          "velocity": 0.7874015748031497
        },
        {
          "duration": 0.10273974999995517,
          "durationTicks": 15,
          "midi": 74,
          "name": "D5",
          "ticks": 40770,
          "time": 287.00406275,
          "velocity": 0.7874015748031497
        },
        {
          "duration": 0.10273975000001201,
          "durationTicks": 15,
          "midi": 74,
          "name": "D5",
          "ticks": 40785,
          "time": 287.10680249999996,
          "velocity": 0.7874015748031497
        },
        {
          "duration": 0.10273975000001201,
          "durationTicks": 15,
          "midi": 72,
          "name": "C5",
          "ticks": 40800,
          "time": 287.20954224999997,
          "velocity": 0.7874015748031497
        },
        {
          "duration": 0.10273974999995517,
          "durationTicks": 15,
          "midi": 72,
          "name": "C5",
          "ticks": 40815,
          "time": 287.312282,
          "velocity": 0.7874015748031497
        },
        {
          "duration": 0.10273975000006885,
          "durationTicks": 15,
          "midi": 72,
          "name": "C5",
          "ticks": 40830,
          "time": 287.41502174999994,
          "velocity": 0.7874015748031497
        },
        {
          "duration": 0.10273974999995517,
          "durationTicks": 15,
          "midi": 72,
          "name": "C5",
          "ticks": 40845,
          "time": 287.5177615,
          "velocity": 0.7874015748031497
        },
        {
          "duration": 0.10273975000001201,
          "durationTicks": 15,
          "midi": 72,
          "name": "C5",
          "ticks": 40860,
          "time": 287.62050124999996,
          "velocity": 0.7874015748031497
        },
        {
          "duration": 0.10273975000001201,
          "durationTicks": 15,
          "midi": 72,
          "name": "C5",
          "ticks": 40875,
          "time": 287.723241,
          "velocity": 0.7874015748031497
        },
        {
          "duration": 0.10273974999995517,
          "durationTicks": 15,
          "midi": 72,
          "name": "C5",
          "ticks": 40890,
          "time": 287.82598075,
          "velocity": 0.7874015748031497
        },
        {
          "duration": 0.10273975000006885,
          "durationTicks": 15,
          "midi": 72,
          "name": "C5",
          "ticks": 40905,
          "time": 287.92872049999994,
          "velocity": 0.7874015748031497
        },
        {
          "duration": 0.10273974999995517,
          "durationTicks": 15,
          "midi": 72,
          "name": "C5",
          "ticks": 40920,
          "time": 288.03146025,
          "velocity": 0.7874015748031497
        },
        {
          "duration": 0.10273975000001201,
          "durationTicks": 15,
          "midi": 72,
          "name": "C5",
          "ticks": 40935,
          "time": 288.13419999999996,
          "velocity": 0.7874015748031497
        },
        {
          "duration": 0.10273975000001201,
          "durationTicks": 15,
          "midi": 72,
          "name": "C5",
          "ticks": 40950,
          "time": 288.23693975,
          "velocity": 0.7874015748031497
        },
        {
          "duration": 0.10273974999995517,
          "durationTicks": 15,
          "midi": 72,
          "name": "C5",
          "ticks": 40965,
          "time": 288.3396795,
          "velocity": 0.7874015748031497
        },
        {
          "duration": 0.10273975000006885,
          "durationTicks": 15,
          "midi": 72,
          "name": "C5",
          "ticks": 40980,
          "time": 288.44241924999994,
          "velocity": 0.7874015748031497
        },
        {
          "duration": 0.10273974999995517,
          "durationTicks": 15,
          "midi": 72,
          "name": "C5",
          "ticks": 40995,
          "time": 288.545159,
          "velocity": 0.7874015748031497
        },
        {
          "duration": 0.10273975000001201,
          "durationTicks": 15,
          "midi": 72,
          "name": "C5",
          "ticks": 41010,
          "time": 288.64789874999997,
          "velocity": 0.7874015748031497
        },
        {
          "duration": 0.10273975000001201,
          "durationTicks": 15,
          "midi": 72,
          "name": "C5",
          "ticks": 41025,
          "time": 288.7506385,
          "velocity": 0.7874015748031497
        },
        {
          "duration": 0.10273974999995517,
          "durationTicks": 15,
          "midi": 71,
          "name": "B4",
          "ticks": 41040,
          "time": 288.85337825,
          "velocity": 0.7874015748031497
        },
        {
          "duration": 0.10273975000001201,
          "durationTicks": 15,
          "midi": 71,
          "name": "B4",
          "ticks": 41055,
          "time": 288.95611799999995,
          "velocity": 0.7874015748031497
        },
        {
          "duration": 0.10273975000001201,
          "durationTicks": 15,
          "midi": 71,
          "name": "B4",
          "ticks": 41070,
          "time": 289.05885774999996,
          "velocity": 0.7874015748031497
        },
        {
          "duration": 0.10273975000001201,
          "durationTicks": 15,
          "midi": 71,
          "name": "B4",
          "ticks": 41085,
          "time": 289.16159749999997,
          "velocity": 0.7874015748031497
        },
        {
          "duration": 0.10273975000001201,
          "durationTicks": 15,
          "midi": 71,
          "name": "B4",
          "ticks": 41100,
          "time": 289.26433725,
          "velocity": 0.7874015748031497
        },
        {
          "duration": 0.10273974999995517,
          "durationTicks": 15,
          "midi": 71,
          "name": "B4",
          "ticks": 41115,
          "time": 289.367077,
          "velocity": 0.7874015748031497
        },
        {
          "duration": 0.10273975000001201,
          "durationTicks": 15,
          "midi": 71,
          "name": "B4",
          "ticks": 41130,
          "time": 289.46981674999995,
          "velocity": 0.7874015748031497
        },
        {
          "duration": 0.10273975000001201,
          "durationTicks": 15,
          "midi": 71,
          "name": "B4",
          "ticks": 41145,
          "time": 289.57255649999996,
          "velocity": 0.7874015748031497
        },
        {
          "duration": 0.10273974999995517,
          "durationTicks": 15,
          "midi": 71,
          "name": "B4",
          "ticks": 41160,
          "time": 289.67529625,
          "velocity": 0.7874015748031497
        },
        {
          "duration": 0.10273975000006885,
          "durationTicks": 15,
          "midi": 71,
          "name": "B4",
          "ticks": 41175,
          "time": 289.77803599999993,
          "velocity": 0.7874015748031497
        },
        {
          "duration": 0.10273974999995517,
          "durationTicks": 15,
          "midi": 71,
          "name": "B4",
          "ticks": 41190,
          "time": 289.88077575,
          "velocity": 0.7874015748031497
        },
        {
          "duration": 0.10273975000001201,
          "durationTicks": 15,
          "midi": 71,
          "name": "B4",
          "ticks": 41205,
          "time": 289.98351549999995,
          "velocity": 0.7874015748031497
        },
        {
          "duration": 0.10273975000001201,
          "durationTicks": 15,
          "midi": 71,
          "name": "B4",
          "ticks": 41220,
          "time": 290.08625524999997,
          "velocity": 0.7874015748031497
        },
        {
          "duration": 0.10273974999995517,
          "durationTicks": 15,
          "midi": 71,
          "name": "B4",
          "ticks": 41235,
          "time": 290.188995,
          "velocity": 0.7874015748031497
        },
        {
          "duration": 0.10273975000006885,
          "durationTicks": 15,
          "midi": 71,
          "name": "B4",
          "ticks": 41250,
          "time": 290.29173474999993,
          "velocity": 0.7874015748031497
        },
        {
          "duration": 0.10273974999995517,
          "durationTicks": 15,
          "midi": 71,
          "name": "B4",
          "ticks": 41265,
          "time": 290.3944745,
          "velocity": 0.7874015748031497
        },
        {
          "duration": 0.10273975000001201,
          "durationTicks": 15,
          "midi": 69,
          "name": "A4",
          "ticks": 41280,
          "time": 290.49721424999996,
          "velocity": 0.7874015748031497
        },
        {
          "duration": 0.10273975000001201,
          "durationTicks": 15,
          "midi": 69,
          "name": "A4",
          "ticks": 41295,
          "time": 290.59995399999997,
          "velocity": 0.7874015748031497
        },
        {
          "duration": 0.10273974999995517,
          "durationTicks": 15,
          "midi": 69,
          "name": "A4",
          "ticks": 41310,
          "time": 290.70269375,
          "velocity": 0.7874015748031497
        },
        {
          "duration": 0.10273975000006885,
          "durationTicks": 15,
          "midi": 69,
          "name": "A4",
          "ticks": 41325,
          "time": 290.80543349999994,
          "velocity": 0.7874015748031497
        },
        {
          "duration": 0.10273974999995517,
          "durationTicks": 15,
          "midi": 69,
          "name": "A4",
          "ticks": 41340,
          "time": 290.90817325,
          "velocity": 0.7874015748031497
        },
        {
          "duration": 0.10273975000001201,
          "durationTicks": 15,
          "midi": 69,
          "name": "A4",
          "ticks": 41355,
          "time": 291.01091299999996,
          "velocity": 0.7874015748031497
        },
        {
          "duration": 0.10273975000001201,
          "durationTicks": 15,
          "midi": 69,
          "name": "A4",
          "ticks": 41370,
          "time": 291.11365274999997,
          "velocity": 0.7874015748031497
        },
        {
          "duration": 0.10273974999995517,
          "durationTicks": 15,
          "midi": 69,
          "name": "A4",
          "ticks": 41385,
          "time": 291.2163925,
          "velocity": 0.7874015748031497
        },
        {
          "duration": 0.10273975000006885,
          "durationTicks": 15,
          "midi": 69,
          "name": "A4",
          "ticks": 41400,
          "time": 291.31913224999994,
          "velocity": 0.7874015748031497
        },
        {
          "duration": 0.10273974999995517,
          "durationTicks": 15,
          "midi": 69,
          "name": "A4",
          "ticks": 41415,
          "time": 291.421872,
          "velocity": 0.7874015748031497
        },
        {
          "duration": 0.10273975000001201,
          "durationTicks": 15,
          "midi": 69,
          "name": "A4",
          "ticks": 41430,
          "time": 291.52461174999996,
          "velocity": 0.7874015748031497
        },
        {
          "duration": 0.10273975000001201,
          "durationTicks": 15,
          "midi": 69,
          "name": "A4",
          "ticks": 41445,
          "time": 291.6273515,
          "velocity": 0.7874015748031497
        },
        {
          "duration": 0.10273974999995517,
          "durationTicks": 15,
          "midi": 69,
          "name": "A4",
          "ticks": 41460,
          "time": 291.73009125,
          "velocity": 0.7874015748031497
        },
        {
          "duration": 0.10273975000006885,
          "durationTicks": 15,
          "midi": 69,
          "name": "A4",
          "ticks": 41475,
          "time": 291.83283099999994,
          "velocity": 0.7874015748031497
        },
        {
          "duration": 0.10273974999995517,
          "durationTicks": 15,
          "midi": 69,
          "name": "A4",
          "ticks": 41490,
          "time": 291.93557075,
          "velocity": 0.7874015748031497
        },
        {
          "duration": 0.10273975000001201,
          "durationTicks": 15,
          "midi": 69,
          "name": "A4",
          "ticks": 41505,
          "time": 292.03831049999997,
          "velocity": 0.7874015748031497
        },
        {
          "duration": 0.10273975000001201,
          "durationTicks": 15,
          "midi": 67,
          "name": "G4",
          "ticks": 41520,
          "time": 292.14105025,
          "velocity": 0.7874015748031497
        },
        {
          "duration": 0.10273974999995517,
          "durationTicks": 15,
          "midi": 67,
          "name": "G4",
          "ticks": 41535,
          "time": 292.24379,
          "velocity": 0.7874015748031497
        },
        {
          "duration": 0.10273975000001201,
          "durationTicks": 15,
          "midi": 67,
          "name": "G4",
          "ticks": 41550,
          "time": 292.34652974999995,
          "velocity": 0.7874015748031497
        },
        {
          "duration": 0.10273975000001201,
          "durationTicks": 15,
          "midi": 67,
          "name": "G4",
          "ticks": 41565,
          "time": 292.44926949999996,
          "velocity": 0.7874015748031497
        },
        {
          "duration": 0.10273975000001201,
          "durationTicks": 15,
          "midi": 67,
          "name": "G4",
          "ticks": 41580,
          "time": 292.55200924999997,
          "velocity": 0.7874015748031497
        },
        {
          "duration": 0.10273975000001201,
          "durationTicks": 15,
          "midi": 67,
          "name": "G4",
          "ticks": 41595,
          "time": 292.654749,
          "velocity": 0.7874015748031497
        },
        {
          "duration": 0.10273974999995517,
          "durationTicks": 15,
          "midi": 67,
          "name": "G4",
          "ticks": 41610,
          "time": 292.75748875,
          "velocity": 0.7874015748031497
        },
        {
          "duration": 0.10273975000001201,
          "durationTicks": 15,
          "midi": 67,
          "name": "G4",
          "ticks": 41625,
          "time": 292.86022849999995,
          "velocity": 0.7874015748031497
        },
        {
          "duration": 0.10273975000001201,
          "durationTicks": 15,
          "midi": 67,
          "name": "G4",
          "ticks": 41640,
          "time": 292.96296824999996,
          "velocity": 0.7874015748031497
        },
        {
          "duration": 0.10273974999995517,
          "durationTicks": 15,
          "midi": 67,
          "name": "G4",
          "ticks": 41655,
          "time": 293.065708,
          "velocity": 0.7874015748031497
        },
        {
          "duration": 0.10273975000006885,
          "durationTicks": 15,
          "midi": 67,
          "name": "G4",
          "ticks": 41670,
          "time": 293.1684477499999,
          "velocity": 0.7874015748031497
        },
        {
          "duration": 0.10273974999995517,
          "durationTicks": 15,
          "midi": 67,
          "name": "G4",
          "ticks": 41685,
          "time": 293.2711875,
          "velocity": 0.7874015748031497
        },
        {
          "duration": 0.10273975000001201,
          "durationTicks": 15,
          "midi": 67,
          "name": "G4",
          "ticks": 41700,
          "time": 293.37392724999995,
          "velocity": 0.7874015748031497
        },
        {
          "duration": 0.10273975000001201,
          "durationTicks": 15,
          "midi": 67,
          "name": "G4",
          "ticks": 41715,
          "time": 293.47666699999996,
          "velocity": 0.7874015748031497
        },
        {
          "duration": 0.10273974999995517,
          "durationTicks": 15,
          "midi": 67,
          "name": "G4",
          "ticks": 41730,
          "time": 293.57940675,
          "velocity": 0.7874015748031497
        },
        {
          "duration": 0.10273975000006885,
          "durationTicks": 15,
          "midi": 67,
          "name": "G4",
          "ticks": 41745,
          "time": 293.68214649999993,
          "velocity": 0.7874015748031497
        },
        {
          "duration": 0.10273974999995517,
          "durationTicks": 15,
          "midi": 69,
          "name": "A4",
          "ticks": 41760,
          "time": 293.78488625,
          "velocity": 0.7874015748031497
        },
        {
          "duration": 0.10273975000001201,
          "durationTicks": 15,
          "midi": 69,
          "name": "A4",
          "ticks": 41775,
          "time": 293.88762599999995,
          "velocity": 0.7874015748031497
        },
        {
          "duration": 0.10273975000001201,
          "durationTicks": 15,
          "midi": 69,
          "name": "A4",
          "ticks": 41790,
          "time": 293.99036574999997,
          "velocity": 0.7874015748031497
        },
        {
          "duration": 0.10273974999995517,
          "durationTicks": 15,
          "midi": 69,
          "name": "A4",
          "ticks": 41805,
          "time": 294.0931055,
          "velocity": 0.7874015748031497
        },
        {
          "duration": 0.10273975000006885,
          "durationTicks": 15,
          "midi": 69,
          "name": "A4",
          "ticks": 41820,
          "time": 294.19584524999993,
          "velocity": 0.7874015748031497
        },
        {
          "duration": 0.10273974999995517,
          "durationTicks": 15,
          "midi": 69,
          "name": "A4",
          "ticks": 41835,
          "time": 294.298585,
          "velocity": 0.7874015748031497
        },
        {
          "duration": 0.10273975000001201,
          "durationTicks": 15,
          "midi": 69,
          "name": "A4",
          "ticks": 41850,
          "time": 294.40132474999996,
          "velocity": 0.7874015748031497
        },
        {
          "duration": 0.10273975000001201,
          "durationTicks": 15,
          "midi": 69,
          "name": "A4",
          "ticks": 41865,
          "time": 294.50406449999997,
          "velocity": 0.7874015748031497
        },
        {
          "duration": 0.10273974999995517,
          "durationTicks": 15,
          "midi": 69,
          "name": "A4",
          "ticks": 41880,
          "time": 294.60680425,
          "velocity": 0.7874015748031497
        },
        {
          "duration": 0.10273975000006885,
          "durationTicks": 15,
          "midi": 69,
          "name": "A4",
          "ticks": 41895,
          "time": 294.70954399999994,
          "velocity": 0.7874015748031497
        },
        {
          "duration": 0.10273974999995517,
          "durationTicks": 15,
          "midi": 69,
          "name": "A4",
          "ticks": 41910,
          "time": 294.81228375,
          "velocity": 0.7874015748031497
        },
        {
          "duration": 0.10273975000001201,
          "durationTicks": 15,
          "midi": 69,
          "name": "A4",
          "ticks": 41925,
          "time": 294.91502349999996,
          "velocity": 0.7874015748031497
        },
        {
          "duration": 0.10273975000001201,
          "durationTicks": 15,
          "midi": 69,
          "name": "A4",
          "ticks": 41940,
          "time": 295.01776325,
          "velocity": 0.7874015748031497
        },
        {
          "duration": 0.10273974999995517,
          "durationTicks": 15,
          "midi": 69,
          "name": "A4",
          "ticks": 41955,
          "time": 295.120503,
          "velocity": 0.7874015748031497
        },
        {
          "duration": 0.10273975000006885,
          "durationTicks": 15,
          "midi": 69,
          "name": "A4",
          "ticks": 41970,
          "time": 295.22324274999994,
          "velocity": 0.7874015748031497
        },
        {
          "duration": 0.10273974999995517,
          "durationTicks": 15,
          "midi": 69,
          "name": "A4",
          "ticks": 41985,
          "time": 295.3259825,
          "velocity": 0.7874015748031497
        },
        {
          "duration": 0.10273975000001201,
          "durationTicks": 15,
          "midi": 71,
          "name": "B4",
          "ticks": 42000,
          "time": 295.42872224999996,
          "velocity": 0.7874015748031497
        },
        {
          "duration": 0.10273975000001201,
          "durationTicks": 15,
          "midi": 71,
          "name": "B4",
          "ticks": 42015,
          "time": 295.531462,
          "velocity": 0.7874015748031497
        },
        {
          "duration": 0.10273974999995517,
          "durationTicks": 15,
          "midi": 71,
          "name": "B4",
          "ticks": 42030,
          "time": 295.63420175,
          "velocity": 0.7874015748031497
        },
        {
          "duration": 0.10273975000001201,
          "durationTicks": 15,
          "midi": 71,
          "name": "B4",
          "ticks": 42045,
          "time": 295.73694149999994,
          "velocity": 0.7874015748031497
        },
        {
          "duration": 0.10273975000001201,
          "durationTicks": 15,
          "midi": 71,
          "name": "B4",
          "ticks": 42060,
          "time": 295.83968124999996,
          "velocity": 0.7874015748031497
        },
        {
          "duration": 0.10273975000001201,
          "durationTicks": 15,
          "midi": 71,
          "name": "B4",
          "ticks": 42075,
          "time": 295.94242099999997,
          "velocity": 0.7874015748031497
        },
        {
          "duration": 0.10273975000001201,
          "durationTicks": 15,
          "midi": 71,
          "name": "B4",
          "ticks": 42090,
          "time": 296.04516075,
          "velocity": 0.7874015748031497
        },
        {
          "duration": 0.10273974999995517,
          "durationTicks": 15,
          "midi": 71,
          "name": "B4",
          "ticks": 42105,
          "time": 296.1479005,
          "velocity": 0.7874015748031497
        },
        {
          "duration": 0.10273975000001201,
          "durationTicks": 15,
          "midi": 71,
          "name": "B4",
          "ticks": 42120,
          "time": 296.25064024999995,
          "velocity": 0.7874015748031497
        },
        {
          "duration": 0.10273975000001201,
          "durationTicks": 15,
          "midi": 71,
          "name": "B4",
          "ticks": 42135,
          "time": 296.35337999999996,
          "velocity": 0.7874015748031497
        },
        {
          "duration": 0.10273975000001201,
          "durationTicks": 15,
          "midi": 71,
          "name": "B4",
          "ticks": 42150,
          "time": 296.45611974999997,
          "velocity": 0.7874015748031497
        },
        {
          "duration": 0.10273975000001201,
          "durationTicks": 15,
          "midi": 71,
          "name": "B4",
          "ticks": 42165,
          "time": 296.5588595,
          "velocity": 0.7874015748031497
        },
        {
          "duration": 0.10273974999995517,
          "durationTicks": 15,
          "midi": 71,
          "name": "B4",
          "ticks": 42180,
          "time": 296.66159925,
          "velocity": 0.7874015748031497
        },
        {
          "duration": 0.10273975000001201,
          "durationTicks": 15,
          "midi": 71,
          "name": "B4",
          "ticks": 42195,
          "time": 296.76433899999995,
          "velocity": 0.7874015748031497
        },
        {
          "duration": 0.10273975000001201,
          "durationTicks": 15,
          "midi": 71,
          "name": "B4",
          "ticks": 42210,
          "time": 296.86707874999996,
          "velocity": 0.7874015748031497
        },
        {
          "duration": 0.10273974999995517,
          "durationTicks": 15,
          "midi": 71,
          "name": "B4",
          "ticks": 42225,
          "time": 296.9698185,
          "velocity": 0.7874015748031497
        },
        {
          "duration": 0.10273975000006885,
          "durationTicks": 15,
          "midi": 76,
          "name": "E5",
          "ticks": 42240,
          "time": 297.07255824999993,
          "velocity": 0.7874015748031497
        },
        {
          "duration": 0.10273974999995517,
          "durationTicks": 15,
          "midi": 76,
          "name": "E5",
          "ticks": 42255,
          "time": 297.175298,
          "velocity": 0.7874015748031497
        },
        {
          "duration": 0.10273975000001201,
          "durationTicks": 15,
          "midi": 76,
          "name": "E5",
          "ticks": 42270,
          "time": 297.27803774999995,
          "velocity": 0.7874015748031497
        },
        {
          "duration": 0.10273975000001201,
          "durationTicks": 15,
          "midi": 76,
          "name": "E5",
          "ticks": 42285,
          "time": 297.38077749999997,
          "velocity": 0.7874015748031497
        },
        {
          "duration": 0.10273974999995517,
          "durationTicks": 15,
          "midi": 76,
          "name": "E5",
          "ticks": 42300,
          "time": 297.48351725,
          "velocity": 0.7874015748031497
        },
        {
          "duration": 0.10273975000006885,
          "durationTicks": 15,
          "midi": 76,
          "name": "E5",
          "ticks": 42315,
          "time": 297.58625699999993,
          "velocity": 0.7874015748031497
        },
        {
          "duration": 0.10273974999995517,
          "durationTicks": 15,
          "midi": 76,
          "name": "E5",
          "ticks": 42330,
          "time": 297.68899675,
          "velocity": 0.7874015748031497
        },
        {
          "duration": 0.10273975000001201,
          "durationTicks": 15,
          "midi": 76,
          "name": "E5",
          "ticks": 42345,
          "time": 297.79173649999996,
          "velocity": 0.7874015748031497
        },
        {
          "duration": 0.10273975000001201,
          "durationTicks": 15,
          "midi": 76,
          "name": "E5",
          "ticks": 42360,
          "time": 297.89447624999997,
          "velocity": 0.7874015748031497
        },
        {
          "duration": 0.10273974999995517,
          "durationTicks": 15,
          "midi": 76,
          "name": "E5",
          "ticks": 42375,
          "time": 297.997216,
          "velocity": 0.7874015748031497
        },
        {
          "duration": 0.10273975000006885,
          "durationTicks": 15,
          "midi": 76,
          "name": "E5",
          "ticks": 42390,
          "time": 298.09995574999994,
          "velocity": 0.7874015748031497
        },
        {
          "duration": 0.10273974999995517,
          "durationTicks": 15,
          "midi": 76,
          "name": "E5",
          "ticks": 42405,
          "time": 298.2026955,
          "velocity": 0.7874015748031497
        },
        {
          "duration": 0.10273975000001201,
          "durationTicks": 15,
          "midi": 76,
          "name": "E5",
          "ticks": 42420,
          "time": 298.30543524999996,
          "velocity": 0.7874015748031497
        },
        {
          "duration": 0.10273975000001201,
          "durationTicks": 15,
          "midi": 76,
          "name": "E5",
          "ticks": 42435,
          "time": 298.40817499999997,
          "velocity": 0.7874015748031497
        },
        {
          "duration": 0.10273974999995517,
          "durationTicks": 15,
          "midi": 76,
          "name": "E5",
          "ticks": 42450,
          "time": 298.51091475,
          "velocity": 0.7874015748031497
        },
        {
          "duration": 0.10273975000006885,
          "durationTicks": 15,
          "midi": 76,
          "name": "E5",
          "ticks": 42465,
          "time": 298.61365449999994,
          "velocity": 0.7874015748031497
        },
        {
          "duration": 0.10273974999995517,
          "durationTicks": 15,
          "midi": 74,
          "name": "D5",
          "ticks": 42480,
          "time": 298.71639425,
          "velocity": 0.7874015748031497
        },
        {
          "duration": 0.10273975000001201,
          "durationTicks": 15,
          "midi": 74,
          "name": "D5",
          "ticks": 42495,
          "time": 298.81913399999996,
          "velocity": 0.7874015748031497
        },
        {
          "duration": 0.10273975000001201,
          "durationTicks": 15,
          "midi": 74,
          "name": "D5",
          "ticks": 42510,
          "time": 298.92187375,
          "velocity": 0.7874015748031497
        },
        {
          "duration": 0.10273974999995517,
          "durationTicks": 15,
          "midi": 74,
          "name": "D5",
          "ticks": 42525,
          "time": 299.0246135,
          "velocity": 0.7874015748031497
        },
        {
          "duration": 0.10273975000006885,
          "durationTicks": 15,
          "midi": 74,
          "name": "D5",
          "ticks": 42540,
          "time": 299.12735324999994,
          "velocity": 0.7874015748031497
        },
        {
          "duration": 0.10273974999995517,
          "durationTicks": 15,
          "midi": 74,
          "name": "D5",
          "ticks": 42555,
          "time": 299.230093,
          "velocity": 0.7874015748031497
        },
        {
          "duration": 0.10273975000001201,
          "durationTicks": 15,
          "midi": 74,
          "name": "D5",
          "ticks": 42570,
          "time": 299.33283274999997,
          "velocity": 0.7874015748031497
        },
        {
          "duration": 0.10273975000001201,
          "durationTicks": 15,
          "midi": 74,
          "name": "D5",
          "ticks": 42585,
          "time": 299.4355725,
          "velocity": 0.7874015748031497
        },
        {
          "duration": 0.10273974999995517,
          "durationTicks": 15,
          "midi": 74,
          "name": "D5",
          "ticks": 42600,
          "time": 299.53831225,
          "velocity": 0.7874015748031497
        },
        {
          "duration": 0.10273975000001201,
          "durationTicks": 15,
          "midi": 74,
          "name": "D5",
          "ticks": 42615,
          "time": 299.64105199999995,
          "velocity": 0.7874015748031497
        },
        {
          "duration": 0.10273975000001201,
          "durationTicks": 15,
          "midi": 74,
          "name": "D5",
          "ticks": 42630,
          "time": 299.74379174999996,
          "velocity": 0.7874015748031497
        },
        {
          "duration": 0.10273975000001201,
          "durationTicks": 15,
          "midi": 74,
          "name": "D5",
          "ticks": 42645,
          "time": 299.84653149999997,
          "velocity": 0.7874015748031497
        },
        {
          "duration": 0.10273975000001201,
          "durationTicks": 15,
          "midi": 74,
          "name": "D5",
          "ticks": 42660,
          "time": 299.94927125,
          "velocity": 0.7874015748031497
        },
        {
          "duration": 0.10273974999995517,
          "durationTicks": 15,
          "midi": 74,
          "name": "D5",
          "ticks": 42675,
          "time": 300.052011,
          "velocity": 0.7874015748031497
        },
        {
          "duration": 0.10273975000001201,
          "durationTicks": 15,
          "midi": 74,
          "name": "D5",
          "ticks": 42690,
          "time": 300.15475074999995,
          "velocity": 0.7874015748031497
        },
        {
          "duration": 0.10273975000001201,
          "durationTicks": 15,
          "midi": 74,
          "name": "D5",
          "ticks": 42705,
          "time": 300.25749049999996,
          "velocity": 0.7874015748031497
        },
        {
          "duration": 0.10273974999995517,
          "durationTicks": 15,
          "midi": 72,
          "name": "C5",
          "ticks": 42720,
          "time": 300.36023025,
          "velocity": 0.7874015748031497
        },
        {
          "duration": 0.10273975000006885,
          "durationTicks": 15,
          "midi": 72,
          "name": "C5",
          "ticks": 42735,
          "time": 300.4629699999999,
          "velocity": 0.7874015748031497
        },
        {
          "duration": 0.10273974999995517,
          "durationTicks": 15,
          "midi": 72,
          "name": "C5",
          "ticks": 42750,
          "time": 300.56570975,
          "velocity": 0.7874015748031497
        },
        {
          "duration": 0.10273975000001201,
          "durationTicks": 15,
          "midi": 72,
          "name": "C5",
          "ticks": 42765,
          "time": 300.66844949999995,
          "velocity": 0.7874015748031497
        },
        {
          "duration": 0.10273975000001201,
          "durationTicks": 15,
          "midi": 72,
          "name": "C5",
          "ticks": 42780,
          "time": 300.77118924999996,
          "velocity": 0.7874015748031497
        },
        {
          "duration": 0.10273974999995517,
          "durationTicks": 15,
          "midi": 72,
          "name": "C5",
          "ticks": 42795,
          "time": 300.873929,
          "velocity": 0.7874015748031497
        },
        {
          "duration": 0.10273975000006885,
          "durationTicks": 15,
          "midi": 72,
          "name": "C5",
          "ticks": 42810,
          "time": 300.97666874999993,
          "velocity": 0.7874015748031497
        },
        {
          "duration": 0.10273974999995517,
          "durationTicks": 15,
          "midi": 72,
          "name": "C5",
          "ticks": 42825,
          "time": 301.0794085,
          "velocity": 0.7874015748031497
        },
        {
          "duration": 0.10273975000001201,
          "durationTicks": 15,
          "midi": 72,
          "name": "C5",
          "ticks": 42840,
          "time": 301.18214824999995,
          "velocity": 0.7874015748031497
        },
        {
          "duration": 0.10273975000001201,
          "durationTicks": 15,
          "midi": 72,
          "name": "C5",
          "ticks": 42855,
          "time": 301.28488799999997,
          "velocity": 0.7874015748031497
        },
        {
          "duration": 0.10273974999995517,
          "durationTicks": 15,
          "midi": 72,
          "name": "C5",
          "ticks": 42870,
          "time": 301.38762775,
          "velocity": 0.7874015748031497
        },
        {
          "duration": 0.10273975000006885,
          "durationTicks": 15,
          "midi": 72,
          "name": "C5",
          "ticks": 42885,
          "time": 301.49036749999993,
          "velocity": 0.7874015748031497
        },
        {
          "duration": 0.10273974999995517,
          "durationTicks": 15,
          "midi": 72,
          "name": "C5",
          "ticks": 42900,
          "time": 301.59310725,
          "velocity": 0.7874015748031497
        },
        {
          "duration": 0.10273975000001201,
          "durationTicks": 15,
          "midi": 72,
          "name": "C5",
          "ticks": 42915,
          "time": 301.69584699999996,
          "velocity": 0.7874015748031497
        },
        {
          "duration": 0.10273975000001201,
          "durationTicks": 15,
          "midi": 72,
          "name": "C5",
          "ticks": 42930,
          "time": 301.79858674999997,
          "velocity": 0.7874015748031497
        },
        {
          "duration": 0.10273974999995517,
          "durationTicks": 15,
          "midi": 72,
          "name": "C5",
          "ticks": 42945,
          "time": 301.9013265,
          "velocity": 0.7874015748031497
        },
        {
          "duration": 0.10273975000006885,
          "durationTicks": 15,
          "midi": 71,
          "name": "B4",
          "ticks": 42960,
          "time": 302.00406624999994,
          "velocity": 0.7874015748031497
        },
        {
          "duration": 0.10273974999995517,
          "durationTicks": 15,
          "midi": 71,
          "name": "B4",
          "ticks": 42975,
          "time": 302.106806,
          "velocity": 0.7874015748031497
        },
        {
          "duration": 0.10273975000001201,
          "durationTicks": 15,
          "midi": 71,
          "name": "B4",
          "ticks": 42990,
          "time": 302.20954574999996,
          "velocity": 0.7874015748031497
        },
        {
          "duration": 0.10273975000001201,
          "durationTicks": 15,
          "midi": 71,
          "name": "B4",
          "ticks": 43005,
          "time": 302.3122855,
          "velocity": 0.7874015748031497
        },
        {
          "duration": 0.10273974999995517,
          "durationTicks": 15,
          "midi": 71,
          "name": "B4",
          "ticks": 43020,
          "time": 302.41502525,
          "velocity": 0.7874015748031497
        },
        {
          "duration": 0.10273975000006885,
          "durationTicks": 15,
          "midi": 71,
          "name": "B4",
          "ticks": 43035,
          "time": 302.51776499999994,
          "velocity": 0.7874015748031497
        },
        {
          "duration": 0.10273974999995517,
          "durationTicks": 15,
          "midi": 71,
          "name": "B4",
          "ticks": 43050,
          "time": 302.62050475,
          "velocity": 0.7874015748031497
        },
        {
          "duration": 0.10273975000001201,
          "durationTicks": 15,
          "midi": 71,
          "name": "B4",
          "ticks": 43065,
          "time": 302.72324449999996,
          "velocity": 0.7874015748031497
        },
        {
          "duration": 0.10273975000001201,
          "durationTicks": 15,
          "midi": 71,
          "name": "B4",
          "ticks": 43080,
          "time": 302.82598425,
          "velocity": 0.7874015748031497
        },
        {
          "duration": 0.10273974999995517,
          "durationTicks": 15,
          "midi": 71,
          "name": "B4",
          "ticks": 43095,
          "time": 302.928724,
          "velocity": 0.7874015748031497
        },
        {
          "duration": 0.10273975000001201,
          "durationTicks": 15,
          "midi": 71,
          "name": "B4",
          "ticks": 43110,
          "time": 303.03146374999994,
          "velocity": 0.7874015748031497
        },
        {
          "duration": 0.10273975000001201,
          "durationTicks": 15,
          "midi": 71,
          "name": "B4",
          "ticks": 43125,
          "time": 303.13420349999996,
          "velocity": 0.7874015748031497
        },
        {
          "duration": 0.10273975000001201,
          "durationTicks": 15,
          "midi": 71,
          "name": "B4",
          "ticks": 43140,
          "time": 303.23694324999997,
          "velocity": 0.7874015748031497
        },
        {
          "duration": 0.10273975000001201,
          "durationTicks": 15,
          "midi": 71,
          "name": "B4",
          "ticks": 43155,
          "time": 303.339683,
          "velocity": 0.7874015748031497
        },
        {
          "duration": 0.10273974999995517,
          "durationTicks": 15,
          "midi": 71,
          "name": "B4",
          "ticks": 43170,
          "time": 303.44242275,
          "velocity": 0.7874015748031497
        },
        {
          "duration": 0.10273975000001201,
          "durationTicks": 15,
          "midi": 71,
          "name": "B4",
          "ticks": 43185,
          "time": 303.54516249999995,
          "velocity": 0.7874015748031497
        },
        {
          "duration": 0.10416662500000484,
          "durationTicks": 15,
          "midi": 69,
          "name": "A4",
          "ticks": 43200,
          "time": 303.64790224999996,
          "velocity": 0.7874015748031497
        },
        {
          "duration": 0.10416662500000484,
          "durationTicks": 15,
          "midi": 69,
          "name": "A4",
          "ticks": 43215,
          "time": 303.75206887499996,
          "velocity": 0.7874015748031497
        },
        {
          "duration": 0.10416662500000484,
          "durationTicks": 15,
          "midi": 69,
          "name": "A4",
          "ticks": 43230,
          "time": 303.85623549999997,
          "velocity": 0.7874015748031497
        },
        {
          "duration": 0.10416662500000484,
          "durationTicks": 15,
          "midi": 69,
          "name": "A4",
          "ticks": 43245,
          "time": 303.960402125,
          "velocity": 0.7874015748031497
        },
        {
          "duration": 0.10465566666658788,
          "durationTicks": 15,
          "midi": 69,
          "name": "A4",
          "ticks": 43260,
          "time": 304.06456875,
          "velocity": 0.7874015748031497
        },
        {
          "duration": 0.10563375000003816,
          "durationTicks": 15,
          "midi": 69,
          "name": "A4",
          "ticks": 43275,
          "time": 304.16922441666657,
          "velocity": 0.7874015748031497
        },
        {
          "duration": 0.10563374999998132,
          "durationTicks": 15,
          "midi": 69,
          "name": "A4",
          "ticks": 43290,
          "time": 304.2748581666666,
          "velocity": 0.7874015748031497
        },
        {
          "duration": 0.10563374999998132,
          "durationTicks": 15,
          "midi": 69,
          "name": "A4",
          "ticks": 43305,
          "time": 304.3804919166666,
          "velocity": 0.7874015748031497
        },
        {
          "duration": 0.10563375000003816,
          "durationTicks": 15,
          "midi": 69,
          "name": "A4",
          "ticks": 43320,
          "time": 304.48612566666657,
          "velocity": 0.7874015748031497
        },
        {
          "duration": 0.10663983333336091,
          "durationTicks": 15,
          "midi": 69,
          "name": "A4",
          "ticks": 43335,
          "time": 304.5917594166666,
          "velocity": 0.7874015748031497
        },
        {
          "duration": 0.10714287500002229,
          "durationTicks": 15,
          "midi": 69,
          "name": "A4",
          "ticks": 43350,
          "time": 304.69839924999997,
          "velocity": 0.7874015748031497
        },
        {
          "duration": 0.10714287499996544,
          "durationTicks": 15,
          "midi": 69,
          "name": "A4",
          "ticks": 43365,
          "time": 304.805542125,
          "velocity": 0.7874015748031497
        },
        {
          "duration": 0.10714287500002229,
          "durationTicks": 15,
          "midi": 69,
          "name": "A4",
          "ticks": 43380,
          "time": 304.91268499999995,
          "velocity": 0.7874015748031497
        },
        {
          "duration": 0.10714287499996544,
          "durationTicks": 15,
          "midi": 69,
          "name": "A4",
          "ticks": 43395,
          "time": 305.019827875,
          "velocity": 0.7874015748031497
        },
        {
          "duration": 0.10869562499999574,
          "durationTicks": 15,
          "midi": 69,
          "name": "A4",
          "ticks": 43410,
          "time": 305.12697074999994,
          "velocity": 0.7874015748031497
        },
        {
          "duration": 0.10869562499999574,
          "durationTicks": 15,
          "midi": 69,
          "name": "A4",
          "ticks": 43425,
          "time": 305.23566637499994,
          "velocity": 0.7874015748031497
        },
        {
          "duration": 0.10869562499999574,
          "durationTicks": 15,
          "midi": 67,
          "name": "G4",
          "ticks": 43440,
          "time": 305.34436199999993,
          "velocity": 0.7874015748031497
        },
        {
          "duration": 0.10869562499999574,
          "durationTicks": 15,
          "midi": 67,
          "name": "G4",
          "ticks": 43455,
          "time": 305.45305762499993,
          "velocity": 0.7874015748031497
        },
        {
          "duration": 0.10922845833334804,
          "durationTicks": 15,
          "midi": 67,
          "name": "G4",
          "ticks": 43470,
          "time": 305.5617532499999,
          "velocity": 0.7874015748031497
        },
        {
          "duration": 0.1102941249999958,
          "durationTicks": 15,
          "midi": 67,
          "name": "G4",
          "ticks": 43485,
          "time": 305.6709817083333,
          "velocity": 0.7874015748031497
        },
        {
          "duration": 0.1102941249999958,
          "durationTicks": 15,
          "midi": 67,
          "name": "G4",
          "ticks": 43500,
          "time": 305.78127583333327,
          "velocity": 0.7874015748031497
        },
        {
          "duration": 0.1102941249999958,
          "durationTicks": 15,
          "midi": 67,
          "name": "G4",
          "ticks": 43515,
          "time": 305.89156995833326,
          "velocity": 0.7874015748031497
        },
        {
          "duration": 0.1102941249999958,
          "durationTicks": 15,
          "midi": 67,
          "name": "G4",
          "ticks": 43530,
          "time": 306.00186408333326,
          "velocity": 0.7874015748031497
        },
        {
          "duration": 0.11139154166670551,
          "durationTicks": 15,
          "midi": 67,
          "name": "G4",
          "ticks": 43545,
          "time": 306.11215820833326,
          "velocity": 0.7874015748031497
        },
        {
          "duration": 0.1119402499999751,
          "durationTicks": 15,
          "midi": 67,
          "name": "G4",
          "ticks": 43560,
          "time": 306.22354974999996,
          "velocity": 0.7874015748031497
        },
        {
          "duration": 0.11194025000003194,
          "durationTicks": 15,
          "midi": 67,
          "name": "G4",
          "ticks": 43575,
          "time": 306.33548999999994,
          "velocity": 0.7874015748031497
        },
        {
          "duration": 0.1119402499999751,
          "durationTicks": 15,
          "midi": 67,
          "name": "G4",
          "ticks": 43590,
          "time": 306.44743024999997,
          "velocity": 0.7874015748031497
        },
        {
          "duration": 0.1119402499999751,
          "durationTicks": 15,
          "midi": 67,
          "name": "G4",
          "ticks": 43605,
          "time": 306.55937049999994,
          "velocity": 0.7874015748031497
        },
        {
          "duration": 0.11363637499999868,
          "durationTicks": 15,
          "midi": 67,
          "name": "G4",
          "ticks": 43620,
          "time": 306.6713107499999,
          "velocity": 0.7874015748031497
        },
        {
          "duration": 0.11363637499999868,
          "durationTicks": 15,
          "midi": 67,
          "name": "G4",
          "ticks": 43635,
          "time": 306.7849471249999,
          "velocity": 0.7874015748031497
        },
        {
          "duration": 0.11363637499999868,
          "durationTicks": 15,
          "midi": 67,
          "name": "G4",
          "ticks": 43650,
          "time": 306.8985834999999,
          "velocity": 0.7874015748031497
        },
        {
          "duration": 0.11363637499999868,
          "durationTicks": 15,
          "midi": 67,
          "name": "G4",
          "ticks": 43665,
          "time": 307.0122198749999,
          "velocity": 0.7874015748031497
        },
        {
          "duration": 0.11421912499997688,
          "durationTicks": 15,
          "midi": 69,
          "name": "A4",
          "ticks": 43680,
          "time": 307.1258562499999,
          "velocity": 0.7874015748031497
        },
        {
          "duration": 0.11538462499999014,
          "durationTicks": 15,
          "midi": 69,
          "name": "A4",
          "ticks": 43695,
          "time": 307.2400753749999,
          "velocity": 0.7874015748031497
        },
        {
          "duration": 0.11538462499999014,
          "durationTicks": 15,
          "midi": 69,
          "name": "A4",
          "ticks": 43710,
          "time": 307.3554599999999,
          "velocity": 0.7874015748031497
        },
        {
          "duration": 0.11538462500004698,
          "durationTicks": 15,
          "midi": 69,
          "name": "A4",
          "ticks": 43725,
          "time": 307.47084462499987,
          "velocity": 0.7874015748031497
        },
        {
          "duration": 0.11538462499999014,
          "durationTicks": 15,
          "midi": 69,
          "name": "A4",
          "ticks": 43740,
          "time": 307.5862292499999,
          "velocity": 0.7874015748031497
        },
        {
          "duration": 0.11658654166666338,
          "durationTicks": 15,
          "midi": 69,
          "name": "A4",
          "ticks": 43755,
          "time": 307.7016138749999,
          "velocity": 0.7874015748031497
        },
        {
          "duration": 0.1171875,
          "durationTicks": 15,
          "midi": 69,
          "name": "A4",
          "ticks": 43770,
          "time": 307.81820041666657,
          "velocity": 0.7874015748031497
        },
        {
          "duration": 0.1171875,
          "durationTicks": 15,
          "midi": 69,
          "name": "A4",
          "ticks": 43785,
          "time": 307.93538791666657,
          "velocity": 0.7874015748031497
        },
        {
          "duration": 0.1171875,
          "durationTicks": 15,
          "midi": 69,
          "name": "A4",
          "ticks": 43800,
          "time": 308.05257541666657,
          "velocity": 0.7874015748031497
        },
        {
          "duration": 0.1171875,
          "durationTicks": 15,
          "midi": 69,
          "name": "A4",
          "ticks": 43815,
          "time": 308.16976291666657,
          "velocity": 0.7874015748031497
        },
        {
          "duration": 0.11904762500000743,
          "durationTicks": 15,
          "midi": 69,
          "name": "A4",
          "ticks": 43830,
          "time": 308.28695041666657,
          "velocity": 0.7874015748031497
        },
        {
          "duration": 0.11904762500000743,
          "durationTicks": 15,
          "midi": 69,
          "name": "A4",
          "ticks": 43845,
          "time": 308.4059980416666,
          "velocity": 0.7874015748031497
        },
        {
          "duration": 0.11904762500000743,
          "durationTicks": 15,
          "midi": 69,
          "name": "A4",
          "ticks": 43860,
          "time": 308.5250456666666,
          "velocity": 0.7874015748031497
        },
        {
          "duration": 0.11904762499995059,
          "durationTicks": 15,
          "midi": 69,
          "name": "A4",
          "ticks": 43875,
          "time": 308.6440932916666,
          "velocity": 0.7874015748031497
        },
        {
          "duration": 0.11968766666666397,
          "durationTicks": 15,
          "midi": 69,
          "name": "A4",
          "ticks": 43890,
          "time": 308.76314091666654,
          "velocity": 0.7874015748031497
        },
        {
          "duration": 0.1209677500000339,
          "durationTicks": 15,
          "midi": 69,
          "name": "A4",
          "ticks": 43905,
          "time": 308.8828285833332,
          "velocity": 0.7874015748031497
        },
        {
          "duration": 0.12096774999997706,
          "durationTicks": 15,
          "midi": 71,
          "name": "B4",
          "ticks": 43920,
          "time": 309.00379633333324,
          "velocity": 0.7874015748031497
        },
        {
          "duration": 0.1209677500000339,
          "durationTicks": 15,
          "midi": 71,
          "name": "B4",
          "ticks": 43935,
          "time": 309.1247640833332,
          "velocity": 0.7874015748031497
        },
        {
          "duration": 0.12096774999997706,
          "durationTicks": 15,
          "midi": 71,
          "name": "B4",
          "ticks": 43950,
          "time": 309.24573183333325,
          "velocity": 0.7874015748031497
        },
        {
          "duration": 0.12228983333335464,
          "durationTicks": 15,
          "midi": 71,
          "name": "B4",
          "ticks": 43965,
          "time": 309.36669958333323,
          "velocity": 0.7874015748031497
        },
        {
          "duration": 0.122950875000015,
          "durationTicks": 15,
          "midi": 71,
          "name": "B4",
          "ticks": 43980,
          "time": 309.4889894166666,
          "velocity": 0.7874015748031497
        },
        {
          "duration": 0.122950875000015,
          "durationTicks": 15,
          "midi": 71,
          "name": "B4",
          "ticks": 43995,
          "time": 309.6119402916666,
          "velocity": 0.7874015748031497
        },
        {
          "duration": 0.12295087499995816,
          "durationTicks": 15,
          "midi": 71,
          "name": "B4",
          "ticks": 44010,
          "time": 309.7348911666666,
          "velocity": 0.7874015748031497
        },
        {
          "duration": 0.122950875000015,
          "durationTicks": 15,
          "midi": 71,
          "name": "B4",
          "ticks": 44025,
          "time": 309.8578420416666,
          "velocity": 0.7874015748031497
        },
        {
          "duration": 0.125,
          "durationTicks": 15,
          "midi": 71,
          "name": "B4",
          "ticks": 44040,
          "time": 309.9807929166666,
          "velocity": 0.7874015748031497
        },
        {
          "duration": 0.125,
          "durationTicks": 15,
          "midi": 71,
          "name": "B4",
          "ticks": 44055,
          "time": 310.1057929166666,
          "velocity": 0.7874015748031497
        },
        {
          "duration": 0.125,
          "durationTicks": 15,
          "midi": 71,
          "name": "B4",
          "ticks": 44070,
          "time": 310.2307929166666,
          "velocity": 0.7874015748031497
        },
        {
          "duration": 0.125,
          "durationTicks": 15,
          "midi": 71,
          "name": "B4",
          "ticks": 44085,
          "time": 310.3557929166666,
          "velocity": 0.7874015748031497
        },
        {
          "duration": 0.125,
          "durationTicks": 15,
          "midi": 71,
          "name": "B4",
          "ticks": 44100,
          "time": 310.4807929166666,
          "velocity": 0.7874015748031497
        },
        {
          "duration": 0.125,
          "durationTicks": 15,
          "midi": 71,
          "name": "B4",
          "ticks": 44115,
          "time": 310.6057929166666,
          "velocity": 0.7874015748031497
        },
        {
          "duration": 0.125,
          "durationTicks": 15,
          "midi": 71,
          "name": "B4",
          "ticks": 44130,
          "time": 310.7307929166666,
          "velocity": 0.7874015748031497
        },
        {
          "duration": 0.2333333333333485,
          "durationTicks": 15,
          "midi": 71,
          "name": "B4",
          "ticks": 44145,
          "time": 310.8557929166666,
          "velocity": 0.7874015748031497
        },
        {
          "duration": 6.168639699999858,
          "durationTicks": 480,
          "midi": 64,
          "name": "E4",
          "ticks": 44160,
          "time": 311.08912624999994,
          "velocity": 0.7086614173228346
        },
        {
          "duration": 6.168639699999858,
          "durationTicks": 480,
          "midi": 72,
          "name": "C5",
          "ticks": 44160,
          "time": 311.08912624999994,
          "velocity": 0.7086614173228346
        }
      ],
      "endOfTrackTicks": 44640
    },
    {
      "channel": 2,
      "controlChanges": {},
      "pitchBends": [],
      "instrument": {
        "family": "piano",
        "number": 0,
        "name": "acoustic grand piano"
      },
      "name": "",
      "notes": [
        {
          "duration": 1.904762,
          "durationTicks": 240,
          "midi": 48,
          "name": "C3",
          "ticks": 0,
          "time": 0,
          "velocity": 0.7874015748031497
        },
        {
          "duration": 1.904762,
          "durationTicks": 240,
          "midi": 43,
          "name": "G2",
          "ticks": 240,
          "time": 1.904762,
          "velocity": 0.7874015748031497
        },
        {
          "duration": 1.904762,
          "durationTicks": 240,
          "midi": 50,
          "name": "D3",
          "ticks": 240,
          "time": 1.904762,
          "velocity": 0.7874015748031497
        },
        {
          "duration": 1.9047620000000003,
          "durationTicks": 240,
          "midi": 45,
          "name": "A2",
          "ticks": 480,
          "time": 3.809524,
          "velocity": 0.7874015748031497
        },
        {
          "duration": 1.9047619999999998,
          "durationTicks": 240,
          "midi": 40,
          "name": "E2",
          "ticks": 720,
          "time": 5.714286,
          "velocity": 0.7874015748031497
        },
        {
          "duration": 1.9047619999999998,
          "durationTicks": 240,
          "midi": 47,
          "name": "B2",
          "ticks": 720,
          "time": 5.714286,
          "velocity": 0.7874015748031497
        },
        {
          "duration": 1.9047620000000007,
          "durationTicks": 240,
          "midi": 41,
          "name": "F2",
          "ticks": 960,
          "time": 7.619048,
          "velocity": 0.7874015748031497
        },
        {
          "duration": 1.9047620000000007,
          "durationTicks": 240,
          "midi": 48,
          "name": "C3",
          "ticks": 960,
          "time": 7.619048,
          "velocity": 0.7874015748031497
        },
        {
          "duration": 1.9047619999999998,
          "durationTicks": 240,
          "midi": 36,
          "name": "C2",
          "ticks": 1200,
          "time": 9.523810000000001,
          "velocity": 0.7874015748031497
        },
        {
          "duration": 1.9047619999999998,
          "durationTicks": 240,
          "midi": 48,
          "name": "C3",
          "ticks": 1200,
          "time": 9.523810000000001,
          "velocity": 0.7874015748031497
        },
        {
          "duration": 1.9047619999999998,
          "durationTicks": 240,
          "midi": 41,
          "name": "F2",
          "ticks": 1440,
          "time": 11.428572,
          "velocity": 0.7874015748031497
        },
        {
          "duration": 1.9047619999999998,
          "durationTicks": 240,
          "midi": 48,
          "name": "C3",
          "ticks": 1440,
          "time": 11.428572,
          "velocity": 0.7874015748031497
        },
        {
          "duration": 1.9047619999999998,
          "durationTicks": 240,
          "midi": 43,
          "name": "G2",
          "ticks": 1680,
          "time": 13.333334,
          "velocity": 0.7874015748031497
        },
        {
          "duration": 1.9047619999999998,
          "durationTicks": 240,
          "midi": 50,
          "name": "D3",
          "ticks": 1680,
          "time": 13.333334,
          "velocity": 0.7874015748031497
        },
        {
          "duration": 1.9047619999999998,
          "durationTicks": 240,
          "midi": 48,
          "name": "C3",
          "ticks": 1920,
          "time": 15.238096,
          "velocity": 0.7874015748031497
        },
        {
          "duration": 1.9047619999999998,
          "durationTicks": 240,
          "midi": 55,
          "name": "G3",
          "ticks": 1920,
          "time": 15.238096,
          "velocity": 0.7874015748031497
        },
        {
          "duration": 1.9047619999999998,
          "durationTicks": 240,
          "midi": 60,
          "name": "C4",
          "ticks": 1920,
          "time": 15.238096,
          "velocity": 0.7874015748031497
        },
        {
          "duration": 1.9047620000000016,
          "durationTicks": 240,
          "midi": 43,
          "name": "G2",
          "ticks": 2160,
          "time": 17.142858,
          "velocity": 0.7874015748031497
        },
        {
          "duration": 1.9047620000000016,
          "durationTicks": 240,
          "midi": 50,
          "name": "D3",
          "ticks": 2160,
          "time": 17.142858,
          "velocity": 0.7874015748031497
        },
        {
          "duration": 1.9047620000000016,
          "durationTicks": 240,
          "midi": 55,
          "name": "G3",
          "ticks": 2160,
          "time": 17.142858,
          "velocity": 0.7874015748031497
        },
        {
          "duration": 1.904761999999998,
          "durationTicks": 240,
          "midi": 45,
          "name": "A2",
          "ticks": 2400,
          "time": 19.047620000000002,
          "velocity": 0.7874015748031497
        },
        {
          "duration": 1.904761999999998,
          "durationTicks": 240,
          "midi": 52,
          "name": "E3",
          "ticks": 2400,
          "time": 19.047620000000002,
          "velocity": 0.7874015748031497
        },
        {
          "duration": 1.904761999999998,
          "durationTicks": 240,
          "midi": 57,
          "name": "A3",
          "ticks": 2400,
          "time": 19.047620000000002,
          "velocity": 0.7874015748031497
        },
        {
          "duration": 1.9047620000000016,
          "durationTicks": 240,
          "midi": 40,
          "name": "E2",
          "ticks": 2640,
          "time": 20.952382,
          "velocity": 0.7874015748031497
        },
        {
          "duration": 1.9047620000000016,
          "durationTicks": 240,
          "midi": 47,
          "name": "B2",
          "ticks": 2640,
          "time": 20.952382,
          "velocity": 0.7874015748031497
        },
        {
          "duration": 1.9047620000000016,
          "durationTicks": 240,
          "midi": 52,
          "name": "E3",
          "ticks": 2640,
          "time": 20.952382,
          "velocity": 0.7874015748031497
        },
        {
          "duration": 1.904761999999998,
          "durationTicks": 240,
          "midi": 41,
          "name": "F2",
          "ticks": 2880,
          "time": 22.857144,
          "velocity": 0.7874015748031497
        },
        {
          "duration": 1.904761999999998,
          "durationTicks": 240,
          "midi": 48,
          "name": "C3",
          "ticks": 2880,
          "time": 22.857144,
          "velocity": 0.7874015748031497
        },
        {
          "duration": 1.904761999999998,
          "durationTicks": 240,
          "midi": 53,
          "name": "F3",
          "ticks": 2880,
          "time": 22.857144,
          "velocity": 0.7874015748031497
        },
        {
          "duration": 1.9047620000000016,
          "durationTicks": 240,
          "midi": 40,
          "name": "E2",
          "ticks": 3120,
          "time": 24.761906,
          "velocity": 0.7874015748031497
        },
        {
          "duration": 1.9047620000000016,
          "durationTicks": 240,
          "midi": 48,
          "name": "C3",
          "ticks": 3120,
          "time": 24.761906,
          "velocity": 0.7874015748031497
        },
        {
          "duration": 1.9047620000000016,
          "durationTicks": 240,
          "midi": 52,
          "name": "E3",
          "ticks": 3120,
          "time": 24.761906,
          "velocity": 0.7874015748031497
        },
        {
          "duration": 1.904761999999998,
          "durationTicks": 240,
          "midi": 41,
          "name": "F2",
          "ticks": 3360,
          "time": 26.666668,
          "velocity": 0.7874015748031497
        },
        {
          "duration": 1.904761999999998,
          "durationTicks": 240,
          "midi": 48,
          "name": "C3",
          "ticks": 3360,
          "time": 26.666668,
          "velocity": 0.7874015748031497
        },
        {
          "duration": 1.904761999999998,
          "durationTicks": 240,
          "midi": 53,
          "name": "F3",
          "ticks": 3360,
          "time": 26.666668,
          "velocity": 0.7874015748031497
        },
        {
          "duration": 1.9047620000000016,
          "durationTicks": 240,
          "midi": 43,
          "name": "G2",
          "ticks": 3600,
          "time": 28.57143,
          "velocity": 0.7874015748031497
        },
        {
          "duration": 1.9047620000000016,
          "durationTicks": 240,
          "midi": 50,
          "name": "D3",
          "ticks": 3600,
          "time": 28.57143,
          "velocity": 0.7874015748031497
        },
        {
          "duration": 1.9047620000000016,
          "durationTicks": 240,
          "midi": 55,
          "name": "G3",
          "ticks": 3600,
          "time": 28.57143,
          "velocity": 0.7874015748031497
        },
        {
          "duration": 1.8749999999999964,
          "durationTicks": 240,
          "midi": 48,
          "name": "C3",
          "ticks": 3840,
          "time": 30.476192,
          "velocity": 0.7874015748031497
        },
        {
          "duration": 1.8749999999999964,
          "durationTicks": 240,
          "midi": 55,
          "name": "G3",
          "ticks": 3840,
          "time": 30.476192,
          "velocity": 0.7874015748031497
        },
        {
          "duration": 1.8749999999999964,
          "durationTicks": 240,
          "midi": 60,
          "name": "C4",
          "ticks": 3840,
          "time": 30.476192,
          "velocity": 0.7874015748031497
        },
        {
          "duration": 1.8461539999999985,
          "durationTicks": 240,
          "midi": 43,
          "name": "G2",
          "ticks": 4080,
          "time": 32.351192,
          "velocity": 0.7874015748031497
        },
        {
          "duration": 1.8461539999999985,
          "durationTicks": 240,
          "midi": 50,
          "name": "D3",
          "ticks": 4080,
          "time": 32.351192,
          "velocity": 0.7874015748031497
        },
        {
          "duration": 1.8461539999999985,
          "durationTicks": 240,
          "midi": 55,
          "name": "G3",
          "ticks": 4080,
          "time": 32.351192,
          "velocity": 0.7874015748031497
        },
        {
          "duration": 1.8181820000000002,
          "durationTicks": 240,
          "midi": 45,
          "name": "A2",
          "ticks": 4320,
          "time": 34.197345999999996,
          "velocity": 0.7874015748031497
        },
        {
          "duration": 1.8181820000000002,
          "durationTicks": 240,
          "midi": 52,
          "name": "E3",
          "ticks": 4320,
          "time": 34.197345999999996,
          "velocity": 0.7874015748031497
        },
        {
          "duration": 1.8181820000000002,
          "durationTicks": 240,
          "midi": 57,
          "name": "A3",
          "ticks": 4320,
          "time": 34.197345999999996,
          "velocity": 0.7874015748031497
        },
        {
          "duration": 1.7910439999999994,
          "durationTicks": 240,
          "midi": 40,
          "name": "E2",
          "ticks": 4560,
          "time": 36.015527999999996,
          "velocity": 0.7874015748031497
        },
        {
          "duration": 1.7910439999999994,
          "durationTicks": 240,
          "midi": 47,
          "name": "B2",
          "ticks": 4560,
          "time": 36.015527999999996,
          "velocity": 0.7874015748031497
        },
        {
          "duration": 1.7910439999999994,
          "durationTicks": 240,
          "midi": 52,
          "name": "E3",
          "ticks": 4560,
          "time": 36.015527999999996,
          "velocity": 0.7874015748031497
        },
        {
          "duration": 1.7647059999999968,
          "durationTicks": 240,
          "midi": 41,
          "name": "F2",
          "ticks": 4800,
          "time": 37.806571999999996,
          "velocity": 0.7874015748031497
        },
        {
          "duration": 1.7647059999999968,
          "durationTicks": 240,
          "midi": 48,
          "name": "C3",
          "ticks": 4800,
          "time": 37.806571999999996,
          "velocity": 0.7874015748031497
        },
        {
          "duration": 1.7647059999999968,
          "durationTicks": 240,
          "midi": 53,
          "name": "F3",
          "ticks": 4800,
          "time": 37.806571999999996,
          "velocity": 0.7874015748031497
        },
        {
          "duration": 1.7647060000000039,
          "durationTicks": 240,
          "midi": 36,
          "name": "C2",
          "ticks": 5040,
          "time": 39.57127799999999,
          "velocity": 0.7874015748031497
        },
        {
          "duration": 1.7647060000000039,
          "durationTicks": 240,
          "midi": 43,
          "name": "G2",
          "ticks": 5040,
          "time": 39.57127799999999,
          "velocity": 0.7874015748031497
        },
        {
          "duration": 1.7647060000000039,
          "durationTicks": 240,
          "midi": 48,
          "name": "C3",
          "ticks": 5040,
          "time": 39.57127799999999,
          "velocity": 0.7874015748031497
        },
        {
          "duration": 1.7647059999999968,
          "durationTicks": 240,
          "midi": 41,
          "name": "F2",
          "ticks": 5280,
          "time": 41.335983999999996,
          "velocity": 0.7874015748031497
        },
        {
          "duration": 1.7647059999999968,
          "durationTicks": 240,
          "midi": 48,
          "name": "C3",
          "ticks": 5280,
          "time": 41.335983999999996,
          "velocity": 0.7874015748031497
        },
        {
          "duration": 1.7647059999999968,
          "durationTicks": 240,
          "midi": 53,
          "name": "F3",
          "ticks": 5280,
          "time": 41.335983999999996,
          "velocity": 0.7874015748031497
        },
        {
          "duration": 1.7647060000000039,
          "durationTicks": 240,
          "midi": 43,
          "name": "G2",
          "ticks": 5520,
          "time": 43.10068999999999,
          "velocity": 0.7874015748031497
        },
        {
          "duration": 1.7647060000000039,
          "durationTicks": 240,
          "midi": 50,
          "name": "D3",
          "ticks": 5520,
          "time": 43.10068999999999,
          "velocity": 0.7874015748031497
        },
        {
          "duration": 1.7647060000000039,
          "durationTicks": 240,
          "midi": 55,
          "name": "G3",
          "ticks": 5520,
          "time": 43.10068999999999,
          "velocity": 0.7874015748031497
        },
        {
          "duration": 0.4411764999999974,
          "durationTicks": 60,
          "midi": 48,
          "name": "C3",
          "ticks": 5760,
          "time": 44.865396,
          "velocity": 0.7874015748031497
        },
        {
          "duration": 0.4411765000000045,
          "durationTicks": 60,
          "midi": 55,
          "name": "G3",
          "ticks": 5820,
          "time": 45.306572499999994,
          "velocity": 0.7874015748031497
        },
        {
          "duration": 2.6470589999999987,
          "durationTicks": 360,
          "midi": 60,
          "name": "C4",
          "ticks": 5880,
          "time": 45.747749,
          "velocity": 0.7874015748031497
        },
        {
          "duration": 0.4411764999999974,
          "durationTicks": 60,
          "midi": 43,
          "name": "G2",
          "ticks": 6000,
          "time": 46.630101999999994,
          "velocity": 0.7874015748031497
        },
        {
          "duration": 0.4411765000000045,
          "durationTicks": 60,
          "midi": 50,
          "name": "D3",
          "ticks": 6060,
          "time": 47.07127849999999,
          "velocity": 0.7874015748031497
        },
        {
          "duration": 2.6470589999999987,
          "durationTicks": 360,
          "midi": 55,
          "name": "G3",
          "ticks": 6120,
          "time": 47.512454999999996,
          "velocity": 0.7874015748031497
        },
        {
          "duration": 0.4411764999999974,
          "durationTicks": 60,
          "midi": 45,
          "name": "A2",
          "ticks": 6240,
          "time": 48.394808,
          "velocity": 0.7874015748031497
        },
        {
          "duration": 0.4411764999999974,
          "durationTicks": 60,
          "midi": 52,
          "name": "E3",
          "ticks": 6300,
          "time": 48.835984499999995,
          "velocity": 0.7874015748031497
        },
        {
          "duration": 2.6470589999999987,
          "durationTicks": 360,
          "midi": 60,
          "name": "C4",
          "ticks": 6360,
          "time": 49.27716099999999,
          "velocity": 0.7874015748031497
        },
        {
          "duration": 0.4411765000000045,
          "durationTicks": 60,
          "midi": 40,
          "name": "E2",
          "ticks": 6480,
          "time": 50.159513999999994,
          "velocity": 0.7874015748031497
        },
        {
          "duration": 0.4411764999999974,
          "durationTicks": 60,
          "midi": 47,
          "name": "B2",
          "ticks": 6540,
          "time": 50.6006905,
          "velocity": 0.7874015748031497
        },
        {
          "duration": 2.6470589999999987,
          "durationTicks": 360,
          "midi": 55,
          "name": "G3",
          "ticks": 6600,
          "time": 51.041866999999996,
          "velocity": 0.7874015748031497
        },
        {
          "duration": 0.4411765000000045,
          "durationTicks": 60,
          "midi": 41,
          "name": "F2",
          "ticks": 6720,
          "time": 51.92421999999999,
          "velocity": 0.7874015748031497
        },
        {
          "duration": 0.4411764999999974,
          "durationTicks": 60,
          "midi": 48,
          "name": "C3",
          "ticks": 6780,
          "time": 52.365396499999996,
          "velocity": 0.7874015748031497
        },
        {
          "duration": 2.647059000000006,
          "durationTicks": 360,
          "midi": 57,
          "name": "A3",
          "ticks": 6840,
          "time": 52.80657299999999,
          "velocity": 0.7874015748031497
        },
        {
          "duration": 0.4411764999999974,
          "durationTicks": 60,
          "midi": 48,
          "name": "C3",
          "ticks": 6960,
          "time": 53.688925999999995,
          "velocity": 0.7874015748031497
        },
        {
          "duration": 0.4411764999999974,
          "durationTicks": 60,
          "midi": 55,
          "name": "G3",
          "ticks": 7020,
          "time": 54.13010249999999,
          "velocity": 0.7874015748031497
        },
        {
          "duration": 2.647059000000006,
          "durationTicks": 360,
          "midi": 64,
          "name": "E4",
          "ticks": 7080,
          "time": 54.57127899999999,
          "velocity": 0.7874015748031497
        },
        {
          "duration": 0.4411764999999974,
          "durationTicks": 60,
          "midi": 41,
          "name": "F2",
          "ticks": 7200,
          "time": 55.453632,
          "velocity": 0.7874015748031497
        },
        {
          "duration": 0.4411764999999974,
          "durationTicks": 60,
          "midi": 48,
          "name": "C3",
          "ticks": 7260,
          "time": 55.894808499999996,
          "velocity": 0.7874015748031497
        },
        {
          "duration": 2.6470589999999987,
          "durationTicks": 360,
          "midi": 57,
          "name": "A3",
          "ticks": 7320,
          "time": 56.335984999999994,
          "velocity": 0.7874015748031497
        },
        {
          "duration": 0.4411764999999974,
          "durationTicks": 60,
          "midi": 43,
          "name": "G2",
          "ticks": 7440,
          "time": 57.218337999999996,
          "velocity": 0.7874015748031497
        },
        {
          "duration": 0.4411765000000045,
          "durationTicks": 60,
          "midi": 50,
          "name": "D3",
          "ticks": 7500,
          "time": 57.65951449999999,
          "velocity": 0.7874015748031497
        },
        {
          "duration": 2.6470589999999916,
          "durationTicks": 360,
          "midi": 59,
          "name": "B3",
          "ticks": 7560,
          "time": 58.100691,
          "velocity": 0.7874015748031497
        },
        {
          "duration": 0.4411764999999974,
          "durationTicks": 60,
          "midi": 48,
          "name": "C3",
          "ticks": 7680,
          "time": 58.98304399999999,
          "velocity": 0.7874015748031497
        },
        {
          "duration": 0.4411765000000045,
          "durationTicks": 60,
          "midi": 55,
          "name": "G3",
          "ticks": 7740,
          "time": 59.42422049999999,
          "velocity": 0.7874015748031497
        },
        {
          "duration": 2.630008333333329,
          "durationTicks": 360,
          "midi": 60,
          "name": "C4",
          "ticks": 7800,
          "time": 59.865396999999994,
          "velocity": 0.7874015748031497
        },
        {
          "duration": 0.4411765000000045,
          "durationTicks": 60,
          "midi": 43,
          "name": "G2",
          "ticks": 7920,
          "time": 60.74774999999999,
          "velocity": 0.7874015748031497
        },
        {
          "duration": 0.43691383333333533,
          "durationTicks": 60,
          "midi": 50,
          "name": "D3",
          "ticks": 7980,
          "time": 61.188926499999994,
          "velocity": 0.7874015748031497
        },
        {
          "duration": 2.6006206999999932,
          "durationTicks": 360,
          "midi": 59,
          "name": "B3",
          "ticks": 8040,
          "time": 61.62584033333333,
          "velocity": 0.7874015748031497
        },
        {
          "duration": 0.4347825000000043,
          "durationTicks": 60,
          "midi": 45,
          "name": "A2",
          "ticks": 8160,
          "time": 62.49540533333332,
          "velocity": 0.7874015748031497
        },
        {
          "duration": 0.4347824999999972,
          "durationTicks": 60,
          "midi": 52,
          "name": "E3",
          "ticks": 8220,
          "time": 62.93018783333333,
          "velocity": 0.7874015748031497
        },
        {
          "duration": 0.4329191999999935,
          "durationTicks": 60,
          "midi": 60,
          "name": "C4",
          "ticks": 8280,
          "time": 63.364970333333325,
          "velocity": 0.7874015748031497
        },
        {
          "duration": 0.4285715000000039,
          "durationTicks": 60,
          "midi": 52,
          "name": "E3",
          "ticks": 8340,
          "time": 63.79788953333332,
          "velocity": 0.7874015748031497
        },
        {
          "duration": 0.42857149999998967,
          "durationTicks": 60,
          "midi": 40,
          "name": "E2",
          "ticks": 8400,
          "time": 64.22646103333332,
          "velocity": 0.7874015748031497
        },
        {
          "duration": 0.4285715000000039,
          "durationTicks": 60,
          "midi": 47,
          "name": "B2",
          "ticks": 8460,
          "time": 64.65503253333331,
          "velocity": 0.7874015748031497
        },
        {
          "duration": 0.4285715000000039,
          "durationTicks": 60,
          "midi": 55,
          "name": "G3",
          "ticks": 8520,
          "time": 65.08360403333332,
          "velocity": 0.7874015748031497
        },
        {
          "duration": 0.42857149999998967,
          "durationTicks": 60,
          "midi": 47,
          "name": "B2",
          "ticks": 8580,
          "time": 65.51217553333332,
          "velocity": 0.7874015748031497
        },
        {
          "duration": 0.42273621666667793,
          "durationTicks": 60,
          "midi": 41,
          "name": "F2",
          "ticks": 8640,
          "time": 65.94074703333331,
          "velocity": 0.7874015748031497
        },
        {
          "duration": 0.42253499999999633,
          "durationTicks": 60,
          "midi": 48,
          "name": "C3",
          "ticks": 8700,
          "time": 66.36348324999999,
          "velocity": 0.7874015748031497
        },
        {
          "duration": 0.42253499999999633,
          "durationTicks": 60,
          "midi": 57,
          "name": "A3",
          "ticks": 8760,
          "time": 66.78601824999998,
          "velocity": 0.7874015748031497
        },
        {
          "duration": 0.42253500000001054,
          "durationTicks": 60,
          "midi": 48,
          "name": "C3",
          "ticks": 8820,
          "time": 67.20855324999998,
          "velocity": 0.7874015748031497
        },
        {
          "duration": 0.42253499999999633,
          "durationTicks": 60,
          "midi": 48,
          "name": "C3",
          "ticks": 8880,
          "time": 67.63108824999999,
          "velocity": 0.7874015748031497
        },
        {
          "duration": 0.42253499999999633,
          "durationTicks": 60,
          "midi": 55,
          "name": "G3",
          "ticks": 8940,
          "time": 68.05362324999999,
          "velocity": 0.7874015748031497
        },
        {
          "duration": 0.42253500000001054,
          "durationTicks": 60,
          "midi": 64,
          "name": "E4",
          "ticks": 9000,
          "time": 68.47615824999998,
          "velocity": 0.7874015748031497
        },
        {
          "duration": 0.42253499999999633,
          "durationTicks": 60,
          "midi": 55,
          "name": "G3",
          "ticks": 9060,
          "time": 68.89869325,
          "velocity": 0.7874015748031497
        },
        {
          "duration": 0.42253499999999633,
          "durationTicks": 60,
          "midi": 41,
          "name": "F2",
          "ticks": 9120,
          "time": 69.32122824999999,
          "velocity": 0.7874015748031497
        },
        {
          "duration": 0.42253499999999633,
          "durationTicks": 60,
          "midi": 48,
          "name": "C3",
          "ticks": 9180,
          "time": 69.74376324999999,
          "velocity": 0.7874015748031497
        },
        {
          "duration": 0.42253500000001054,
          "durationTicks": 60,
          "midi": 57,
          "name": "A3",
          "ticks": 9240,
          "time": 70.16629824999998,
          "velocity": 0.7874015748031497
        },
        {
          "duration": 0.42253499999999633,
          "durationTicks": 60,
          "midi": 48,
          "name": "C3",
          "ticks": 9300,
          "time": 70.58883325,
          "velocity": 0.7874015748031497
        },
        {
          "duration": 0.42253499999999633,
          "durationTicks": 60,
          "midi": 43,
          "name": "G2",
          "ticks": 9360,
          "time": 71.01136824999999,
          "velocity": 0.7874015748031497
        },
        {
          "duration": 0.42253499999999633,
          "durationTicks": 60,
          "midi": 50,
          "name": "D3",
          "ticks": 9420,
          "time": 71.43390324999999,
          "velocity": 0.7874015748031497
        },
        {
          "duration": 0.42253500000001054,
          "durationTicks": 60,
          "midi": 59,
          "name": "B3",
          "ticks": 9480,
          "time": 71.85643824999998,
          "velocity": 0.7874015748031497
        },
        {
          "duration": 0.42253499999999633,
          "durationTicks": 60,
          "midi": 50,
          "name": "D3",
          "ticks": 9540,
          "time": 72.27897324999999,
          "velocity": 0.7874015748031497
        },
        {
          "duration": 0.8450699999999927,
          "durationTicks": 120,
          "midi": 36,
          "name": "C2",
          "ticks": 9600,
          "time": 72.70150824999999,
          "velocity": 0.7874015748031497
        },
        {
          "duration": 0.42253499999999633,
          "durationTicks": 60,
          "midi": 48,
          "name": "C3",
          "ticks": 9600,
          "time": 72.70150824999999,
          "velocity": 0.7874015748031497
        },
        {
          "duration": 0.42253499999999633,
          "durationTicks": 60,
          "midi": 52,
          "name": "E3",
          "ticks": 9660,
          "time": 73.12404324999999,
          "velocity": 0.7874015748031497
        },
        {
          "duration": 0.42253500000001054,
          "durationTicks": 60,
          "midi": 55,
          "name": "G3",
          "ticks": 9720,
          "time": 73.54657824999998,
          "velocity": 0.7874015748031497
        },
        {
          "duration": 0.42253499999999633,
          "durationTicks": 60,
          "midi": 60,
          "name": "C4",
          "ticks": 9780,
          "time": 73.96911324999999,
          "velocity": 0.7874015748031497
        },
        {
          "duration": 0.42253499999999633,
          "durationTicks": 60,
          "midi": 43,
          "name": "G2",
          "ticks": 9840,
          "time": 74.39164824999999,
          "velocity": 0.7874015748031497
        },
        {
          "duration": 0.42253499999999633,
          "durationTicks": 60,
          "midi": 50,
          "name": "D3",
          "ticks": 9900,
          "time": 74.81418324999999,
          "velocity": 0.7874015748031497
        },
        {
          "duration": 0.42253500000001054,
          "durationTicks": 60,
          "midi": 55,
          "name": "G3",
          "ticks": 9960,
          "time": 75.23671824999998,
          "velocity": 0.7874015748031497
        },
        {
          "duration": 0.42253499999999633,
          "durationTicks": 60,
          "midi": 59,
          "name": "B3",
          "ticks": 10020,
          "time": 75.65925324999999,
          "velocity": 0.7874015748031497
        },
        {
          "duration": 0.42253499999999633,
          "durationTicks": 60,
          "midi": 45,
          "name": "A2",
          "ticks": 10080,
          "time": 76.08178824999999,
          "velocity": 0.7874015748031497
        },
        {
          "duration": 0.42253499999999633,
          "durationTicks": 60,
          "midi": 52,
          "name": "E3",
          "ticks": 10140,
          "time": 76.50432324999998,
          "velocity": 0.7874015748031497
        },
        {
          "duration": 0.42253500000001054,
          "durationTicks": 60,
          "midi": 57,
          "name": "A3",
          "ticks": 10200,
          "time": 76.92685824999998,
          "velocity": 0.7874015748031497
        },
        {
          "duration": 0.42253499999999633,
          "durationTicks": 60,
          "midi": 60,
          "name": "C4",
          "ticks": 10260,
          "time": 77.34939324999999,
          "velocity": 0.7874015748031497
        },
        {
          "duration": 0.8450700000000069,
          "durationTicks": 120,
          "midi": 40,
          "name": "E2",
          "ticks": 10320,
          "time": 77.77192824999999,
          "velocity": 0.7874015748031497
        },
        {
          "duration": 0.42253499999999633,
          "durationTicks": 60,
          "midi": 52,
          "name": "E3",
          "ticks": 10320,
          "time": 77.77192824999999,
          "velocity": 0.7874015748031497
        },
        {
          "duration": 0.42253500000001054,
          "durationTicks": 60,
          "midi": 55,
          "name": "G3",
          "ticks": 10380,
          "time": 78.19446324999998,
          "velocity": 0.7874015748031497
        },
        {
          "duration": 0.42253499999999633,
          "durationTicks": 60,
          "midi": 59,
          "name": "B3",
          "ticks": 10440,
          "time": 78.61699825,
          "velocity": 0.7874015748031497
        },
        {
          "duration": 0.42253499999999633,
          "durationTicks": 60,
          "midi": 64,
          "name": "E4",
          "ticks": 10500,
          "time": 79.03953324999999,
          "velocity": 0.7874015748031497
        },
        {
          "duration": 0.42253499999999633,
          "durationTicks": 60,
          "midi": 41,
          "name": "F2",
          "ticks": 10560,
          "time": 79.46206824999999,
          "velocity": 0.7874015748031497
        },
        {
          "duration": 0.42253500000001054,
          "durationTicks": 60,
          "midi": 53,
          "name": "F3",
          "ticks": 10620,
          "time": 79.88460324999998,
          "velocity": 0.7874015748031497
        },
        {
          "duration": 0.42253499999999633,
          "durationTicks": 60,
          "midi": 57,
          "name": "A3",
          "ticks": 10680,
          "time": 80.30713825,
          "velocity": 0.7874015748031497
        },
        {
          "duration": 0.42253499999999633,
          "durationTicks": 60,
          "midi": 60,
          "name": "C4",
          "ticks": 10740,
          "time": 80.72967324999999,
          "velocity": 0.7874015748031497
        },
        {
          "duration": 0.8450700000000069,
          "durationTicks": 120,
          "midi": 36,
          "name": "C2",
          "ticks": 10800,
          "time": 81.15220824999999,
          "velocity": 0.7874015748031497
        },
        {
          "duration": 0.42253499999999633,
          "durationTicks": 60,
          "midi": 48,
          "name": "C3",
          "ticks": 10800,
          "time": 81.15220824999999,
          "velocity": 0.7874015748031497
        },
        {
          "duration": 0.42253500000001054,
          "durationTicks": 60,
          "midi": 55,
          "name": "G3",
          "ticks": 10860,
          "time": 81.57474324999998,
          "velocity": 0.7874015748031497
        },
        {
          "duration": 0.42253499999999633,
          "durationTicks": 60,
          "midi": 60,
          "name": "C4",
          "ticks": 10920,
          "time": 81.99727825,
          "velocity": 0.7874015748031497
        },
        {
          "duration": 0.42253499999999633,
          "durationTicks": 60,
          "midi": 64,
          "name": "E4",
          "ticks": 10980,
          "time": 82.41981324999999,
          "velocity": 0.7874015748031497
        },
        {
          "duration": 0.42253500000001054,
          "durationTicks": 60,
          "midi": 41,
          "name": "F2",
          "ticks": 11040,
          "time": 82.84234824999999,
          "velocity": 0.7874015748031497
        },
        {
          "duration": 0.42253499999999633,
          "durationTicks": 60,
          "midi": 50,
          "name": "D3",
          "ticks": 11100,
          "time": 83.26488325,
          "velocity": 0.7874015748031497
        },
        {
          "duration": 0.42253499999999633,
          "durationTicks": 60,
          "midi": 57,
          "name": "A3",
          "ticks": 11160,
          "time": 83.68741825,
          "velocity": 0.7874015748031497
        },
        {
          "duration": 0.42253499999999633,
          "durationTicks": 60,
          "midi": 60,
          "name": "C4",
          "ticks": 11220,
          "time": 84.10995324999999,
          "velocity": 0.7874015748031497
        },
        {
          "duration": 0.42253499999999633,
          "durationTicks": 60,
          "midi": 43,
          "name": "G2",
          "ticks": 11280,
          "time": 84.53248824999999,
          "velocity": 0.7874015748031497
        },
        {
          "duration": 0.42253500000001054,
          "durationTicks": 60,
          "midi": 50,
          "name": "D3",
          "ticks": 11340,
          "time": 84.95502324999998,
          "velocity": 0.7874015748031497
        },
        {
          "duration": 0.42253499999999633,
          "durationTicks": 60,
          "midi": 55,
          "name": "G3",
          "ticks": 11400,
          "time": 85.37755824999999,
          "velocity": 0.7874015748031497
        },
        {
          "duration": 0.42253499999999633,
          "durationTicks": 60,
          "midi": 59,
          "name": "B3",
          "ticks": 11460,
          "time": 85.80009324999999,
          "velocity": 0.7874015748031497
        },
        {
          "duration": 0.8450700000000069,
          "durationTicks": 120,
          "midi": 36,
          "name": "C2",
          "ticks": 11520,
          "time": 86.22262824999999,
          "velocity": 0.7874015748031497
        },
        {
          "duration": 0.42253500000001054,
          "durationTicks": 60,
          "midi": 48,
          "name": "C3",
          "ticks": 11520,
          "time": 86.22262824999999,
          "velocity": 0.7874015748031497
        },
        {
          "duration": 0.42253499999999633,
          "durationTicks": 60,
          "midi": 55,
          "name": "G3",
          "ticks": 11580,
          "time": 86.64516325,
          "velocity": 0.7874015748031497
        },
        {
          "duration": 0.42253499999999633,
          "durationTicks": 60,
          "midi": 60,
          "name": "C4",
          "ticks": 11640,
          "time": 87.06769824999999,
          "velocity": 0.7874015748031497
        },
        {
          "duration": 0.42253499999999633,
          "durationTicks": 60,
          "midi": 64,
          "name": "E4",
          "ticks": 11700,
          "time": 87.49023324999999,
          "velocity": 0.7874015748031497
        },
        {
          "duration": 0.42253499999999633,
          "durationTicks": 60,
          "midi": 43,
          "name": "G2",
          "ticks": 11760,
          "time": 87.91276824999998,
          "velocity": 0.7874015748031497
        },
        {
          "duration": 0.42253500000001054,
          "durationTicks": 60,
          "midi": 55,
          "name": "G3",
          "ticks": 11820,
          "time": 88.33530324999998,
          "velocity": 0.7874015748031497
        },
        {
          "duration": 0.42253499999999633,
          "durationTicks": 60,
          "midi": 59,
          "name": "B3",
          "ticks": 11880,
          "time": 88.75783824999999,
          "velocity": 0.7874015748031497
        },
        {
          "duration": 0.42253499999999633,
          "durationTicks": 60,
          "midi": 62,
          "name": "D4",
          "ticks": 11940,
          "time": 89.18037324999999,
          "velocity": 0.7874015748031497
        },
        {
          "duration": 0.42253500000001054,
          "durationTicks": 60,
          "midi": 45,
          "name": "A2",
          "ticks": 12000,
          "time": 89.60290824999998,
          "velocity": 0.7874015748031497
        },
        {
          "duration": 0.42253499999999633,
          "durationTicks": 60,
          "midi": 52,
          "name": "E3",
          "ticks": 12060,
          "time": 90.02544325,
          "velocity": 0.7874015748031497
        },
        {
          "duration": 0.42253499999999633,
          "durationTicks": 60,
          "midi": 57,
          "name": "A3",
          "ticks": 12120,
          "time": 90.44797824999999,
          "velocity": 0.7874015748031497
        },
        {
          "duration": 0.42253500000001054,
          "durationTicks": 60,
          "midi": 60,
          "name": "C4",
          "ticks": 12180,
          "time": 90.87051324999999,
          "velocity": 0.7874015748031497
        },
        {
          "duration": 0.42253499999999633,
          "durationTicks": 60,
          "midi": 40,
          "name": "E2",
          "ticks": 12240,
          "time": 91.29304825,
          "velocity": 0.7874015748031497
        },
        {
          "duration": 0.42253499999999633,
          "durationTicks": 60,
          "midi": 52,
          "name": "E3",
          "ticks": 12300,
          "time": 91.71558325,
          "velocity": 0.7874015748031497
        },
        {
          "duration": 0.42253499999999633,
          "durationTicks": 60,
          "midi": 55,
          "name": "G3",
          "ticks": 12360,
          "time": 92.13811824999999,
          "velocity": 0.7874015748031497
        },
        {
          "duration": 0.42253499999999633,
          "durationTicks": 60,
          "midi": 59,
          "name": "B3",
          "ticks": 12420,
          "time": 92.56065324999999,
          "velocity": 0.7874015748031497
        },
        {
          "duration": 0.42253500000001054,
          "durationTicks": 60,
          "midi": 41,
          "name": "F2",
          "ticks": 12480,
          "time": 92.98318824999998,
          "velocity": 0.7874015748031497
        },
        {
          "duration": 0.42253499999999633,
          "durationTicks": 60,
          "midi": 48,
          "name": "C3",
          "ticks": 12540,
          "time": 93.40572325,
          "velocity": 0.7874015748031497
        },
        {
          "duration": 0.42253499999999633,
          "durationTicks": 60,
          "midi": 52,
          "name": "E3",
          "ticks": 12600,
          "time": 93.82825824999999,
          "velocity": 0.7874015748031497
        },
        {
          "duration": 0.42253500000001054,
          "durationTicks": 60,
          "midi": 57,
          "name": "A3",
          "ticks": 12660,
          "time": 94.25079324999999,
          "velocity": 0.7874015748031497
        },
        {
          "duration": 0.8450699999999927,
          "durationTicks": 120,
          "midi": 36,
          "name": "C2",
          "ticks": 12720,
          "time": 94.67332825,
          "velocity": 0.7874015748031497
        },
        {
          "duration": 0.42253499999999633,
          "durationTicks": 60,
          "midi": 48,
          "name": "C3",
          "ticks": 12720,
          "time": 94.67332825,
          "velocity": 0.7874015748031497
        },
        {
          "duration": 0.42253499999999633,
          "durationTicks": 60,
          "midi": 52,
          "name": "E3",
          "ticks": 12780,
          "time": 95.09586325,
          "velocity": 0.7874015748031497
        },
        {
          "duration": 0.42253499999999633,
          "durationTicks": 60,
          "midi": 55,
          "name": "G3",
          "ticks": 12840,
          "time": 95.51839824999999,
          "velocity": 0.7874015748031497
        },
        {
          "duration": 0.42253499999999633,
          "durationTicks": 60,
          "midi": 60,
          "name": "C4",
          "ticks": 12900,
          "time": 95.94093324999999,
          "velocity": 0.7874015748031497
        },
        {
          "duration": 0.42253500000001054,
          "durationTicks": 60,
          "midi": 41,
          "name": "F2",
          "ticks": 12960,
          "time": 96.36346824999998,
          "velocity": 0.7874015748031497
        },
        {
          "duration": 0.42253499999999633,
          "durationTicks": 60,
          "midi": 53,
          "name": "F3",
          "ticks": 13020,
          "time": 96.78600325,
          "velocity": 0.7874015748031497
        },
        {
          "duration": 0.42253499999999633,
          "durationTicks": 60,
          "midi": 57,
          "name": "A3",
          "ticks": 13080,
          "time": 97.20853824999999,
          "velocity": 0.7874015748031497
        },
        {
          "duration": 0.42253500000001054,
          "durationTicks": 60,
          "midi": 60,
          "name": "C4",
          "ticks": 13140,
          "time": 97.63107324999999,
          "velocity": 0.7874015748031497
        },
        {
          "duration": 0.42253499999999633,
          "durationTicks": 60,
          "midi": 43,
          "name": "G2",
          "ticks": 13200,
          "time": 98.05360825,
          "velocity": 0.7874015748031497
        },
        {
          "duration": 0.42253499999999633,
          "durationTicks": 60,
          "midi": 50,
          "name": "D3",
          "ticks": 13260,
          "time": 98.47614324999999,
          "velocity": 0.7874015748031497
        },
        {
          "duration": 0.42253500000001054,
          "durationTicks": 60,
          "midi": 55,
          "name": "G3",
          "ticks": 13320,
          "time": 98.89867824999999,
          "velocity": 0.7874015748031497
        },
        {
          "duration": 0.4225349999999821,
          "durationTicks": 60,
          "midi": 59,
          "name": "B3",
          "ticks": 13380,
          "time": 99.32121325,
          "velocity": 0.7874015748031497
        },
        {
          "duration": 0.8333329999999961,
          "durationTicks": 120,
          "midi": 36,
          "name": "C2",
          "ticks": 13440,
          "time": 99.74374824999998,
          "velocity": 0.7874015748031497
        },
        {
          "duration": 0.41666650000000516,
          "durationTicks": 60,
          "midi": 48,
          "name": "C3",
          "ticks": 13440,
          "time": 99.74374824999998,
          "velocity": 0.7874015748031497
        },
        {
          "duration": 0.41666649999999095,
          "durationTicks": 60,
          "midi": 55,
          "name": "G3",
          "ticks": 13500,
          "time": 100.16041474999999,
          "velocity": 0.7874015748031497
        },
        {
          "duration": 0.41666650000000516,
          "durationTicks": 60,
          "midi": 60,
          "name": "C4",
          "ticks": 13560,
          "time": 100.57708124999998,
          "velocity": 0.7874015748031497
        },
        {
          "duration": 0.41666650000000516,
          "durationTicks": 60,
          "midi": 64,
          "name": "E4",
          "ticks": 13620,
          "time": 100.99374774999998,
          "velocity": 0.7874015748031497
        },
        {
          "duration": 0.41666649999999095,
          "durationTicks": 60,
          "midi": 43,
          "name": "G2",
          "ticks": 13680,
          "time": 101.41041424999999,
          "velocity": 0.7874015748031497
        },
        {
          "duration": 0.41666650000000516,
          "durationTicks": 60,
          "midi": 55,
          "name": "G3",
          "ticks": 13740,
          "time": 101.82708074999998,
          "velocity": 0.7874015748031497
        },
        {
          "duration": 0.41666649999999095,
          "durationTicks": 60,
          "midi": 59,
          "name": "B3",
          "ticks": 13800,
          "time": 102.24374724999998,
          "velocity": 0.7874015748031497
        },
        {
          "duration": 0.41666650000000516,
          "durationTicks": 60,
          "midi": 62,
          "name": "D4",
          "ticks": 13860,
          "time": 102.66041374999998,
          "velocity": 0.7874015748031497
        },
        {
          "duration": 0.41666650000000516,
          "durationTicks": 60,
          "midi": 45,
          "name": "A2",
          "ticks": 13920,
          "time": 103.07708024999998,
          "velocity": 0.7874015748031497
        },
        {
          "duration": 0.41666649999999095,
          "durationTicks": 60,
          "midi": 52,
          "name": "E3",
          "ticks": 13980,
          "time": 103.49374674999999,
          "velocity": 0.7874015748031497
        },
        {
          "duration": 0.41666650000000516,
          "durationTicks": 60,
          "midi": 57,
          "name": "A3",
          "ticks": 14040,
          "time": 103.91041324999998,
          "velocity": 0.7874015748031497
        },
        {
          "duration": 0.41666650000000516,
          "durationTicks": 60,
          "midi": 60,
          "name": "C4",
          "ticks": 14100,
          "time": 104.32707974999998,
          "velocity": 0.7874015748031497
        },
        {
          "duration": 0.4109590000000054,
          "durationTicks": 60,
          "midi": 40,
          "name": "E2",
          "ticks": 14160,
          "time": 104.74374624999999,
          "velocity": 0.7874015748031497
        },
        {
          "duration": 0.4109589999999912,
          "durationTicks": 60,
          "midi": 52,
          "name": "E3",
          "ticks": 14220,
          "time": 105.15470524999999,
          "velocity": 0.7874015748031497
        },
        {
          "duration": 0.4109590000000054,
          "durationTicks": 60,
          "midi": 55,
          "name": "G3",
          "ticks": 14280,
          "time": 105.56566424999998,
          "velocity": 0.7874015748031497
        },
        {
          "duration": 0.4109589999999912,
          "durationTicks": 60,
          "midi": 59,
          "name": "B3",
          "ticks": 14340,
          "time": 105.97662324999999,
          "velocity": 0.7874015748031497
        },
        {
          "duration": 0.4109590000000054,
          "durationTicks": 60,
          "midi": 41,
          "name": "F2",
          "ticks": 14400,
          "time": 106.38758224999998,
          "velocity": 0.7874015748031497
        },
        {
          "duration": 0.4109590000000054,
          "durationTicks": 60,
          "midi": 48,
          "name": "C3",
          "ticks": 14460,
          "time": 106.79854124999999,
          "velocity": 0.7874015748031497
        },
        {
          "duration": 0.4109589999999912,
          "durationTicks": 60,
          "midi": 52,
          "name": "E3",
          "ticks": 14520,
          "time": 107.20950024999999,
          "velocity": 0.7874015748031497
        },
        {
          "duration": 0.4109590000000054,
          "durationTicks": 60,
          "midi": 57,
          "name": "A3",
          "ticks": 14580,
          "time": 107.62045924999998,
          "velocity": 0.7874015748031497
        },
        {
          "duration": 0.8219179999999966,
          "durationTicks": 120,
          "midi": 36,
          "name": "C2",
          "ticks": 14640,
          "time": 108.03141824999999,
          "velocity": 0.7874015748031497
        },
        {
          "duration": 0.4109590000000054,
          "durationTicks": 60,
          "midi": 48,
          "name": "C3",
          "ticks": 14640,
          "time": 108.03141824999999,
          "velocity": 0.7874015748031497
        },
        {
          "duration": 0.4109589999999912,
          "durationTicks": 60,
          "midi": 52,
          "name": "E3",
          "ticks": 14700,
          "time": 108.44237724999999,
          "velocity": 0.7874015748031497
        },
        {
          "duration": 0.4109590000000054,
          "durationTicks": 60,
          "midi": 55,
          "name": "G3",
          "ticks": 14760,
          "time": 108.85333624999998,
          "velocity": 0.7874015748031497
        },
        {
          "duration": 0.4109589999999912,
          "durationTicks": 60,
          "midi": 60,
          "name": "C4",
          "ticks": 14820,
          "time": 109.26429524999999,
          "velocity": 0.7874015748031497
        },
        {
          "duration": 0.4109590000000054,
          "durationTicks": 60,
          "midi": 41,
          "name": "F2",
          "ticks": 14880,
          "time": 109.67525424999998,
          "velocity": 0.7874015748031497
        },
        {
          "duration": 0.4109590000000054,
          "durationTicks": 60,
          "midi": 50,
          "name": "D3",
          "ticks": 14940,
          "time": 110.08621324999999,
          "velocity": 0.7874015748031497
        },
        {
          "duration": 0.4109589999999912,
          "durationTicks": 60,
          "midi": 57,
          "name": "A3",
          "ticks": 15000,
          "time": 110.49717224999999,
          "velocity": 0.7874015748031497
        },
        {
          "duration": 0.4109590000000054,
          "durationTicks": 60,
          "midi": 60,
          "name": "C4",
          "ticks": 15060,
          "time": 110.90813124999998,
          "velocity": 0.7874015748031497
        },
        {
          "duration": 0.4109589999999912,
          "durationTicks": 60,
          "midi": 43,
          "name": "G2",
          "ticks": 15120,
          "time": 111.31909024999999,
          "velocity": 0.7874015748031497
        },
        {
          "duration": 0.4109590000000054,
          "durationTicks": 60,
          "midi": 50,
          "name": "D3",
          "ticks": 15180,
          "time": 111.73004924999998,
          "velocity": 0.7874015748031497
        },
        {
          "duration": 0.4109590000000054,
          "durationTicks": 60,
          "midi": 55,
          "name": "G3",
          "ticks": 15240,
          "time": 112.14100824999998,
          "velocity": 0.7874015748031497
        },
        {
          "duration": 0.4109589999999912,
          "durationTicks": 60,
          "midi": 59,
          "name": "B3",
          "ticks": 15300,
          "time": 112.55196724999999,
          "velocity": 0.7874015748031497
        },
        {
          "duration": 0.4109590000000054,
          "durationTicks": 60,
          "midi": 36,
          "name": "C2",
          "ticks": 15360,
          "time": 112.96292624999998,
          "velocity": 0.7874015748031497
        },
        {
          "duration": 0.4109590000000054,
          "durationTicks": 60,
          "midi": 48,
          "name": "C3",
          "ticks": 15360,
          "time": 112.96292624999998,
          "velocity": 0.7874015748031497
        },
        {
          "duration": 0.4109590000000054,
          "durationTicks": 60,
          "midi": 55,
          "name": "G3",
          "ticks": 15420,
          "time": 113.37388524999999,
          "velocity": 0.7874015748031497
        },
        {
          "duration": 0.4109589999999912,
          "durationTicks": 60,
          "midi": 60,
          "name": "C4",
          "ticks": 15480,
          "time": 113.78484424999999,
          "velocity": 0.7874015748031497
        },
        {
          "duration": 0.4109590000000054,
          "durationTicks": 60,
          "midi": 64,
          "name": "E4",
          "ticks": 15540,
          "time": 114.19580324999998,
          "velocity": 0.7874015748031497
        },
        {
          "duration": 0.4109589999999912,
          "durationTicks": 60,
          "midi": 43,
          "name": "G2",
          "ticks": 15600,
          "time": 114.60676224999999,
          "velocity": 0.7874015748031497
        },
        {
          "duration": 0.4109590000000054,
          "durationTicks": 60,
          "midi": 55,
          "name": "G3",
          "ticks": 15660,
          "time": 115.01772124999998,
          "velocity": 0.7874015748031497
        },
        {
          "duration": 0.4109590000000054,
          "durationTicks": 60,
          "midi": 59,
          "name": "B3",
          "ticks": 15720,
          "time": 115.42868024999999,
          "velocity": 0.7874015748031497
        },
        {
          "duration": 0.4109589999999912,
          "durationTicks": 60,
          "midi": 62,
          "name": "D4",
          "ticks": 15780,
          "time": 115.83963924999999,
          "velocity": 0.7874015748031497
        },
        {
          "duration": 0.4109590000000054,
          "durationTicks": 60,
          "midi": 45,
          "name": "A2",
          "ticks": 15840,
          "time": 116.25059824999998,
          "velocity": 0.7874015748031497
        },
        {
          "duration": 0.4109589999999912,
          "durationTicks": 60,
          "midi": 52,
          "name": "E3",
          "ticks": 15900,
          "time": 116.66155724999999,
          "velocity": 0.7874015748031497
        },
        {
          "duration": 0.4109590000000054,
          "durationTicks": 60,
          "midi": 57,
          "name": "A3",
          "ticks": 15960,
          "time": 117.07251624999998,
          "velocity": 0.7874015748031497
        },
        {
          "duration": 0.4109590000000054,
          "durationTicks": 60,
          "midi": 60,
          "name": "C4",
          "ticks": 16020,
          "time": 117.48347524999998,
          "velocity": 0.7874015748031497
        },
        {
          "duration": 0.4109589999999912,
          "durationTicks": 60,
          "midi": 40,
          "name": "E2",
          "ticks": 16080,
          "time": 117.89443424999999,
          "velocity": 0.7874015748031497
        },
        {
          "duration": 0.4109590000000054,
          "durationTicks": 60,
          "midi": 52,
          "name": "E3",
          "ticks": 16140,
          "time": 118.30539324999998,
          "velocity": 0.7874015748031497
        },
        {
          "duration": 0.4109590000000054,
          "durationTicks": 60,
          "midi": 55,
          "name": "G3",
          "ticks": 16200,
          "time": 118.71635224999999,
          "velocity": 0.7874015748031497
        },
        {
          "duration": 0.4109589999999912,
          "durationTicks": 60,
          "midi": 59,
          "name": "B3",
          "ticks": 16260,
          "time": 119.12731124999999,
          "velocity": 0.7874015748031497
        },
        {
          "duration": 0.4109590000000054,
          "durationTicks": 60,
          "midi": 41,
          "name": "F2",
          "ticks": 16320,
          "time": 119.53827024999998,
          "velocity": 0.7874015748031497
        },
        {
          "duration": 0.4109590000000054,
          "durationTicks": 60,
          "midi": 53,
          "name": "F3",
          "ticks": 16380,
          "time": 119.94922924999999,
          "velocity": 0.7874015748031497
        },
        {
          "duration": 0.4109589999999912,
          "durationTicks": 60,
          "midi": 57,
          "name": "A3",
          "ticks": 16440,
          "time": 120.36018825,
          "velocity": 0.7874015748031497
        },
        {
          "duration": 0.4109590000000054,
          "durationTicks": 60,
          "midi": 60,
          "name": "C4",
          "ticks": 16500,
          "time": 120.77114724999998,
          "velocity": 0.7874015748031497
        },
        {
          "duration": 0.4109589999999912,
          "durationTicks": 60,
          "midi": 36,
          "name": "C2",
          "ticks": 16560,
          "time": 121.18210624999999,
          "velocity": 0.7874015748031497
        },
        {
          "duration": 0.4109589999999912,
          "durationTicks": 60,
          "midi": 48,
          "name": "C3",
          "ticks": 16560,
          "time": 121.18210624999999,
          "velocity": 0.7874015748031497
        },
        {
          "duration": 0.4109590000000054,
          "durationTicks": 60,
          "midi": 52,
          "name": "E3",
          "ticks": 16620,
          "time": 121.59306524999998,
          "velocity": 0.7874015748031497
        },
        {
          "duration": 0.4109589999999912,
          "durationTicks": 60,
          "midi": 55,
          "name": "G3",
          "ticks": 16680,
          "time": 122.00402424999999,
          "velocity": 0.7874015748031497
        },
        {
          "duration": 0.4109590000000054,
          "durationTicks": 60,
          "midi": 60,
          "name": "C4",
          "ticks": 16740,
          "time": 122.41498324999998,
          "velocity": 0.7874015748031497
        },
        {
          "duration": 0.4109590000000054,
          "durationTicks": 60,
          "midi": 41,
          "name": "F2",
          "ticks": 16800,
          "time": 122.82594224999998,
          "velocity": 0.7874015748031497
        },
        {
          "duration": 0.4109589999999912,
          "durationTicks": 60,
          "midi": 53,
          "name": "F3",
          "ticks": 16860,
          "time": 123.23690124999999,
          "velocity": 0.7874015748031497
        },
        {
          "duration": 0.4109590000000054,
          "durationTicks": 60,
          "midi": 57,
          "name": "A3",
          "ticks": 16920,
          "time": 123.64786024999998,
          "velocity": 0.7874015748031497
        },
        {
          "duration": 0.4109590000000054,
          "durationTicks": 60,
          "midi": 60,
          "name": "C4",
          "ticks": 16980,
          "time": 124.05881924999998,
          "velocity": 0.7874015748031497
        },
        {
          "duration": 0.4109589999999912,
          "durationTicks": 60,
          "midi": 43,
          "name": "G2",
          "ticks": 17040,
          "time": 124.46977824999999,
          "velocity": 0.7874015748031497
        },
        {
          "duration": 0.4109590000000054,
          "durationTicks": 60,
          "midi": 55,
          "name": "G3",
          "ticks": 17100,
          "time": 124.88073724999998,
          "velocity": 0.7874015748031497
        },
        {
          "duration": 0.4109590000000054,
          "durationTicks": 60,
          "midi": 59,
          "name": "B3",
          "ticks": 17160,
          "time": 125.29169624999999,
          "velocity": 0.7874015748031497
        },
        {
          "duration": 0.4109589999999912,
          "durationTicks": 60,
          "midi": 62,
          "name": "D4",
          "ticks": 17220,
          "time": 125.70265524999999,
          "velocity": 0.7874015748031497
        },
        {
          "duration": 0.4109590000000054,
          "durationTicks": 60,
          "midi": 36,
          "name": "C2",
          "ticks": 17280,
          "time": 126.11361424999998,
          "velocity": 0.7874015748031497
        },
        {
          "duration": 0.4109590000000054,
          "durationTicks": 60,
          "midi": 48,
          "name": "C3",
          "ticks": 17280,
          "time": 126.11361424999998,
          "velocity": 0.7874015748031497
        },
        {
          "duration": 0.4109589999999912,
          "durationTicks": 60,
          "midi": 55,
          "name": "G3",
          "ticks": 17340,
          "time": 126.52457324999999,
          "velocity": 0.7874015748031497
        },
        {
          "duration": 0.4109590000000054,
          "durationTicks": 60,
          "midi": 60,
          "name": "C4",
          "ticks": 17400,
          "time": 126.93553224999998,
          "velocity": 0.7874015748031497
        },
        {
          "duration": 0.4109589999999912,
          "durationTicks": 60,
          "midi": 64,
          "name": "E4",
          "ticks": 17460,
          "time": 127.34649124999999,
          "velocity": 0.7874015748031497
        },
        {
          "duration": 0.4109590000000196,
          "durationTicks": 60,
          "midi": 43,
          "name": "G2",
          "ticks": 17520,
          "time": 127.75745024999998,
          "velocity": 0.7874015748031497
        },
        {
          "duration": 0.4109589999999912,
          "durationTicks": 60,
          "midi": 55,
          "name": "G3",
          "ticks": 17580,
          "time": 128.16840925,
          "velocity": 0.7874015748031497
        },
        {
          "duration": 0.4109589999999912,
          "durationTicks": 60,
          "midi": 59,
          "name": "B3",
          "ticks": 17640,
          "time": 128.57936825,
          "velocity": 0.7874015748031497
        },
        {
          "duration": 0.4109590000000196,
          "durationTicks": 60,
          "midi": 62,
          "name": "D4",
          "ticks": 17700,
          "time": 128.99032724999998,
          "velocity": 0.7874015748031497
        },
        {
          "duration": 0.4109589999999912,
          "durationTicks": 60,
          "midi": 45,
          "name": "A2",
          "ticks": 17760,
          "time": 129.40128625,
          "velocity": 0.7874015748031497
        },
        {
          "duration": 0.4109589999999912,
          "durationTicks": 60,
          "midi": 52,
          "name": "E3",
          "ticks": 17820,
          "time": 129.81224525,
          "velocity": 0.7874015748031497
        },
        {
          "duration": 0.4109589999999912,
          "durationTicks": 60,
          "midi": 57,
          "name": "A3",
          "ticks": 17880,
          "time": 130.22320424999998,
          "velocity": 0.7874015748031497
        },
        {
          "duration": 0.4109590000000196,
          "durationTicks": 60,
          "midi": 60,
          "name": "C4",
          "ticks": 17940,
          "time": 130.63416324999997,
          "velocity": 0.7874015748031497
        },
        {
          "duration": 0.4109589999999912,
          "durationTicks": 60,
          "midi": 40,
          "name": "E2",
          "ticks": 18000,
          "time": 131.04512225,
          "velocity": 0.7874015748031497
        },
        {
          "duration": 0.4109589999999912,
          "durationTicks": 60,
          "midi": 52,
          "name": "E3",
          "ticks": 18060,
          "time": 131.45608124999998,
          "velocity": 0.7874015748031497
        },
        {
          "duration": 0.4109590000000196,
          "durationTicks": 60,
          "midi": 55,
          "name": "G3",
          "ticks": 18120,
          "time": 131.86704024999997,
          "velocity": 0.7874015748031497
        },
        {
          "duration": 0.4109589999999912,
          "durationTicks": 60,
          "midi": 59,
          "name": "B3",
          "ticks": 18180,
          "time": 132.27799925,
          "velocity": 0.7874015748031497
        },
        {
          "duration": 0.4109589999999912,
          "durationTicks": 60,
          "midi": 41,
          "name": "F2",
          "ticks": 18240,
          "time": 132.68895824999998,
          "velocity": 0.7874015748031497
        },
        {
          "duration": 0.4109590000000196,
          "durationTicks": 60,
          "midi": 53,
          "name": "F3",
          "ticks": 18300,
          "time": 133.09991724999998,
          "velocity": 0.7874015748031497
        },
        {
          "duration": 0.4109589999999912,
          "durationTicks": 60,
          "midi": 57,
          "name": "A3",
          "ticks": 18360,
          "time": 133.51087625,
          "velocity": 0.7874015748031497
        },
        {
          "duration": 0.4109589999999912,
          "durationTicks": 60,
          "midi": 60,
          "name": "C4",
          "ticks": 18420,
          "time": 133.92183525,
          "velocity": 0.7874015748031497
        },
        {
          "duration": 0.4109590000000196,
          "durationTicks": 60,
          "midi": 36,
          "name": "C2",
          "ticks": 18480,
          "time": 134.33279424999998,
          "velocity": 0.7874015748031497
        },
        {
          "duration": 0.4109590000000196,
          "durationTicks": 60,
          "midi": 48,
          "name": "C3",
          "ticks": 18480,
          "time": 134.33279424999998,
          "velocity": 0.7874015748031497
        },
        {
          "duration": 0.4109589999999912,
          "durationTicks": 60,
          "midi": 52,
          "name": "E3",
          "ticks": 18540,
          "time": 134.74375325,
          "velocity": 0.7874015748031497
        },
        {
          "duration": 0.4109589999999912,
          "durationTicks": 60,
          "midi": 55,
          "name": "G3",
          "ticks": 18600,
          "time": 135.15471225,
          "velocity": 0.7874015748031497
        },
        {
          "duration": 0.4109589999999912,
          "durationTicks": 60,
          "midi": 60,
          "name": "C4",
          "ticks": 18660,
          "time": 135.56567124999998,
          "velocity": 0.7874015748031497
        },
        {
          "duration": 0.4109590000000196,
          "durationTicks": 60,
          "midi": 41,
          "name": "F2",
          "ticks": 18720,
          "time": 135.97663024999997,
          "velocity": 0.7874015748031497
        },
        {
          "duration": 0.4109589999999912,
          "durationTicks": 60,
          "midi": 53,
          "name": "F3",
          "ticks": 18780,
          "time": 136.38758925,
          "velocity": 0.7874015748031497
        },
        {
          "duration": 0.4109590000000196,
          "durationTicks": 60,
          "midi": 57,
          "name": "A3",
          "ticks": 18840,
          "time": 136.79854824999998,
          "velocity": 0.7874015748031497
        },
        {
          "duration": 0.4109589999999912,
          "durationTicks": 60,
          "midi": 60,
          "name": "C4",
          "ticks": 18900,
          "time": 137.20950725,
          "velocity": 0.7874015748031497
        },
        {
          "duration": 0.4109589999999912,
          "durationTicks": 60,
          "midi": 43,
          "name": "G2",
          "ticks": 18960,
          "time": 137.62046625,
          "velocity": 0.7874015748031497
        },
        {
          "duration": 0.4109589999999912,
          "durationTicks": 60,
          "midi": 55,
          "name": "G3",
          "ticks": 19020,
          "time": 138.03142524999998,
          "velocity": 0.7874015748031497
        },
        {
          "duration": 0.4109589999999912,
          "durationTicks": 60,
          "midi": 59,
          "name": "B3",
          "ticks": 19080,
          "time": 138.44238424999998,
          "velocity": 0.7874015748031497
        },
        {
          "duration": 0.4109590000000196,
          "durationTicks": 60,
          "midi": 62,
          "name": "D4",
          "ticks": 19140,
          "time": 138.85334324999997,
          "velocity": 0.7874015748031497
        },
        {
          "duration": 0.4109589999999912,
          "durationTicks": 60,
          "midi": 36,
          "name": "C2",
          "ticks": 19200,
          "time": 139.26430225,
          "velocity": 0.7874015748031497
        },
        {
          "duration": 0.4109589999999912,
          "durationTicks": 60,
          "midi": 48,
          "name": "C3",
          "ticks": 19200,
          "time": 139.26430225,
          "velocity": 0.7874015748031497
        },
        {
          "duration": 0.4109590000000196,
          "durationTicks": 60,
          "midi": 55,
          "name": "G3",
          "ticks": 19260,
          "time": 139.67526124999998,
          "velocity": 0.7874015748031497
        },
        {
          "duration": 0.4109589999999912,
          "durationTicks": 60,
          "midi": 60,
          "name": "C4",
          "ticks": 19320,
          "time": 140.08622025,
          "velocity": 0.7874015748031497
        },
        {
          "duration": 0.4109589999999912,
          "durationTicks": 60,
          "midi": 64,
          "name": "E4",
          "ticks": 19380,
          "time": 140.49717925,
          "velocity": 0.7874015748031497
        },
        {
          "duration": 0.4109589999999912,
          "durationTicks": 60,
          "midi": 43,
          "name": "G2",
          "ticks": 19440,
          "time": 140.90813824999998,
          "velocity": 0.7874015748031497
        },
        {
          "duration": 0.4109590000000196,
          "durationTicks": 60,
          "midi": 55,
          "name": "G3",
          "ticks": 19500,
          "time": 141.31909724999997,
          "velocity": 0.7874015748031497
        },
        {
          "duration": 0.4109589999999912,
          "durationTicks": 60,
          "midi": 59,
          "name": "B3",
          "ticks": 19560,
          "time": 141.73005625,
          "velocity": 0.7874015748031497
        },
        {
          "duration": 0.4109590000000196,
          "durationTicks": 60,
          "midi": 62,
          "name": "D4",
          "ticks": 19620,
          "time": 142.14101524999998,
          "velocity": 0.7874015748031497
        },
        {
          "duration": 0.4109589999999912,
          "durationTicks": 60,
          "midi": 45,
          "name": "A2",
          "ticks": 19680,
          "time": 142.55197425,
          "velocity": 0.7874015748031497
        },
        {
          "duration": 0.4109589999999912,
          "durationTicks": 60,
          "midi": 52,
          "name": "E3",
          "ticks": 19740,
          "time": 142.96293325,
          "velocity": 0.7874015748031497
        },
        {
          "duration": 0.4109589999999912,
          "durationTicks": 60,
          "midi": 57,
          "name": "A3",
          "ticks": 19800,
          "time": 143.37389224999998,
          "velocity": 0.7874015748031497
        },
        {
          "duration": 0.4109589999999912,
          "durationTicks": 60,
          "midi": 60,
          "name": "C4",
          "ticks": 19860,
          "time": 143.78485124999997,
          "velocity": 0.7874015748031497
        },
        {
          "duration": 0.4109590000000196,
          "durationTicks": 60,
          "midi": 40,
          "name": "E2",
          "ticks": 19920,
          "time": 144.19581024999997,
          "velocity": 0.7874015748031497
        },
        {
          "duration": 0.4109589999999912,
          "durationTicks": 60,
          "midi": 52,
          "name": "E3",
          "ticks": 19980,
          "time": 144.60676924999999,
          "velocity": 0.7874015748031497
        },
        {
          "duration": 0.4109590000000196,
          "durationTicks": 60,
          "midi": 55,
          "name": "G3",
          "ticks": 20040,
          "time": 145.01772824999998,
          "velocity": 0.7874015748031497
        },
        {
          "duration": 0.4109589999999912,
          "durationTicks": 60,
          "midi": 59,
          "name": "B3",
          "ticks": 20100,
          "time": 145.42868725,
          "velocity": 0.7874015748031497
        },
        {
          "duration": 0.4109589999999912,
          "durationTicks": 60,
          "midi": 41,
          "name": "F2",
          "ticks": 20160,
          "time": 145.83964625,
          "velocity": 0.7874015748031497
        },
        {
          "duration": 0.4109589999999912,
          "durationTicks": 60,
          "midi": 53,
          "name": "F3",
          "ticks": 20220,
          "time": 146.25060524999998,
          "velocity": 0.7874015748031497
        },
        {
          "duration": 0.4109590000000196,
          "durationTicks": 60,
          "midi": 57,
          "name": "A3",
          "ticks": 20280,
          "time": 146.66156424999997,
          "velocity": 0.7874015748031497
        },
        {
          "duration": 0.4109589999999912,
          "durationTicks": 60,
          "midi": 60,
          "name": "C4",
          "ticks": 20340,
          "time": 147.07252325,
          "velocity": 0.7874015748031497
        },
        {
          "duration": 0.4109590000000196,
          "durationTicks": 60,
          "midi": 36,
          "name": "C2",
          "ticks": 20400,
          "time": 147.48348224999998,
          "velocity": 0.7874015748031497
        },
        {
          "duration": 0.4109590000000196,
          "durationTicks": 60,
          "midi": 48,
          "name": "C3",
          "ticks": 20400,
          "time": 147.48348224999998,
          "velocity": 0.7874015748031497
        },
        {
          "duration": 0.4109589999999912,
          "durationTicks": 60,
          "midi": 52,
          "name": "E3",
          "ticks": 20460,
          "time": 147.89444125,
          "velocity": 0.7874015748031497
        },
        {
          "duration": 0.4109589999999912,
          "durationTicks": 60,
          "midi": 55,
          "name": "G3",
          "ticks": 20520,
          "time": 148.30540025,
          "velocity": 0.7874015748031497
        },
        {
          "duration": 0.4109589999999912,
          "durationTicks": 60,
          "midi": 60,
          "name": "C4",
          "ticks": 20580,
          "time": 148.71635924999998,
          "velocity": 0.7874015748031497
        },
        {
          "duration": 0.4109590000000196,
          "durationTicks": 60,
          "midi": 41,
          "name": "F2",
          "ticks": 20640,
          "time": 149.12731824999997,
          "velocity": 0.7874015748031497
        },
        {
          "duration": 0.4109589999999912,
          "durationTicks": 60,
          "midi": 53,
          "name": "F3",
          "ticks": 20700,
          "time": 149.53827725,
          "velocity": 0.7874015748031497
        },
        {
          "duration": 0.4109589999999912,
          "durationTicks": 60,
          "midi": 57,
          "name": "A3",
          "ticks": 20760,
          "time": 149.94923624999998,
          "velocity": 0.7874015748031497
        },
        {
          "duration": 0.4109590000000196,
          "durationTicks": 60,
          "midi": 60,
          "name": "C4",
          "ticks": 20820,
          "time": 150.36019524999998,
          "velocity": 0.7874015748031497
        },
        {
          "duration": 0.4109589999999912,
          "durationTicks": 60,
          "midi": 43,
          "name": "G2",
          "ticks": 20880,
          "time": 150.77115425,
          "velocity": 0.7874015748031497
        },
        {
          "duration": 0.4109589999999912,
          "durationTicks": 60,
          "midi": 55,
          "name": "G3",
          "ticks": 20940,
          "time": 151.18211325,
          "velocity": 0.7874015748031497
        },
        {
          "duration": 0.4109589999999912,
          "durationTicks": 60,
          "midi": 59,
          "name": "B3",
          "ticks": 21000,
          "time": 151.59307224999998,
          "velocity": 0.7874015748031497
        },
        {
          "duration": 0.4109590000000196,
          "durationTicks": 60,
          "midi": 62,
          "name": "D4",
          "ticks": 21060,
          "time": 152.00403124999997,
          "velocity": 0.7874015748031497
        },
        {
          "duration": 0.4109589999999912,
          "durationTicks": 60,
          "midi": 36,
          "name": "C2",
          "ticks": 21120,
          "time": 152.41499025,
          "velocity": 0.7874015748031497
        },
        {
          "duration": 0.4109589999999912,
          "durationTicks": 60,
          "midi": 48,
          "name": "C3",
          "ticks": 21120,
          "time": 152.41499025,
          "velocity": 0.7874015748031497
        },
        {
          "duration": 0.4109590000000196,
          "durationTicks": 60,
          "midi": 55,
          "name": "G3",
          "ticks": 21180,
          "time": 152.82594924999998,
          "velocity": 0.7874015748031497
        },
        {
          "duration": 0.4109589999999912,
          "durationTicks": 60,
          "midi": 60,
          "name": "C4",
          "ticks": 21240,
          "time": 153.23690825,
          "velocity": 0.7874015748031497
        },
        {
          "duration": 0.4109589999999912,
          "durationTicks": 60,
          "midi": 64,
          "name": "E4",
          "ticks": 21300,
          "time": 153.64786725,
          "velocity": 0.7874015748031497
        },
        {
          "duration": 0.4109589999999912,
          "durationTicks": 60,
          "midi": 43,
          "name": "G2",
          "ticks": 21360,
          "time": 154.05882624999998,
          "velocity": 0.7874015748031497
        },
        {
          "duration": 0.4109590000000196,
          "durationTicks": 60,
          "midi": 50,
          "name": "D3",
          "ticks": 21420,
          "time": 154.46978524999997,
          "velocity": 0.7874015748031497
        },
        {
          "duration": 0.4109589999999912,
          "durationTicks": 60,
          "midi": 55,
          "name": "G3",
          "ticks": 21480,
          "time": 154.88074425,
          "velocity": 0.7874015748031497
        },
        {
          "duration": 0.4109589999999912,
          "durationTicks": 60,
          "midi": 59,
          "name": "B3",
          "ticks": 21540,
          "time": 155.29170324999998,
          "velocity": 0.7874015748031497
        },
        {
          "duration": 0.4109590000000196,
          "durationTicks": 60,
          "midi": 45,
          "name": "A2",
          "ticks": 21600,
          "time": 155.70266224999997,
          "velocity": 0.7874015748031497
        },
        {
          "duration": 0.4109589999999912,
          "durationTicks": 60,
          "midi": 52,
          "name": "E3",
          "ticks": 21660,
          "time": 156.11362125,
          "velocity": 0.7874015748031497
        },
        {
          "duration": 0.4109589999999912,
          "durationTicks": 60,
          "midi": 57,
          "name": "A3",
          "ticks": 21720,
          "time": 156.52458024999999,
          "velocity": 0.7874015748031497
        },
        {
          "duration": 0.4109589999999912,
          "durationTicks": 60,
          "midi": 60,
          "name": "C4",
          "ticks": 21780,
          "time": 156.93553924999998,
          "velocity": 0.7874015748031497
        },
        {
          "duration": 0.4109590000000196,
          "durationTicks": 60,
          "midi": 40,
          "name": "E2",
          "ticks": 21840,
          "time": 157.34649824999997,
          "velocity": 0.7874015748031497
        },
        {
          "duration": 0.4109589999999912,
          "durationTicks": 60,
          "midi": 52,
          "name": "E3",
          "ticks": 21900,
          "time": 157.75745725,
          "velocity": 0.7874015748031497
        },
        {
          "duration": 0.4109590000000196,
          "durationTicks": 60,
          "midi": 55,
          "name": "G3",
          "ticks": 21960,
          "time": 158.16841624999998,
          "velocity": 0.7874015748031497
        },
        {
          "duration": 0.4109589999999912,
          "durationTicks": 60,
          "midi": 59,
          "name": "B3",
          "ticks": 22020,
          "time": 158.57937525,
          "velocity": 0.7874015748031497
        },
        {
          "duration": 0.4109589999999912,
          "durationTicks": 60,
          "midi": 41,
          "name": "F2",
          "ticks": 22080,
          "time": 158.99033425,
          "velocity": 0.7874015748031497
        },
        {
          "duration": 0.4109589999999912,
          "durationTicks": 60,
          "midi": 53,
          "name": "F3",
          "ticks": 22140,
          "time": 159.40129324999998,
          "velocity": 0.7874015748031497
        },
        {
          "duration": 0.4109590000000196,
          "durationTicks": 60,
          "midi": 57,
          "name": "A3",
          "ticks": 22200,
          "time": 159.81225224999997,
          "velocity": 0.7874015748031497
        },
        {
          "duration": 0.4109589999999912,
          "durationTicks": 60,
          "midi": 60,
          "name": "C4",
          "ticks": 22260,
          "time": 160.22321125,
          "velocity": 0.7874015748031497
        },
        {
          "duration": 0.4109589999999912,
          "durationTicks": 60,
          "midi": 36,
          "name": "C2",
          "ticks": 22320,
          "time": 160.63417024999998,
          "velocity": 0.7874015748031497
        },
        {
          "duration": 0.4109589999999912,
          "durationTicks": 60,
          "midi": 48,
          "name": "C3",
          "ticks": 22320,
          "time": 160.63417024999998,
          "velocity": 0.7874015748031497
        },
        {
          "duration": 0.4109590000000196,
          "durationTicks": 60,
          "midi": 52,
          "name": "E3",
          "ticks": 22380,
          "time": 161.04512924999997,
          "velocity": 0.7874015748031497
        },
        {
          "duration": 0.4109589999999912,
          "durationTicks": 60,
          "midi": 55,
          "name": "G3",
          "ticks": 22440,
          "time": 161.45608825,
          "velocity": 0.7874015748031497
        },
        {
          "duration": 0.4109589999999912,
          "durationTicks": 60,
          "midi": 60,
          "name": "C4",
          "ticks": 22500,
          "time": 161.86704724999998,
          "velocity": 0.7874015748031497
        },
        {
          "duration": 0.4109589999999912,
          "durationTicks": 60,
          "midi": 41,
          "name": "F2",
          "ticks": 22560,
          "time": 162.27800624999998,
          "velocity": 0.7874015748031497
        },
        {
          "duration": 0.4109590000000196,
          "durationTicks": 60,
          "midi": 53,
          "name": "F3",
          "ticks": 22620,
          "time": 162.68896524999997,
          "velocity": 0.7874015748031497
        },
        {
          "duration": 0.4109589999999912,
          "durationTicks": 60,
          "midi": 57,
          "name": "A3",
          "ticks": 22680,
          "time": 163.09992425,
          "velocity": 0.7874015748031497
        },
        {
          "duration": 0.4109590000000196,
          "durationTicks": 60,
          "midi": 60,
          "name": "C4",
          "ticks": 22740,
          "time": 163.51088324999998,
          "velocity": 0.7874015748031497
        },
        {
          "duration": 0.4109589999999912,
          "durationTicks": 60,
          "midi": 43,
          "name": "G2",
          "ticks": 22800,
          "time": 163.92184225,
          "velocity": 0.7874015748031497
        },
        {
          "duration": 0.4109589999999912,
          "durationTicks": 60,
          "midi": 55,
          "name": "G3",
          "ticks": 22860,
          "time": 164.33280125,
          "velocity": 0.7874015748031497
        },
        {
          "duration": 0.4109589999999912,
          "durationTicks": 60,
          "midi": 59,
          "name": "B3",
          "ticks": 22920,
          "time": 164.74376024999998,
          "velocity": 0.7874015748031497
        },
        {
          "duration": 0.4109590000000196,
          "durationTicks": 60,
          "midi": 62,
          "name": "D4",
          "ticks": 22980,
          "time": 165.15471924999997,
          "velocity": 0.7874015748031497
        },
        {
          "duration": 1.6438359999999932,
          "durationTicks": 240,
          "midi": 36,
          "name": "C2",
          "ticks": 23040,
          "time": 165.56567825,
          "velocity": 0.7874015748031497
        },
        {
          "duration": 1.6438359999999932,
          "durationTicks": 240,
          "midi": 48,
          "name": "C3",
          "ticks": 23040,
          "time": 165.56567825,
          "velocity": 0.7874015748031497
        },
        {
          "duration": 1.6438359999999932,
          "durationTicks": 240,
          "midi": 31,
          "name": "G1",
          "ticks": 23280,
          "time": 167.20951424999998,
          "velocity": 0.7874015748031497
        },
        {
          "duration": 1.6438359999999932,
          "durationTicks": 240,
          "midi": 43,
          "name": "G2",
          "ticks": 23280,
          "time": 167.20951424999998,
          "velocity": 0.7874015748031497
        },
        {
          "duration": 1.6438359999999932,
          "durationTicks": 240,
          "midi": 33,
          "name": "A1",
          "ticks": 23520,
          "time": 168.85335024999998,
          "velocity": 0.7874015748031497
        },
        {
          "duration": 1.6438359999999932,
          "durationTicks": 240,
          "midi": 45,
          "name": "A2",
          "ticks": 23520,
          "time": 168.85335024999998,
          "velocity": 0.7874015748031497
        },
        {
          "duration": 1.6438360000000216,
          "durationTicks": 240,
          "midi": 28,
          "name": "E1",
          "ticks": 23760,
          "time": 170.49718624999997,
          "velocity": 0.7874015748031497
        },
        {
          "duration": 1.6438360000000216,
          "durationTicks": 240,
          "midi": 40,
          "name": "E2",
          "ticks": 23760,
          "time": 170.49718624999997,
          "velocity": 0.7874015748031497
        },
        {
          "duration": 1.6438359999999932,
          "durationTicks": 240,
          "midi": 29,
          "name": "F1",
          "ticks": 24000,
          "time": 172.14102225,
          "velocity": 0.7874015748031497
        },
        {
          "duration": 1.6438359999999932,
          "durationTicks": 240,
          "midi": 41,
          "name": "F2",
          "ticks": 24000,
          "time": 172.14102225,
          "velocity": 0.7874015748031497
        },
        {
          "duration": 1.6438359999999932,
          "durationTicks": 240,
          "midi": 36,
          "name": "C2",
          "ticks": 24240,
          "time": 173.78485824999998,
          "velocity": 0.7874015748031497
        },
        {
          "duration": 1.6438359999999932,
          "durationTicks": 240,
          "midi": 48,
          "name": "C3",
          "ticks": 24240,
          "time": 173.78485824999998,
          "velocity": 0.7874015748031497
        },
        {
          "duration": 1.6438360000000216,
          "durationTicks": 240,
          "midi": 29,
          "name": "F1",
          "ticks": 24480,
          "time": 175.42869424999998,
          "velocity": 0.7874015748031497
        },
        {
          "duration": 1.6438360000000216,
          "durationTicks": 240,
          "midi": 41,
          "name": "F2",
          "ticks": 24480,
          "time": 175.42869424999998,
          "velocity": 0.7874015748031497
        },
        {
          "duration": 1.6438359999999648,
          "durationTicks": 240,
          "midi": 31,
          "name": "G1",
          "ticks": 24720,
          "time": 177.07253025,
          "velocity": 0.7874015748031497
        },
        {
          "duration": 1.6438359999999648,
          "durationTicks": 240,
          "midi": 43,
          "name": "G2",
          "ticks": 24720,
          "time": 177.07253025,
          "velocity": 0.7874015748031497
        },
        {
          "duration": 0.4109590000000196,
          "durationTicks": 60,
          "midi": 36,
          "name": "C2",
          "ticks": 24960,
          "time": 178.71636624999996,
          "velocity": 0.7874015748031497
        },
        {
          "duration": 0.4109590000000196,
          "durationTicks": 60,
          "midi": 48,
          "name": "C3",
          "ticks": 24960,
          "time": 178.71636624999996,
          "velocity": 0.7874015748031497
        },
        {
          "duration": 0.4109589999999912,
          "durationTicks": 60,
          "midi": 55,
          "name": "G3",
          "ticks": 25020,
          "time": 179.12732524999998,
          "velocity": 0.7874015748031497
        },
        {
          "duration": 0.4109590000000196,
          "durationTicks": 60,
          "midi": 60,
          "name": "C4",
          "ticks": 25080,
          "time": 179.53828424999998,
          "velocity": 0.7874015748031497
        },
        {
          "duration": 0.4109589999999912,
          "durationTicks": 60,
          "midi": 64,
          "name": "E4",
          "ticks": 25140,
          "time": 179.94924325,
          "velocity": 0.7874015748031497
        },
        {
          "duration": 0.4109589999999912,
          "durationTicks": 60,
          "midi": 31,
          "name": "G1",
          "ticks": 25200,
          "time": 180.36020225,
          "velocity": 0.7874015748031497
        },
        {
          "duration": 0.4109589999999912,
          "durationTicks": 60,
          "midi": 43,
          "name": "G2",
          "ticks": 25200,
          "time": 180.36020225,
          "velocity": 0.7874015748031497
        },
        {
          "duration": 0.4109589999999912,
          "durationTicks": 60,
          "midi": 50,
          "name": "D3",
          "ticks": 25260,
          "time": 180.77116124999998,
          "velocity": 0.7874015748031497
        },
        {
          "duration": 0.4109589999999912,
          "durationTicks": 60,
          "midi": 55,
          "name": "G3",
          "ticks": 25320,
          "time": 181.18212024999997,
          "velocity": 0.7874015748031497
        },
        {
          "duration": 0.4109590000000196,
          "durationTicks": 60,
          "midi": 59,
          "name": "B3",
          "ticks": 25380,
          "time": 181.59307924999996,
          "velocity": 0.7874015748031497
        },
        {
          "duration": 0.4109590000000196,
          "durationTicks": 60,
          "midi": 33,
          "name": "A1",
          "ticks": 25440,
          "time": 182.00403824999998,
          "velocity": 0.7874015748031497
        },
        {
          "duration": 0.4109590000000196,
          "durationTicks": 60,
          "midi": 45,
          "name": "A2",
          "ticks": 25440,
          "time": 182.00403824999998,
          "velocity": 0.7874015748031497
        },
        {
          "duration": 0.4109589999999912,
          "durationTicks": 60,
          "midi": 52,
          "name": "E3",
          "ticks": 25500,
          "time": 182.41499725,
          "velocity": 0.7874015748031497
        },
        {
          "duration": 0.4109589999999912,
          "durationTicks": 60,
          "midi": 57,
          "name": "A3",
          "ticks": 25560,
          "time": 182.82595625,
          "velocity": 0.7874015748031497
        },
        {
          "duration": 0.4109589999999912,
          "durationTicks": 60,
          "midi": 60,
          "name": "C4",
          "ticks": 25620,
          "time": 183.23691524999998,
          "velocity": 0.7874015748031497
        },
        {
          "duration": 0.4109589999999912,
          "durationTicks": 60,
          "midi": 40,
          "name": "E2",
          "ticks": 25680,
          "time": 183.64787424999997,
          "velocity": 0.7874015748031497
        },
        {
          "duration": 0.4109589999999912,
          "durationTicks": 60,
          "midi": 52,
          "name": "E3",
          "ticks": 25680,
          "time": 183.64787424999997,
          "velocity": 0.7874015748031497
        },
        {
          "duration": 0.4109590000000196,
          "durationTicks": 60,
          "midi": 55,
          "name": "G3",
          "ticks": 25740,
          "time": 184.05883324999996,
          "velocity": 0.7874015748031497
        },
        {
          "duration": 0.4109589999999912,
          "durationTicks": 60,
          "midi": 59,
          "name": "B3",
          "ticks": 25800,
          "time": 184.46979224999998,
          "velocity": 0.7874015748031497
        },
        {
          "duration": 0.4109590000000196,
          "durationTicks": 60,
          "midi": 64,
          "name": "E4",
          "ticks": 25860,
          "time": 184.88075124999997,
          "velocity": 0.7874015748031497
        },
        {
          "duration": 0.4109589999999912,
          "durationTicks": 60,
          "midi": 41,
          "name": "F2",
          "ticks": 25920,
          "time": 185.29171025,
          "velocity": 0.7874015748031497
        },
        {
          "duration": 0.4109589999999912,
          "durationTicks": 60,
          "midi": 53,
          "name": "F3",
          "ticks": 25980,
          "time": 185.70266924999999,
          "velocity": 0.7874015748031497
        },
        {
          "duration": 0.4109589999999912,
          "durationTicks": 60,
          "midi": 57,
          "name": "A3",
          "ticks": 26040,
          "time": 186.11362824999998,
          "velocity": 0.7874015748031497
        },
        {
          "duration": 0.4109589999999912,
          "durationTicks": 60,
          "midi": 60,
          "name": "C4",
          "ticks": 26100,
          "time": 186.52458724999997,
          "velocity": 0.7874015748031497
        },
        {
          "duration": 0.4109590000000196,
          "durationTicks": 60,
          "midi": 36,
          "name": "C2",
          "ticks": 26160,
          "time": 186.93554624999996,
          "velocity": 0.7874015748031497
        },
        {
          "duration": 0.4109590000000196,
          "durationTicks": 60,
          "midi": 48,
          "name": "C3",
          "ticks": 26160,
          "time": 186.93554624999996,
          "velocity": 0.7874015748031497
        },
        {
          "duration": 0.4109590000000196,
          "durationTicks": 60,
          "midi": 52,
          "name": "E3",
          "ticks": 26220,
          "time": 187.34650524999998,
          "velocity": 0.7874015748031497
        },
        {
          "duration": 0.4109589999999912,
          "durationTicks": 60,
          "midi": 55,
          "name": "G3",
          "ticks": 26280,
          "time": 187.75746425,
          "velocity": 0.7874015748031497
        },
        {
          "duration": 0.4109589999999912,
          "durationTicks": 60,
          "midi": 60,
          "name": "C4",
          "ticks": 26340,
          "time": 188.16842325,
          "velocity": 0.7874015748031497
        },
        {
          "duration": 0.4109589999999912,
          "durationTicks": 60,
          "midi": 41,
          "name": "F2",
          "ticks": 26400,
          "time": 188.57938224999998,
          "velocity": 0.7874015748031497
        },
        {
          "duration": 0.4109589999999912,
          "durationTicks": 60,
          "midi": 53,
          "name": "F3",
          "ticks": 26460,
          "time": 188.99034124999997,
          "velocity": 0.7874015748031497
        },
        {
          "duration": 0.4109590000000196,
          "durationTicks": 60,
          "midi": 57,
          "name": "A3",
          "ticks": 26520,
          "time": 189.40130024999996,
          "velocity": 0.7874015748031497
        },
        {
          "duration": 0.4109589999999912,
          "durationTicks": 60,
          "midi": 60,
          "name": "C4",
          "ticks": 26580,
          "time": 189.81225924999998,
          "velocity": 0.7874015748031497
        },
        {
          "duration": 0.4109590000000196,
          "durationTicks": 60,
          "midi": 43,
          "name": "G2",
          "ticks": 26640,
          "time": 190.22321824999997,
          "velocity": 0.7874015748031497
        },
        {
          "duration": 0.4109589999999912,
          "durationTicks": 60,
          "midi": 55,
          "name": "G3",
          "ticks": 26700,
          "time": 190.63417725,
          "velocity": 0.7874015748031497
        },
        {
          "duration": 0.4109589999999912,
          "durationTicks": 60,
          "midi": 59,
          "name": "B3",
          "ticks": 26760,
          "time": 191.04513624999998,
          "velocity": 0.7874015748031497
        },
        {
          "duration": 0.4109589999999912,
          "durationTicks": 60,
          "midi": 62,
          "name": "D4",
          "ticks": 26820,
          "time": 191.45609524999998,
          "velocity": 0.7874015748031497
        },
        {
          "duration": 0.4109589999999912,
          "durationTicks": 60,
          "midi": 36,
          "name": "C2",
          "ticks": 26880,
          "time": 191.86705424999997,
          "velocity": 0.7874015748031497
        },
        {
          "duration": 0.4109589999999912,
          "durationTicks": 60,
          "midi": 48,
          "name": "C3",
          "ticks": 26880,
          "time": 191.86705424999997,
          "velocity": 0.7874015748031497
        },
        {
          "duration": 0.4109590000000196,
          "durationTicks": 60,
          "midi": 55,
          "name": "G3",
          "ticks": 26940,
          "time": 192.27801324999996,
          "velocity": 0.7874015748031497
        },
        {
          "duration": 0.4109590000000196,
          "durationTicks": 60,
          "midi": 60,
          "name": "C4",
          "ticks": 27000,
          "time": 192.68897224999998,
          "velocity": 0.7874015748031497
        },
        {
          "duration": 0.4109589999999912,
          "durationTicks": 60,
          "midi": 64,
          "name": "E4",
          "ticks": 27060,
          "time": 193.09993125,
          "velocity": 0.7874015748031497
        },
        {
          "duration": 0.4109589999999912,
          "durationTicks": 60,
          "midi": 43,
          "name": "G2",
          "ticks": 27120,
          "time": 193.51089025,
          "velocity": 0.7874015748031497
        },
        {
          "duration": 0.4109589999999912,
          "durationTicks": 60,
          "midi": 55,
          "name": "G3",
          "ticks": 27180,
          "time": 193.92184924999998,
          "velocity": 0.7874015748031497
        },
        {
          "duration": 0.4109589999999912,
          "durationTicks": 60,
          "midi": 59,
          "name": "B3",
          "ticks": 27240,
          "time": 194.33280824999997,
          "velocity": 0.7874015748031497
        },
        {
          "duration": 0.4109590000000196,
          "durationTicks": 60,
          "midi": 62,
          "name": "D4",
          "ticks": 27300,
          "time": 194.74376724999996,
          "velocity": 0.7874015748031497
        },
        {
          "duration": 0.4109589999999912,
          "durationTicks": 60,
          "midi": 45,
          "name": "A2",
          "ticks": 27360,
          "time": 195.15472624999998,
          "velocity": 0.7874015748031497
        },
        {
          "duration": 0.4109590000000196,
          "durationTicks": 60,
          "midi": 52,
          "name": "E3",
          "ticks": 27420,
          "time": 195.56568524999997,
          "velocity": 0.7874015748031497
        },
        {
          "duration": 0.4109589999999912,
          "durationTicks": 60,
          "midi": 57,
          "name": "A3",
          "ticks": 27480,
          "time": 195.97664425,
          "velocity": 0.7874015748031497
        },
        {
          "duration": 0.4109589999999912,
          "durationTicks": 60,
          "midi": 60,
          "name": "C4",
          "ticks": 27540,
          "time": 196.38760324999998,
          "velocity": 0.7874015748031497
        },
        {
          "duration": 0.4109589999999912,
          "durationTicks": 60,
          "midi": 40,
          "name": "E2",
          "ticks": 27600,
          "time": 196.79856224999997,
          "velocity": 0.7874015748031497
        },
        {
          "duration": 0.4109589999999912,
          "durationTicks": 60,
          "midi": 52,
          "name": "E3",
          "ticks": 27660,
          "time": 197.20952124999997,
          "velocity": 0.7874015748031497
        },
        {
          "duration": 0.4109590000000196,
          "durationTicks": 60,
          "midi": 55,
          "name": "G3",
          "ticks": 27720,
          "time": 197.62048024999996,
          "velocity": 0.7874015748031497
        },
        {
          "duration": 0.4109590000000196,
          "durationTicks": 60,
          "midi": 59,
          "name": "B3",
          "ticks": 27780,
          "time": 198.03143924999998,
          "velocity": 0.7874015748031497
        },
        {
          "duration": 0.4109589999999912,
          "durationTicks": 60,
          "midi": 41,
          "name": "F2",
          "ticks": 27840,
          "time": 198.44239825,
          "velocity": 0.7874015748031497
        },
        {
          "duration": 0.4109589999999912,
          "durationTicks": 60,
          "midi": 53,
          "name": "F3",
          "ticks": 27900,
          "time": 198.85335725,
          "velocity": 0.7874015748031497
        },
        {
          "duration": 0.4109589999999912,
          "durationTicks": 60,
          "midi": 57,
          "name": "A3",
          "ticks": 27960,
          "time": 199.26431624999998,
          "velocity": 0.7874015748031497
        },
        {
          "duration": 0.4109589999999912,
          "durationTicks": 60,
          "midi": 60,
          "name": "C4",
          "ticks": 28020,
          "time": 199.67527524999997,
          "velocity": 0.7874015748031497
        },
        {
          "duration": 0.4109590000000196,
          "durationTicks": 60,
          "midi": 36,
          "name": "C2",
          "ticks": 28080,
          "time": 200.08623424999996,
          "velocity": 0.7874015748031497
        },
        {
          "duration": 0.4109590000000196,
          "durationTicks": 60,
          "midi": 48,
          "name": "C3",
          "ticks": 28080,
          "time": 200.08623424999996,
          "velocity": 0.7874015748031497
        },
        {
          "duration": 0.4109589999999912,
          "durationTicks": 60,
          "midi": 52,
          "name": "E3",
          "ticks": 28140,
          "time": 200.49719324999998,
          "velocity": 0.7874015748031497
        },
        {
          "duration": 0.4109590000000196,
          "durationTicks": 60,
          "midi": 55,
          "name": "G3",
          "ticks": 28200,
          "time": 200.90815224999997,
          "velocity": 0.7874015748031497
        },
        {
          "duration": 0.4109589999999912,
          "durationTicks": 60,
          "midi": 60,
          "name": "C4",
          "ticks": 28260,
          "time": 201.31911125,
          "velocity": 0.7874015748031497
        },
        {
          "duration": 0.4109589999999912,
          "durationTicks": 60,
          "midi": 41,
          "name": "F2",
          "ticks": 28320,
          "time": 201.73007024999998,
          "velocity": 0.7874015748031497
        },
        {
          "duration": 0.4109589999999912,
          "durationTicks": 60,
          "midi": 53,
          "name": "F3",
          "ticks": 28380,
          "time": 202.14102924999997,
          "velocity": 0.7874015748031497
        },
        {
          "duration": 0.4109590000000196,
          "durationTicks": 60,
          "midi": 57,
          "name": "A3",
          "ticks": 28440,
          "time": 202.55198824999997,
          "velocity": 0.7874015748031497
        },
        {
          "duration": 0.4109589999999912,
          "durationTicks": 60,
          "midi": 60,
          "name": "C4",
          "ticks": 28500,
          "time": 202.96294724999998,
          "velocity": 0.7874015748031497
        },
        {
          "duration": 0.4109590000000196,
          "durationTicks": 60,
          "midi": 43,
          "name": "G2",
          "ticks": 28560,
          "time": 203.37390624999998,
          "velocity": 0.7874015748031497
        },
        {
          "duration": 0.4109589999999912,
          "durationTicks": 60,
          "midi": 55,
          "name": "G3",
          "ticks": 28620,
          "time": 203.78486525,
          "velocity": 0.7874015748031497
        },
        {
          "duration": 0.4109589999999912,
          "durationTicks": 60,
          "midi": 59,
          "name": "B3",
          "ticks": 28680,
          "time": 204.19582425,
          "velocity": 0.7874015748031497
        },
        {
          "duration": 0.4109589999999912,
          "durationTicks": 60,
          "midi": 62,
          "name": "D4",
          "ticks": 28740,
          "time": 204.60678324999998,
          "velocity": 0.7874015748031497
        },
        {
          "duration": 0.4109589999999912,
          "durationTicks": 60,
          "midi": 36,
          "name": "C2",
          "ticks": 28800,
          "time": 205.01774224999997,
          "velocity": 0.7874015748031497
        },
        {
          "duration": 0.4109589999999912,
          "durationTicks": 60,
          "midi": 48,
          "name": "C3",
          "ticks": 28800,
          "time": 205.01774224999997,
          "velocity": 0.7874015748031497
        },
        {
          "duration": 0.4109590000000196,
          "durationTicks": 60,
          "midi": 55,
          "name": "G3",
          "ticks": 28860,
          "time": 205.42870124999996,
          "velocity": 0.7874015748031497
        },
        {
          "duration": 0.4109589999999912,
          "durationTicks": 60,
          "midi": 60,
          "name": "C4",
          "ticks": 28920,
          "time": 205.83966024999998,
          "velocity": 0.7874015748031497
        },
        {
          "duration": 0.4109590000000196,
          "durationTicks": 60,
          "midi": 64,
          "name": "E4",
          "ticks": 28980,
          "time": 206.25061924999997,
          "velocity": 0.7874015748031497
        },
        {
          "duration": 0.4109589999999912,
          "durationTicks": 60,
          "midi": 43,
          "name": "G2",
          "ticks": 29040,
          "time": 206.66157825,
          "velocity": 0.7874015748031497
        },
        {
          "duration": 0.4109589999999912,
          "durationTicks": 60,
          "midi": 50,
          "name": "D3",
          "ticks": 29100,
          "time": 207.07253724999998,
          "velocity": 0.7874015748031497
        },
        {
          "duration": 0.4109589999999912,
          "durationTicks": 60,
          "midi": 55,
          "name": "G3",
          "ticks": 29160,
          "time": 207.48349624999997,
          "velocity": 0.7874015748031497
        },
        {
          "duration": 0.4109590000000196,
          "durationTicks": 60,
          "midi": 59,
          "name": "B3",
          "ticks": 29220,
          "time": 207.89445524999996,
          "velocity": 0.7874015748031497
        },
        {
          "duration": 0.4109589999999912,
          "durationTicks": 60,
          "midi": 45,
          "name": "A2",
          "ticks": 29280,
          "time": 208.30541424999998,
          "velocity": 0.7874015748031497
        },
        {
          "duration": 0.4109590000000196,
          "durationTicks": 60,
          "midi": 52,
          "name": "E3",
          "ticks": 29340,
          "time": 208.71637324999998,
          "velocity": 0.7874015748031497
        },
        {
          "duration": 0.4109589999999912,
          "durationTicks": 60,
          "midi": 57,
          "name": "A3",
          "ticks": 29400,
          "time": 209.12733225,
          "velocity": 0.7874015748031497
        },
        {
          "duration": 0.4109589999999912,
          "durationTicks": 60,
          "midi": 60,
          "name": "C4",
          "ticks": 29460,
          "time": 209.53829125,
          "velocity": 0.7874015748031497
        },
        {
          "duration": 0.4109589999999912,
          "durationTicks": 60,
          "midi": 40,
          "name": "E2",
          "ticks": 29520,
          "time": 209.94925024999998,
          "velocity": 0.7874015748031497
        },
        {
          "duration": 0.4109589999999912,
          "durationTicks": 60,
          "midi": 52,
          "name": "E3",
          "ticks": 29580,
          "time": 210.36020924999997,
          "velocity": 0.7874015748031497
        },
        {
          "duration": 0.4109590000000196,
          "durationTicks": 60,
          "midi": 55,
          "name": "G3",
          "ticks": 29640,
          "time": 210.77116824999996,
          "velocity": 0.7874015748031497
        },
        {
          "duration": 0.4109589999999912,
          "durationTicks": 60,
          "midi": 59,
          "name": "B3",
          "ticks": 29700,
          "time": 211.18212724999998,
          "velocity": 0.7874015748031497
        },
        {
          "duration": 0.4109590000000196,
          "durationTicks": 60,
          "midi": 41,
          "name": "F2",
          "ticks": 29760,
          "time": 211.59308624999997,
          "velocity": 0.7874015748031497
        },
        {
          "duration": 0.4109589999999912,
          "durationTicks": 60,
          "midi": 53,
          "name": "F3",
          "ticks": 29820,
          "time": 212.00404525,
          "velocity": 0.7874015748031497
        },
        {
          "duration": 0.4109589999999912,
          "durationTicks": 60,
          "midi": 57,
          "name": "A3",
          "ticks": 29880,
          "time": 212.41500424999998,
          "velocity": 0.7874015748031497
        },
        {
          "duration": 0.4109589999999912,
          "durationTicks": 60,
          "midi": 60,
          "name": "C4",
          "ticks": 29940,
          "time": 212.82596324999997,
          "velocity": 0.7874015748031497
        },
        {
          "duration": 0.4109590000000196,
          "durationTicks": 60,
          "midi": 36,
          "name": "C2",
          "ticks": 30000,
          "time": 213.23692224999996,
          "velocity": 0.7874015748031497
        },
        {
          "duration": 0.4109590000000196,
          "durationTicks": 60,
          "midi": 48,
          "name": "C3",
          "ticks": 30000,
          "time": 213.23692224999996,
          "velocity": 0.7874015748031497
        },
        {
          "duration": 0.4109589999999912,
          "durationTicks": 60,
          "midi": 52,
          "name": "E3",
          "ticks": 30060,
          "time": 213.64788124999998,
          "velocity": 0.7874015748031497
        },
        {
          "duration": 0.4109590000000196,
          "durationTicks": 60,
          "midi": 55,
          "name": "G3",
          "ticks": 30120,
          "time": 214.05884024999997,
          "velocity": 0.7874015748031497
        },
        {
          "duration": 0.4109589999999912,
          "durationTicks": 60,
          "midi": 60,
          "name": "C4",
          "ticks": 30180,
          "time": 214.46979925,
          "velocity": 0.7874015748031497
        },
        {
          "duration": 0.4109589999999912,
          "durationTicks": 60,
          "midi": 41,
          "name": "F2",
          "ticks": 30240,
          "time": 214.88075824999999,
          "velocity": 0.7874015748031497
        },
        {
          "duration": 0.4109589999999912,
          "durationTicks": 60,
          "midi": 50,
          "name": "D3",
          "ticks": 30300,
          "time": 215.29171724999998,
          "velocity": 0.7874015748031497
        },
        {
          "duration": 0.4109589999999912,
          "durationTicks": 60,
          "midi": 57,
          "name": "A3",
          "ticks": 30360,
          "time": 215.70267624999997,
          "velocity": 0.7874015748031497
        },
        {
          "duration": 0.4109590000000196,
          "durationTicks": 60,
          "midi": 60,
          "name": "C4",
          "ticks": 30420,
          "time": 216.11363524999996,
          "velocity": 0.7874015748031497
        },
        {
          "duration": 0.4109589999999912,
          "durationTicks": 60,
          "midi": 43,
          "name": "G2",
          "ticks": 30480,
          "time": 216.52459424999998,
          "velocity": 0.7874015748031497
        },
        {
          "duration": 0.4109590000000196,
          "durationTicks": 60,
          "midi": 50,
          "name": "D3",
          "ticks": 30540,
          "time": 216.93555324999997,
          "velocity": 0.7874015748031497
        },
        {
          "duration": 0.4109589999999912,
          "durationTicks": 60,
          "midi": 55,
          "name": "G3",
          "ticks": 30600,
          "time": 217.34651225,
          "velocity": 0.7874015748031497
        },
        {
          "duration": 0.4109589999999912,
          "durationTicks": 60,
          "midi": 59,
          "name": "B3",
          "ticks": 30660,
          "time": 217.75747124999998,
          "velocity": 0.7874015748031497
        },
        {
          "duration": 0.4109589999999912,
          "durationTicks": 60,
          "midi": 36,
          "name": "C2",
          "ticks": 30720,
          "time": 218.16843024999997,
          "velocity": 0.7874015748031497
        },
        {
          "duration": 0.4109589999999912,
          "durationTicks": 60,
          "midi": 48,
          "name": "C3",
          "ticks": 30720,
          "time": 218.16843024999997,
          "velocity": 0.7874015748031497
        },
        {
          "duration": 0.4109590000000196,
          "durationTicks": 60,
          "midi": 55,
          "name": "G3",
          "ticks": 30780,
          "time": 218.57938924999996,
          "velocity": 0.7874015748031497
        },
        {
          "duration": 0.4109589999999912,
          "durationTicks": 60,
          "midi": 60,
          "name": "C4",
          "ticks": 30840,
          "time": 218.99034824999998,
          "velocity": 0.7874015748031497
        },
        {
          "duration": 0.4109590000000196,
          "durationTicks": 60,
          "midi": 64,
          "name": "E4",
          "ticks": 30900,
          "time": 219.40130724999997,
          "velocity": 0.7874015748031497
        },
        {
          "duration": 0.4109589999999912,
          "durationTicks": 60,
          "midi": 43,
          "name": "G2",
          "ticks": 30960,
          "time": 219.81226625,
          "velocity": 0.7874015748031497
        },
        {
          "duration": 0.4109589999999912,
          "durationTicks": 60,
          "midi": 55,
          "name": "G3",
          "ticks": 31020,
          "time": 220.22322524999998,
          "velocity": 0.7874015748031497
        },
        {
          "duration": 0.4109589999999912,
          "durationTicks": 60,
          "midi": 59,
          "name": "B3",
          "ticks": 31080,
          "time": 220.63418424999998,
          "velocity": 0.7874015748031497
        },
        {
          "duration": 0.4109589999999912,
          "durationTicks": 60,
          "midi": 62,
          "name": "D4",
          "ticks": 31140,
          "time": 221.04514324999997,
          "velocity": 0.7874015748031497
        },
        {
          "duration": 0.4109590000000196,
          "durationTicks": 60,
          "midi": 45,
          "name": "A2",
          "ticks": 31200,
          "time": 221.45610224999996,
          "velocity": 0.7874015748031497
        },
        {
          "duration": 0.4109590000000196,
          "durationTicks": 60,
          "midi": 52,
          "name": "E3",
          "ticks": 31260,
          "time": 221.86706124999998,
          "velocity": 0.7874015748031497
        },
        {
          "duration": 0.4109589999999912,
          "durationTicks": 60,
          "midi": 57,
          "name": "A3",
          "ticks": 31320,
          "time": 222.27802025,
          "velocity": 0.7874015748031497
        },
        {
          "duration": 0.4109589999999912,
          "durationTicks": 60,
          "midi": 60,
          "name": "C4",
          "ticks": 31380,
          "time": 222.68897925,
          "velocity": 0.7874015748031497
        },
        {
          "duration": 0.4109589999999912,
          "durationTicks": 60,
          "midi": 40,
          "name": "E2",
          "ticks": 31440,
          "time": 223.09993824999998,
          "velocity": 0.7874015748031497
        },
        {
          "duration": 0.4109589999999912,
          "durationTicks": 60,
          "midi": 52,
          "name": "E3",
          "ticks": 31500,
          "time": 223.51089724999997,
          "velocity": 0.7874015748031497
        },
        {
          "duration": 0.4109590000000196,
          "durationTicks": 60,
          "midi": 55,
          "name": "G3",
          "ticks": 31560,
          "time": 223.92185624999996,
          "velocity": 0.7874015748031497
        },
        {
          "duration": 0.4109589999999912,
          "durationTicks": 60,
          "midi": 59,
          "name": "B3",
          "ticks": 31620,
          "time": 224.33281524999998,
          "velocity": 0.7874015748031497
        },
        {
          "duration": 0.4109590000000196,
          "durationTicks": 60,
          "midi": 41,
          "name": "F2",
          "ticks": 31680,
          "time": 224.74377424999997,
          "velocity": 0.7874015748031497
        },
        {
          "duration": 0.4109589999999912,
          "durationTicks": 60,
          "midi": 53,
          "name": "F3",
          "ticks": 31740,
          "time": 225.15473325,
          "velocity": 0.7874015748031497
        },
        {
          "duration": 0.4109589999999912,
          "durationTicks": 60,
          "midi": 57,
          "name": "A3",
          "ticks": 31800,
          "time": 225.56569224999998,
          "velocity": 0.7874015748031497
        },
        {
          "duration": 0.4109589999999912,
          "durationTicks": 60,
          "midi": 60,
          "name": "C4",
          "ticks": 31860,
          "time": 225.97665124999997,
          "velocity": 0.7874015748031497
        },
        {
          "duration": 0.4109589999999912,
          "durationTicks": 60,
          "midi": 36,
          "name": "C2",
          "ticks": 31920,
          "time": 226.38761024999997,
          "velocity": 0.7874015748031497
        },
        {
          "duration": 0.4109589999999912,
          "durationTicks": 60,
          "midi": 48,
          "name": "C3",
          "ticks": 31920,
          "time": 226.38761024999997,
          "velocity": 0.7874015748031497
        },
        {
          "duration": 0.4109590000000196,
          "durationTicks": 60,
          "midi": 52,
          "name": "E3",
          "ticks": 31980,
          "time": 226.79856924999996,
          "velocity": 0.7874015748031497
        },
        {
          "duration": 0.4109590000000196,
          "durationTicks": 60,
          "midi": 55,
          "name": "G3",
          "ticks": 32040,
          "time": 227.20952824999998,
          "velocity": 0.7874015748031497
        },
        {
          "duration": 0.4109589999999912,
          "durationTicks": 60,
          "midi": 60,
          "name": "C4",
          "ticks": 32100,
          "time": 227.62048725,
          "velocity": 0.7874015748031497
        },
        {
          "duration": 0.4109589999999912,
          "durationTicks": 60,
          "midi": 41,
          "name": "F2",
          "ticks": 32160,
          "time": 228.03144625,
          "velocity": 0.7874015748031497
        },
        {
          "duration": 0.4109589999999912,
          "durationTicks": 60,
          "midi": 53,
          "name": "F3",
          "ticks": 32220,
          "time": 228.44240524999998,
          "velocity": 0.7874015748031497
        },
        {
          "duration": 0.4109589999999912,
          "durationTicks": 60,
          "midi": 57,
          "name": "A3",
          "ticks": 32280,
          "time": 228.85336424999997,
          "velocity": 0.7874015748031497
        },
        {
          "duration": 0.4109590000000196,
          "durationTicks": 60,
          "midi": 60,
          "name": "C4",
          "ticks": 32340,
          "time": 229.26432324999996,
          "velocity": 0.7874015748031497
        },
        {
          "duration": 0.4109589999999912,
          "durationTicks": 60,
          "midi": 43,
          "name": "G2",
          "ticks": 32400,
          "time": 229.67528224999998,
          "velocity": 0.7874015748031497
        },
        {
          "duration": 0.4109590000000196,
          "durationTicks": 60,
          "midi": 55,
          "name": "G3",
          "ticks": 32460,
          "time": 230.08624124999997,
          "velocity": 0.7874015748031497
        },
        {
          "duration": 0.4109589999999912,
          "durationTicks": 60,
          "midi": 59,
          "name": "B3",
          "ticks": 32520,
          "time": 230.49720025,
          "velocity": 0.7874015748031497
        },
        {
          "duration": 0.4109589999999912,
          "durationTicks": 60,
          "midi": 62,
          "name": "D4",
          "ticks": 32580,
          "time": 230.90815924999998,
          "velocity": 0.7874015748031497
        },
        {
          "duration": 0.4109589999999912,
          "durationTicks": 60,
          "midi": 36,
          "name": "C2",
          "ticks": 32640,
          "time": 231.31911824999997,
          "velocity": 0.7874015748031497
        },
        {
          "duration": 0.4109589999999912,
          "durationTicks": 60,
          "midi": 48,
          "name": "C3",
          "ticks": 32640,
          "time": 231.31911824999997,
          "velocity": 0.7874015748031497
        },
        {
          "duration": 0.4109589999999912,
          "durationTicks": 60,
          "midi": 55,
          "name": "G3",
          "ticks": 32700,
          "time": 231.73007724999997,
          "velocity": 0.7874015748031497
        },
        {
          "duration": 0.4109590000000196,
          "durationTicks": 60,
          "midi": 60,
          "name": "C4",
          "ticks": 32760,
          "time": 232.14103624999996,
          "velocity": 0.7874015748031497
        },
        {
          "duration": 0.4109589999999912,
          "durationTicks": 60,
          "midi": 64,
          "name": "E4",
          "ticks": 32820,
          "time": 232.55199524999998,
          "velocity": 0.7874015748031497
        },
        {
          "duration": 0.4109590000000196,
          "durationTicks": 60,
          "midi": 43,
          "name": "G2",
          "ticks": 32880,
          "time": 232.96295424999997,
          "velocity": 0.7874015748031497
        },
        {
          "duration": 0.4109589999999912,
          "durationTicks": 60,
          "midi": 55,
          "name": "G3",
          "ticks": 32940,
          "time": 233.37391325,
          "velocity": 0.7874015748031497
        },
        {
          "duration": 0.4109589999999912,
          "durationTicks": 60,
          "midi": 59,
          "name": "B3",
          "ticks": 33000,
          "time": 233.78487224999998,
          "velocity": 0.7874015748031497
        },
        {
          "duration": 0.4109590000000196,
          "durationTicks": 60,
          "midi": 62,
          "name": "D4",
          "ticks": 33060,
          "time": 234.19583124999997,
          "velocity": 0.7874015748031497
        },
        {
          "duration": 0.4109589999999912,
          "durationTicks": 60,
          "midi": 45,
          "name": "A2",
          "ticks": 33120,
          "time": 234.60679025,
          "velocity": 0.7874015748031497
        },
        {
          "duration": 0.4109589999999912,
          "durationTicks": 60,
          "midi": 52,
          "name": "E3",
          "ticks": 33180,
          "time": 235.01774924999998,
          "velocity": 0.7874015748031497
        },
        {
          "duration": 0.4109589999999912,
          "durationTicks": 60,
          "midi": 57,
          "name": "A3",
          "ticks": 33240,
          "time": 235.42870824999997,
          "velocity": 0.7874015748031497
        },
        {
          "duration": 0.4109590000000196,
          "durationTicks": 60,
          "midi": 60,
          "name": "C4",
          "ticks": 33300,
          "time": 235.83966724999996,
          "velocity": 0.7874015748031497
        },
        {
          "duration": 0.4109589999999912,
          "durationTicks": 60,
          "midi": 40,
          "name": "E2",
          "ticks": 33360,
          "time": 236.25062624999998,
          "velocity": 0.7874015748031497
        },
        {
          "duration": 0.4109589999999912,
          "durationTicks": 60,
          "midi": 52,
          "name": "E3",
          "ticks": 33420,
          "time": 236.66158524999997,
          "velocity": 0.7874015748031497
        },
        {
          "duration": 0.4109590000000196,
          "durationTicks": 60,
          "midi": 55,
          "name": "G3",
          "ticks": 33480,
          "time": 237.07254424999996,
          "velocity": 0.7874015748031497
        },
        {
          "duration": 0.4109589999999912,
          "durationTicks": 60,
          "midi": 60,
          "name": "C4",
          "ticks": 33540,
          "time": 237.48350324999998,
          "velocity": 0.7874015748031497
        },
        {
          "duration": 0.4109589999999912,
          "durationTicks": 60,
          "midi": 41,
          "name": "F2",
          "ticks": 33600,
          "time": 237.89446224999998,
          "velocity": 0.7874015748031497
        },
        {
          "duration": 0.4109590000000196,
          "durationTicks": 60,
          "midi": 48,
          "name": "C3",
          "ticks": 33660,
          "time": 238.30542124999997,
          "velocity": 0.7874015748031497
        },
        {
          "duration": 0.4109589999999912,
          "durationTicks": 60,
          "midi": 53,
          "name": "F3",
          "ticks": 33720,
          "time": 238.71638025,
          "velocity": 0.7874015748031497
        },
        {
          "duration": 0.4109589999999912,
          "durationTicks": 60,
          "midi": 57,
          "name": "A3",
          "ticks": 33780,
          "time": 239.12733924999998,
          "velocity": 0.7874015748031497
        },
        {
          "duration": 0.4109590000000196,
          "durationTicks": 60,
          "midi": 36,
          "name": "C2",
          "ticks": 33840,
          "time": 239.53829824999997,
          "velocity": 0.7874015748031497
        },
        {
          "duration": 0.4109590000000196,
          "durationTicks": 60,
          "midi": 48,
          "name": "C3",
          "ticks": 33840,
          "time": 239.53829824999997,
          "velocity": 0.7874015748031497
        },
        {
          "duration": 0.4109589999999912,
          "durationTicks": 60,
          "midi": 52,
          "name": "E3",
          "ticks": 33900,
          "time": 239.94925725,
          "velocity": 0.7874015748031497
        },
        {
          "duration": 0.4109589999999912,
          "durationTicks": 60,
          "midi": 55,
          "name": "G3",
          "ticks": 33960,
          "time": 240.36021624999998,
          "velocity": 0.7874015748031497
        },
        {
          "duration": 0.4109589999999912,
          "durationTicks": 60,
          "midi": 60,
          "name": "C4",
          "ticks": 34020,
          "time": 240.77117524999997,
          "velocity": 0.7874015748031497
        },
        {
          "duration": 0.4109590000000196,
          "durationTicks": 60,
          "midi": 41,
          "name": "F2",
          "ticks": 34080,
          "time": 241.18213424999996,
          "velocity": 0.7874015748031497
        },
        {
          "duration": 0.4109589999999912,
          "durationTicks": 60,
          "midi": 50,
          "name": "D3",
          "ticks": 34140,
          "time": 241.59309324999998,
          "velocity": 0.7874015748031497
        },
        {
          "duration": 0.4109589999999912,
          "durationTicks": 60,
          "midi": 57,
          "name": "A3",
          "ticks": 34200,
          "time": 242.00405224999997,
          "velocity": 0.7874015748031497
        },
        {
          "duration": 0.4109590000000196,
          "durationTicks": 60,
          "midi": 60,
          "name": "C4",
          "ticks": 34260,
          "time": 242.41501124999996,
          "velocity": 0.7874015748031497
        },
        {
          "duration": 0.4109589999999912,
          "durationTicks": 60,
          "midi": 43,
          "name": "G2",
          "ticks": 34320,
          "time": 242.82597024999998,
          "velocity": 0.7874015748031497
        },
        {
          "duration": 0.4109589999999912,
          "durationTicks": 60,
          "midi": 50,
          "name": "D3",
          "ticks": 34380,
          "time": 243.23692924999997,
          "velocity": 0.7874015748031497
        },
        {
          "duration": 0.4109590000000196,
          "durationTicks": 60,
          "midi": 55,
          "name": "G3",
          "ticks": 34440,
          "time": 243.64788824999997,
          "velocity": 0.7874015748031497
        },
        {
          "duration": 0.4109589999999912,
          "durationTicks": 60,
          "midi": 59,
          "name": "B3",
          "ticks": 34500,
          "time": 244.05884724999999,
          "velocity": 0.7874015748031497
        },
        {
          "duration": 0.4109589999999912,
          "durationTicks": 60,
          "midi": 36,
          "name": "C2",
          "ticks": 34560,
          "time": 244.46980624999998,
          "velocity": 0.7874015748031497
        },
        {
          "duration": 0.4109589999999912,
          "durationTicks": 60,
          "midi": 48,
          "name": "C3",
          "ticks": 34560,
          "time": 244.46980624999998,
          "velocity": 0.7874015748031497
        },
        {
          "duration": 0.4109590000000196,
          "durationTicks": 60,
          "midi": 55,
          "name": "G3",
          "ticks": 34620,
          "time": 244.88076524999997,
          "velocity": 0.7874015748031497
        },
        {
          "duration": 0.4109589999999912,
          "durationTicks": 60,
          "midi": 60,
          "name": "C4",
          "ticks": 34680,
          "time": 245.29172425,
          "velocity": 0.7874015748031497
        },
        {
          "duration": 0.4109589999999912,
          "durationTicks": 60,
          "midi": 64,
          "name": "E4",
          "ticks": 34740,
          "time": 245.70268324999998,
          "velocity": 0.7874015748031497
        },
        {
          "duration": 0.4109589999999912,
          "durationTicks": 60,
          "midi": 43,
          "name": "G2",
          "ticks": 34800,
          "time": 246.11364224999997,
          "velocity": 0.7874015748031497
        },
        {
          "duration": 0.4109590000000196,
          "durationTicks": 60,
          "midi": 55,
          "name": "G3",
          "ticks": 34860,
          "time": 246.52460124999996,
          "velocity": 0.7874015748031497
        },
        {
          "duration": 0.4109589999999912,
          "durationTicks": 60,
          "midi": 59,
          "name": "B3",
          "ticks": 34920,
          "time": 246.93556024999998,
          "velocity": 0.7874015748031497
        },
        {
          "duration": 0.4109589999999912,
          "durationTicks": 60,
          "midi": 62,
          "name": "D4",
          "ticks": 34980,
          "time": 247.34651924999997,
          "velocity": 0.7874015748031497
        },
        {
          "duration": 0.4109590000000196,
          "durationTicks": 60,
          "midi": 45,
          "name": "A2",
          "ticks": 35040,
          "time": 247.75747824999996,
          "velocity": 0.7874015748031497
        },
        {
          "duration": 0.4109589999999912,
          "durationTicks": 60,
          "midi": 52,
          "name": "E3",
          "ticks": 35100,
          "time": 248.16843724999998,
          "velocity": 0.7874015748031497
        },
        {
          "duration": 0.4109589999999912,
          "durationTicks": 60,
          "midi": 57,
          "name": "A3",
          "ticks": 35160,
          "time": 248.57939624999997,
          "velocity": 0.7874015748031497
        },
        {
          "duration": 0.4109590000000196,
          "durationTicks": 60,
          "midi": 60,
          "name": "C4",
          "ticks": 35220,
          "time": 248.99035524999996,
          "velocity": 0.7874015748031497
        },
        {
          "duration": 0.4109589999999912,
          "durationTicks": 60,
          "midi": 40,
          "name": "E2",
          "ticks": 35280,
          "time": 249.40131424999998,
          "velocity": 0.7874015748031497
        },
        {
          "duration": 0.4109589999999912,
          "durationTicks": 60,
          "midi": 52,
          "name": "E3",
          "ticks": 35340,
          "time": 249.81227324999998,
          "velocity": 0.7874015748031497
        },
        {
          "duration": 0.4109590000000196,
          "durationTicks": 60,
          "midi": 55,
          "name": "G3",
          "ticks": 35400,
          "time": 250.22323224999997,
          "velocity": 0.7874015748031497
        },
        {
          "duration": 0.4109589999999912,
          "durationTicks": 60,
          "midi": 59,
          "name": "B3",
          "ticks": 35460,
          "time": 250.63419125,
          "velocity": 0.7874015748031497
        },
        {
          "duration": 0.4109589999999912,
          "durationTicks": 60,
          "midi": 41,
          "name": "F2",
          "ticks": 35520,
          "time": 251.04515024999998,
          "velocity": 0.7874015748031497
        },
        {
          "duration": 0.4109589999999912,
          "durationTicks": 60,
          "midi": 48,
          "name": "C3",
          "ticks": 35580,
          "time": 251.45610924999997,
          "velocity": 0.7874015748031497
        },
        {
          "duration": 0.4109590000000196,
          "durationTicks": 60,
          "midi": 53,
          "name": "F3",
          "ticks": 35640,
          "time": 251.86706824999996,
          "velocity": 0.7874015748031497
        },
        {
          "duration": 0.4109589999999912,
          "durationTicks": 60,
          "midi": 57,
          "name": "A3",
          "ticks": 35700,
          "time": 252.27802724999998,
          "velocity": 0.7874015748031497
        },
        {
          "duration": 0.4109589999999912,
          "durationTicks": 60,
          "midi": 36,
          "name": "C2",
          "ticks": 35760,
          "time": 252.68898624999997,
          "velocity": 0.7874015748031497
        },
        {
          "duration": 0.4109589999999912,
          "durationTicks": 60,
          "midi": 48,
          "name": "C3",
          "ticks": 35760,
          "time": 252.68898624999997,
          "velocity": 0.7874015748031497
        },
        {
          "duration": 0.4109590000000196,
          "durationTicks": 60,
          "midi": 52,
          "name": "E3",
          "ticks": 35820,
          "time": 253.09994524999996,
          "velocity": 0.7874015748031497
        },
        {
          "duration": 0.4109589999999912,
          "durationTicks": 60,
          "midi": 55,
          "name": "G3",
          "ticks": 35880,
          "time": 253.51090424999998,
          "velocity": 0.7874015748031497
        },
        {
          "duration": 0.4109589999999912,
          "durationTicks": 60,
          "midi": 60,
          "name": "C4",
          "ticks": 35940,
          "time": 253.92186324999997,
          "velocity": 0.7874015748031497
        },
        {
          "duration": 0.4109590000000196,
          "durationTicks": 60,
          "midi": 41,
          "name": "F2",
          "ticks": 36000,
          "time": 254.33282224999996,
          "velocity": 0.7874015748031497
        },
        {
          "duration": 0.4109589999999912,
          "durationTicks": 60,
          "midi": 53,
          "name": "F3",
          "ticks": 36060,
          "time": 254.74378124999998,
          "velocity": 0.7874015748031497
        },
        {
          "duration": 0.4109589999999912,
          "durationTicks": 60,
          "midi": 57,
          "name": "A3",
          "ticks": 36120,
          "time": 255.15474024999997,
          "velocity": 0.7874015748031497
        },
        {
          "duration": 0.4109590000000196,
          "durationTicks": 60,
          "midi": 60,
          "name": "C4",
          "ticks": 36180,
          "time": 255.56569924999997,
          "velocity": 0.7874015748031497
        },
        {
          "duration": 0.41095899999996277,
          "durationTicks": 60,
          "midi": 43,
          "name": "G2",
          "ticks": 36240,
          "time": 255.97665824999999,
          "velocity": 0.7874015748031497
        },
        {
          "duration": 0.41095900000004804,
          "durationTicks": 60,
          "midi": 50,
          "name": "D3",
          "ticks": 36300,
          "time": 256.38761724999995,
          "velocity": 0.7874015748031497
        },
        {
          "duration": 0.41095899999993435,
          "durationTicks": 60,
          "midi": 55,
          "name": "G3",
          "ticks": 36360,
          "time": 256.79857625,
          "velocity": 0.7874015748031497
        },
        {
          "duration": 0.41095900000004804,
          "durationTicks": 60,
          "midi": 59,
          "name": "B3",
          "ticks": 36420,
          "time": 257.20953524999993,
          "velocity": 0.7874015748031497
        },
        {
          "duration": 0.4109589999999912,
          "durationTicks": 60,
          "midi": 36,
          "name": "C2",
          "ticks": 36480,
          "time": 257.62049425,
          "velocity": 0.7874015748031497
        },
        {
          "duration": 0.4109589999999912,
          "durationTicks": 60,
          "midi": 48,
          "name": "C3",
          "ticks": 36480,
          "time": 257.62049425,
          "velocity": 0.7874015748031497
        },
        {
          "duration": 0.4109589999999912,
          "durationTicks": 60,
          "midi": 55,
          "name": "G3",
          "ticks": 36540,
          "time": 258.03145324999997,
          "velocity": 0.7874015748031497
        },
        {
          "duration": 0.41095900000004804,
          "durationTicks": 60,
          "midi": 60,
          "name": "C4",
          "ticks": 36600,
          "time": 258.44241224999996,
          "velocity": 0.7874015748031497
        },
        {
          "duration": 0.41095899999993435,
          "durationTicks": 60,
          "midi": 64,
          "name": "E4",
          "ticks": 36660,
          "time": 258.85337125,
          "velocity": 0.7874015748031497
        },
        {
          "duration": 0.41095900000004804,
          "durationTicks": 60,
          "midi": 43,
          "name": "G2",
          "ticks": 36720,
          "time": 259.26433024999994,
          "velocity": 0.7874015748031497
        },
        {
          "duration": 0.4109589999999912,
          "durationTicks": 60,
          "midi": 55,
          "name": "G3",
          "ticks": 36780,
          "time": 259.67528925,
          "velocity": 0.7874015748031497
        },
        {
          "duration": 0.4109589999999912,
          "durationTicks": 60,
          "midi": 59,
          "name": "B3",
          "ticks": 36840,
          "time": 260.08624825,
          "velocity": 0.7874015748031497
        },
        {
          "duration": 0.4109589999999912,
          "durationTicks": 60,
          "midi": 62,
          "name": "D4",
          "ticks": 36900,
          "time": 260.49720725,
          "velocity": 0.7874015748031497
        },
        {
          "duration": 0.4109589999999912,
          "durationTicks": 60,
          "midi": 45,
          "name": "A2",
          "ticks": 36960,
          "time": 260.90816624999997,
          "velocity": 0.7874015748031497
        },
        {
          "duration": 0.41095900000004804,
          "durationTicks": 60,
          "midi": 52,
          "name": "E3",
          "ticks": 37020,
          "time": 261.31912524999996,
          "velocity": 0.7874015748031497
        },
        {
          "duration": 0.41095899999993435,
          "durationTicks": 60,
          "midi": 57,
          "name": "A3",
          "ticks": 37080,
          "time": 261.73008425,
          "velocity": 0.7874015748031497
        },
        {
          "duration": 0.41095900000004804,
          "durationTicks": 60,
          "midi": 60,
          "name": "C4",
          "ticks": 37140,
          "time": 262.14104324999994,
          "velocity": 0.7874015748031497
        },
        {
          "duration": 0.4109589999999912,
          "durationTicks": 60,
          "midi": 40,
          "name": "E2",
          "ticks": 37200,
          "time": 262.55200225,
          "velocity": 0.7874015748031497
        },
        {
          "duration": 0.4109589999999912,
          "durationTicks": 60,
          "midi": 52,
          "name": "E3",
          "ticks": 37260,
          "time": 262.96296125,
          "velocity": 0.7874015748031497
        },
        {
          "duration": 0.4109589999999912,
          "durationTicks": 60,
          "midi": 55,
          "name": "G3",
          "ticks": 37320,
          "time": 263.37392024999997,
          "velocity": 0.7874015748031497
        },
        {
          "duration": 0.4109589999999912,
          "durationTicks": 60,
          "midi": 60,
          "name": "C4",
          "ticks": 37380,
          "time": 263.78487924999996,
          "velocity": 0.7874015748031497
        },
        {
          "duration": 0.41095900000004804,
          "durationTicks": 60,
          "midi": 41,
          "name": "F2",
          "ticks": 37440,
          "time": 264.19583824999995,
          "velocity": 0.7874015748031497
        },
        {
          "duration": 0.41095899999993435,
          "durationTicks": 60,
          "midi": 53,
          "name": "F3",
          "ticks": 37500,
          "time": 264.60679725,
          "velocity": 0.7874015748031497
        },
        {
          "duration": 0.41095900000004804,
          "durationTicks": 60,
          "midi": 57,
          "name": "A3",
          "ticks": 37560,
          "time": 265.01775624999993,
          "velocity": 0.7874015748031497
        },
        {
          "duration": 0.4109589999999912,
          "durationTicks": 60,
          "midi": 60,
          "name": "C4",
          "ticks": 37620,
          "time": 265.42871525,
          "velocity": 0.7874015748031497
        },
        {
          "duration": 0.4109589999999912,
          "durationTicks": 60,
          "midi": 36,
          "name": "C2",
          "ticks": 37680,
          "time": 265.83967425,
          "velocity": 0.7874015748031497
        },
        {
          "duration": 0.4109589999999912,
          "durationTicks": 60,
          "midi": 48,
          "name": "C3",
          "ticks": 37680,
          "time": 265.83967425,
          "velocity": 0.7874015748031497
        },
        {
          "duration": 0.41095900000004804,
          "durationTicks": 60,
          "midi": 52,
          "name": "E3",
          "ticks": 37740,
          "time": 266.25063324999996,
          "velocity": 0.7874015748031497
        },
        {
          "duration": 0.41095899999993435,
          "durationTicks": 60,
          "midi": 55,
          "name": "G3",
          "ticks": 37800,
          "time": 266.66159225,
          "velocity": 0.7874015748031497
        },
        {
          "duration": 0.41095900000004804,
          "durationTicks": 60,
          "midi": 60,
          "name": "C4",
          "ticks": 37860,
          "time": 267.07255124999995,
          "velocity": 0.7874015748031497
        },
        {
          "duration": 0.4109589999999912,
          "durationTicks": 60,
          "midi": 41,
          "name": "F2",
          "ticks": 37920,
          "time": 267.48351025,
          "velocity": 0.7874015748031497
        },
        {
          "duration": 0.4109589999999912,
          "durationTicks": 60,
          "midi": 53,
          "name": "F3",
          "ticks": 37980,
          "time": 267.89446925,
          "velocity": 0.7874015748031497
        },
        {
          "duration": 0.4109589999999912,
          "durationTicks": 60,
          "midi": 57,
          "name": "A3",
          "ticks": 38040,
          "time": 268.30542825,
          "velocity": 0.7874015748031497
        },
        {
          "duration": 0.4109589999999912,
          "durationTicks": 60,
          "midi": 60,
          "name": "C4",
          "ticks": 38100,
          "time": 268.71638724999997,
          "velocity": 0.7874015748031497
        },
        {
          "duration": 0.41095900000004804,
          "durationTicks": 60,
          "midi": 38,
          "name": "D2",
          "ticks": 38160,
          "time": 269.12734624999996,
          "velocity": 0.7874015748031497
        },
        {
          "duration": 0.41095899999993435,
          "durationTicks": 60,
          "midi": 50,
          "name": "D3",
          "ticks": 38220,
          "time": 269.53830525,
          "velocity": 0.7874015748031497
        },
        {
          "duration": 0.41095900000004804,
          "durationTicks": 60,
          "midi": 55,
          "name": "G3",
          "ticks": 38280,
          "time": 269.94926424999994,
          "velocity": 0.7874015748031497
        },
        {
          "duration": 0.4109589999999912,
          "durationTicks": 60,
          "midi": 59,
          "name": "B3",
          "ticks": 38340,
          "time": 270.36022325,
          "velocity": 0.7874015748031497
        },
        {
          "duration": 0.4109589999999912,
          "durationTicks": 60,
          "midi": 36,
          "name": "C2",
          "ticks": 38400,
          "time": 270.77118225,
          "velocity": 0.7874015748031497
        },
        {
          "duration": 0.4109589999999912,
          "durationTicks": 60,
          "midi": 48,
          "name": "C3",
          "ticks": 38400,
          "time": 270.77118225,
          "velocity": 0.7874015748031497
        },
        {
          "duration": 0.4109589999999912,
          "durationTicks": 60,
          "midi": 55,
          "name": "G3",
          "ticks": 38460,
          "time": 271.18214125,
          "velocity": 0.7874015748031497
        },
        {
          "duration": 0.4109589999999912,
          "durationTicks": 60,
          "midi": 60,
          "name": "C4",
          "ticks": 38520,
          "time": 271.59310024999996,
          "velocity": 0.7874015748031497
        },
        {
          "duration": 0.41095900000004804,
          "durationTicks": 60,
          "midi": 64,
          "name": "E4",
          "ticks": 38580,
          "time": 272.00405924999995,
          "velocity": 0.7874015748031497
        },
        {
          "duration": 0.41095899999993435,
          "durationTicks": 60,
          "midi": 43,
          "name": "G2",
          "ticks": 38640,
          "time": 272.41501825,
          "velocity": 0.7874015748031497
        },
        {
          "duration": 0.41095900000004804,
          "durationTicks": 60,
          "midi": 50,
          "name": "D3",
          "ticks": 38700,
          "time": 272.82597724999994,
          "velocity": 0.7874015748031497
        },
        {
          "duration": 0.4109589999999912,
          "durationTicks": 60,
          "midi": 55,
          "name": "G3",
          "ticks": 38760,
          "time": 273.23693625,
          "velocity": 0.7874015748031497
        },
        {
          "duration": 0.4109589999999912,
          "durationTicks": 60,
          "midi": 59,
          "name": "B3",
          "ticks": 38820,
          "time": 273.64789525,
          "velocity": 0.7874015748031497
        },
        {
          "duration": 0.4109589999999912,
          "durationTicks": 60,
          "midi": 45,
          "name": "A2",
          "ticks": 38880,
          "time": 274.05885424999997,
          "velocity": 0.7874015748031497
        },
        {
          "duration": 0.4109589999999912,
          "durationTicks": 60,
          "midi": 52,
          "name": "E3",
          "ticks": 38940,
          "time": 274.46981324999996,
          "velocity": 0.7874015748031497
        },
        {
          "duration": 0.41095900000004804,
          "durationTicks": 60,
          "midi": 57,
          "name": "A3",
          "ticks": 39000,
          "time": 274.88077224999995,
          "velocity": 0.7874015748031497
        },
        {
          "duration": 0.41095899999993435,
          "durationTicks": 60,
          "midi": 60,
          "name": "C4",
          "ticks": 39060,
          "time": 275.29173125,
          "velocity": 0.7874015748031497
        },
        {
          "duration": 0.41095900000004804,
          "durationTicks": 60,
          "midi": 40,
          "name": "E2",
          "ticks": 39120,
          "time": 275.70269024999993,
          "velocity": 0.7874015748031497
        },
        {
          "duration": 0.4109589999999912,
          "durationTicks": 60,
          "midi": 52,
          "name": "E3",
          "ticks": 39180,
          "time": 276.11364925,
          "velocity": 0.7874015748031497
        },
        {
          "duration": 0.4109589999999912,
          "durationTicks": 60,
          "midi": 55,
          "name": "G3",
          "ticks": 39240,
          "time": 276.52460824999997,
          "velocity": 0.7874015748031497
        },
        {
          "duration": 0.41095900000004804,
          "durationTicks": 60,
          "midi": 60,
          "name": "C4",
          "ticks": 39300,
          "time": 276.93556724999996,
          "velocity": 0.7874015748031497
        },
        {
          "duration": 0.41095899999993435,
          "durationTicks": 60,
          "midi": 41,
          "name": "F2",
          "ticks": 39360,
          "time": 277.34652625,
          "velocity": 0.7874015748031497
        },
        {
          "duration": 0.41095900000004804,
          "durationTicks": 60,
          "midi": 53,
          "name": "F3",
          "ticks": 39420,
          "time": 277.75748524999995,
          "velocity": 0.7874015748031497
        },
        {
          "duration": 0.4109589999999912,
          "durationTicks": 60,
          "midi": 57,
          "name": "A3",
          "ticks": 39480,
          "time": 278.16844425,
          "velocity": 0.7874015748031497
        },
        {
          "duration": 0.4109589999999912,
          "durationTicks": 60,
          "midi": 60,
          "name": "C4",
          "ticks": 39540,
          "time": 278.57940325,
          "velocity": 0.7874015748031497
        },
        {
          "duration": 0.4109589999999912,
          "durationTicks": 60,
          "midi": 36,
          "name": "C2",
          "ticks": 39600,
          "time": 278.99036225,
          "velocity": 0.7874015748031497
        },
        {
          "duration": 0.4109589999999912,
          "durationTicks": 60,
          "midi": 48,
          "name": "C3",
          "ticks": 39600,
          "time": 278.99036225,
          "velocity": 0.7874015748031497
        },
        {
          "duration": 0.4109589999999912,
          "durationTicks": 60,
          "midi": 52,
          "name": "E3",
          "ticks": 39660,
          "time": 279.40132124999997,
          "velocity": 0.7874015748031497
        },
        {
          "duration": 0.41095900000004804,
          "durationTicks": 60,
          "midi": 55,
          "name": "G3",
          "ticks": 39720,
          "time": 279.81228024999996,
          "velocity": 0.7874015748031497
        },
        {
          "duration": 0.41095899999993435,
          "durationTicks": 60,
          "midi": 60,
          "name": "C4",
          "ticks": 39780,
          "time": 280.22323925,
          "velocity": 0.7874015748031497
        },
        {
          "duration": 0.41095900000004804,
          "durationTicks": 60,
          "midi": 41,
          "name": "F2",
          "ticks": 39840,
          "time": 280.63419824999994,
          "velocity": 0.7874015748031497
        },
        {
          "duration": 0.4109589999999912,
          "durationTicks": 60,
          "midi": 53,
          "name": "F3",
          "ticks": 39900,
          "time": 281.04515725,
          "velocity": 0.7874015748031497
        },
        {
          "duration": 0.4109589999999912,
          "durationTicks": 60,
          "midi": 57,
          "name": "A3",
          "ticks": 39960,
          "time": 281.45611625,
          "velocity": 0.7874015748031497
        },
        {
          "duration": 0.4109589999999912,
          "durationTicks": 60,
          "midi": 60,
          "name": "C4",
          "ticks": 40020,
          "time": 281.86707524999997,
          "velocity": 0.7874015748031497
        },
        {
          "duration": 0.4109589999999912,
          "durationTicks": 60,
          "midi": 43,
          "name": "G2",
          "ticks": 40080,
          "time": 282.27803424999996,
          "velocity": 0.7874015748031497
        },
        {
          "duration": 0.41095900000004804,
          "durationTicks": 60,
          "midi": 50,
          "name": "D3",
          "ticks": 40140,
          "time": 282.68899324999995,
          "velocity": 0.7874015748031497
        },
        {
          "duration": 0.41095899999993435,
          "durationTicks": 60,
          "midi": 55,
          "name": "G3",
          "ticks": 40200,
          "time": 283.09995225,
          "velocity": 0.7874015748031497
        },
        {
          "duration": 0.41095900000004804,
          "durationTicks": 60,
          "midi": 59,
          "name": "B3",
          "ticks": 40260,
          "time": 283.51091124999994,
          "velocity": 0.7874015748031497
        },
        {
          "duration": 0.4109589999999912,
          "durationTicks": 60,
          "midi": 36,
          "name": "C2",
          "ticks": 40320,
          "time": 283.92187025,
          "velocity": 0.7874015748031497
        },
        {
          "duration": 0.4109589999999912,
          "durationTicks": 60,
          "midi": 48,
          "name": "C3",
          "ticks": 40320,
          "time": 283.92187025,
          "velocity": 0.7874015748031497
        },
        {
          "duration": 0.4109589999999912,
          "durationTicks": 60,
          "midi": 55,
          "name": "G3",
          "ticks": 40380,
          "time": 284.33282925,
          "velocity": 0.7874015748031497
        },
        {
          "duration": 0.4109589999999912,
          "durationTicks": 60,
          "midi": 60,
          "name": "C4",
          "ticks": 40440,
          "time": 284.74378824999997,
          "velocity": 0.7874015748031497
        },
        {
          "duration": 0.4109589999999912,
          "durationTicks": 60,
          "midi": 64,
          "name": "E4",
          "ticks": 40500,
          "time": 285.15474724999996,
          "velocity": 0.7874015748031497
        },
        {
          "duration": 0.41095900000004804,
          "durationTicks": 60,
          "midi": 43,
          "name": "G2",
          "ticks": 40560,
          "time": 285.56570624999995,
          "velocity": 0.7874015748031497
        },
        {
          "duration": 0.41095899999993435,
          "durationTicks": 60,
          "midi": 50,
          "name": "D3",
          "ticks": 40620,
          "time": 285.97666525,
          "velocity": 0.7874015748031497
        },
        {
          "duration": 0.41095900000004804,
          "durationTicks": 60,
          "midi": 55,
          "name": "G3",
          "ticks": 40680,
          "time": 286.38762424999993,
          "velocity": 0.7874015748031497
        },
        {
          "duration": 0.4109589999999912,
          "durationTicks": 60,
          "midi": 59,
          "name": "B3",
          "ticks": 40740,
          "time": 286.79858325,
          "velocity": 0.7874015748031497
        },
        {
          "duration": 0.4109589999999912,
          "durationTicks": 60,
          "midi": 45,
          "name": "A2",
          "ticks": 40800,
          "time": 287.20954224999997,
          "velocity": 0.7874015748031497
        },
        {
          "duration": 0.41095900000004804,
          "durationTicks": 60,
          "midi": 52,
          "name": "E3",
          "ticks": 40860,
          "time": 287.62050124999996,
          "velocity": 0.7874015748031497
        },
        {
          "duration": 0.41095899999993435,
          "durationTicks": 60,
          "midi": 57,
          "name": "A3",
          "ticks": 40920,
          "time": 288.03146025,
          "velocity": 0.7874015748031497
        },
        {
          "duration": 0.41095900000004804,
          "durationTicks": 60,
          "midi": 60,
          "name": "C4",
          "ticks": 40980,
          "time": 288.44241924999994,
          "velocity": 0.7874015748031497
        },
        {
          "duration": 0.4109589999999912,
          "durationTicks": 60,
          "midi": 40,
          "name": "E2",
          "ticks": 41040,
          "time": 288.85337825,
          "velocity": 0.7874015748031497
        },
        {
          "duration": 0.4109589999999912,
          "durationTicks": 60,
          "midi": 52,
          "name": "E3",
          "ticks": 41100,
          "time": 289.26433725,
          "velocity": 0.7874015748031497
        },
        {
          "duration": 0.4109589999999912,
          "durationTicks": 60,
          "midi": 55,
          "name": "G3",
          "ticks": 41160,
          "time": 289.67529625,
          "velocity": 0.7874015748031497
        },
        {
          "duration": 0.4109589999999912,
          "durationTicks": 60,
          "midi": 59,
          "name": "B3",
          "ticks": 41220,
          "time": 290.08625524999997,
          "velocity": 0.7874015748031497
        },
        {
          "duration": 0.41095900000004804,
          "durationTicks": 60,
          "midi": 41,
          "name": "F2",
          "ticks": 41280,
          "time": 290.49721424999996,
          "velocity": 0.7874015748031497
        },
        {
          "duration": 0.41095899999993435,
          "durationTicks": 60,
          "midi": 53,
          "name": "F3",
          "ticks": 41340,
          "time": 290.90817325,
          "velocity": 0.7874015748031497
        },
        {
          "duration": 0.41095900000004804,
          "durationTicks": 60,
          "midi": 57,
          "name": "A3",
          "ticks": 41400,
          "time": 291.31913224999994,
          "velocity": 0.7874015748031497
        },
        {
          "duration": 0.4109589999999912,
          "durationTicks": 60,
          "midi": 60,
          "name": "C4",
          "ticks": 41460,
          "time": 291.73009125,
          "velocity": 0.7874015748031497
        },
        {
          "duration": 0.4109589999999912,
          "durationTicks": 60,
          "midi": 36,
          "name": "C2",
          "ticks": 41520,
          "time": 292.14105025,
          "velocity": 0.7874015748031497
        },
        {
          "duration": 0.4109589999999912,
          "durationTicks": 60,
          "midi": 48,
          "name": "C3",
          "ticks": 41520,
          "time": 292.14105025,
          "velocity": 0.7874015748031497
        },
        {
          "duration": 0.4109589999999912,
          "durationTicks": 60,
          "midi": 52,
          "name": "E3",
          "ticks": 41580,
          "time": 292.55200924999997,
          "velocity": 0.7874015748031497
        },
        {
          "duration": 0.4109589999999912,
          "durationTicks": 60,
          "midi": 55,
          "name": "G3",
          "ticks": 41640,
          "time": 292.96296824999996,
          "velocity": 0.7874015748031497
        },
        {
          "duration": 0.41095900000004804,
          "durationTicks": 60,
          "midi": 60,
          "name": "C4",
          "ticks": 41700,
          "time": 293.37392724999995,
          "velocity": 0.7874015748031497
        },
        {
          "duration": 0.41095899999993435,
          "durationTicks": 60,
          "midi": 41,
          "name": "F2",
          "ticks": 41760,
          "time": 293.78488625,
          "velocity": 0.7874015748031497
        },
        {
          "duration": 0.41095900000004804,
          "durationTicks": 60,
          "midi": 50,
          "name": "D3",
          "ticks": 41820,
          "time": 294.19584524999993,
          "velocity": 0.7874015748031497
        },
        {
          "duration": 0.4109589999999912,
          "durationTicks": 60,
          "midi": 57,
          "name": "A3",
          "ticks": 41880,
          "time": 294.60680425,
          "velocity": 0.7874015748031497
        },
        {
          "duration": 0.4109589999999912,
          "durationTicks": 60,
          "midi": 60,
          "name": "C4",
          "ticks": 41940,
          "time": 295.01776325,
          "velocity": 0.7874015748031497
        },
        {
          "duration": 0.4109589999999912,
          "durationTicks": 60,
          "midi": 43,
          "name": "G2",
          "ticks": 42000,
          "time": 295.42872224999996,
          "velocity": 0.7874015748031497
        },
        {
          "duration": 0.4109589999999912,
          "durationTicks": 60,
          "midi": 50,
          "name": "D3",
          "ticks": 42060,
          "time": 295.83968124999996,
          "velocity": 0.7874015748031497
        },
        {
          "duration": 0.41095900000004804,
          "durationTicks": 60,
          "midi": 55,
          "name": "G3",
          "ticks": 42120,
          "time": 296.25064024999995,
          "velocity": 0.7874015748031497
        },
        {
          "duration": 0.41095899999993435,
          "durationTicks": 60,
          "midi": 59,
          "name": "B3",
          "ticks": 42180,
          "time": 296.66159925,
          "velocity": 0.7874015748031497
        },
        {
          "duration": 0.41095900000004804,
          "durationTicks": 60,
          "midi": 36,
          "name": "C2",
          "ticks": 42240,
          "time": 297.07255824999993,
          "velocity": 0.7874015748031497
        },
        {
          "duration": 0.41095900000004804,
          "durationTicks": 60,
          "midi": 48,
          "name": "C3",
          "ticks": 42240,
          "time": 297.07255824999993,
          "velocity": 0.7874015748031497
        },
        {
          "duration": 0.4109589999999912,
          "durationTicks": 60,
          "midi": 55,
          "name": "G3",
          "ticks": 42300,
          "time": 297.48351725,
          "velocity": 0.7874015748031497
        },
        {
          "duration": 0.4109589999999912,
          "durationTicks": 60,
          "midi": 60,
          "name": "C4",
          "ticks": 42360,
          "time": 297.89447624999997,
          "velocity": 0.7874015748031497
        },
        {
          "duration": 0.41095900000004804,
          "durationTicks": 60,
          "midi": 64,
          "name": "E4",
          "ticks": 42420,
          "time": 298.30543524999996,
          "velocity": 0.7874015748031497
        },
        {
          "duration": 0.41095899999993435,
          "durationTicks": 60,
          "midi": 43,
          "name": "G2",
          "ticks": 42480,
          "time": 298.71639425,
          "velocity": 0.7874015748031497
        },
        {
          "duration": 0.41095900000004804,
          "durationTicks": 60,
          "midi": 50,
          "name": "D3",
          "ticks": 42540,
          "time": 299.12735324999994,
          "velocity": 0.7874015748031497
        },
        {
          "duration": 0.4109589999999912,
          "durationTicks": 60,
          "midi": 55,
          "name": "G3",
          "ticks": 42600,
          "time": 299.53831225,
          "velocity": 0.7874015748031497
        },
        {
          "duration": 0.4109589999999912,
          "durationTicks": 60,
          "midi": 59,
          "name": "B3",
          "ticks": 42660,
          "time": 299.94927125,
          "velocity": 0.7874015748031497
        },
        {
          "duration": 0.4109589999999912,
          "durationTicks": 60,
          "midi": 45,
          "name": "A2",
          "ticks": 42720,
          "time": 300.36023025,
          "velocity": 0.7874015748031497
        },
        {
          "duration": 0.4109589999999912,
          "durationTicks": 60,
          "midi": 52,
          "name": "E3",
          "ticks": 42780,
          "time": 300.77118924999996,
          "velocity": 0.7874015748031497
        },
        {
          "duration": 0.41095900000004804,
          "durationTicks": 60,
          "midi": 57,
          "name": "A3",
          "ticks": 42840,
          "time": 301.18214824999995,
          "velocity": 0.7874015748031497
        },
        {
          "duration": 0.41095899999993435,
          "durationTicks": 60,
          "midi": 60,
          "name": "C4",
          "ticks": 42900,
          "time": 301.59310725,
          "velocity": 0.7874015748031497
        },
        {
          "duration": 0.41095900000004804,
          "durationTicks": 60,
          "midi": 40,
          "name": "E2",
          "ticks": 42960,
          "time": 302.00406624999994,
          "velocity": 0.7874015748031497
        },
        {
          "duration": 0.4109589999999912,
          "durationTicks": 60,
          "midi": 52,
          "name": "E3",
          "ticks": 43020,
          "time": 302.41502525,
          "velocity": 0.7874015748031497
        },
        {
          "duration": 0.4109589999999912,
          "durationTicks": 60,
          "midi": 55,
          "name": "G3",
          "ticks": 43080,
          "time": 302.82598425,
          "velocity": 0.7874015748031497
        },
        {
          "duration": 0.4109589999999912,
          "durationTicks": 60,
          "midi": 59,
          "name": "B3",
          "ticks": 43140,
          "time": 303.23694324999997,
          "velocity": 0.7874015748031497
        },
        {
          "duration": 0.41666650000001937,
          "durationTicks": 60,
          "midi": 41,
          "name": "F2",
          "ticks": 43200,
          "time": 303.64790224999996,
          "velocity": 0.7874015748031497
        },
        {
          "duration": 0.4215569166665887,
          "durationTicks": 60,
          "midi": 53,
          "name": "F3",
          "ticks": 43260,
          "time": 304.06456875,
          "velocity": 0.7874015748031497
        },
        {
          "duration": 0.4265593333333868,
          "durationTicks": 60,
          "midi": 57,
          "name": "A3",
          "ticks": 43320,
          "time": 304.48612566666657,
          "velocity": 0.7874015748031497
        },
        {
          "duration": 0.4316769999999792,
          "durationTicks": 60,
          "midi": 60,
          "name": "C4",
          "ticks": 43380,
          "time": 304.91268499999995,
          "velocity": 0.7874015748031497
        },
        {
          "duration": 0.43691383333333533,
          "durationTicks": 60,
          "midi": 40,
          "name": "E2",
          "ticks": 43440,
          "time": 305.34436199999993,
          "velocity": 0.7874015748031497
        },
        {
          "duration": 0.4422739166666929,
          "durationTicks": 60,
          "midi": 52,
          "name": "E3",
          "ticks": 43500,
          "time": 305.78127583333327,
          "velocity": 0.7874015748031497
        },
        {
          "duration": 0.4477609999999572,
          "durationTicks": 60,
          "midi": 55,
          "name": "G3",
          "ticks": 43560,
          "time": 306.22354974999996,
          "velocity": 0.7874015748031497
        },
        {
          "duration": 0.4545454999999947,
          "durationTicks": 60,
          "midi": 60,
          "name": "C4",
          "ticks": 43620,
          "time": 306.6713107499999,
          "velocity": 0.7874015748031497
        },
        {
          "duration": 0.46037300000000414,
          "durationTicks": 60,
          "midi": 38,
          "name": "D2",
          "ticks": 43680,
          "time": 307.1258562499999,
          "velocity": 0.7874015748031497
        },
        {
          "duration": 0.4663461666666535,
          "durationTicks": 60,
          "midi": 53,
          "name": "F3",
          "ticks": 43740,
          "time": 307.5862292499999,
          "velocity": 0.7874015748031497
        },
        {
          "duration": 0.47247025000001486,
          "durationTicks": 60,
          "midi": 57,
          "name": "A3",
          "ticks": 43800,
          "time": 308.05257541666657,
          "velocity": 0.7874015748031497
        },
        {
          "duration": 0.4787506666666559,
          "durationTicks": 60,
          "midi": 60,
          "name": "C4",
          "ticks": 43860,
          "time": 308.5250456666666,
          "velocity": 0.7874015748031497
        },
        {
          "duration": 0.48519308333334266,
          "durationTicks": 60,
          "midi": 43,
          "name": "G2",
          "ticks": 43920,
          "time": 309.00379633333324,
          "velocity": 0.7874015748031497
        },
        {
          "duration": 0.49180350000000317,
          "durationTicks": 60,
          "midi": 50,
          "name": "D3",
          "ticks": 43980,
          "time": 309.4889894166666,
          "velocity": 0.7874015748031497
        },
        {
          "duration": 0.5,
          "durationTicks": 60,
          "midi": 55,
          "name": "G3",
          "ticks": 44040,
          "time": 309.9807929166666,
          "velocity": 0.7874015748031497
        },
        {
          "duration": 0.6083333333333485,
          "durationTicks": 60,
          "midi": 59,
          "name": "B3",
          "ticks": 44100,
          "time": 310.4807929166666,
          "velocity": 0.7874015748031497
        },
        {
          "duration": 6.168639699999858,
          "durationTicks": 480,
          "midi": 48,
          "name": "C3",
          "ticks": 44160,
          "time": 311.08912624999994,
          "velocity": 0.7086614173228346
        },
        {
          "duration": 6.168639699999858,
          "durationTicks": 480,
          "midi": 55,
          "name": "G3",
          "ticks": 44160,
          "time": 311.08912624999994,
          "velocity": 0.7086614173228346
        }
      ]
    }
  ]
}